<svg width="20" height="20" viewBox="0 0 20 20" fill="none" xmlns="http://www.w3.org/2000/svg">
<path d="M5.55001 3.01875C5.42501 3.14375 5.22501 3.14375 5.10001 3.01875C4.97501 2.89375 4.97501 2.69375 5.10001 2.56875L5.7 1.96875C5.825 1.84375 6.025 1.84375 6.15 1.96875C6.275 2.09375 6.275 2.29375 6.15 2.41875L5.55001 3.01875Z" fill="#635DF5"/>
<path d="M3.41873 2.51251C3.59132 2.51251 3.73123 2.3726 3.73123 2.20001C3.73123 2.02742 3.59132 1.88751 3.41873 1.88751C3.24614 1.88751 3.10623 2.02742 3.10623 2.20001C3.10623 2.3726 3.24614 2.51251 3.41873 2.51251Z" fill="#635DF5"/>
<path d="M4.99374 4.70001C4.99374 4.8726 4.85383 5.01251 4.68124 5.01251C4.50866 5.01251 4.36874 4.8726 4.36874 4.70001C4.36874 4.52742 4.50866 4.38751 4.68124 4.38751C4.85383 4.38751 4.99374 4.52742 4.99374 4.70001Z" fill="#635DF5"/>
<path d="M7.48123 2.82501C7.48123 2.9976 7.34132 3.13751 7.16873 3.13751C6.99614 3.13751 6.85623 2.9976 6.85623 2.82501C6.85623 2.65242 6.99614 2.51251 7.16873 2.51251C7.34132 2.51251 7.48123 2.65242 7.48123 2.82501Z" fill="#635DF5"/>
<path d="M14.9937 5.32501C14.9937 5.4976 14.8538 5.63751 14.6812 5.63751C14.5087 5.63751 14.3687 5.4976 14.3687 5.32501C14.3687 5.15242 14.5087 5.01251 14.6812 5.01251C14.8538 5.01251 14.9937 5.15242 14.9937 5.32501Z" fill="#635DF5"/>
<path d="M18.1062 5.3125C18.1062 5.48509 17.9663 5.625 17.7937 5.625C17.6211 5.625 17.4812 5.48509 17.4812 5.3125C17.4812 5.13991 17.6211 5 17.7937 5C17.9663 5 18.1062 5.13991 18.1062 5.3125Z" fill="#635DF5"/>
<path d="M17.4625 2.20627C17.4625 2.37886 17.3226 2.51877 17.15 2.51877C16.9774 2.51877 16.8375 2.37886 16.8375 2.20627C16.8375 2.03368 16.9774 1.89377 17.15 1.89377C17.3226 1.89377 17.4625 2.03368 17.4625 2.20627Z" fill="#635DF5"/>
<path d="M3.18123 5.51875C3.30623 5.64375 3.50623 5.64375 3.63123 5.51875C3.75623 5.39375 3.75623 5.19375 3.63123 5.06875L3.03124 4.46875C2.90624 4.34375 2.70624 4.34375 2.58124 4.46875C2.45624 4.59375 2.45624 4.79375 2.58124 4.91875L3.18123 5.51875Z" fill="#635DF5"/>
<path d="M13.7937 3.66877C13.9187 3.79377 14.1187 3.79377 14.2437 3.66877C14.3687 3.54377 14.3687 3.34377 14.2437 3.21877L13.6437 2.61877C13.5187 2.49377 13.3187 2.49377 13.1937 2.61877C13.0687 2.74377 13.0687 2.94378 13.1937 3.06878L13.7937 3.66877Z" fill="#635DF5"/>
<path d="M15.6812 4.89375C15.8062 5.01875 16.0062 5.01875 16.1312 4.89375L16.7312 4.29375C16.8562 4.16875 16.8562 3.96875 16.7312 3.84375C16.6062 3.71875 16.4062 3.71875 16.2812 3.84375L15.6812 4.44375C15.5625 4.56875 15.5625 4.76875 15.6812 4.89375Z" fill="#635DF5"/>
<path d="M18.75 18.125V10.6313H1.25V18.125H2.5V15.6197C2.5 14.5851 3.3375 13.75 4.375 13.75C5.40625 13.75 6.25 14.5913 6.25 15.6197V18.125H8.125V14.3708C8.125 13.3356 8.9625 12.5 10 12.5C11.0375 12.5 11.875 13.3356 11.875 14.3708V18.125H13.75V15.6223C13.75 14.5863 14.5875 13.75 15.625 13.75C16.6562 13.75 17.5 14.5926 17.5 15.6223V18.125H18.75Z" fill="#635DF5"/>
<path d="M18.725 10.3063C18.7437 10.3938 18.75 10.4875 18.75 10.5812V10.5875C18.75 10.4938 18.7437 10.4 18.725 10.3125C18.7125 10.2063 18.6875 10.1 18.6563 10.0063H1.34375C1.3 10.1313 1.275 10.2625 1.2625 10.4C1.25626 10.4625 1.25 10.525 1.25 10.5875V10.5812C1.25 10.5188 1.25625 10.4563 1.26249 10.3938C1.27499 10.2563 1.3 10.125 1.34375 10C1.34687 9.99375 1.34843 9.9875 1.35 9.98125C1.35156 9.975 1.35312 9.96875 1.35625 9.9625C1.46304 9.66817 1.64365 9.40857 1.875 9.20588V6.50825C1.875 6.3267 2.10586 6.20775 2.31801 6.26409L3.57217 6.67101C3.80928 6.74614 3.80928 7.01533 3.57217 7.09046L2.5 7.43248V8.8453C2.6831 8.7835 2.87866 8.75 3.08125 8.75H4.375V6.50825C4.375 6.3267 4.60586 6.20775 4.81801 6.26409L6.07217 6.67101C6.30928 6.74614 6.30928 7.01533 6.07217 7.09046L5 7.43249V8.75H7.5V7.5H7.4744C7.14348 7.5 6.875 7.23125 6.875 6.9V4.35C6.875 4.01875 7.14348 3.75 7.4744 3.75H12.5256C12.8565 3.75 13.125 4.01875 13.125 4.35V6.9C13.125 7.23125 12.8565 7.5 12.5256 7.5H12.5V8.75H13.75V6.5042C13.75 6.32064 13.9809 6.20038 14.193 6.27001L15.4472 6.67509C15.6843 6.75104 15.6843 7.01688 15.4472 7.09283L14.375 7.43306V8.75H16.25V6.50731C16.25 6.32559 16.4809 6.20027 16.693 6.2692L17.9472 6.6765C18.1843 6.75796 18.1843 7.02114 17.9472 7.09634L16.875 7.43317V8.75H16.9187C17.7125 8.75 18.3875 9.25625 18.6438 9.9625C18.6469 9.96875 18.6484 9.975 18.65 9.98125C18.6516 9.9875 18.6531 9.99375 18.6563 10C18.6875 10.0938 18.7125 10.2 18.725 10.3063ZM11.875 8.75V7.5H8.125V8.75H11.875ZM7.5 4.6875C7.5 4.8597 7.64026 5 7.8124 5C7.98453 5 8.13118 4.8597 8.1248 4.6875C8.1248 4.51531 7.98453 4.375 7.8124 4.375C7.64026 4.375 7.5 4.51531 7.5 4.6875ZM9.6874 5C9.86591 5 10.0062 4.8597 9.99979 4.6875C9.99979 4.51531 9.85954 4.375 9.6874 4.375C9.51526 4.375 9.375 4.51531 9.375 4.6875C9.375 4.8597 9.51526 5 9.6874 5ZM11.875 6.5625C11.875 6.73469 12.0153 6.875 12.1875 6.875C12.3597 6.875 12.5 6.73469 12.5 6.5625C12.5 6.39031 12.3597 6.25 12.1875 6.25C12.0153 6.25 11.875 6.39031 11.875 6.5625ZM8.48466 6.875C8.63615 6.875 8.75607 6.75505 8.74976 6.60985V5.89015C8.74976 5.74495 8.62984 5.625 8.48466 5.625H7.7651C7.61993 5.625 7.5 5.74495 7.5 5.89015V6.60985C7.5 6.75505 7.61993 6.875 7.7651 6.875H8.48466ZM9.6401 6.875H10.3597C10.5111 6.875 10.6311 6.75685 10.6248 6.61383V5.90494C10.6248 5.76192 10.5048 5.64377 10.3597 5.64377H9.6401C9.49493 5.64377 9.375 5.76192 9.375 5.90494V6.61383C9.375 6.75685 9.49493 6.875 9.6401 6.875ZM12.1907 5C12.3611 5 12.5 4.8597 12.5 4.6875C12.5 4.51531 12.3611 4.375 12.1907 4.375H11.5593C11.3889 4.375 11.25 4.51531 11.25 4.6875C11.25 4.8597 11.3889 5 11.5593 5H12.1907Z" fill="#635DF5"/>
</svg>
