<svg width="21" height="20" viewBox="0 0 21 20" fill="none" xmlns="http://www.w3.org/2000/svg">
<path d="M10.1673 18.122C12.8424 18.2138 15.0416 16.1831 15.0416 13.657C15.0416 9.19201 10.3409 6.25 10.3409 6.25C10.3409 6.25 6.33475 8.75774 5.72386 12.66C5.29945 15.3818 7.28003 18.0241 10.1673 18.122Z" fill="#635DF5"/>
<path d="M9.63936 0.228876C9.89646 0.0798148 10.1882 0.00089007 10.4854 0C10.8517 2.58341e-05 11.2079 0.120358 11.4991 0.3425C13.0635 1.5225 18.1666 5.85625 18.1666 12.0875C18.1766 14.173 17.359 16.1772 15.8931 17.6606C14.4271 19.144 12.4327 19.9853 10.3473 20C10.1904 20 10.0335 19.9956 9.87476 19.9856C8.83414 19.9226 7.81796 19.6441 6.89065 19.1677C5.96334 18.6913 5.14513 18.0274 4.48789 17.2181C3.74277 16.3077 3.192 15.2542 2.86953 14.1228C2.54706 12.9914 2.45972 11.8059 2.61289 10.6394C2.96884 8.20618 3.96926 5.91252 5.51039 3.99625C5.63041 3.83606 5.78608 3.70601 5.96508 3.6164C6.14407 3.5268 6.34147 3.4801 6.54164 3.48C6.83236 3.46924 7.11724 3.56353 7.34414 3.74563C7.88851 2.81687 8.52039 1.72437 9.02039 0.849375C9.16881 0.591908 9.38226 0.377938 9.63936 0.228876ZM10.7466 1.34C10.672 1.28178 10.5801 1.25011 10.4854 1.25C10.4078 1.25041 10.3318 1.27125 10.2648 1.31042C10.1979 1.34959 10.1425 1.40571 10.1041 1.47313C9.39914 2.70563 7.37164 6.21438 7.15289 6.4675C7.14885 6.47292 7.14368 6.4774 7.13775 6.48064C7.13182 6.48387 7.12525 6.48579 7.11851 6.48625C7.02084 6.48625 6.9227 6.03996 6.82535 5.59733C6.7296 5.16189 6.63462 4.73 6.54164 4.73C6.53389 4.73078 6.52645 4.73339 6.51993 4.73763C6.5134 4.74187 6.50799 4.74761 6.50414 4.75437C5.10232 6.50052 4.1876 8.58656 3.85289 10.8006C3.34726 14.7381 6.02976 18.5044 9.94789 18.7381C10.0816 18.746 10.2143 18.75 10.346 18.75C11.2149 18.744 12.0742 18.567 12.8746 18.2289C13.6751 17.8908 14.4012 17.3984 15.0113 16.7797C15.6215 16.161 16.1038 15.4282 16.4307 14.6231C16.7576 13.818 16.9227 12.9564 16.9166 12.0875C16.9166 6.42313 12.1629 2.40875 10.7466 1.34Z" fill="#635DF5"/>
</svg>
