<svg width="21" height="20" viewBox="0 0 21 20" fill="none" xmlns="http://www.w3.org/2000/svg">
<g clip-path="url(#clip0_150_13885)">
<path d="M9.46666 4.87627C10.0528 5.0224 10.4095 5.616 10.2633 6.20212L9.4559 9.44066H10.6429V8.75C10.6429 8.14594 11.1326 7.65625 11.7367 7.65625C12.3408 7.65625 12.8304 8.14594 12.8304 8.75V9.46269C13.3293 9.56432 13.7047 10.0055 13.7047 10.5344C13.7047 11.0633 13.3293 11.5045 12.8304 11.6061V13.9872C12.8304 14.5912 12.3408 15.0809 11.7367 15.0809C11.1326 15.0809 10.6429 14.5912 10.6429 13.9872V11.6282H8.05598C7.7193 11.6282 7.40138 11.4731 7.1941 11.2078C6.98681 10.9425 6.91327 10.5965 6.99472 10.2698L8.1408 5.67294C8.28693 5.08682 8.88054 4.73014 9.46666 4.87627Z" fill="#635DF5"/>
<path d="M4.0835 0.625C2.35761 0.625 0.958496 2.02411 0.958496 3.75V16.25C0.958496 17.9759 2.35761 19.375 4.0835 19.375H16.5835C18.3094 19.375 19.7085 17.9759 19.7085 16.25V3.75C19.7085 2.02411 18.3094 0.625 16.5835 0.625H4.0835ZM2.2085 3.75C2.2085 2.71447 3.04796 1.875 4.0835 1.875H16.5835C17.619 1.875 18.4585 2.71447 18.4585 3.75V16.25C18.4585 17.2855 17.619 18.125 16.5835 18.125H4.0835C3.04796 18.125 2.2085 17.2855 2.2085 16.25V3.75Z" fill="#635DF5"/>
</g>
<defs>
<clipPath id="clip0_150_13885">
<rect width="20" height="20" fill="white" transform="translate(0.333496)"/>
</clipPath>
</defs>
</svg>
