<svg width="21" height="20" viewBox="0 0 21 20" fill="none" xmlns="http://www.w3.org/2000/svg">
<path d="M8.4585 18.75V16.4062C8.4585 15.975 8.8085 15.625 9.23975 15.625H11.4272C11.8585 15.625 12.2147 15.975 12.2147 16.4125V18.75H19.0835V5.8125C19.0835 5.01875 18.4397 4.375 17.646 4.375H16.5835V2.7875C16.5835 1.9375 15.896 1.25 15.046 1.25H5.621C4.771 1.25 4.0835 1.9375 4.0835 2.7875V4.375H3.021C2.22725 4.375 1.5835 5.01875 1.5835 5.8125V18.75H8.4585ZM4.0835 15H3.4585C3.11475 15 2.8335 14.7188 2.8335 14.375V13.75C2.8335 13.4062 3.11475 13.125 3.4585 13.125H4.0835V15ZM4.0835 11.875H3.4585C3.11475 11.875 2.8335 11.5938 2.8335 11.25V10.625C2.8335 10.2812 3.11475 10 3.4585 10H4.0835V11.875ZM4.0835 8.75H3.4585C3.11475 8.75 2.8335 8.46875 2.8335 8.125V7.5C2.8335 7.15625 3.11475 6.875 3.4585 6.875H4.0835V8.75ZM16.5835 6.875H17.2085C17.5522 6.875 17.8335 7.15625 17.8335 7.5V8.125C17.8335 8.475 17.5522 8.75 17.2085 8.75H16.5835V6.875ZM16.5835 10H17.2085C17.5522 10 17.8335 10.2812 17.8335 10.625V11.25C17.8335 11.6 17.5522 11.875 17.2085 11.875H16.5835V10ZM16.5835 13.125H17.2085C17.5522 13.125 17.8335 13.4062 17.8335 13.75V14.375C17.8335 14.725 17.5522 15 17.2085 15H16.5835V13.125ZM7.521 11.25C7.35225 11.25 7.2085 11.1125 7.2085 10.9375V9.68125C7.2085 9.5125 7.346 9.36875 7.521 9.36875H9.40225C9.571 9.36875 9.71475 9.50625 9.71475 9.68125V10.9375C9.7085 11.1125 9.571 11.25 9.396 11.25H7.521ZM13.4585 9.6875V10.9437C13.4585 11.1125 13.321 11.25 13.1522 11.2562H11.271C11.096 11.2562 10.9585 11.1125 10.9585 10.9437V9.6875C10.9585 9.5125 11.1022 9.375 11.271 9.375H13.146C13.321 9.375 13.4585 9.51875 13.4585 9.6875ZM9.7085 12.8125V14.0687C9.7085 14.2375 9.571 14.375 9.40225 14.3812H7.521C7.346 14.3812 7.2085 14.2375 7.2085 14.0687V12.8125C7.2085 12.6375 7.35225 12.5 7.521 12.5H9.396C9.571 12.5 9.7085 12.6437 9.7085 12.8125ZM13.4585 12.8125V14.0687C13.4585 14.2375 13.321 14.375 13.1522 14.3812H11.271C11.096 14.3812 10.9585 14.2375 10.9585 14.0687V12.8125C10.9585 12.6375 11.1022 12.5 11.271 12.5H13.146C13.321 12.5 13.4585 12.6437 13.4585 12.8125ZM9.7085 3.4375V4.69375C9.7085 4.8625 9.571 5 9.40225 5.00625H7.521C7.346 5.00625 7.2085 4.8625 7.2085 4.69375V3.4375C7.2085 3.2625 7.35225 3.125 7.521 3.125H9.396C9.571 3.125 9.7085 3.26875 9.7085 3.4375ZM13.4585 3.4375V4.69375C13.4585 4.8625 13.321 5 13.1522 5.00625H11.271C11.096 5.00625 10.9585 4.8625 10.9585 4.69375V3.4375C10.9585 3.2625 11.1022 3.125 11.271 3.125H13.146C13.321 3.125 13.4585 3.26875 13.4585 3.4375ZM9.7085 6.5625V7.81875C9.7085 7.9875 9.571 8.125 9.40225 8.13125H7.521C7.346 8.13125 7.2085 7.9875 7.2085 7.81875V6.5625C7.2085 6.3875 7.35225 6.25 7.521 6.25H9.396C9.571 6.25 9.7085 6.39375 9.7085 6.5625ZM13.4585 6.5625V7.81875C13.4585 7.9875 13.321 8.125 13.1522 8.13125H11.271C11.096 8.13125 10.9585 7.9875 10.9585 7.81875V6.5625C10.9585 6.3875 11.1022 6.25 11.271 6.25H13.146C13.321 6.25 13.4585 6.39375 13.4585 6.5625Z" fill="#635DF5"/>
</svg>
