<svg width="21" height="20" viewBox="0 0 21 20" fill="none" xmlns="http://www.w3.org/2000/svg">
<path d="M9.60168 12.9355L10.221 10.9545C10.36 10.5157 10.9793 10.5157 11.112 10.9545L11.7313 12.9355C11.8577 13.3367 11.5544 13.7504 11.1247 13.7504H10.2083C9.77863 13.7504 9.47529 13.3429 9.60168 12.9355Z" fill="#635DF5"/>
<path d="M10.6665 14.9351C10.0752 14.9351 9.51928 14.7959 9.05211 14.5523C8.89245 14.4712 8.72095 14.6509 8.82148 14.7959C9.21178 15.3874 9.89183 15.7817 10.6665 15.7817C11.4412 15.7817 12.1212 15.3874 12.5115 14.7959C12.6121 14.6451 12.4406 14.4712 12.2809 14.5523C11.8137 14.7959 11.2638 14.9351 10.6665 14.9351Z" fill="#635DF5"/>
<path d="M13.4526 9.62542C14.2115 9.62542 14.8533 10.1506 15.0322 10.855C15.0816 11.0589 14.9273 11.2504 14.7175 11.2504H14.2177C14.2424 11.1581 14.2548 11.0719 14.2548 10.9734C14.2548 10.3948 13.7858 9.93318 13.2119 9.93318C12.638 9.93318 12.1691 10.3948 12.1752 10.9734C12.1752 11.0719 12.1876 11.1642 12.2123 11.2504H12.1197C11.9531 11.2504 11.8235 11.1021 11.8544 10.9353C12.0024 10.1877 12.6565 9.62542 13.4526 9.62542Z" fill="#635DF5"/>
<path d="M6.30076 10.855C6.47971 10.1506 7.12146 9.62542 7.88045 9.62542C8.6703 9.62542 9.33056 10.1877 9.47865 10.9353C9.50951 11.1021 9.37992 11.2504 9.21331 11.2504H9.12074C9.14542 11.1642 9.15776 11.0719 9.15776 10.9734C9.15776 10.3948 8.69496 9.93318 8.12109 9.93318C7.54722 9.93318 7.07825 10.3948 7.07825 10.9734C7.07825 11.0719 7.09059 11.1581 7.11527 11.2504H6.61547C6.40566 11.2504 6.2514 11.0589 6.30076 10.855Z" fill="#635DF5"/>
<path d="M12.6133 10.9734C12.6133 10.852 12.6501 10.7392 12.713 10.6453C12.7404 10.7143 12.807 10.7629 12.8849 10.7629C12.9871 10.7629 13.07 10.679 13.07 10.5754C13.07 10.5122 13.0391 10.4562 12.9917 10.4223C13.0581 10.3966 13.1303 10.3825 13.2057 10.3825C13.5328 10.3825 13.7981 10.6472 13.7981 10.9734C13.7981 11.0719 13.7734 11.1642 13.7302 11.2504H12.6812C12.638 11.1642 12.6133 11.0719 12.6133 10.9734Z" fill="#635DF5"/>
<path d="M8.12111 10.3825C8.44815 10.3825 8.71349 10.6472 8.71349 10.9734C8.71349 11.0719 8.68881 11.1642 8.64561 11.2504H7.5966C7.55341 11.1642 7.52872 11.0719 7.52872 10.9734C7.52872 10.8658 7.55763 10.7648 7.60811 10.6778C7.64116 10.7291 7.69828 10.7629 7.76321 10.7629C7.86545 10.7629 7.94833 10.679 7.94833 10.5754C7.94833 10.518 7.92289 10.4667 7.88282 10.4323C7.95574 10.4003 8.03635 10.3825 8.12111 10.3825Z" fill="#635DF5"/>
<path d="M6.18635 9.08803C6.40586 9.35144 6.79619 9.38854 7.06129 9.17244L7.06469 9.16984L7.0704 9.1656C7.08196 9.15713 7.10337 9.14205 7.134 9.12286C7.19556 9.0843 7.29237 9.03042 7.41971 8.98008C7.67278 8.88003 8.0435 8.79466 8.50651 8.86777C8.84747 8.9216 9.16751 8.68884 9.22134 8.34789C9.27518 8.00694 9.04242 7.6869 8.70147 7.63306C7.97698 7.51867 7.37895 7.65205 6.96014 7.81763C6.75154 7.90009 6.58664 7.99074 6.47046 8.06352C6.41223 8.09999 6.36576 8.13227 6.33167 8.15725C6.3146 8.16975 6.30059 8.18046 6.28969 8.189L6.27568 8.20014L6.27044 8.20441L6.26826 8.20621L6.26728 8.20702L6.26637 8.20778C6.00122 8.42877 5.96537 8.82286 6.18635 9.08803Z" fill="#635DF5"/>
<path d="M15.0037 8.20741C15.2689 8.42838 15.3051 8.82286 15.0841 9.08803C14.8646 9.35144 14.4743 9.38854 14.2092 9.17244C14.2079 9.17143 14.2049 9.1691 14.2001 9.1656C14.1885 9.15713 14.1671 9.14205 14.1365 9.12286C14.0749 9.0843 13.9781 9.03042 13.8508 8.98008C13.5977 8.88003 13.227 8.79466 12.764 8.86777C12.423 8.9216 12.103 8.68884 12.0492 8.34789C11.9953 8.00694 12.2281 7.6869 12.569 7.63306C13.2935 7.51867 13.8916 7.65205 14.3104 7.81763C14.519 7.90009 14.6839 7.99074 14.8 8.06352C14.8583 8.09999 14.9047 8.13227 14.9388 8.15725C14.9559 8.16975 14.9699 8.18046 14.9808 8.189C14.9808 8.189 14.9894 8.19574 14.9948 8.20014L15.0001 8.20441L15.0022 8.20621L15.0037 8.20741Z" fill="#635DF5"/>
<path d="M11.47 0.902594C10.9787 1.04742 10.4369 1.05103 9.94313 0.913424C8.83419 0.389545 7.58649 0.639932 6.73628 1.40844C6.72475 1.41887 6.71361 1.42971 6.70289 1.44097L5.6073 2.59083C5.30866 2.82824 5.04584 3.03437 4.79167 3.18844L4.3139 3.42596C3.18362 3.98789 2.56592 5.24921 2.72165 6.4879C2.72338 6.50168 2.72557 6.5154 2.72822 6.52903L3.29704 9.45976C2.83098 9.9137 2.5415 10.548 2.5415 11.2504C2.5415 12.3846 3.29655 13.3421 4.33171 13.6481L4.45836 15.2983L4.45909 15.3069C4.67438 17.6803 6.49345 19.3754 8.82332 19.3754H12.5651C14.8261 19.3754 16.7134 17.6869 16.9293 15.3069L16.9305 15.2923L17.0417 13.6358C18.0561 13.317 18.7915 12.3699 18.7915 11.2504C18.7915 10.5446 18.4992 9.90751 18.0291 9.45313L18.5846 6.59119L18.5864 6.58132C18.8196 5.26744 18.1992 3.99162 17.0614 3.42596L16.5613 3.17731C16.2058 3.0006 15.9945 2.86308 15.8322 2.66139C15.8178 2.64341 15.8023 2.62625 15.786 2.60998L14.8482 1.67755C14.8418 1.67116 14.8352 1.66492 14.8285 1.65883C13.9246 0.834937 12.6331 0.521292 11.47 0.902594ZM17.3709 10.6197C17.4794 10.805 17.5415 11.0205 17.5415 11.2504C17.5415 11.9049 17.0381 12.4424 16.3979 12.496C16.09 12.5218 15.8472 12.7687 15.8265 13.0769L15.6838 15.201C15.5225 16.9421 14.1685 18.1254 12.5651 18.1254H8.82332C7.16326 18.1254 5.86492 16.9474 5.70436 15.1981L5.54129 13.0736C5.51748 12.7634 5.26911 12.5179 4.95864 12.4977C4.30722 12.4554 3.7915 11.9129 3.7915 11.2504C3.7915 11.0209 3.85345 10.8057 3.96155 10.6206C3.98694 10.6238 4.01274 10.6254 4.03886 10.6254H4.7412C4.91455 10.6254 5.08011 10.5534 5.19833 10.4266C5.31654 10.2998 5.37679 10.1297 5.36467 9.95672C5.34183 9.63072 5.31119 9.21788 5.28008 8.87281C5.28672 8.68812 5.36948 8.55248 5.40339 8.52719C5.42708 8.50952 5.44949 8.4902 5.47044 8.46937L5.63612 8.30463C6.115 7.9065 6.27995 7.34042 6.27995 6.84508V5.85048C6.27995 5.84698 6.28007 5.84389 6.28026 5.8412C6.28884 5.83945 6.29737 5.83751 6.30586 5.8354C7.01465 5.65922 8.52662 5.35656 10.7189 5.35656C12.9074 5.35656 14.4178 5.65814 15.1282 5.83446C15.1282 5.83446 15.1311 5.83594 15.1334 5.83738C15.1403 5.84173 15.1475 5.84785 15.1532 5.85451C15.1553 5.85694 15.1568 5.85899 15.1579 5.86058V6.84508C15.1579 7.37174 15.395 7.86088 15.7035 8.20275L15.7872 8.36911C15.8174 8.42924 15.8572 8.48408 15.9049 8.53153C16.033 8.6589 16.0889 8.80172 16.0951 8.9336C16.065 9.24063 16.0356 9.63379 16.0133 9.95739C16.0014 10.1302 16.0617 10.3002 16.1799 10.4269C16.2981 10.5535 16.4636 10.6254 16.6368 10.6254H17.2863C17.3149 10.6254 17.3432 10.6235 17.3709 10.6197ZM6.48255 3.48431L7.5906 2.32137C8.1011 1.87085 8.81864 1.74967 9.4404 2.05878C9.47241 2.07469 9.50573 2.08783 9.53998 2.09805C10.2817 2.3193 11.0936 2.3193 11.8354 2.09805C11.8414 2.09625 11.8474 2.09437 11.8533 2.09239C12.5594 1.85836 13.3838 2.03939 13.977 2.57411L14.8818 3.47373C15.2153 3.87574 15.6192 4.10489 16.0048 4.29662L16.505 4.54527C17.1165 4.8493 17.4961 5.56052 17.3565 6.35828L17.0452 7.96211C16.9913 7.87969 16.9303 7.80052 16.8626 7.72534L16.7789 7.55889C16.7487 7.49877 16.7089 7.44392 16.6612 7.39648C16.506 7.24217 16.4079 7.02171 16.4079 6.84508V5.85048C16.4079 5.2035 15.9116 4.74116 15.4335 4.62232C14.6419 4.42553 13.0279 4.10656 10.7189 4.10656C8.42192 4.10656 6.81276 4.42223 6.01672 4.61924C5.40215 4.74924 5.02995 5.26685 5.02995 5.85048V6.84508C5.02995 7.08557 4.95162 7.25241 4.82824 7.35055C4.81021 7.36489 4.79298 7.38023 4.77664 7.39647L4.61551 7.55669C4.47507 7.67022 4.36414 7.80749 4.27835 7.95522L3.95958 6.31282C3.87407 5.56912 4.25542 4.85099 4.87037 4.54527L5.37051 4.29662C5.38479 4.28952 5.3988 4.28188 5.41249 4.27371C5.76138 4.06557 6.1016 3.79491 6.40228 3.55571L6.41867 3.54267C6.44128 3.52473 6.46262 3.50523 6.48255 3.48431Z" fill="#635DF5"/>
</svg>
