<svg width="21" height="20" viewBox="0 0 21 20" fill="none" xmlns="http://www.w3.org/2000/svg">
<path d="M12.4929 5.71084C12.4616 5.71084 12.4366 5.70459 12.4054 5.68584C12.4054 5.68584 12.4009 5.68389 12.3939 5.68042C12.3192 5.64337 11.8921 5.43139 11.4179 5.51709C11.3241 5.53584 11.2366 5.47334 11.2179 5.37959C11.1991 5.28584 11.2616 5.19834 11.3554 5.17959C11.9991 5.06084 12.5491 5.37334 12.5741 5.39209C12.6554 5.44209 12.6866 5.54209 12.6366 5.62959C12.6116 5.67959 12.5554 5.71084 12.4929 5.71084Z" fill="#635DF5"/>
<path d="M8.55538 6.03577C8.71663 6.03577 8.86427 6.08523 8.995 6.1649C9.27722 6.27368 9.48932 6.5197 9.54912 6.82326C9.56787 6.91701 9.49912 6.99826 9.40537 6.99826H9.34913C9.36787 6.94826 9.37412 6.89827 9.37412 6.84827C9.37412 6.52952 9.11787 6.27327 8.79912 6.27327C8.48037 6.27327 8.22412 6.52952 8.22412 6.84827C8.22412 6.89826 8.23037 6.95451 8.24287 6.99826H7.97412C7.85537 6.99826 7.77412 6.89201 7.79912 6.77951C7.80637 6.75142 7.81493 6.72386 7.82473 6.69689L7.80538 6.67952C7.67413 6.56702 7.68664 6.36077 7.82413 6.26077C8.03038 6.11702 8.29913 6.03577 8.55538 6.03577Z" fill="#635DF5"/>
<path d="M11.9179 6.03577C11.7596 6.03577 11.6132 6.08345 11.4834 6.16058C11.1955 6.26706 10.9785 6.51561 10.9179 6.82326C10.8991 6.91701 10.9679 6.99826 11.0616 6.99826H11.1179C11.1054 6.94826 11.0991 6.89827 11.0991 6.84827C11.0929 6.52952 11.3491 6.27327 11.6679 6.27327C11.9866 6.27327 12.2429 6.52952 12.2429 6.84827C12.2429 6.89826 12.2366 6.95451 12.2241 6.99826H12.4929C12.6116 6.99826 12.6929 6.89201 12.6679 6.77951C12.661 6.7529 12.653 6.72677 12.6438 6.70116L12.6679 6.67952C12.7992 6.56702 12.7867 6.36077 12.6492 6.26077C12.4429 6.11702 12.1742 6.03577 11.9179 6.03577Z" fill="#635DF5"/>
<path d="M9.13039 6.84829C9.13039 6.66703 8.98664 6.52328 8.80539 6.52328C8.75842 6.52328 8.71397 6.53294 8.67388 6.5504C8.69329 6.56864 8.70542 6.59455 8.70542 6.62328C8.70542 6.67851 8.66065 6.72328 8.60542 6.72328C8.57239 6.72328 8.5431 6.70727 8.52489 6.68259C8.49656 6.73093 8.48039 6.7875 8.48039 6.84829C8.48039 6.90453 8.49289 6.95453 8.51789 6.99829H9.09914C9.11789 6.95453 9.13039 6.89828 9.13039 6.84829Z" fill="#635DF5"/>
<path d="M11.6679 6.52328C11.6226 6.52328 11.5796 6.53227 11.5406 6.54858C11.5612 6.56689 11.5741 6.59358 11.5741 6.62328C11.5741 6.67851 11.5294 6.72328 11.4741 6.72328C11.439 6.72328 11.4081 6.70516 11.3903 6.67774C11.3601 6.72713 11.3429 6.78546 11.3429 6.84829C11.3429 6.89828 11.3554 6.95453 11.3741 6.99829H11.9554C11.9804 6.95453 11.9929 6.90453 11.9929 6.84829C11.9929 6.66703 11.8491 6.52328 11.6679 6.52328Z" fill="#635DF5"/>
<path d="M9.31159 8.56074C9.58034 8.69824 9.89284 8.77949 10.2241 8.77949C10.5616 8.77949 10.8741 8.69824 11.1366 8.56074C11.2303 8.51074 11.3241 8.61074 11.2678 8.69824C11.0428 9.04199 10.6616 9.26699 10.2241 9.26699C9.78659 9.26699 9.39909 9.04199 9.18034 8.69824C9.12409 8.61699 9.22409 8.51074 9.31159 8.56074Z" fill="#635DF5"/>
<path d="M7.80539 5.62332C7.83664 5.67957 7.89289 5.71082 7.95539 5.71082C7.98664 5.71082 8.01164 5.70457 8.04289 5.69207C8.04289 5.68582 8.51164 5.42332 9.02414 5.51707C9.11789 5.53582 9.21164 5.47332 9.22414 5.37957C9.24289 5.28582 9.18039 5.19832 9.08664 5.17957C8.47383 5.07143 7.9361 5.356 7.87316 5.38931L7.86789 5.39207C7.78664 5.43582 7.75539 5.54207 7.80539 5.62332Z" fill="#635DF5"/>
<path d="M9.98664 6.70461L9.66164 7.75461C9.59289 7.97336 9.75539 8.18586 9.98039 8.18586H10.4616C10.6866 8.18586 10.8491 7.96711 10.7804 7.75461L10.4554 6.70461C10.3866 6.46711 10.0616 6.46711 9.98664 6.70461Z" fill="#635DF5"/>
<path d="M15.071 7.8C15.2085 7.5125 15.2835 7.19375 15.2835 6.85625C15.2835 6.4125 15.1522 6 14.921 5.65625C14.6897 5.3125 14.571 4.90625 14.571 4.4875V4.48125C14.571 3.28125 13.596 2.30625 12.396 2.30625C12.2772 2.30625 12.1647 2.25 12.096 2.15625C11.7085 1.60625 11.0647 1.25 10.3335 1.25C9.60222 1.25 8.95847 1.60625 8.56472 2.15625C8.49597 2.25625 8.38972 2.3125 8.27097 2.3125C7.07097 2.3125 6.09597 3.2875 6.09597 4.4875V4.49375C6.09597 4.9125 5.97722 5.3125 5.74597 5.6625C5.52097 6 5.38347 6.4125 5.38347 6.85625C5.38347 7.19375 5.45847 7.5125 5.59597 7.8C5.63972 7.89375 5.63972 8.00625 5.59597 8.1C5.45847 8.38125 5.38347 8.69375 5.38347 9.03125C5.38347 9.29669 5.43247 9.55085 5.52191 9.78516H3.83334C3.7904 9.78516 3.74837 9.78961 3.70769 9.7981C3.58477 9.82376 3.47422 9.88629 3.38826 9.97428C3.27511 10.0901 3.20459 10.25 3.20459 10.4279L3.2046 16.2881C2.36707 16.4358 1.67744 17.0006 1.34824 17.7565L1.34707 17.7593C1.08693 18.3725 1.52381 19.0626 2.2035 19.0626H3.77222L3.82959 19.0625L18.466 19.0626C19.1193 19.0626 19.5866 18.3987 19.3296 17.7802L19.3283 17.777C18.9998 17.0106 18.3068 16.4395 17.4648 16.2891V10.4279C17.4648 10.0701 17.1796 9.78516 16.8361 9.78516H15.1388C15.2282 9.55085 15.2772 9.29669 15.2772 9.03125C15.2772 8.7 15.2022 8.38125 15.0647 8.1C15.0272 8.00625 15.0272 7.89375 15.071 7.8ZM12.286 9.78516H8.38089C7.81549 9.29524 7.44986 8.57326 7.41443 7.69938L7.40274 7.42047L7.19522 7.35381C6.91061 7.26239 6.70526 6.99537 6.70526 6.68121C6.70526 6.38794 6.88409 6.13571 7.13987 6.029L7.3409 5.94513L7.32736 5.62204C7.3339 5.37795 7.40479 5.22852 7.47378 5.13604C7.53701 5.05129 7.60933 5.00032 7.66211 4.97031C7.67956 4.96422 7.69342 4.95854 7.70063 4.95558L7.70303 4.9546L7.71026 4.95168L7.72184 4.94782L7.73585 4.94157C8.12518 4.76776 8.44545 4.46432 8.63491 4.07283C9.16835 4.71688 9.965 5.09996 10.8147 5.09996H12.9085C12.9348 5.09996 13.0435 5.10915 13.1381 5.1792C13.2142 5.23556 13.3321 5.36806 13.3334 5.71886L13.3242 5.94593L13.5237 6.03018C13.778 6.13758 13.9555 6.38902 13.9555 6.68121C13.9555 6.99378 13.7522 7.25969 13.4698 7.35242L13.2639 7.42003L13.2525 7.6998C13.217 8.57368 12.8514 9.29524 12.286 9.78516ZM2.2035 18.4376C1.98361 18.4376 1.83314 18.216 1.92193 18.0046C2.14784 17.4871 2.59701 17.0912 3.14722 16.9409V18.4376H2.2035ZM17.5222 18.4376V16.9424C18.0753 17.0951 18.5271 17.4956 18.753 18.0213C18.8323 18.2149 18.6872 18.4376 18.466 18.4376H17.5222ZM9.61572 13.3118H11.0513C11.2239 13.3118 11.3638 13.4517 11.3638 13.6243V15.0928C11.3638 15.2654 11.2239 15.4053 11.0513 15.4053H9.61572C9.44313 15.4053 9.30322 15.2654 9.30322 15.0928V13.6243C9.30322 13.4517 9.44313 13.3118 9.61572 13.3118Z" fill="#635DF5"/>
</svg>
