<svg width="21" height="20" viewBox="0 0 21 20" fill="none" xmlns="http://www.w3.org/2000/svg">
<path d="M16.1207 9.1383C16.3983 9.42979 16.5326 9.57071 16.5729 9.90669C16.5899 10.0654 16.5727 10.2259 16.5226 10.3774C16.4724 10.529 16.3904 10.668 16.2821 10.7852C16.1737 10.9024 16.0416 10.9951 15.8945 11.057C15.7473 11.1189 15.5887 11.1487 15.4291 11.1442C15.4377 11.2366 15.4469 11.3281 15.4559 11.4187C15.4868 11.7261 15.5166 12.0234 15.5166 12.3129C15.5184 12.407 15.4835 12.498 15.4194 12.5669C15.3552 12.6357 15.2668 12.6768 15.1729 12.6817L14.1229 12.7192C14.088 12.7404 14.0591 12.7702 14.039 12.8057C14.019 12.8413 14.0085 12.8815 14.0085 12.9223C14.0085 12.9632 14.019 13.0033 14.039 13.0389C14.0591 13.0745 14.088 13.1043 14.1229 13.1254L15.1666 13.7942C15.2518 13.8476 15.3181 13.9264 15.3562 14.0194C15.3943 14.1125 15.4023 14.2151 15.3791 14.3129C15.0354 15.5879 14.1229 16.4629 12.0666 16.7192C11.6705 16.7653 11.2715 16.782 10.8729 16.7692C10.7145 16.7645 10.5588 16.8104 10.4284 16.9003C10.298 16.9903 10.1997 17.1195 10.1479 17.2692L9.69789 18.5192H3.44789L4.81039 14.2129C4.94626 13.7797 4.90584 13.3103 4.69789 12.9067C3.95414 11.4817 2.76664 9.01919 2.57914 7.50044C2.42341 6.27383 2.76129 5.03559 3.51845 4.05808C4.27561 3.08057 5.39005 2.44384 6.61664 2.28794L9.62289 1.91294C10.8472 1.76434 12.0805 2.10618 13.0536 2.86382C14.0267 3.62146 14.6605 4.73334 14.8166 5.95669L15.0541 7.83169C15.5368 8.52535 15.8818 8.88754 16.1207 9.1383Z" fill="#635DF5"/>
<path d="M19.7104 13.813V12.6005C19.7163 12.559 19.7117 12.5166 19.697 12.4774C19.6823 12.4381 19.658 12.4032 19.6262 12.3758C19.5945 12.3484 19.5563 12.3294 19.5154 12.3206C19.4744 12.3118 19.4318 12.3135 19.3916 12.3255L17.3666 12.9505C17.3166 12.9669 17.2731 12.9987 17.2422 13.0413C17.2113 13.084 17.1947 13.1353 17.1947 13.188C17.1947 13.2406 17.2113 13.2919 17.2422 13.3346C17.2731 13.3772 17.3166 13.409 17.3666 13.4255L19.3916 14.0505C19.4286 14.061 19.4675 14.0629 19.5054 14.056C19.5432 14.0491 19.5789 14.0335 19.6098 14.0106C19.6406 13.9876 19.6657 13.9578 19.6832 13.9235C19.7006 13.8892 19.7099 13.8514 19.7104 13.813Z" fill="#635DF5"/>
<path d="M17.9916 10.0005L18.8479 10.8567C18.8749 10.8841 18.8952 10.9174 18.9072 10.954C18.9193 10.9906 18.9227 11.0294 18.9173 11.0675C18.9118 11.1056 18.8977 11.142 18.8759 11.1737C18.8541 11.2054 18.8252 11.2317 18.7916 11.2505L16.9166 12.2505C16.87 12.2738 16.8174 12.2819 16.7659 12.2739C16.7144 12.2658 16.6668 12.2418 16.6296 12.2053C16.5925 12.1688 16.5676 12.1216 16.5586 12.0703C16.5495 12.0191 16.5567 11.9662 16.5791 11.9192L17.5791 10.0442C17.5983 10.008 17.6261 9.97704 17.66 9.95408C17.6939 9.93112 17.733 9.91685 17.7737 9.91253C17.8145 9.90821 17.8557 9.91397 17.8937 9.9293C17.9317 9.94463 17.9653 9.96907 17.9916 10.0005Z" fill="#635DF5"/>
<path d="M18.8479 15.5692L17.9916 16.4254C17.9653 16.4568 17.9317 16.4813 17.8937 16.4966C17.8557 16.5119 17.8145 16.5177 17.7737 16.5134C17.733 16.509 17.6939 16.4948 17.66 16.4718C17.6261 16.4488 17.5983 16.4179 17.5791 16.3817L16.5791 14.5067C16.5567 14.4597 16.5495 14.4068 16.5586 14.3555C16.5676 14.3042 16.5925 14.2571 16.6296 14.2206C16.6668 14.1841 16.7144 14.1601 16.7659 14.152C16.8174 14.1439 16.87 14.1521 16.9166 14.1754L18.7916 15.1754C18.8252 15.1942 18.8541 15.2205 18.8759 15.2522C18.8977 15.2839 18.9118 15.3203 18.9173 15.3584C18.9227 15.3965 18.9193 15.4353 18.9072 15.4719C18.8952 15.5085 18.8749 15.5418 18.8479 15.5692Z" fill="#635DF5"/>
</svg>
