<svg width="20" height="20" viewBox="0 0 20 20" fill="none" xmlns="http://www.w3.org/2000/svg">
<path d="M12.6188 11.875C13.7188 11.875 14.6125 11.6121 14.6125 10.4833C14.6125 9.34821 13.7188 8.43112 12.6188 8.43753C11.5188 8.43753 10.625 9.35462 10.625 10.4833C10.625 11.6121 11.5188 11.875 12.6188 11.875Z" fill="#635DF5"/>
<path d="M7.34693 11.875C8.46586 11.875 9.375 11.6125 9.375 10.4859C9.375 9.35289 8.47222 8.4375 7.34693 8.4375C6.22164 8.4375 5.3125 9.35929 5.3125 10.4859C5.3125 11.6125 6.22799 11.875 7.34693 11.875Z" fill="#635DF5"/>
<path d="M10.3595 12.5H9.64013C9.46157 12.5 9.32892 12.2936 9.39014 12.0991L9.52279 11.645C9.58912 11.4092 9.78299 11.25 9.99726 11.25C10.2115 11.25 10.4003 11.4092 10.4717 11.6392L10.6095 12.0932C10.6707 12.2877 10.5432 12.5 10.3595 12.5Z" fill="#635DF5"/>
<path d="M6.18245 4.30745L5.43496 3.55996C5.55613 3.33793 5.625 3.08326 5.625 2.8125C5.625 1.94956 4.92544 1.25 4.0625 1.25C3.29736 1.25 2.66066 1.79998 2.52618 2.52618C1.79998 2.66066 1.25 3.29736 1.25 4.0625C1.25 4.92545 1.94956 5.625 2.8125 5.625C3.08326 5.625 3.33793 5.55613 3.55996 5.43496L4.30256 6.17756C3.55925 7.27573 3.125 8.59994 3.125 10.025C3.125 11.296 3.47463 12.2338 4.20767 12.855C4.42131 13.036 4.65768 13.1812 4.91046 13.298L3.56071 14.6525C3.31948 14.4899 3.03382 14.396 2.72276 14.396C1.9102 14.396 1.25 15.0466 1.25 15.8474C1.25 16.6481 1.9102 17.2924 2.72276 17.2924C2.72276 18.0932 3.37662 18.75 4.18917 18.75C5.00173 18.75 5.66193 18.0994 5.66193 17.2987C5.66193 16.9671 5.54767 16.6669 5.35723 16.4229L6.27217 15.5047C6.40107 16.2822 7.07662 16.875 7.89062 16.875C8.28578 16.875 8.6483 16.7353 8.9315 16.5026C9.22487 16.7357 9.59617 16.875 10 16.875C10.4038 16.875 10.7751 16.7357 11.0685 16.5026C11.3517 16.7353 11.7142 16.875 12.1094 16.875C12.925 16.875 13.6016 16.2798 13.7286 15.5001L14.6562 16.4688C14.4937 16.7063 14.4 16.9875 14.4 17.2938C14.4 18.0938 15.05 18.7438 15.85 18.7438C16.65 18.7438 17.3 18.0938 17.3 17.2938C18.1 17.2938 18.7562 16.65 18.7562 15.85C18.7562 15.05 18.1062 14.4 17.3062 14.4C16.975 14.4 16.675 14.5125 16.4312 14.7L15.0908 13.3002C15.3433 13.1834 15.5793 13.0381 15.7927 12.857C16.5255 12.235 16.875 11.2958 16.875 10.025C16.875 8.59823 16.4412 7.27406 15.6986 6.17645L16.44 5.43496C16.6621 5.55613 16.9167 5.625 17.1875 5.625C18.0504 5.625 18.75 4.92545 18.75 4.0625C18.75 3.29736 18.2 2.66066 17.4738 2.52618C17.3393 1.79998 16.7026 1.25 15.9375 1.25C15.0746 1.25 14.375 1.94956 14.375 2.8125C14.375 3.08326 14.4439 3.33793 14.565 3.55996L13.8185 4.30649C12.726 3.57581 11.4125 3.15002 10 3.15002C8.58784 3.15002 7.27472 3.57644 6.18245 4.30745ZM8.28125 14.375V15.2344C8.28125 15.4501 8.10636 15.625 7.89062 15.625C7.67489 15.625 7.5 15.4501 7.5 15.2344V12.5458L6.92914 12.4961C6.02689 12.4177 5.41012 12.2355 5.01577 11.9013C4.65349 11.5943 4.375 11.0666 4.375 10.025C4.375 6.9202 6.89518 4.40002 10 4.40002C13.1052 4.40002 15.625 6.91436 15.625 10.025C15.625 11.0667 15.3464 11.5963 14.9838 11.904C14.5899 12.2384 13.9736 12.4206 13.0729 12.4959L12.5 12.5439V15.2344C12.5 15.4501 12.3251 15.625 12.1094 15.625C11.8936 15.625 11.7188 15.4501 11.7188 15.2344V14.375C11.7188 14.0298 11.4389 13.75 11.0938 13.75C10.7486 13.75 10.4688 14.0298 10.4688 14.375V15.1562C10.4688 15.4151 10.2589 15.625 10 15.625C9.74112 15.625 9.53125 15.4151 9.53125 15.1562V14.375C9.53125 14.0298 9.25143 13.75 8.90625 13.75C8.56107 13.75 8.28125 14.0298 8.28125 14.375Z" fill="#635DF5"/>
</svg>
