<svg width="20" height="20" viewBox="0 0 20 20" fill="none" xmlns="http://www.w3.org/2000/svg">
<g clip-path="url(#clip0_150_13386)">
<path d="M3.89664 4.236C2.56622 5.68069 1.875 7.70539 1.875 9.9993C1.875 11.3512 2.11506 12.6095 2.58454 13.7108C2.52185 13.9273 2.45524 14.0874 2.39045 14.1846C2.18844 14.4876 2.04354 14.8505 1.95978 15.2395C1.06233 13.7265 0.625 11.9166 0.625 9.9993C0.625 7.46111 1.39142 5.11116 2.97714 3.38923C4.57062 1.65887 6.9345 0.625 9.9993 0.625C13.0641 0.625 15.428 1.65887 17.0215 3.38923C18.6072 5.11116 19.3736 7.46111 19.3736 9.9993C19.3736 12.5375 18.6072 14.8874 17.0215 16.6094C15.428 18.3397 13.0641 19.3736 9.9993 19.3736C8.92293 19.3736 7.93301 19.2461 7.03256 19.0057C7.14879 18.9504 7.26116 18.8922 7.36914 18.8323C7.81242 18.5865 8.20894 18.2989 8.53561 18.0307C8.99769 18.0918 9.48544 18.1236 9.9993 18.1236C12.7685 18.1236 14.7793 17.1989 16.102 15.7626C17.4324 14.3179 18.1236 12.2932 18.1236 9.9993C18.1236 7.70539 17.4324 5.68069 16.102 4.236C14.7793 2.79973 12.7685 1.875 9.9993 1.875C7.23007 1.875 5.2193 2.79973 3.89664 4.236Z" fill="#635DF5"/>
<path d="M11.0924 15.5256L9.75116 16.8669C9.83341 16.8723 9.91638 16.875 10 16.875C12.0711 16.875 13.75 15.1961 13.75 13.125C13.75 11.0539 12.0711 9.375 10 9.375C9.46202 9.375 8.9505 9.48829 8.488 9.6923C8.52397 9.72177 8.55883 9.7533 8.59241 9.78688C8.63328 9.82775 8.6711 9.8705 8.70588 9.91485C9.25109 9.55928 9.98882 9.62079 10.4674 10.0994C10.946 10.5779 11.0075 11.3156 10.652 11.8608C10.7203 11.9143 10.7846 11.975 10.8439 12.0427C11.2119 12.4633 11.2844 13.0413 11.0783 13.523L11.0924 13.5369C11.6416 14.0861 11.6416 14.9764 11.0924 15.5256Z" fill="#635DF5"/>
<path d="M6.21325 6.76474C5.62781 6.95989 5.1556 7.33626 4.934 7.77946C4.77964 8.08819 4.40422 8.21333 4.09548 8.05897C3.78674 7.9046 3.6616 7.52918 3.81597 7.22044C4.21937 6.41362 4.99716 5.85249 5.81797 5.57889C6.63878 5.30529 7.59768 5.28752 8.40449 5.69092C8.71323 5.84528 8.83837 6.2207 8.684 6.52944C8.52964 6.83818 8.15422 6.96332 7.84548 6.80895C7.40229 6.58736 6.79869 6.5696 6.21325 6.76474Z" fill="#635DF5"/>
<path d="M13.7867 6.76474C14.3722 6.95989 14.8444 7.33626 15.066 7.77946C15.2203 8.08819 15.5958 8.21333 15.9045 8.05897C16.2132 7.9046 16.3384 7.52918 16.184 7.22044C15.7806 6.41362 15.0028 5.85249 14.182 5.57889C13.3612 5.30529 12.4023 5.28752 11.5955 5.69092C11.2867 5.84528 11.1616 6.2207 11.316 6.52944C11.4703 6.83818 11.8457 6.96332 12.1545 6.80895C12.5977 6.58736 13.2013 6.5696 13.7867 6.76474Z" fill="#635DF5"/>
<path d="M8.15054 10.2288C8.41771 10.496 8.45092 10.9085 8.25019 11.2118L8.92069 10.5413C9.22578 10.2362 9.72044 10.2362 10.0255 10.5413C10.3306 10.8464 10.3306 11.3411 10.0255 11.6462L9.35482 12.3169C9.67594 12.1041 10.1129 12.1564 10.3736 12.4543C10.6577 12.779 10.6248 13.2726 10.3001 13.5567L10.0789 13.7502C10.2852 13.7452 10.4931 13.8214 10.6505 13.9788C10.9556 14.2839 10.9556 14.7786 10.6505 15.0837L8.9988 16.7354C8.74412 17.0198 5.92063 20.07 3.53555 18.2812C2.28549 17.3437 2.28555 15.4688 2.91055 14.5312C3.29747 13.9509 3.45983 12.5846 3.51348 11.5618C3.53608 11.1309 3.88533 10.7812 4.3168 10.7812C4.74827 10.7812 5.09805 11.131 5.09805 11.5625V12.1765L7.04569 10.2288C7.35078 9.92373 7.84544 9.92373 8.15054 10.2288Z" fill="#635DF5"/>
</g>
<defs>
<clipPath id="clip0_150_13386">
<rect width="20" height="20" fill="white"/>
</clipPath>
</defs>
</svg>
