<svg width="21" height="20" viewBox="0 0 21 20" fill="none" xmlns="http://www.w3.org/2000/svg">
<path d="M10.6666 14.9339C10.0752 14.9339 9.51935 14.7948 9.05219 14.5512C8.89252 14.47 8.72103 14.6498 8.82156 14.7948C9.21185 15.3862 9.89191 15.7805 10.6666 15.7805C11.4412 15.7805 12.1213 15.3862 12.5116 14.7948C12.6121 14.644 12.4406 14.47 12.281 14.5512C11.8138 14.7948 11.2638 14.9339 10.6666 14.9339Z" fill="#635DF5"/>
<path d="M9.60176 12.9343L10.2211 10.9534C10.3601 10.5146 10.9794 10.5146 11.1121 10.9534L11.7314 12.9343C11.8578 13.3355 11.5545 13.7493 11.1247 13.7493H10.2084C9.7787 13.7493 9.47537 13.3418 9.60176 12.9343Z" fill="#635DF5"/>
<path d="M7.88053 9.6243C7.12153 9.6243 6.47979 10.1495 6.30084 10.8539C6.25147 11.0578 6.40574 11.2493 6.61554 11.2493H7.11536C7.09068 11.157 7.07834 11.0708 7.07834 10.9723C7.07834 10.3937 7.54731 9.93207 8.12118 9.93207C8.69505 9.93207 9.15785 10.3937 9.15785 10.9723C9.15785 11.0708 9.14551 11.1631 9.12083 11.2493H9.21339C9.38 11.2493 9.50958 11.101 9.47873 10.9342C9.33063 10.1866 8.67037 9.6243 7.88053 9.6243Z" fill="#635DF5"/>
<path d="M13.4526 9.6243C14.2116 9.6243 14.8534 10.1495 15.0323 10.8539C15.0817 11.0578 14.9274 11.2493 14.7176 11.2493H14.2178C14.2425 11.157 14.2548 11.0708 14.2548 10.9723C14.2548 10.3937 13.7859 9.93207 13.212 9.93207C12.6381 9.93207 12.1691 10.3937 12.1753 10.9723C12.1753 11.0708 12.1877 11.1631 12.2123 11.2493H12.1198C11.9532 11.2493 11.8236 11.101 11.8544 10.9342C12.0025 10.1866 12.6566 9.6243 13.4526 9.6243Z" fill="#635DF5"/>
<path d="M8.12118 10.3814C8.44823 10.3814 8.71357 10.646 8.71357 10.9723C8.71357 11.0708 8.68888 11.1631 8.64569 11.2493H7.59668C7.55348 11.1631 7.5288 11.0708 7.5288 10.9723C7.5288 10.8646 7.5577 10.7636 7.60818 10.6767C7.64123 10.7279 7.69835 10.7618 7.76328 10.7618C7.86552 10.7618 7.9484 10.6778 7.9484 10.5743C7.9484 10.5169 7.92296 10.4656 7.88288 10.4312C7.95581 10.3991 8.03642 10.3814 8.12118 10.3814Z" fill="#635DF5"/>
<path d="M13.2058 10.3814C13.1303 10.3814 13.0582 10.3955 12.9918 10.4211C13.0391 10.4551 13.0701 10.511 13.0701 10.5743C13.0701 10.6778 12.9872 10.7618 12.8849 10.7618C12.8071 10.7618 12.7405 10.7131 12.7131 10.6442C12.6501 10.738 12.6134 10.8509 12.6134 10.9723C12.6134 11.0708 12.6381 11.1631 12.6813 11.2493H13.7303C13.7735 11.1631 13.7982 11.0708 13.7982 10.9723C13.7982 10.646 13.5328 10.3814 13.2058 10.3814Z" fill="#635DF5"/>
<path d="M14.9719 8.67624C15.0882 8.54085 15.0724 8.33662 14.937 8.22032L14.9362 8.2196L14.9348 8.21845L14.8869 8.18062C14.8585 8.15932 14.8184 8.13091 14.7672 8.09834C14.6648 8.03327 14.517 7.95113 14.327 7.87606C13.9456 7.72539 13.3961 7.60409 12.7105 7.70485C12.5339 7.7308 12.4118 7.89499 12.4378 8.07156C12.4637 8.24814 12.6279 8.37025 12.8045 8.34429C13.3619 8.26236 13.797 8.36161 14.0895 8.47716C14.2364 8.5352 14.3478 8.59759 14.4205 8.64377C14.4567 8.66683 14.4832 8.68573 14.4993 8.69783L14.51 8.70597L14.5157 8.71048L14.5178 8.71221C14.6532 8.82697 14.856 8.81107 14.9719 8.67624Z" fill="#635DF5"/>
<path d="M6.87583 8.69128C6.74463 8.81074 6.54139 8.80208 6.42085 8.67149C6.29979 8.54035 6.30796 8.3359 6.43911 8.21485L6.43967 8.21432C6.45546 8.20039 6.47144 8.18676 6.48798 8.17371C6.51487 8.15248 6.55246 8.1246 6.60082 8.09285C6.69754 8.02935 6.83756 7.95024 7.02133 7.87807C7.39079 7.73297 7.92978 7.61885 8.63695 7.70846C8.81401 7.7309 8.93936 7.89262 8.91692 8.06968C8.89448 8.24674 8.73276 8.37209 8.5557 8.34965C7.96195 8.27441 7.53193 8.37191 7.2576 8.47965C7.11948 8.53389 7.01892 8.59151 6.95553 8.63312C6.92384 8.65393 6.90149 8.67071 6.88846 8.68099C6.882 8.68609 6.87769 8.68969 6.87583 8.69128Z" fill="#635DF5"/>
<path d="M16.7303 2.80343C16.9663 2.70689 17.1637 2.83283 17.234 2.90945C17.2771 2.88259 17.4039 2.83816 17.566 2.87527C17.7281 2.91238 17.824 3.07141 17.8516 3.14629C17.9078 3.14059 18.0518 3.13342 18.1739 3.23411C18.3131 3.34888 18.331 3.50517 18.3253 3.57841C18.4547 3.60771 18.5523 3.69804 18.5255 3.85918C18.5021 3.99933 18.3603 4.0317 18.2911 4.03252C18.3302 4.06377 18.3627 4.1318 18.3741 4.16191L18.3798 4.16191C18.4393 4.16187 18.5405 4.16181 18.6646 4.24248C18.8111 4.33769 18.8542 4.50778 18.8526 4.58916C19.0797 4.62334 19.0821 4.8455 19.0211 4.94072C18.9664 5.02605 18.8624 5.03105 18.7037 5.03105C18.6549 5.09209 18.5898 5.1344 18.5523 5.15312C18.6793 5.15556 18.7647 5.19951 18.8526 5.2874C18.9229 5.35771 18.9226 5.4762 18.9136 5.52666C18.9413 5.53886 19.004 5.59013 19.0333 5.69755C19.0626 5.80498 19.0211 5.9539 18.9967 6.01494L19.0015 6.01619C19.0642 6.03241 19.27 6.0856 19.2677 6.25908C19.2652 6.4373 19.1334 6.52519 18.9747 6.48609C18.8223 6.44853 18.7041 6.45294 18.6719 6.45413L18.6646 6.45435C18.7598 6.52515 18.8184 6.63502 18.8331 6.71558C18.8448 6.78004 18.8282 6.8873 18.8184 6.93287C18.8363 6.94752 18.877 6.99097 18.8966 7.04762C18.9161 7.10426 18.9161 7.19003 18.9136 7.22584C18.9625 7.25025 19.0406 7.31617 19.087 7.41139C19.1241 7.48756 19.0927 7.57496 19.0723 7.60914C19.192 7.7068 19.1968 7.84107 19.1651 7.97535C19.1397 8.08277 19.0308 8.1902 18.9747 8.21705C19.1798 8.35865 19.2774 8.54176 19.1871 8.74439C19.1148 8.9065 18.9218 8.99179 18.838 9.00562C18.8485 9.04306 18.8526 9.16725 18.7843 9.36451C18.7159 9.56178 18.5295 9.5818 18.4449 9.56715C18.4097 9.6316 18.3163 9.68841 18.274 9.70875C18.4673 9.83304 18.5264 9.97565 18.5116 10.0986C18.6905 10.4429 18.7916 10.8342 18.7916 11.2493C18.7916 12.1536 18.3116 12.9456 17.5923 13.3846C17.6061 13.4639 17.5873 13.5406 17.5562 13.5979C17.5054 13.6917 17.3479 13.7314 17.2755 13.7395C17.3023 13.7688 17.4659 14.1204 17.2291 14.1985C17.1072 14.2387 17.0199 14.1908 16.9653 14.1294L16.962 14.1815C17.023 14.2888 17.0242 14.4385 16.9556 14.5208C16.9507 14.5267 16.9454 14.5322 16.9398 14.5373L16.9207 14.841L16.9179 14.8622C16.5771 17.4486 14.3756 19.3743 11.7705 19.3743H9.57212C6.96702 19.3743 4.76545 17.4486 4.42464 14.8622L4.42196 14.8418L4.39175 14.3802C3.99695 14.4341 4.01552 14.1068 4.07966 13.9251C3.69817 13.8513 3.70716 13.595 3.78652 13.4118C3.04198 12.9789 2.54158 12.1726 2.54158 11.2493C2.54158 10.951 2.59377 10.6651 2.68951 10.3999C2.67275 10.3693 2.66188 10.3392 2.65632 10.3118C2.59527 10.0109 2.79906 9.86577 3.00681 9.79645C3.022 9.77521 3.03752 9.75423 3.05335 9.73349C2.93976 9.55151 2.93613 9.35942 2.96638 9.28151C2.92341 9.25221 2.8964 9.17327 2.88826 9.13747C2.76326 9.09254 2.74177 8.97064 2.74666 8.9153C2.59854 8.92018 2.2989 8.88893 2.27547 8.69557C2.24876 8.47524 2.42927 8.41237 2.52205 8.38795V8.33913C2.29158 8.28053 2.26 8.10475 2.27302 8.02419C2.02888 8.02174 1.97272 7.86061 1.9947 7.72145C2.0128 7.60686 2.13956 7.54079 2.20222 7.5237C2.11921 7.51881 1.95076 7.45973 1.94099 7.26247C1.93123 7.0652 2.14688 7.01588 2.25593 7.01588V6.98415C2.11352 6.99961 1.81941 6.97878 1.7823 6.77174C1.74519 6.56471 1.90682 6.47227 1.99227 6.45192C1.77742 6.14919 2.03376 5.96852 2.20222 5.96852C2.16906 5.6959 2.34612 5.62335 2.45443 5.6194C2.35786 5.61402 2.19775 5.52991 2.20222 5.36305C2.20808 5.1443 2.42764 5.10915 2.53669 5.11891C2.46589 5.09206 2.29803 4.94749 2.35115 4.76003C2.41755 4.52565 2.64737 4.54518 2.75398 4.58424C2.74337 4.50023 2.72154 4.32726 2.85408 4.2571C3.00966 4.17473 3.14216 4.25465 3.18611 4.30348C3.16169 4.13014 3.22029 4.01295 3.38142 3.99342C3.51033 3.9778 3.60766 4.06341 3.64021 4.10817L3.60847 3.91286C3.55378 3.76833 3.63126 3.62965 3.67683 3.57838C3.54402 3.41432 3.58894 3.2317 3.628 3.1609C3.41804 3.05592 3.29597 2.74831 3.50593 2.60915C3.6739 2.49782 3.82169 2.59368 3.87458 2.65553C3.85261 2.57008 3.85081 2.4501 3.91853 2.36745C4.05134 2.20534 4.22777 2.27386 4.29939 2.32838C4.37165 2.17995 4.52644 2.16074 4.5948 2.16969C4.59236 2.08262 4.61091 1.88844 4.77302 1.8279C4.93513 1.76735 5.0489 1.86126 5.07331 1.92554L5.07717 1.92032C5.09046 1.90214 5.10512 1.88209 5.15632 1.86208C5.33943 1.74733 5.46557 1.82867 5.52497 1.88402C5.55671 1.83927 5.62746 1.74732 5.76423 1.74733C5.93757 1.74734 6.03035 1.86369 6.06453 1.92554C6.08568 1.87916 6.16218 1.78592 6.2989 1.78396C6.43562 1.78201 6.51537 1.89379 6.53816 1.94992C6.5699 1.89784 6.65583 1.7888 6.81404 1.80833C6.97224 1.82786 7.03214 1.99879 7.03376 2.07693C7.06306 2.03461 7.16023 1.95926 7.31453 1.99636C7.46882 2.03347 7.48461 2.2283 7.47322 2.32108C7.50902 2.2983 7.60732 2.24186 7.70271 2.26493C7.71163 2.26709 7.72013 2.26963 7.72822 2.27251C7.77731 2.25747 7.82672 2.24309 7.87645 2.22939C7.87936 2.21541 7.88326 2.20116 7.88826 2.1867C7.94295 2.0285 8.04288 1.96616 8.08601 1.95476C8.04369 1.89698 7.9781 1.74432 8.05427 1.59588C8.13045 1.44744 8.26505 1.41847 8.32283 1.42254C8.27075 1.34686 8.19783 1.16426 8.32283 1.03926C8.47908 0.883011 8.68172 1.02217 8.71589 1.20772C8.72566 1.25459 8.83064 1.34444 8.88191 1.3835C8.87866 1.3306 8.90144 1.21553 9.01863 1.17842C9.16511 1.13204 9.31892 1.16128 9.46541 1.42254L9.46819 1.42257C9.48474 1.42286 9.5224 1.42352 9.53621 1.35909C9.53971 1.34272 9.53496 1.31278 9.52903 1.27536C9.51017 1.15649 9.47934 0.962168 9.66316 0.887896C9.85652 0.809771 10.0009 1.02299 10.0489 1.13936C10.0806 1.08482 10.1817 0.982104 10.3321 1.00751C10.4825 1.03291 10.5315 1.25248 10.5372 1.35909C10.5494 1.37292 10.5772 1.38641 10.5909 1.32977C10.5929 1.32128 10.5948 1.30854 10.5971 1.29286C10.614 1.17781 10.6542 0.904776 10.9571 0.992859C11.0798 1.02855 11.0987 1.17842 11.0987 1.3835C11.1549 1.28421 11.3272 1.11005 11.5675 1.2077C11.6573 1.24422 11.692 1.35909 11.692 1.46893C11.7416 1.39976 11.898 1.27509 12.1265 1.32977C12.2282 1.35411 12.2873 1.41413 12.3304 1.4578L12.3414 1.46893C12.4171 1.38104 12.6192 1.21552 12.8223 1.25653C12.9561 1.28354 13.0079 1.3835 13.0396 1.45673L13.0762 1.44452C13.0982 1.3314 13.1988 1.11542 13.4254 1.15643C13.5868 1.18565 13.6332 1.33773 13.6646 1.44078L13.6695 1.45673C13.7151 1.36721 13.8624 1.20575 14.087 1.27606C14.2403 1.32405 14.2652 1.50311 14.2652 1.61786C14.3507 1.55275 14.5553 1.45282 14.69 1.57391C14.8248 1.69501 14.7934 1.91083 14.7608 2.0036C14.7999 2.02557 14.8819 2.0788 14.8975 2.11591C14.948 2.05324 15.087 1.93036 15.2393 1.94012C15.3917 1.94989 15.5225 2.07115 15.5689 2.13055C15.6112 2.13055 15.7105 2.14764 15.7691 2.216C15.8277 2.28436 15.8228 2.37307 15.8131 2.40887C15.8839 2.37551 16.0557 2.3288 16.1768 2.40887C16.2979 2.48895 16.3673 2.61151 16.3868 2.66278C16.4405 2.65871 16.5627 2.66278 16.6456 2.73114L16.661 2.74379C16.6862 2.76447 16.7094 2.78351 16.7303 2.80343ZM5.26988 8.65607L5.35248 9.91848L4.80825 10.0209C4.22941 10.1298 3.79158 10.6391 3.79158 11.2493C3.79158 11.9157 4.31348 12.4607 4.97045 12.4973L5.52324 12.5281L5.66656 14.7185C5.9338 16.6721 7.59977 18.1243 9.57212 18.1243H11.7705C13.7425 18.1243 15.4083 16.6726 15.6759 14.7193L15.8131 12.5293L16.3659 12.4971C17.0214 12.459 17.5416 11.9147 17.5416 11.2493C17.5416 10.6378 17.1019 10.1277 16.5212 10.0202L15.9765 9.91942L16.0944 8.03805L16.0973 8.01604C16.1769 7.42391 16.1288 6.84726 15.9756 6.31183C15.9479 6.29423 15.9234 6.27062 15.9058 6.23952C15.8641 6.16548 15.8634 6.08649 15.8805 6.02057C15.8714 5.99584 15.8621 5.97123 15.8526 5.94672C15.8456 5.94832 15.8381 5.9499 15.8301 5.95143C15.7286 5.97096 15.6462 5.92213 15.6177 5.89528L15.525 6.03444C15.6539 6.14586 15.6635 6.34331 15.6676 6.42733L15.6683 6.44067L15.669 6.45192C15.6739 6.51295 15.6592 6.89381 15.398 6.87672C15.189 6.86305 15.1856 6.62038 15.21 6.50075C15.0489 6.66432 14.8682 6.70827 14.7291 6.61061C14.6177 6.53249 14.6566 6.30625 14.69 6.2029C14.5704 6.33717 14.3824 6.41042 14.2384 6.31764C14.1231 6.24342 14.1513 6.01491 14.1798 5.90993C14.0797 6.02956 13.8624 6.12477 13.711 6.01247C13.5899 5.92262 13.5922 5.69671 13.6085 5.59499C13.546 5.64772 13.449 5.64137 13.4083 5.63161C13.3985 5.84157 13.2716 5.93922 13.2325 5.95143C13.1666 5.98805 13.1055 5.93922 13.1055 5.93922C13.0704 5.9529 12.9346 5.97747 12.8712 5.98805C12.9737 6.13454 12.8907 6.30544 12.8419 6.34938C12.8028 6.38454 12.793 6.43727 12.793 6.45924C12.9786 6.30788 13.1007 6.28346 13.2325 6.34938C13.338 6.40211 13.335 6.57318 13.3204 6.65211C13.4473 6.40065 13.5732 6.40742 13.6866 6.43727C13.8054 6.46855 13.8448 6.58174 13.8745 6.66735C13.8796 6.68195 13.8844 6.69581 13.8892 6.70827C14.1309 6.56667 14.2481 6.73756 14.2652 6.81569C14.2829 6.89678 14.2774 7.20143 14.0186 7.28932C13.7966 7.36472 13.6375 7.14547 13.5968 7.08932C13.59 7.08001 13.5865 7.07518 13.5865 7.07692C13.501 7.20387 13.3985 7.27467 13.1666 7.26003C12.981 7.24831 12.8923 7.03867 12.8712 6.93532C12.8354 6.95566 12.7105 6.97926 12.4976 6.9109C12.2847 6.84254 12.2494 6.58131 12.2584 6.45924C11.8892 6.40456 11.9109 6.09792 11.9678 5.95143C11.9073 5.94948 11.7896 5.87737 11.7384 5.84157C11.7012 5.91774 11.5797 5.98887 11.5235 6.01491C11.6497 6.04176 11.9029 6.13747 11.9068 6.30544C11.9107 6.4734 11.7799 6.54958 11.7139 6.56667C11.6041 6.64072 11.3502 6.76735 11.2135 6.68141C11.0767 6.59547 11.1239 6.42425 11.1646 6.34938C11.1191 6.32253 11.0196 6.2317 10.9864 6.08327C10.9532 5.93483 11.0719 5.77728 11.1353 5.71706C10.8287 5.72682 10.7716 5.54534 10.7813 5.45338C10.6568 5.39967 10.6696 5.19662 10.6812 5.19704C10.6304 5.19704 10.5787 5.17262 10.5592 5.16042C10.5543 5.27028 10.5323 5.33864 10.4469 5.39967C10.3404 5.47573 10.0758 5.42165 10.0904 5.23122C10.1021 5.07887 10.0627 4.99521 10.0416 4.97243C10.0538 5.02695 10.0504 5.17067 9.93904 5.30934C9.82771 5.44801 9.66967 5.37526 9.60457 5.32155C9.48738 5.37038 9.37507 5.40456 9.16511 5.30934C8.99714 5.23317 8.96655 5.03672 8.97224 4.94801C8.73201 4.83083 8.6573 4.59645 8.64998 4.49391C8.49177 4.69899 8.22761 4.67864 8.11531 4.64284L8.10466 4.68219C8.03535 4.93917 7.98759 5.11626 7.72957 5.20924C7.51277 5.28737 7.3658 5.17669 7.31941 5.11159C7.20613 5.13698 7.08178 5.10101 7.03376 5.07985C7.00447 5.10915 6.91414 5.16286 6.85798 5.16286C6.83392 5.22904 6.78184 5.28534 6.74642 5.32363C6.73872 5.33195 6.73181 5.33942 6.72615 5.34596C6.81892 5.56081 6.68709 5.72438 6.63337 5.761L6.64403 5.76987C6.74046 5.85002 6.80192 5.9011 6.80427 6.06129C6.80639 6.20521 6.71311 6.28124 6.64847 6.33392C6.63854 6.34201 6.62929 6.34955 6.62117 6.3567C6.68953 6.44704 6.65779 6.57155 6.59431 6.64235C6.53084 6.71315 6.19148 6.79372 6.05476 6.57155C5.91804 6.34938 6.06453 6.15651 6.16218 6.09547C5.95906 6.07399 5.88386 5.9319 5.87166 5.86354H5.71296C5.7032 6.02956 5.55916 6.1443 5.49324 6.15651C5.49324 6.29323 5.46638 6.37379 5.4322 6.42995C5.49344 6.50532 5.49333 6.63068 5.49324 6.72273L5.49324 6.73268C5.65144 6.83815 5.66983 7.00449 5.65925 7.07448C5.74226 7.09401 6.045 7.28444 5.87166 7.49928C5.73113 7.67346 5.53718 7.55544 5.46638 7.48219C5.41169 7.58571 5.27432 7.62949 5.21248 7.63844C5.2141 7.64577 5.22029 7.66823 5.23201 7.69948C5.4156 7.70338 5.5266 7.81015 5.55916 7.87526C5.58845 7.86224 5.70076 7.83863 5.84236 7.89479C6.01879 7.96477 6.17195 8.23659 6.01082 8.35866C5.88191 8.45631 5.73982 8.37656 5.68611 8.32448C5.65818 8.32448 5.64311 8.34944 5.61859 8.39004L5.60798 8.4075C5.60142 8.41817 5.59409 8.43478 5.58534 8.4546C5.54206 8.5527 5.46401 8.72963 5.27107 8.65652C5.27067 8.65637 5.27028 8.65622 5.26988 8.65607Z" fill="#635DF5"/>
</svg>
