<svg width="21" height="20" viewBox="0 0 21 20" fill="none" xmlns="http://www.w3.org/2000/svg">
<path d="M9.94041 8.14967C10.0101 8.17257 10.0816 8.18951 10.1542 8.20029C10.2698 8.22958 10.3874 8.25047 10.506 8.26279C10.5626 8.53489 10.7092 8.78 10.9221 8.95856C11.1351 9.13712 11.402 9.23872 11.6798 9.24695C11.9576 9.25518 12.2301 9.16958 12.4532 9.00394C12.6764 8.83831 12.8372 8.60231 12.9098 8.33404C13.046 7.84264 13.116 7.33523 13.1179 6.82529C13.4162 6.42067 13.6615 5.9796 13.8479 5.51279L13.856 5.49404C13.871 5.45842 13.8942 5.40279 13.9229 5.33154L14.0085 5.11529C14.0604 4.98092 14.1204 4.82154 14.1829 4.64529C14.211 4.56654 14.2398 4.48404 14.2679 4.39904L14.2848 4.34904L14.291 4.32904C14.3335 4.20404 14.376 4.06529 14.416 3.92529C14.4398 3.84467 14.4623 3.76279 14.4842 3.68029C14.5869 3.31447 14.6543 2.93962 14.6854 2.56092V2.54217C14.692 2.35648 14.6571 2.17167 14.5832 2.00117C14.5094 1.83067 14.3985 1.67878 14.2585 1.55654C14.0746 1.39446 13.8463 1.29117 13.6032 1.25998C13.36 1.22879 13.1131 1.27113 12.8942 1.38154C12.7021 1.47881 12.5383 1.62406 12.4189 1.8032C12.2994 1.98235 12.2283 2.18931 12.2123 2.40404V2.41029C12.1636 2.79247 12.0735 3.16823 11.9435 3.53092C11.881 3.71842 11.8185 3.89654 11.756 4.05592C11.6306 3.99147 11.5001 3.93713 11.366 3.89342L11.3542 3.88779C10.7914 3.70887 10.1808 3.75889 9.6546 4.02704C9.12844 4.29518 8.72913 4.75984 8.54317 5.32034C8.35721 5.88084 8.39959 6.49204 8.66113 7.02151C8.92266 7.55098 9.38228 7.95608 9.94041 8.14904V8.14967ZM12.3067 8.16904C12.2734 8.29244 12.2023 8.40231 12.1034 8.4832C12.0044 8.56409 11.8826 8.61194 11.7551 8.62001C11.6275 8.62808 11.5007 8.59597 11.3923 8.52819C11.284 8.46042 11.1996 8.36039 11.151 8.24217C11.2696 8.22115 11.3864 8.19107 11.5004 8.15217C11.8442 8.02986 12.1605 7.84082 12.431 7.59592C12.4002 7.78912 12.3587 7.98046 12.3067 8.16904ZM9.11291 5.50654C9.17975 5.30501 9.28564 5.11862 9.42454 4.95803C9.56344 4.79743 9.73262 4.66578 9.92241 4.5706C10.1122 4.47541 10.3189 4.41855 10.5307 4.40327C10.7425 4.38799 10.9552 4.41459 11.1567 4.48154L11.1754 4.48779C11.2971 4.52681 11.4145 4.57789 11.526 4.64029L11.5129 4.67092V4.67842C11.3732 5.00365 11.1834 5.30501 10.9504 5.57154L10.9404 5.58154L10.9248 5.59967C10.9029 5.62529 10.8823 5.64779 10.8623 5.66779C10.841 5.65904 10.8192 5.65092 10.7998 5.64404L10.781 5.63779C10.6816 5.60491 10.5731 5.61275 10.4794 5.6596C10.3857 5.70644 10.3144 5.78849 10.281 5.88779C10.2624 5.93619 10.2544 5.98806 10.2576 6.03984C10.2608 6.09162 10.2752 6.14209 10.2998 6.18779C10.337 6.26777 10.4008 6.3323 10.4804 6.37029C10.5015 6.37506 10.5224 6.3809 10.5429 6.38779C10.5992 6.4078 10.6578 6.42061 10.7173 6.42592C10.8124 6.43154 10.9072 6.40985 10.9904 6.36342C11.0341 6.341 11.0759 6.31508 11.1154 6.28592C11.2205 6.20371 11.3165 6.11047 11.4017 6.00779L11.4079 6.00154C11.6573 5.72001 11.8652 5.40433 12.0254 5.06404C12.0448 5.02404 12.0629 4.98404 12.081 4.94342C12.0992 4.90279 12.116 4.86154 12.1329 4.81842C12.1334 4.81513 12.1344 4.81195 12.136 4.80904C12.1368 4.80597 12.1368 4.80274 12.136 4.79967L12.1424 4.78482C12.1553 4.75455 12.1699 4.72028 12.1854 4.68279C12.2035 4.63904 12.2229 4.59154 12.2435 4.53904L12.2648 4.48467L12.286 4.42967C12.551 3.79518 12.7363 3.13033 12.8379 2.45029C12.8435 2.37481 12.8625 2.30094 12.8942 2.23217C12.9304 2.15479 12.9821 2.08566 13.046 2.02904C13.1671 1.92128 13.3261 1.86598 13.4879 1.87529C13.6223 1.88253 13.7502 1.93545 13.8504 2.02529C13.9203 2.0866 13.9757 2.16274 14.0125 2.24816C14.0492 2.33357 14.0665 2.42612 14.0629 2.51904C14.0567 2.61842 14.0448 2.72342 14.0285 2.83154C13.9785 3.13935 13.9084 3.44355 13.8185 3.74217L13.7923 3.82967C13.6635 4.25779 13.5154 4.65779 13.4079 4.93217L13.3872 4.98443C13.3722 5.02215 13.3584 5.05709 13.3454 5.08904C13.3167 5.16092 13.2935 5.21717 13.2785 5.25279L13.2692 5.27529C13.2517 5.31904 13.2335 5.36217 13.2154 5.40529C13.0285 5.83992 12.7845 6.24768 12.4898 6.61779C12.4385 6.68029 12.386 6.74279 12.3317 6.80529C12.0389 7.17781 11.6398 7.45247 11.1873 7.59279C10.975 7.65036 10.7536 7.66565 10.5354 7.63779C10.4463 7.62675 10.3582 7.6092 10.2717 7.58529C10.2261 7.58134 10.1812 7.5719 10.1379 7.55717C9.9359 7.49001 9.74912 7.38368 9.58825 7.24427C9.42737 7.10486 9.29556 6.93509 9.20036 6.74469C9.10516 6.55429 9.04844 6.34698 9.03343 6.13464C9.01842 5.92229 9.04543 5.70844 9.11291 5.50654Z" fill="#635DF5"/>
<path d="M7.87125 2.48667C7.77258 2.5526 7.65658 2.58779 7.53791 2.58779C7.37878 2.58779 7.22617 2.52457 7.11364 2.41205C7.00112 2.29953 6.93791 2.14692 6.93791 1.98779C6.93791 1.86912 6.9731 1.75311 7.03903 1.65445C7.10496 1.55578 7.19866 1.47887 7.3083 1.43346C7.41793 1.38805 7.53857 1.37616 7.65496 1.39932C7.77135 1.42247 7.87826 1.47961 7.96217 1.56352C8.04608 1.64743 8.10323 1.75434 8.12638 1.87073C8.14953 1.98712 8.13765 2.10776 8.09224 2.2174C8.04682 2.32703 7.96992 2.42074 7.87125 2.48667Z" fill="#635DF5"/>
<path d="M15.3136 14.265C15.4133 14.1983 15.5305 14.1628 15.6504 14.1628C15.8112 14.1628 15.9654 14.2267 16.0791 14.3404C16.1928 14.454 16.2567 14.6083 16.2567 14.769C16.2567 14.8889 16.2211 15.0062 16.1545 15.1059C16.0879 15.2056 15.9932 15.2833 15.8824 15.3291C15.7716 15.375 15.6497 15.387 15.5321 15.3636C15.4145 15.3402 15.3065 15.2825 15.2217 15.1977C15.1369 15.1129 15.0792 15.0049 15.0558 14.8873C15.0324 14.7697 15.0444 14.6478 15.0903 14.537C15.1362 14.4263 15.2139 14.3316 15.3136 14.265Z" fill="#635DF5"/>
<path d="M15.9379 5.56903C16.0813 5.56903 16.2215 5.52651 16.3407 5.44685C16.4599 5.36719 16.5528 5.25396 16.6077 5.12148C16.6626 4.989 16.6769 4.84323 16.649 4.70259C16.621 4.56196 16.5519 4.43277 16.4506 4.33138C16.3492 4.22999 16.22 4.16094 16.0793 4.13296C15.9387 4.10499 15.7929 4.11935 15.6605 4.17422C15.528 4.22909 15.4148 4.32202 15.3351 4.44125C15.2554 4.56047 15.2129 4.70064 15.2129 4.84403C15.2129 4.93924 15.2317 5.03352 15.2681 5.12148C15.3045 5.20944 15.3579 5.28936 15.4252 5.35669C15.4926 5.42401 15.5725 5.47741 15.6605 5.51385C15.7484 5.55028 15.8427 5.56903 15.9379 5.56903Z" fill="#635DF5"/>
<path d="M4.4907 5.44685C4.37147 5.52651 4.2313 5.56903 4.08791 5.56903C3.9927 5.56903 3.89842 5.55028 3.81046 5.51385C3.7225 5.47741 3.64258 5.42401 3.57525 5.35669C3.50793 5.28936 3.45453 5.20944 3.41809 5.12148C3.38166 5.03352 3.36291 4.93924 3.36291 4.84403C3.36291 4.70064 3.40543 4.56047 3.48509 4.44125C3.56476 4.32202 3.67799 4.22909 3.81046 4.17422C3.94294 4.11935 4.08871 4.10499 4.22935 4.13296C4.36998 4.16094 4.49917 4.22999 4.60056 4.33138C4.70195 4.43277 4.771 4.56196 4.79898 4.70259C4.82695 4.84323 4.81259 4.989 4.75772 5.12148C4.70285 5.25396 4.60992 5.36719 4.4907 5.44685Z" fill="#635DF5"/>
<path d="M18.7062 9.30559C18.5488 9.37794 18.3692 9.38502 18.2067 9.3253C17.5438 9.07729 16.8286 9.00275 16.1289 9.10874C15.4292 9.21473 14.7682 9.49775 14.2085 9.93093C15.6627 9.96793 17.0849 10.365 18.3479 11.0865C18.6568 11.2609 18.8842 11.5503 18.9806 11.8916C19.0769 12.2329 19.0345 12.5985 18.8624 12.9086C18.6903 13.2188 18.4026 13.4483 18.062 13.5472C17.7214 13.6461 17.3556 13.6063 17.0442 13.4366C16.2964 13.0026 15.4649 12.7329 14.6048 12.6453C13.7448 12.5577 12.8759 12.6542 12.056 12.9284C12.2656 13.3305 12.4221 13.758 12.5217 14.2003C12.5574 14.3323 12.575 14.4685 12.5742 14.6053C12.5953 14.778 12.5795 14.9533 12.5278 15.1194C12.4761 15.2856 12.3896 15.4389 12.2742 15.569C12.2242 15.6189 12.1686 15.6627 12.1085 15.6997C11.9239 15.8771 11.6969 16.0042 11.4492 16.069L3.48791 18.2003C3.23122 18.2688 2.96102 18.2685 2.7045 18.1994C2.44798 18.1303 2.21419 17.9948 2.02665 17.8066C1.83911 17.6185 1.70444 17.3842 1.6362 17.1275C1.56796 16.8707 1.56855 16.6005 1.63791 16.3441L3.76916 8.38155C3.83461 8.13103 3.9638 7.90171 4.14416 7.71593C4.17965 7.65824 4.22159 7.60477 4.26916 7.55655C4.39525 7.4439 4.54353 7.3589 4.70446 7.30702C4.86538 7.25513 5.03539 7.23752 5.20353 7.2553C5.35559 7.2514 5.50734 7.2708 5.65353 7.3128C6.0417 7.40044 6.41809 7.53388 6.77478 7.7103C6.95005 6.69765 6.78083 5.65547 6.29416 4.7503C6.20216 4.57874 6.18208 4.37766 6.23834 4.19129C6.29461 4.00493 6.4226 3.84855 6.59416 3.75655C6.76572 3.66455 6.9668 3.64448 7.15316 3.70074C7.33953 3.757 7.49591 3.88499 7.58791 4.05655C8.31886 5.41827 8.50304 7.00749 8.10291 8.5003C8.58808 8.84471 9.04935 9.22162 9.48353 9.62842C9.6152 9.49494 9.79382 9.41819 9.98128 9.41455C10.1687 9.41091 10.3502 9.48067 10.487 9.60894C10.6237 9.73721 10.7049 9.91384 10.7133 10.1011C10.7216 10.2885 10.6565 10.4716 10.5317 10.6115C10.621 10.5759 10.711 10.5422 10.8029 10.5097C11.6268 10.2143 12.4857 10.0278 13.3579 9.95468C13.3189 9.92348 13.2835 9.88806 13.2523 9.84905C13.1448 9.71265 13.0958 9.53917 13.1161 9.36669C13.1363 9.1942 13.2242 9.03681 13.3604 8.92905C14.0981 8.34562 14.9739 7.96255 15.9031 7.81692C16.8323 7.67129 17.7833 7.76804 18.6642 8.0978C18.8262 8.15904 18.9573 8.28195 19.0289 8.43964C19.1005 8.59732 19.1068 8.77695 19.0463 8.93923C18.9858 9.10151 18.8635 9.23324 18.7062 9.30559ZM7.52614 13.9031L7.41291 13.8066C7.44713 13.8365 7.48222 13.8661 7.5169 13.8953C7.51998 13.8979 7.52306 13.9005 7.52614 13.9031ZM7.52614 13.9031L7.60853 13.9734C7.58186 13.9502 7.55417 13.9268 7.52614 13.9031ZM2.86733 17.5961C3.01774 17.6366 3.17616 17.6367 3.32666 17.5965L3.68791 17.5022C3.17706 17.1318 2.71818 16.6945 2.32353 16.2022L2.24166 16.5084C2.20104 16.6588 2.20074 16.8172 2.24079 16.9678C2.28085 17.1183 2.35984 17.2556 2.46983 17.3659C2.57982 17.4762 2.71691 17.5556 2.86733 17.5961ZM3.86478 16.0291C4.30952 16.4394 4.81011 16.7847 5.35166 17.0547L7.10041 16.5866C6.41989 16.1844 5.78494 15.7098 5.20666 15.1709C4.4506 14.4566 3.7905 13.6471 3.24291 12.7628L2.74666 14.6184C3.05041 15.1394 3.42691 15.6144 3.86478 16.0291ZM6.06291 14.2572C6.89699 15.0273 7.85392 15.6526 8.89416 16.1072L10.451 15.6897C9.02729 15.1268 7.74473 14.2577 6.69416 13.144C6.32629 12.7782 5.97909 12.3922 5.65416 11.9878C5.51082 11.8095 5.37666 11.6318 5.25166 11.4547C4.78398 10.8232 4.41089 10.1269 4.14416 9.3878L3.70478 11.0509C4.30123 12.2469 5.09889 13.3315 6.06291 14.2572ZM18.2719 11.8128C18.2104 11.7387 18.1347 11.6777 18.0492 11.6334H18.046C16.9868 11.0276 15.806 10.6652 14.5892 10.5725C13.3725 10.4799 12.1504 10.6593 11.0117 11.0978L10.8917 11.1416L10.8973 11.1478C9.71315 11.622 8.65597 12.3659 7.80978 13.3203C7.97166 13.4622 8.12853 13.5922 8.28416 13.7172C8.50228 13.8922 8.72166 14.0541 8.97166 14.2172C9.65372 13.4323 10.5182 12.827 11.4892 12.4547C12.4359 12.0833 13.4539 11.9294 14.4681 12.0043C15.4823 12.0793 16.4667 12.3812 17.3485 12.8878C17.4311 12.9374 17.5228 12.9699 17.6181 12.9834C17.7135 12.9969 17.8106 12.9911 17.9036 12.9663C17.9967 12.9415 18.0838 12.8983 18.1599 12.8392C18.2359 12.7801 18.2993 12.7063 18.3462 12.6222C18.3932 12.5381 18.4228 12.4455 18.4332 12.3497C18.4437 12.254 18.4348 12.1571 18.4071 12.0649C18.3794 11.9727 18.3334 11.887 18.2719 11.8128Z" fill="#635DF5"/>
</svg>
