<svg width="21" height="20" viewBox="0 0 21 20" fill="none" xmlns="http://www.w3.org/2000/svg">
<path d="M1.5835 10C1.5835 5.16751 5.501 1.25 10.3335 1.25C15.166 1.25 19.0835 5.16751 19.0835 10C19.0835 14.8325 15.166 18.75 10.3335 18.75C5.501 18.75 1.5835 14.8325 1.5835 10ZM9.90289 2.51215C9.91816 2.72262 9.81141 2.92893 9.61989 3.03534L7.28051 4.33499C7.23271 4.36155 7.18163 4.38172 7.12857 4.39498L6.88674 4.45544L7.0217 5.40016L9.20607 5.83704C9.33165 5.86215 9.44211 5.92387 9.52724 6.00975L12.2089 4.66891C12.2086 4.66135 12.2085 4.65376 12.2085 4.64615V3.51081C12.2085 3.19547 12.4405 2.9394 12.7364 2.89318C11.982 2.63823 11.1739 2.5 10.3335 2.5C10.189 2.5 10.0454 2.50409 9.90289 2.51215ZM5.19662 4.53531C4.00746 5.65356 3.18335 7.15559 2.92211 8.84357L4.90076 7.85424C4.91535 7.82076 4.93302 7.78824 4.95378 7.75709L6.35132 5.66078C6.43677 5.53262 6.56411 5.44352 6.70666 5.40455L6.58196 4.53164L5.81305 4.72386C5.57036 4.78453 5.3422 4.69718 5.19662 4.53531ZM2.87387 9.21707C2.84728 9.47342 2.8336 9.73361 2.8335 9.99698V10.003C2.83383 10.8559 2.97654 11.6756 3.23915 12.4394L4.9332 14.3217C4.98732 14.2564 5.05602 14.2013 5.13547 14.1615L6.25909 13.5997C6.31821 13.5702 6.38067 13.5506 6.44413 13.5409L6.69886 10.4842C6.54216 10.4595 6.39632 10.3755 6.29611 10.2418L4.97382 8.47878C4.91598 8.40166 4.87812 8.31432 4.86043 8.22379L2.87387 9.21707ZM4.80201 14.6431L3.60074 13.3083C3.96057 14.0393 4.43592 14.7031 5.00296 15.2759C4.92721 15.12 4.8704 14.9737 4.82623 14.8372C4.80531 14.7724 4.79781 14.707 4.80201 14.6431ZM10.3335 17.5C11.9374 17.5 13.4237 16.9965 14.643 16.139L14.7964 14.9121C14.726 14.9212 14.6533 14.9183 14.5812 14.9023L12.6979 14.4838C12.5636 14.4539 12.4474 14.3821 12.362 14.284L9.34338 15.6772C9.34252 15.6856 9.34149 15.694 9.34029 15.7024L9.17693 16.846C9.16402 16.9364 9.13223 17.0208 9.08613 17.096C9.36006 17.2499 9.64778 17.3803 9.9357 17.4896C10.0674 17.4965 10.2001 17.5 10.3335 17.5ZM15.1302 14.761L14.9904 15.8794C16.304 14.8376 17.2603 13.3649 17.6458 11.6749L16.7315 12.132C16.7189 12.1644 16.7034 12.1959 16.6852 12.2264L15.2528 14.6137C15.2191 14.6699 15.1775 14.7193 15.1302 14.761ZM16.7593 11.7687L17.7236 11.2866C17.7958 10.8686 17.8335 10.4387 17.8335 10C17.8335 8.35816 17.3059 6.83954 16.4111 5.60442C16.3957 5.74148 16.3351 5.87346 16.2319 5.97659L15.6786 6.52996C15.5521 6.6564 15.3822 6.71907 15.2125 6.71258L15.4544 9.92837C15.5171 9.96971 15.573 10.0229 15.6187 10.0868L16.6578 11.5416C16.7075 11.6111 16.7414 11.6885 16.7593 11.7687ZM7.01511 10.4522L6.75509 13.5724C6.80039 13.5891 6.84411 13.6113 6.88528 13.6387L9.06826 15.094C9.1678 15.1604 9.244 15.2522 9.29129 15.3571L12.2222 14.0043C12.2132 13.962 12.2085 13.9183 12.2085 13.8737V11.3607C12.2085 11.2686 12.2287 11.1799 12.2656 11.0997L9.45071 9.45766C9.40954 9.48755 9.3643 9.5127 9.31562 9.53217L7.02823 10.4471L7.01511 10.4522ZM9.65138 9.21294L12.4662 10.8549C12.5074 10.825 12.5527 10.7999 12.6014 10.7804L14.878 9.86973C14.9611 9.83647 15.048 9.82222 15.1333 9.82542L14.8914 6.60974L12.5119 5.18209C12.4241 5.1294 12.3522 5.05703 12.3005 4.97252L9.6851 6.28021C9.70037 6.33438 9.7085 6.39134 9.7085 6.4499V8.95188C9.7085 9.04394 9.68831 9.13266 9.65138 9.21294Z" fill="#635DF5"/>
</svg>
