<svg width="21" height="20" viewBox="0 0 21 20" fill="none" xmlns="http://www.w3.org/2000/svg">
<path d="M8.21924 14.4746C7.71847 14.4746 7.33546 14.8892 7.33545 15.375V16.5059C7.33545 16.975 7.70252 17.4062 8.21924 17.4062H11.8228C12.3235 17.4062 12.7056 16.9916 12.7056 16.5059V15.375C12.7056 14.9059 12.3395 14.4746 11.8228 14.4746H8.21924ZM6.51318 5.98145C6.51329 7.97339 8.12766 9.58789 10.1196 9.58789C12.1186 9.58786 13.7318 7.97262 13.7319 5.98145V2H6.51318V5.98145ZM15.8149 3.78418C15.1217 3.59047 14.4069 3.89568 14.0532 4.48633L13.9819 4.60547V5.98145C13.9819 6.12678 13.9741 6.27032 13.9585 6.41113L13.8521 7.37109L14.6978 6.90332L16.0679 6.14453C17.0566 5.59792 16.9179 4.15271 15.8872 3.80371L15.8735 3.79883L15.8589 3.79492L15.855 3.79395L15.8481 3.79199L15.8354 3.78906L15.8159 3.78418H15.8149ZM9.57568 9.81934L9.19482 9.72656C8.1649 9.47333 7.297 8.80459 6.77881 7.9082L6.6792 7.72656L6.60986 7.58984L6.47607 7.51562L4.13135 6.21777H4.13037C3.12086 5.65933 3.20804 4.19131 4.22998 3.76172L4.33154 3.72266C4.3388 3.72024 4.34989 3.71738 4.36279 3.71387L4.396 3.70508L4.40869 3.70215C4.80448 3.59325 5.20532 3.63848 5.54932 3.80176L6.26318 4.14062V1.75H13.9819V4.13477L14.6948 3.79883C14.995 3.65755 15.3381 3.60592 15.6831 3.66797L15.8306 3.70215L15.8433 3.70508C15.8529 3.70749 15.8642 3.71053 15.8765 3.71387L15.9077 3.72266C16.99 4.08342 17.1421 5.54633 16.2026 6.16113L16.1089 6.21777L13.772 7.51074L13.6372 7.58496L13.5679 7.72168C13.0658 8.71218 12.1485 9.4564 11.0444 9.72656L10.6636 9.82031V10.9434C10.6636 11.4792 10.8726 11.9879 11.2378 12.3701L11.4038 12.5264L11.4058 12.5283L12.606 13.5283L12.7446 13.6436H14.5786C14.8076 13.6436 14.9844 13.7743 15.0552 13.9414L15.0796 14.0146V14.0176L16.0405 18.2373H4.00146L4.9624 14.0176L4.96436 14.0078C5.00472 13.8144 5.1933 13.6436 5.45654 13.6436H7.49463L7.6333 13.5283L8.83154 12.5293C9.30467 12.1391 9.57568 11.5527 9.57568 10.9434V9.81934ZM6.26318 4.61914L6.1958 4.50195C5.8674 3.93853 5.21285 3.62865 4.55615 3.75293L4.42432 3.78418H4.42334L4.38721 3.79297L4.3833 3.79395L4.38037 3.79492L4.36572 3.79883L4.35205 3.80371C3.32191 4.15252 3.18244 5.59643 4.17041 6.14355V6.14453L5.54834 6.90723L6.39404 7.375L6.2876 6.41406C6.27178 6.27221 6.26319 6.12789 6.26318 5.98145V4.61914Z" fill="#635DF5" stroke="#635DF5"/>
</svg>
