<svg width="21" height="20" viewBox="0 0 21 20" fill="none" xmlns="http://www.w3.org/2000/svg">
<g clip-path="url(#clip0_150_13398)">
<path d="M6.70231 9.01797L6.70742 9.01502C6.71257 9.01208 6.72108 9.00728 6.73276 9.00095C6.75614 8.98829 6.7921 8.96952 6.83907 8.94713C6.93324 8.90225 7.07036 8.84343 7.2381 8.78989C7.57643 8.68192 8.02259 8.60075 8.48722 8.68275C8.65718 8.71274 8.81928 8.59927 8.84927 8.42931C8.87927 8.25935 8.7658 8.09725 8.59584 8.06726C7.99797 7.96175 7.44413 8.06808 7.04808 8.19448C6.84864 8.25813 6.68498 8.32822 6.57016 8.38294C6.51264 8.41036 6.46705 8.43408 6.43501 8.45144C6.41898 8.46012 6.40631 8.46723 6.39721 8.47244L6.38624 8.47878L6.3828 8.48081L6.3816 8.48152L6.38075 8.48203C6.23275 8.57083 6.18477 8.76279 6.27356 8.91078C6.36233 9.05872 6.55434 9.10663 6.70231 9.01797Z" fill="#635DF5"/>
<path d="M7.54148 9.625C7.59371 9.625 7.64603 9.62849 7.69827 9.63518C7.7581 9.62846 7.81889 9.625 7.88045 9.625C8.6703 9.625 9.33056 10.1873 9.47865 10.9349C9.50951 11.1017 9.37992 11.25 9.21331 11.25H9.12074C9.14542 11.1638 9.15776 11.0715 9.15776 10.973C9.15776 10.3944 8.69496 9.93277 8.12109 9.93277C7.54722 9.93277 7.07825 10.3944 7.07825 10.973C7.07825 11.0715 7.09059 11.1577 7.11527 11.25H6.61547C6.40566 11.25 6.2514 11.0585 6.30076 10.8546L6.30136 10.8522L6.24461 10.8125C5.99461 10.625 5.93212 10.3125 6.30711 10.0625C6.68211 9.75 7.10398 9.625 7.54148 9.625Z" fill="#635DF5"/>
<path d="M9.60168 12.9351L10.221 10.9541C10.36 10.5153 10.9793 10.5153 11.112 10.9541L11.7313 12.9351C11.8577 13.3363 11.5544 13.75 11.1247 13.75H10.2083C9.77863 13.75 9.47529 13.3425 9.60168 12.9351Z" fill="#635DF5"/>
<path d="M10.6665 14.6221C10.0752 14.6221 9.51928 14.483 9.05211 14.2394C8.89245 14.1582 8.72095 14.338 8.82148 14.483C9.21178 15.0744 9.89183 15.4688 10.6665 15.4688C11.4412 15.4688 12.1212 15.0744 12.5115 14.483C12.6121 14.3322 12.4406 14.1582 12.2809 14.2394C11.8137 14.483 11.2638 14.6221 10.6665 14.6221Z" fill="#635DF5"/>
<path d="M13.7011 9.64403C13.7727 9.6316 13.8447 9.625 13.9165 9.625C14.354 9.625 14.7759 9.75 15.1509 10.0625C15.5259 10.3125 15.4634 10.625 15.2134 10.8125L15.0415 10.9328C15.0407 11.1049 14.9002 11.25 14.7175 11.25H14.2177C14.2424 11.1577 14.2548 11.0715 14.2548 10.973C14.2548 10.3944 13.7858 9.93277 13.2119 9.93277C12.638 9.93277 12.1691 10.3944 12.1752 10.973C12.1752 11.0715 12.1876 11.1638 12.2123 11.25H12.1197C11.9531 11.25 11.8235 11.1017 11.8544 10.9349C12.0024 10.1873 12.6565 9.625 13.4526 9.625C13.537 9.625 13.62 9.6315 13.7011 9.64403Z" fill="#635DF5"/>
<path d="M8.12111 10.3821C8.44815 10.3821 8.71349 10.6468 8.71349 10.973C8.71349 11.0715 8.68881 11.1638 8.64561 11.25H7.5966C7.55341 11.1638 7.52872 11.0715 7.52872 10.973C7.52872 10.8653 7.55763 10.7644 7.60812 10.6774C7.64116 10.7286 7.69828 10.7625 7.76321 10.7625C7.86545 10.7625 7.94833 10.6786 7.94833 10.575C7.94833 10.5176 7.92289 10.4663 7.88282 10.4319C7.95574 10.3999 8.03635 10.3821 8.12111 10.3821Z" fill="#635DF5"/>
<path d="M12.6133 10.973C12.6133 10.8516 12.6501 10.7388 12.713 10.6449C12.7404 10.7138 12.807 10.7625 12.8849 10.7625C12.9871 10.7625 13.07 10.6786 13.07 10.575C13.07 10.5118 13.0391 10.4558 12.9917 10.4219C13.0581 10.3962 13.1303 10.3821 13.2057 10.3821C13.5328 10.3821 13.7981 10.6468 13.7981 10.973C13.7981 11.0715 13.7734 11.1638 13.7302 11.25H12.6812C12.638 11.1638 12.6133 11.0715 12.6133 10.973Z" fill="#635DF5"/>
<path d="M14.9521 8.48193L14.9515 8.48152L14.9503 8.48081L14.9468 8.47878L14.9358 8.47244C14.9267 8.46723 14.9141 8.46012 14.898 8.45144C14.866 8.43408 14.8204 8.41036 14.7629 8.38294C14.6481 8.32822 14.4844 8.25813 14.285 8.19448C13.8889 8.06808 13.3351 7.96175 12.7372 8.06726C12.5673 8.09725 12.4538 8.25935 12.4838 8.42931C12.5138 8.59927 12.6759 8.71274 12.8458 8.68275C13.3105 8.60075 13.7566 8.68192 14.095 8.78989C14.2627 8.84343 14.3998 8.90225 14.494 8.94713C14.541 8.96952 14.5769 8.98829 14.6003 9.00095C14.612 9.00728 14.6205 9.01208 14.6256 9.01502L14.6308 9.018L14.6314 9.01833C14.7793 9.10663 14.9708 9.05857 15.0595 8.91078C15.1483 8.76279 15.1001 8.57072 14.9521 8.48193Z" fill="#635DF5"/>
<path d="M7.03406 2.48875C7.84185 1.36605 9.17084 0.625 10.6664 0.625C12.1619 0.625 13.491 1.36604 14.2988 2.48875L14.3053 2.4978C14.3088 2.49867 14.3146 2.5 14.3222 2.5C16.79 2.5 18.7915 4.50152 18.7915 6.96934V6.98113C18.7915 7.59117 18.9686 8.19086 19.3018 8.70117C19.7824 9.40574 20.0415 10.3493 20.0415 11.1675C20.0415 11.8458 19.8929 12.5028 19.6051 13.0956C19.8761 13.666 20.0415 14.3104 20.0415 15C20.0415 17.4206 18.0872 19.375 15.6665 19.375H5.6665C3.24585 19.375 1.2915 17.4206 1.2915 15C1.2915 14.3103 1.45689 13.666 1.72797 13.0955L1.72716 13.0938C1.45743 12.5139 1.2915 11.8701 1.2915 11.1675C1.2915 10.2531 1.56416 9.41953 2.02354 8.71298L2.02652 8.7082L2.03007 8.70278C2.36396 8.19212 2.54138 7.59181 2.54138 6.98113V6.96934C2.54138 4.5015 4.54293 2.50007 7.0107 2.5C7.01283 2.5 7.01814 2.49933 7.02478 2.49591C7.02786 2.49432 7.03024 2.49262 7.03182 2.49127L7.03312 2.49005L7.03406 2.48875ZM11.5283 7.23984C9.94883 7.23984 8.45666 6.46874 7.56024 5.163L7.46751 5.38213C7.17269 6.11339 6.61151 6.66923 5.92292 6.98543C5.9087 6.99197 5.894 6.99742 5.87896 7.00175C5.52661 7.10318 5.2956 7.3749 5.15155 7.81442C5.00502 8.26152 4.96574 8.83839 4.98064 9.45271C4.98403 9.59211 4.89465 9.71687 4.76158 9.75852C4.12663 9.95727 3.6665 10.5503 3.6665 11.25C3.6665 12.0564 4.27767 12.7205 5.0619 12.8037C5.19227 12.8175 5.30015 12.9113 5.33205 13.0384C5.9404 15.4634 8.0857 17.0323 10.6589 17.0323C13.2492 17.0323 15.4061 15.4424 15.9978 12.9892C16.0315 12.8495 16.1562 12.7507 16.2999 12.75C17.159 12.7455 17.854 12.0476 17.854 11.1875C17.854 10.4035 17.2763 9.75388 16.5234 9.64205C16.3655 9.61859 16.2506 9.47982 16.2571 9.32026L16.2912 8.48045C16.261 7.84962 16.0251 7.55967 15.8188 7.41599C15.5937 7.25917 15.3499 7.23984 15.2804 7.23984H11.5283Z" fill="#635DF5"/>
</g>
<defs>
<clipPath id="clip0_150_13398">
<rect width="20" height="20" fill="white" transform="translate(0.666504)"/>
</clipPath>
</defs>
</svg>
