<svg width="21" height="20" viewBox="0 0 21 20" fill="none" xmlns="http://www.w3.org/2000/svg">
<path d="M15.0162 8.21882C14.8121 8.04102 14.5747 7.85262 14.2151 7.73941C13.8606 7.62781 13.4166 7.59783 12.8023 7.67299C12.6251 7.69466 12.4991 7.85584 12.5207 8.03299C12.5424 8.21015 12.7036 8.33619 12.8807 8.31452C13.4414 8.24592 13.7849 8.28157 14.021 8.3559C14.2521 8.42864 14.4084 8.54648 14.5918 8.70618C14.7263 8.8234 14.9305 8.80933 15.0477 8.67475C15.1649 8.54017 15.1508 8.33604 15.0162 8.21882Z" fill="#635DF5"/>
<path d="M6.30076 10.8546C6.47971 10.1502 7.12146 9.625 7.88045 9.625C8.6703 9.625 9.33056 10.1873 9.47865 10.9349C9.50951 11.1017 9.37992 11.25 9.21331 11.25H9.12076C9.14544 11.1638 9.15778 11.0715 9.15778 10.973C9.15778 10.3944 8.69498 9.93277 8.12111 9.93277C7.54724 9.93277 7.07827 10.3944 7.07827 10.973C7.07827 11.0715 7.09061 11.1577 7.11529 11.25H6.61547C6.40566 11.25 6.2514 11.0585 6.30076 10.8546Z" fill="#635DF5"/>
<path d="M13.4526 9.625C14.2115 9.625 14.8533 10.1502 15.0322 10.8546C15.0816 11.0585 14.9273 11.25 14.7175 11.25H14.2177C14.2424 11.1577 14.2548 11.0715 14.2548 10.973C14.2548 10.3944 13.7858 9.93277 13.2119 9.93277C12.638 9.93277 12.1691 10.3944 12.1752 10.973C12.1752 11.0715 12.1876 11.1638 12.2123 11.25H12.1197C11.9531 11.25 11.8235 11.1017 11.8544 10.9349C12.0024 10.1873 12.6565 9.625 13.4526 9.625Z" fill="#635DF5"/>
<path d="M8.71349 10.973C8.71349 10.6468 8.44815 10.3821 8.12111 10.3821C8.03635 10.3821 7.95574 10.3999 7.88282 10.4319C7.92289 10.4663 7.94833 10.5176 7.94833 10.575C7.94833 10.6786 7.86545 10.7625 7.76321 10.7625C7.69828 10.7625 7.64116 10.7286 7.60811 10.6774C7.55763 10.7644 7.52872 10.8653 7.52872 10.973C7.52872 11.0715 7.55341 11.1638 7.5966 11.25H8.64561C8.68881 11.1638 8.71349 11.0715 8.71349 10.973Z" fill="#635DF5"/>
<path d="M12.713 10.6449C12.6501 10.7388 12.6133 10.8516 12.6133 10.973C12.6133 11.0715 12.638 11.1638 12.6812 11.25H13.7302C13.7734 11.1638 13.7981 11.0715 13.7981 10.973C13.7981 10.6468 13.5328 10.3821 13.2057 10.3821C13.1303 10.3821 13.0581 10.3962 12.9917 10.4219C13.0391 10.4558 13.07 10.5118 13.07 10.575C13.07 10.6786 12.9871 10.7625 12.8849 10.7625C12.807 10.7625 12.7404 10.7138 12.713 10.6449Z" fill="#635DF5"/>
<path d="M6.51909 8.20665L6.51811 8.20742C6.37723 8.31699 6.35185 8.52002 6.46142 8.6609C6.57071 8.80141 6.773 8.82699 6.91383 8.71842L6.91705 8.71603C6.92066 8.71337 6.92713 8.70869 6.93637 8.70231C6.95484 8.68954 6.98427 8.67003 7.02387 8.64633C7.10323 8.59883 7.22244 8.5351 7.37538 8.47496C7.68132 8.35467 8.11726 8.25059 8.63977 8.31451C8.81692 8.33619 8.9781 8.21015 8.99977 8.03299C9.02145 7.85584 8.8954 7.69466 8.71825 7.67299C8.06575 7.59316 7.52045 7.72345 7.13889 7.87347C6.94807 7.9485 6.79697 8.0289 6.69195 8.09176C6.63937 8.12323 6.59809 8.15045 6.56892 8.17061C6.55432 8.1807 6.54273 8.18904 6.53423 8.19529L6.52382 8.20304L6.52037 8.20567L6.51909 8.20665Z" fill="#635DF5"/>
<path d="M9.05211 14.5519C9.51928 14.7955 10.0752 14.9346 10.6665 14.9346C11.2638 14.9346 11.8137 14.7955 12.2809 14.5519C12.4406 14.4707 12.6121 14.6447 12.5115 14.7955C12.1212 15.3869 11.4412 15.7812 10.6665 15.7812C9.89183 15.7812 9.21178 15.3869 8.82148 14.7955C8.72095 14.6505 8.89245 14.4707 9.05211 14.5519Z" fill="#635DF5"/>
<path d="M16.3237 3.81875C16.9231 4.025 17.4608 4.44375 17.8007 5.04375C18.3446 6 18.8893 7.14375 18.3021 7.9875C18.0982 8.2875 17.9869 8.64375 17.9869 9.00625C17.9869 9.14397 17.9871 9.28173 17.9875 9.41954C18.4819 9.87615 18.7915 10.5298 18.7915 11.2563C18.7915 11.9719 18.4909 12.6172 18.009 13.0729C18.0098 13.2953 18.0103 13.518 18.0103 13.7411C18.0103 14.4461 17.4389 15.099 16.7774 15.5664C16.1678 17.7942 14.1354 19.3813 11.7704 19.3813H9.57205C7.20995 19.3813 5.17962 17.7981 4.56733 15.5747C3.90082 15.1067 3.32275 14.4502 3.32275 13.7411C3.33203 13.5245 3.33906 13.3081 3.34428 13.0918C2.85056 12.6352 2.5415 11.9819 2.5415 11.2563C2.5415 10.5329 2.84848 9.88174 3.33923 9.42541C3.33852 9.28572 3.33811 9.14601 3.33811 9.00625C3.33811 8.64375 3.22687 8.2875 3.02292 7.9875C2.46669 7.16875 2.5415 6.025 3.1665 5.04375C3.68882 4.22372 4.1794 4.07588 4.69081 3.92177C4.79134 3.89147 4.89268 3.86094 4.99522 3.825C5.66269 3.5875 6.23127 3.1375 6.60827 2.53125C7.09033 1.7625 7.93703 1.25 8.90733 1.25C9.28433 1.25 9.64279 1.33125 9.97652 1.46875C10.4215 1.6625 10.9221 1.6625 11.3671 1.46875C11.6946 1.33125 12.0531 1.25 12.4301 1.25C13.4128 1.25 14.2718 1.78125 14.7477 2.56875C15.1061 3.1625 15.6686 3.59375 16.3237 3.81875ZM8.66012 5C6.85338 5 5.354 6.48387 5.354 8.3125V9.93089C5.7196 11.2169 6.41077 13.5159 6.8863 14.29C7.0132 14.5414 7.33045 14.5414 7.5208 14.3528L8.09185 13.787C8.28221 13.5355 8.66291 13.4098 8.98016 13.4098H9.64286C9.57044 13.2705 9.54966 13.1028 9.60168 12.9351L10.221 10.9541C10.36 10.5153 10.9793 10.5153 11.112 10.9541L11.7313 12.9351C11.7837 13.1012 11.7623 13.2696 11.6887 13.4098H12.4699C12.7872 13.4098 13.1044 13.5355 13.3582 13.787L13.9293 14.4157C14.1196 14.6043 14.4369 14.6043 14.5638 14.3528L14.604 14.29C15.0564 13.5534 15.6473 11.1912 15.9485 9.89902L16.0505 8.20065C16.0324 7.64506 15.5943 7.19757 15.0544 7.16875H13.4375C12.0761 7.16875 10.8465 6.36534 10.2895 5.11717L10.2845 5.10592L10.28 5.09449C10.2566 5.03602 10.2007 5 10.1434 5H8.66012ZM16.2982 9.98959V12.508L16.3658 12.5041C17.0213 12.4659 17.5415 11.9216 17.5415 11.2563C17.5415 10.6375 17.0914 10.1227 16.5007 10.0236L16.2982 9.98959ZM5.0442 12.5084L5.0442 9.98666L4.96649 9.99808L4.80818 10.0279C4.22934 10.1368 3.7915 10.6461 3.7915 11.2563C3.7915 11.9227 4.3134 12.4677 4.97037 12.5043L5.0442 12.5084ZM8.48146 14.6043V16.1243C8.48146 16.753 8.79149 17.2559 9.72898 17.2559C9.85589 17.2559 10.0415 17.1302 10.0415 17.0044V16.8787C10.0415 16.5015 10.3761 16.25 10.6933 16.25C11.074 16.25 11.2915 16.5644 11.2915 16.8787V17.0044C11.2915 17.1302 11.4771 17.2559 11.604 17.2559C12.4699 17.2559 12.854 16.753 12.854 16.1243V14.6043C12.854 14.2899 12.5462 14.0385 12.229 14.0385H9.10646C8.78921 14.0385 8.48146 14.2899 8.48146 14.6043Z" fill="#635DF5"/>
</svg>
