<svg width="21" height="20" viewBox="0 0 21 20" fill="none" xmlns="http://www.w3.org/2000/svg">
<path d="M9.052 14.2389C9.51917 14.4825 10.075 14.6216 10.6664 14.6216C11.2637 14.6216 11.8136 14.4825 12.2808 14.2389C12.4405 14.1578 12.6119 14.3317 12.5114 14.4825C12.1211 15.0739 11.4411 15.4683 10.6664 15.4683C9.89172 15.4683 9.21167 15.0739 8.82138 14.4825C8.72085 14.3375 8.89234 14.1578 9.052 14.2389Z" fill="#635DF5"/>
<path d="M10.2209 10.9536L9.60158 12.9346C9.47519 13.342 9.77852 13.7495 10.2082 13.7495H11.1246C11.5543 13.7495 11.8576 13.3358 11.7312 12.9346L11.1119 10.9536C10.9792 10.5148 10.3599 10.5148 10.2209 10.9536Z" fill="#635DF5"/>
<path d="M7.69817 9.63471C7.64593 9.62802 7.5936 9.62453 7.54138 9.62453C7.10388 9.62453 6.682 9.74953 6.307 10.062C5.93201 10.312 5.9945 10.6245 6.2445 10.812L6.30125 10.8517L6.30066 10.8541C6.25129 11.058 6.40556 11.2495 6.61536 11.2495H7.11516C7.09048 11.1572 7.07814 11.071 7.07814 10.9725C7.07814 10.3939 7.54711 9.9323 8.12098 9.9323C8.69485 9.9323 9.15765 10.3939 9.15765 10.9725C9.15765 11.071 9.14531 11.1634 9.12063 11.2495H9.21321C9.37982 11.2495 9.5094 11.1012 9.47855 10.9344C9.33045 10.1868 8.67019 9.62453 7.88034 9.62453C7.81879 9.62453 7.758 9.62798 7.69817 9.63471Z" fill="#635DF5"/>
<path d="M13.701 9.64355C13.7726 9.63112 13.8446 9.62453 13.9164 9.62453C14.3539 9.62453 14.7758 9.74953 15.1508 10.062C15.5258 10.312 15.4633 10.6245 15.2133 10.812L15.0414 10.9323C15.0406 11.1044 14.9 11.2495 14.7174 11.2495H14.2176C14.2423 11.1572 14.2546 11.071 14.2546 10.9725C14.2546 10.3939 13.7857 9.9323 13.2118 9.9323C12.6379 9.9323 12.169 10.3939 12.1751 10.9725C12.1751 11.071 12.1875 11.1634 12.2122 11.2495H12.1196C11.953 11.2495 11.8234 11.1012 11.8542 10.9344C12.0023 10.1868 12.6564 9.62453 13.4524 9.62453C13.5369 9.62453 13.6199 9.63103 13.701 9.64355Z" fill="#635DF5"/>
<path d="M8.71338 10.9725C8.71338 10.6463 8.44805 10.3816 8.121 10.3816C8.03624 10.3816 7.95563 10.3994 7.8827 10.4314C7.92278 10.4658 7.94822 10.5171 7.94822 10.5745C7.94822 10.6781 7.86534 10.762 7.7631 10.762C7.69817 10.762 7.64105 10.7281 7.608 10.6769C7.55752 10.7639 7.52862 10.8648 7.52862 10.9725C7.52862 11.071 7.5533 11.1633 7.5965 11.2495H8.64551C8.6887 11.1633 8.71338 11.071 8.71338 10.9725Z" fill="#635DF5"/>
<path d="M12.9916 10.4214C13.058 10.3957 13.1302 10.3816 13.2056 10.3816C13.5327 10.3816 13.798 10.6463 13.798 10.9725C13.798 11.071 13.7733 11.1633 13.7301 11.2495H12.6811C12.6379 11.1633 12.6132 11.071 12.6132 10.9725C12.6132 10.8511 12.65 10.7383 12.7129 10.6444C12.7403 10.7133 12.8069 10.762 12.8848 10.762C12.987 10.762 13.0699 10.6781 13.0699 10.5745C13.0699 10.5113 13.0389 10.4553 12.9916 10.4214Z" fill="#635DF5"/>
<path d="M6.7073 9.01452L6.70219 9.01747C6.55428 9.10574 6.36211 9.05806 6.27344 8.91028C6.18465 8.76229 6.23282 8.57022 6.38081 8.48142L6.38148 8.48102L6.38268 8.48031L6.38613 8.47828L6.39709 8.47194C6.4062 8.46673 6.41886 8.45962 6.43489 8.45094C6.46693 8.43358 6.51252 8.40986 6.57004 8.38244C6.68486 8.32772 6.84852 8.25763 7.04796 8.19398C7.44401 8.06758 7.99785 7.96125 8.59572 8.06675C8.76568 8.09675 8.87915 8.25884 8.84916 8.42881C8.81916 8.59877 8.65707 8.71224 8.4871 8.68224C8.02247 8.60025 7.57631 8.68142 7.23799 8.78939C7.07024 8.84293 6.93312 8.90175 6.83895 8.94663C6.79198 8.96902 6.75603 8.98778 6.73265 9.00045C6.72097 9.00678 6.71245 9.01158 6.7073 9.01452Z" fill="#635DF5"/>
<path d="M14.952 8.48142C15.1 8.57022 15.1482 8.76229 15.0594 8.91028C14.9707 9.05807 14.7791 9.10613 14.6312 9.01783L14.6307 9.0175L14.6255 9.01452C14.6204 9.01158 14.6119 9.00678 14.6002 9.00045C14.5768 8.98778 14.5408 8.96902 14.4939 8.94663C14.3997 8.90175 14.2626 8.84293 14.0948 8.78939C13.7565 8.68142 13.3104 8.60025 12.8457 8.68224C12.6758 8.71224 12.5137 8.59877 12.4837 8.42881C12.4537 8.25884 12.5671 8.09675 12.7371 8.06675C13.335 7.96125 13.8888 8.06758 14.2849 8.19398C14.4843 8.25763 14.648 8.32772 14.7628 8.38244C14.8203 8.40986 14.8659 8.43358 14.8979 8.45094C14.914 8.45962 14.9266 8.46673 14.9357 8.47194L14.9467 8.47828L14.9501 8.48031L14.9513 8.48102L14.952 8.48142Z" fill="#635DF5"/>
<path fill-rule="evenodd" clip-rule="evenodd" d="M7.51456 1.17383C7.28019 1.12012 7.11905 1.26416 7.03116 1.42042C7.03116 1.42042 7.01041 1.32275 6.9213 1.27881C6.77872 1.20849 6.59415 1.25928 6.52823 1.32275C6.35489 1.17383 6.10343 1.27881 5.98136 1.42042C5.85929 1.56202 5.8422 1.74023 5.84952 1.87695C5.85538 1.98633 5.95287 2.04948 6.00089 2.06738C5.94815 2.11816 5.93823 2.21061 5.93985 2.25049C5.92439 2.2334 5.86515 2.21973 5.75187 2.30176C5.63858 2.38379 5.64119 2.51986 5.65665 2.57764C5.57283 2.53532 5.37491 2.47266 5.25382 2.56055C5.13272 2.64844 5.17895 2.84131 5.2172 2.92676C5.20825 2.92432 5.16935 2.92383 5.08536 2.94141C4.98038 2.96338 4.93644 3.06592 4.92911 3.12207C4.92325 3.16699 4.87784 3.24333 4.85587 3.27588C4.84855 3.24984 4.80069 3.19238 4.66788 3.1709C4.53507 3.14941 4.44327 3.25472 4.41397 3.31006C4.36922 3.31087 4.26651 3.31934 4.21378 3.34668C4.16105 3.37402 4.1267 3.44596 4.11612 3.47852C4.06648 3.47038 3.94132 3.46973 3.8378 3.53223C3.73429 3.59473 3.71492 3.74707 3.71817 3.81543C3.67993 3.80404 3.58683 3.81543 3.52042 3.95215C3.45401 4.08887 3.51391 4.19466 3.55216 4.23047C3.49926 4.24105 3.38468 4.29199 3.34952 4.41113C3.31437 4.53027 3.39672 4.62842 3.4423 4.6626C3.4016 4.67643 3.31339 4.72803 3.28605 4.82373C3.2587 4.91943 3.29744 5.01335 3.32022 5.04834C3.30558 5.03613 3.25919 5.03369 3.19083 5.12158C3.12247 5.20947 3.15421 5.33724 3.17862 5.39014C3.14851 5.37874 3.06583 5.37646 2.97599 5.4585C2.88614 5.54053 2.91088 5.67985 2.93448 5.73926C2.89542 5.72217 2.7919 5.70264 2.69034 5.76123C2.58878 5.81982 2.58292 5.96143 2.59269 6.0249C2.45108 5.9248 2.22892 6.05908 2.22403 6.25439C2.22013 6.41064 2.26147 6.53271 2.28263 6.57422C2.17521 6.69873 2.21915 6.89404 2.34366 6.95019C2.44327 6.99512 2.58862 6.95589 2.64884 6.93066C2.64884 6.98535 2.7058 7.03971 2.73429 7.06006C2.7351 7.10807 2.74845 7.21777 2.79532 7.27246C2.8422 7.32715 2.90763 7.3457 2.93448 7.34814C2.91902 7.3693 2.8881 7.41992 2.8881 7.45312C2.7338 7.43555 2.63989 7.5223 2.61222 7.56787C2.53165 7.54102 2.40714 7.52637 2.31192 7.6167C2.21671 7.70703 2.24112 7.89746 2.2631 7.95605L2.26869 7.97128C2.2874 8.02273 2.30471 8.07036 2.43155 8.2417C2.57071 8.42969 2.63782 8.41366 2.64884 8.41016C2.4711 8.46289 2.43969 8.65023 2.4462 8.7373C2.36645 8.6901 2.18351 8.62158 2.08976 8.7251C1.97257 8.85449 2.03605 9.01074 2.1044 9.06445C2.15909 9.10742 2.29972 9.2207 2.36319 9.27197L2.31192 9.33789C2.24519 9.31266 2.0878 9.27978 1.9921 9.3501C1.87247 9.43799 1.89933 9.604 2.00675 9.72363C2.09269 9.81933 2.18741 9.97998 2.22403 10.0483C2.19636 10.0719 2.1381 10.1479 2.12638 10.2632C2.11466 10.3784 2.21427 10.4886 2.26554 10.5293C2.16707 10.5228 1.96085 10.5645 1.92374 10.7832C1.88663 11.002 2.07755 11.1104 2.17765 11.1372C2.12963 11.1567 2.02091 11.2295 1.97013 11.3643C1.91934 11.499 2.00593 11.6173 2.05558 11.6597C2.02058 11.6694 1.94522 11.7168 1.92374 11.8281C1.90225 11.9395 1.98803 12.0405 2.0336 12.0771C1.9921 12.0934 1.91739 12.1636 1.9506 12.314C1.9838 12.4644 2.23054 12.5158 2.3461 12.5239C2.31843 12.5264 2.25089 12.5698 2.23136 12.7144C2.21183 12.8589 2.30948 12.9878 2.36075 13.0342C2.31192 13.0342 2.20045 13.1309 2.17765 13.2905C2.14835 13.4956 2.32739 13.6226 2.41935 13.6543C2.38435 13.6803 2.31144 13.7568 2.30948 13.9033C2.30753 14.0498 2.44539 14.1499 2.51456 14.1816C2.49503 14.18 2.43748 14.2465 2.45841 14.4014C2.47734 14.5414 2.61657 14.6316 2.73849 14.7105C2.77384 14.7334 2.80774 14.7554 2.83683 14.7773C2.76847 14.7773 2.61222 14.8286 2.61222 15.0117C2.62003 15.2207 2.86612 15.2998 2.98819 15.3193C2.9768 15.3234 2.94815 15.3652 2.92472 15.5C2.89542 15.6685 2.97599 15.8442 3.0712 16.0127C3.14737 16.1475 3.2836 16.1535 3.3422 16.1396C3.33894 16.1462 3.31388 16.1719 3.23966 16.2227C3.14688 16.2861 3.07608 16.5522 3.22501 16.8208C3.37394 17.0894 3.53995 17.126 3.70108 17.0527C3.82999 16.9941 3.80362 16.8249 3.77433 16.7476C3.85001 16.7842 3.99894 16.7622 4.01358 16.7476C4.038 16.8403 4.13565 16.9795 4.25284 17.0674C4.25284 17.187 4.392 17.3091 4.48233 17.3506C4.55071 17.6674 4.77019 17.6225 4.85465 17.6052C4.86065 17.604 4.86599 17.6029 4.87052 17.602C4.92423 17.8267 5.03409 18.022 5.26358 18.0415C5.44718 18.0571 5.49959 17.8511 5.50284 17.7461C5.57511 17.793 5.66967 17.777 5.70792 17.7632C5.78849 18.0171 5.90812 18.144 6.1669 18.1587C6.37394 18.1704 6.52579 17.9129 6.58194 17.7827C6.55753 17.8389 6.50626 18.0024 6.58194 18.1147C6.65763 18.227 6.82364 18.2295 6.95548 18.2124C6.95792 18.3857 7.04129 18.5518 7.2366 18.5688C7.39285 18.5825 7.47794 18.4159 7.49991 18.3223C7.49422 18.411 7.53018 18.5923 7.71964 18.6079C7.90909 18.6235 7.98575 18.3719 8.0004 18.2441C8.03946 18.2848 8.14542 18.3672 8.25675 18.3711C8.27952 18.3719 8.30105 18.3699 8.32138 18.3658C9.0632 18.6396 9.8561 18.7722 10.6589 18.7495C11.358 18.7704 12.0497 18.6734 12.7067 18.4677C12.7766 18.4842 12.8347 18.4752 12.8637 18.4639C12.9085 18.4575 12.9412 18.4227 12.9636 18.3811C13.0102 18.3643 13.0566 18.3469 13.1028 18.3289C13.1139 18.3368 13.1254 18.3445 13.1371 18.3516C13.293 18.4452 13.5813 18.5379 13.7644 18.4452C13.9108 18.3709 13.8858 18.1603 13.85 18.0708C13.8817 18.0928 14.0697 18.1416 14.2235 18.1367C14.3774 18.1318 14.4506 18.1147 14.5727 18.0293C14.6703 17.9609 14.6573 17.8071 14.6386 17.7388H14.7045C14.6964 17.7876 14.6908 17.9116 14.7338 18.0171C14.7875 18.1489 14.9731 18.2637 15.2025 18.188C15.3861 18.1274 15.5574 17.9235 15.62 17.8291C15.7841 17.8564 15.996 17.7201 16.0815 17.6484C16.1287 17.6533 16.2358 17.6528 16.2865 17.6118C16.3373 17.5708 16.3826 17.4775 16.3988 17.436C16.4208 17.4564 16.5038 17.4849 16.6601 17.436C16.8163 17.3872 17.0279 17.1715 17.1142 17.0698C17.1825 17.0869 17.3168 17.0356 17.3608 17.0015C17.4706 17.2334 17.8087 17.1895 17.9552 17.0698C18.1249 16.9312 18.1982 16.7671 18.225 16.6011C18.2465 16.4683 18.1672 16.3813 18.1249 16.3545C18.1827 16.2967 18.3192 16.1475 18.4032 16.0127C18.4872 15.8779 18.4382 15.7417 18.4032 15.6904C18.5868 15.501 18.6604 15.2502 18.6742 15.1484C18.8481 15.0391 18.8378 14.8815 18.8109 14.8164C18.7377 14.6431 18.5155 14.7017 18.5155 14.7017V14.5601C18.5318 14.5535 18.5981 14.5098 18.7328 14.3867C18.8676 14.2637 18.8655 14.0539 18.8476 13.9644C18.9428 13.9017 19.141 13.7368 19.1723 13.5786C19.2113 13.3809 19.0478 13.2954 18.977 13.2954C18.9745 13.1929 18.894 13.127 18.8476 13.105C18.8476 13.0757 18.8305 12.9927 18.828 12.9902C18.8261 12.9883 18.8402 12.9243 18.8476 12.8926C18.9835 12.8975 19.2846 12.8716 19.4018 12.729C19.5483 12.5508 19.3969 12.3823 19.3066 12.3408C19.3505 12.1284 19.2382 11.999 19.1112 11.9258C19.1956 11.7162 19.0445 11.5493 18.9959 11.4957L18.9941 11.4937C19.0507 11.4312 19.0486 11.2658 19.0404 11.1909C19.1161 11.2039 19.2753 11.1885 19.3066 11.0225C19.3378 10.8564 19.1894 10.7433 19.1112 10.7075C19.1275 10.6855 19.1606 10.6196 19.1625 10.5317C19.1649 10.4219 19.1112 10.3096 19.06 10.2876C19.0583 10.2417 19.0388 10.2017 19.023 10.1693C19.0161 10.1551 19.01 10.1425 19.0063 10.1313C19.0136 10.1118 19.0185 10.019 19.0185 9.97754C19.0746 9.93603 19.1576 9.80664 19.1112 9.67969C19.0649 9.55273 18.9306 9.46973 18.8524 9.44043C18.8354 9.30859 18.7231 9.21582 18.6767 9.19385C18.7939 9.03271 18.8134 8.90088 18.7426 8.82031C18.6859 8.75586 18.5692 8.73649 18.518 8.73486C18.5115 8.71452 18.4936 8.67383 18.474 8.67383C18.5107 8.65185 18.6596 8.53955 18.7987 8.43213C18.9379 8.32471 18.9037 8.15381 18.8305 8.0708C18.7572 7.98779 18.5912 8.01221 18.518 8.04394C18.5345 7.99012 18.5335 7.92401 18.5329 7.87836C18.5327 7.8702 18.5326 7.86262 18.5326 7.85596C18.6108 7.77588 18.5831 7.59473 18.5595 7.51416C18.5554 7.4222 18.5443 7.21924 18.5326 7.14307C18.5209 7.06689 18.4545 6.99902 18.4228 6.97461C18.5351 6.96891 18.7563 6.90381 18.7426 6.68896C18.7299 6.48938 18.5027 6.45554 18.3667 6.46414C18.5677 6.44145 18.7244 6.32952 18.7011 6.1665C18.6767 5.9956 18.4814 5.94678 18.4228 5.94922C18.3759 5.95117 18.2763 5.96305 18.2323 5.96875C18.2421 5.95736 18.2768 5.92187 18.3373 5.87109C18.413 5.80762 18.4911 5.70264 18.4228 5.55615C18.3681 5.43896 18.1998 5.42269 18.1225 5.4292C18.1322 5.37549 18.143 5.24951 18.1078 5.17529C18.0727 5.10107 17.9516 5.02067 17.8954 4.98975C17.9206 4.93115 17.9594 4.7832 17.9125 4.66016C17.8656 4.53711 17.7156 4.46566 17.6464 4.44531C17.6383 4.41927 17.6186 4.35547 17.6049 4.30859C17.5912 4.26172 17.5048 4.18001 17.4633 4.14502C17.4633 4.13118 17.4594 4.08789 17.4438 4.02539C17.4281 3.96289 17.3852 3.89844 17.3656 3.87402C17.3689 3.85937 17.3759 3.80322 17.3778 3.6958C17.3798 3.58838 17.3038 3.47689 17.2655 3.43457C17.2777 3.38574 17.2885 3.25488 17.2338 3.12207C17.1791 2.98926 17.0499 2.9235 16.9921 2.90723C16.9547 2.82178 16.828 2.64355 16.621 2.61426C16.414 2.58496 16.2743 2.67204 16.2304 2.71924C16.2011 2.71354 16.1303 2.70557 16.0815 2.71924C16.0448 2.68262 15.9423 2.63623 15.8935 2.63623C15.852 2.59229 15.6762 2.47998 15.6078 2.47998C15.559 2.38232 15.432 2.27734 15.3197 2.23584C15.3002 2.20166 15.2245 2.10156 15.0683 2.021C14.912 1.94043 14.7533 1.99414 14.6825 2.021C14.6571 2.01514 14.5417 2.00065 14.4872 1.99414C14.4693 1.95345 14.4101 1.85107 14.3163 1.76709C14.2226 1.68311 14.0413 1.66536 13.9623 1.66699C13.9371 1.63444 13.8495 1.56445 13.7011 1.54492C13.5155 1.52051 13.4399 1.56689 13.2983 1.66699C13.1566 1.65234 13.0028 1.68164 12.9198 1.74512C12.8368 1.80859 12.7367 1.91357 12.7245 2.05029C12.6015 2.04639 12.4714 2.13818 12.4218 2.18457C12.4234 2.17236 12.3627 2.13574 12.1068 2.08691C11.851 2.03809 11.5657 2.08447 11.455 2.11377C11.4607 2.11051 11.4804 2.07666 11.5136 1.96729C11.5551 1.83057 11.538 1.65722 11.4257 1.59375C11.3134 1.53027 11.1718 1.5498 11.1254 1.58154C11.1156 1.55469 11.0766 1.45947 10.9252 1.40576C10.8041 1.36279 10.6941 1.43669 10.6542 1.479C10.6461 1.46842 10.6142 1.43896 10.5517 1.40576C10.4735 1.36426 10.3271 1.38135 10.2807 1.40576C10.2367 1.11523 10.0585 0.968748 9.89493 1.00293C9.76407 1.03027 9.70043 1.13965 9.68497 1.19092C9.63289 1.1665 9.50186 1.13623 9.39444 1.21045C9.28702 1.28467 9.27644 1.39925 9.28458 1.44726L9.27721 1.44612C9.21534 1.43648 9.0883 1.41669 9.00626 1.50342C8.92635 1.5879 8.9379 1.75488 8.97696 1.82812C8.91056 1.81055 8.85489 1.83545 8.83536 1.8501C8.83467 1.84756 8.83398 1.84458 8.83319 1.8412C8.82565 1.80881 8.80941 1.73902 8.70108 1.65722C8.60538 1.58496 8.44229 1.59538 8.38126 1.6084C8.38126 1.56933 8.33243 1.36181 8.17374 1.27881C7.97837 1.17661 7.81485 1.25683 7.7294 1.32275C7.72566 1.31851 7.72172 1.31388 7.71751 1.30894C7.68055 1.26554 7.62375 1.19886 7.51456 1.17383ZM5.35389 8.99954V9.10954L5.36389 9.37954C5.36888 9.53147 5.31832 9.68001 5.22169 9.79735C5.12505 9.9147 4.98896 9.9928 4.83889 10.017C4.53659 10.0656 4.26262 10.2235 4.06898 10.4607C3.87534 10.6978 3.77548 10.9978 3.78835 11.3038C3.80122 11.6097 3.92593 11.9002 4.13881 12.1203C4.35169 12.3404 4.63795 12.4746 4.94327 12.4977C5.08707 12.5087 5.22263 12.5691 5.32697 12.6687C5.43132 12.7682 5.49802 12.9008 5.51577 13.0439C5.65802 14.2963 6.26573 15.4495 7.21838 16.2748C8.17102 17.1001 9.39904 17.5372 10.6589 17.4995C11.9292 17.5387 13.1671 17.0947 14.1229 16.257C15.0787 15.4193 15.6812 14.2503 15.8089 12.9858C15.8255 12.8413 15.8921 12.7071 15.997 12.6063C16.102 12.5056 16.2388 12.4446 16.3839 12.4339C16.6826 12.4126 16.9637 12.2848 17.176 12.0737C17.3884 11.8626 17.518 11.5823 17.5411 11.2838C17.5643 10.9853 17.4795 10.6883 17.3022 10.447C17.125 10.2057 16.867 10.0361 16.5751 9.96891C16.4913 9.97894 16.4063 9.97187 16.3252 9.94814C16.2442 9.9244 16.1688 9.88449 16.1036 9.8308C16.0384 9.77713 15.9848 9.71079 15.946 9.63581C15.9071 9.56083 15.8839 9.47875 15.8776 9.39454C15.6819 9.28759 15.53 9.11527 15.4485 8.9077C15.3669 8.70013 15.3609 8.47049 15.4314 8.25891C15.4128 8.20862 15.3988 8.15674 15.3895 8.10392C15.33 8.10932 15.27 8.10785 15.2108 8.09954C14.9614 8.06587 14.7273 7.95974 14.5377 7.79431C14.348 7.62888 14.2111 7.41143 14.1439 7.16892C14.107 6.98461 14.1244 6.79355 14.1939 6.61891L14.1664 6.64517C14.0624 6.7739 13.9306 6.87734 13.7808 6.94767C13.6493 7.01525 13.5035 7.05004 13.3557 7.04906C13.2079 7.04808 13.0625 7.01136 12.932 6.94204C12.8888 6.96868 12.8442 6.99289 12.7983 7.01454C12.5839 7.11641 12.3431 7.14877 12.1095 7.10708C11.8758 7.0654 11.661 6.95175 11.4951 6.78204L11.4808 6.76391C11.4284 6.79339 11.3734 6.81788 11.3164 6.83704C11.1514 6.95477 10.9563 7.02326 10.7539 7.03454H10.6914L10.6708 7.04767C10.5352 7.13242 10.3785 7.17736 10.2186 7.17736C10.0587 7.17736 9.90199 7.13242 9.76639 7.04767C9.40433 6.88228 9.11782 6.58662 8.96389 6.21954C8.9197 6.07749 8.91645 5.92586 8.95452 5.78204C8.89083 5.66166 8.85737 5.5276 8.85702 5.39142C8.81212 5.33198 8.77534 5.26682 8.74764 5.19767C8.56607 5.36047 8.33026 5.44962 8.08639 5.44767C8.03327 5.46509 7.97897 5.47866 7.92389 5.48829L7.90264 5.50017C7.89014 5.51829 7.87702 5.53579 7.86327 5.55204C7.84968 5.61105 7.83042 5.66861 7.80577 5.72392C7.81822 5.84464 7.80632 5.96663 7.77077 6.08267C7.77077 6.08975 7.76799 6.09683 7.76521 6.10392C7.76382 6.10746 7.76244 6.111 7.76139 6.11454C7.79345 6.24527 7.79065 6.38211 7.75327 6.51142C7.78912 6.62659 7.79986 6.74811 7.78477 6.86778C7.76967 6.98746 7.7291 7.1025 7.66577 7.20517C7.60112 7.31152 7.51578 7.40382 7.4148 7.47659C7.31383 7.54936 7.19928 7.60112 7.07793 7.6288C6.95658 7.65649 6.83092 7.65953 6.70837 7.63776C6.58583 7.61598 6.4689 7.56983 6.36452 7.50204C6.28451 7.46888 6.20842 7.42696 6.13764 7.37704C6.11042 7.41758 6.07967 7.45564 6.04577 7.49079C6.02555 7.58801 5.98831 7.6809 5.93577 7.76517L5.92702 7.77891C5.92931 7.8955 5.90805 8.01136 5.86452 8.11954C5.83687 8.18665 5.80029 8.24972 5.75577 8.30704C5.75168 8.38651 5.73718 8.46509 5.71264 8.54079C5.65528 8.73352 5.52711 8.89741 5.35389 8.99954Z" fill="#635DF5"/>
</svg>
