<svg width="20" height="20" viewBox="0 0 20 20" fill="none" xmlns="http://www.w3.org/2000/svg">
<path d="M12.1875 11.1462C11.7915 11.1462 11.4207 11.0492 11.1127 10.8811C11.0058 10.8229 10.8927 10.9458 10.9556 11.0492C11.2195 11.4631 11.6721 11.7411 12.1875 11.7411C12.7029 11.7411 13.1555 11.4695 13.4194 11.0492C13.4823 10.9458 13.3692 10.8229 13.2623 10.8811C12.948 11.0492 12.5835 11.1462 12.1875 11.1462Z" fill="#635DF5"/>
<path d="M11.5812 9.93065L11.9625 8.69316C12.05 8.42441 12.4375 8.42441 12.5187 8.69316L12.9 9.93065C12.9812 10.1869 12.7875 10.4432 12.525 10.4432H11.9562C11.6937 10.4432 11.5 10.1869 11.5812 9.93065Z" fill="#635DF5"/>
<path d="M9.57778 7.37439C9.50903 7.37439 9.44028 7.33689 9.40278 7.27439C9.34653 7.17439 9.37778 7.05564 9.47778 6.99939C9.50278 6.98064 10.159 6.61189 10.909 6.74939C11.0215 6.76814 11.0903 6.87439 11.0715 6.98689C11.0528 7.09939 10.9465 7.16814 10.834 7.14939C10.2278 7.03689 9.67778 7.34314 9.67153 7.34939C9.64653 7.36814 9.60903 7.37439 9.57778 7.37439Z" fill="#635DF5"/>
<path d="M14.5281 7.50564C14.5593 7.52439 14.5968 7.53064 14.6281 7.53064C14.6968 7.53064 14.7656 7.49314 14.7968 7.43064C14.8531 7.33689 14.8218 7.21189 14.7218 7.15564C14.6968 7.13689 14.0468 6.76814 13.2906 6.90564C13.1781 6.92439 13.1093 7.03064 13.1281 7.14314C13.1468 7.25564 13.2531 7.32439 13.3656 7.30564C13.9718 7.19314 14.5218 7.49939 14.5281 7.50564Z" fill="#635DF5"/>
<path d="M10.2051 7.8125C10.386 7.8125 10.5522 7.86574 10.7004 7.95244C11.0409 8.07837 11.2988 8.37491 11.3738 8.73125C11.3926 8.8375 11.3051 8.9375 11.1988 8.9375H11.1446C11.1618 8.88289 11.1676 8.82269 11.1676 8.7625C11.1676 8.39375 10.8613 8.0875 10.4926 8.0875C10.1176 8.0875 9.81758 8.3875 9.81758 8.7625C9.81758 8.82291 9.82342 8.87748 9.84074 8.9375H9.51759C9.38634 8.9375 9.28634 8.8125 9.31759 8.68125C9.3254 8.64956 9.33467 8.61844 9.3453 8.58797L9.32386 8.56875C9.17386 8.43125 9.18636 8.19375 9.34886 8.075C9.58636 7.90625 9.90511 7.8125 10.2051 7.8125Z" fill="#635DF5"/>
<path d="M15.0087 8.58798C15.0193 8.61845 15.0286 8.64956 15.0364 8.68125C15.0676 8.8125 14.9676 8.9375 14.8364 8.9375H14.5133C14.5306 8.87748 14.5364 8.82291 14.5364 8.7625C14.5364 8.3875 14.2364 8.0875 13.8614 8.0875C13.4927 8.0875 13.1864 8.39375 13.1864 8.7625C13.1864 8.82269 13.1922 8.88289 13.2094 8.9375H13.1551C13.0489 8.9375 12.9614 8.8375 12.9801 8.73125C13.0552 8.3749 13.3131 8.07834 13.6537 7.95243C13.8018 7.86573 13.968 7.8125 14.1489 7.8125C14.4489 7.8125 14.7676 7.90625 15.0051 8.075C15.1676 8.19375 15.1801 8.43125 15.0301 8.56875L15.0087 8.58798Z" fill="#635DF5"/>
<path d="M10.8739 8.76252C10.8739 8.55002 10.6989 8.37502 10.4864 8.37502C10.4326 8.37502 10.3812 8.38622 10.3345 8.40641C10.3622 8.42815 10.3801 8.46198 10.3801 8.49998C10.3801 8.56557 10.3269 8.61873 10.2613 8.61873C10.2169 8.61873 10.1782 8.59434 10.1578 8.55822C10.1205 8.61769 10.0989 8.68778 10.0989 8.76252C10.0989 8.82502 10.1176 8.88752 10.1426 8.94377H10.8239C10.8614 8.88752 10.8739 8.83126 10.8739 8.76252Z" fill="#635DF5"/>
<path d="M13.7095 8.40641C13.7562 8.38622 13.8076 8.37502 13.8614 8.37502C14.0739 8.37502 14.2489 8.55002 14.2489 8.76252C14.2489 8.82502 14.2301 8.88752 14.2051 8.94377H13.5239C13.4926 8.88752 13.4739 8.83126 13.4739 8.76252C13.4739 8.68778 13.4955 8.61769 13.5328 8.55822C13.5532 8.59434 13.5919 8.61873 13.6364 8.61873C13.7019 8.61873 13.7551 8.56557 13.7551 8.49998C13.7551 8.46198 13.7373 8.42815 13.7095 8.40641Z" fill="#635DF5"/>
<path fill-rule="evenodd" clip-rule="evenodd" d="M2.08332 8.05282C1.73643 7.66194 1.49964 7.18312 1.40092 6.66563C1.38285 6.59073 1.37134 6.5144 1.36655 6.4375C1.34905 6.26563 1.23217 5.37938 0.9553 3.405C0.922813 3.18348 0.934881 2.95771 0.990797 2.74091C1.04671 2.52412 1.14535 2.32067 1.28092 2.1425C1.5134 1.83376 1.84403 1.61334 2.21842 1.5175C2.26465 1.44656 2.31626 1.37928 2.3728 1.31625C2.5267 1.14487 2.71316 1.00582 2.92133 0.907214C3.12949 0.808604 3.3552 0.7524 3.5853 0.741875H3.6353C3.94949 0.464941 4.35398 0.312255 4.7728 0.3125L4.77217 0.315625C5.01157 0.315744 5.24837 0.365262 5.46776 0.461082C5.68714 0.556901 5.88439 0.696962 6.04717 0.872501C6.27387 0.902931 6.49215 0.97853 6.6891 1.09482C6.88606 1.21112 7.05768 1.36574 7.19381 1.54954C7.32995 1.73335 7.42782 1.94259 7.48165 2.16489C7.53547 2.38719 7.54415 2.61803 7.50717 2.84375C7.49717 2.9175 7.48717 2.99313 7.4778 3.07063C7.79211 3.16195 8.0752 3.33745 8.29662 3.57783C8.7529 3.2821 9.28274 3.10909 9.83435 3.0825C10.118 2.70734 10.4848 2.40304 10.9059 2.19352C11.327 1.984 11.7909 1.87496 12.2612 1.87496C12.7316 1.87496 13.1955 1.984 13.6166 2.19352C14.0377 2.40304 14.4044 2.70734 14.6881 3.0825C15.4849 3.11643 16.2376 3.45768 16.7882 4.03462C17.3388 4.61157 17.6445 5.37936 17.6412 6.17687C17.6391 6.52961 17.7392 6.8754 17.9294 7.1725C18.0297 7.32244 18.1157 7.48147 18.1862 7.6475C18.1968 7.67148 18.2057 7.69612 18.2131 7.72125C18.5183 8.49291 18.5055 9.35401 18.1775 10.1163C18.495 10.8424 18.5175 11.6637 18.2402 12.4061C17.963 13.1486 17.4076 13.7541 16.6919 14.0944C17.3332 14.6899 17.8464 15.4099 18.2004 16.2103C18.5544 17.0107 18.7416 17.8749 18.7506 18.75C18.7506 18.9158 18.6848 19.0747 18.5675 19.1919C18.4503 19.3092 18.2914 19.375 18.1256 19.375H6.8756C6.70984 19.375 6.55087 19.3092 6.43366 19.1919C6.31645 19.0747 6.2506 18.9158 6.2506 18.75V16.6925L4.43185 15.8831C3.68076 15.5635 3.03893 15.0322 2.58468 14.3539C2.13043 13.6757 1.8834 12.88 1.87373 12.0638V8.75938C1.87235 8.53553 1.93018 8.3153 2.04137 8.12102C2.05466 8.09781 2.06865 8.07507 2.08332 8.05282ZM4.76905 1.565L4.7728 1.5625C4.6662 1.5614 4.56253 1.5973 4.47944 1.66409C4.39636 1.73087 4.33901 1.82441 4.31717 1.92875C4.31278 1.94238 4.30438 2.06733 4.29164 2.25666C4.26993 2.57943 4.23563 3.08931 4.18717 3.55375C4.18717 3.5625 4.17967 3.56625 4.17217 3.56625C4.16467 3.56625 4.15717 3.5625 4.15717 3.55375L4.1278 2.42563C4.11985 2.30808 4.0674 2.19798 3.98113 2.11774C3.89485 2.0375 3.78124 1.99316 3.66342 1.99375H3.64092C3.57903 1.99558 3.51812 2.00976 3.46178 2.03545C3.40543 2.06114 3.35479 2.09782 3.31281 2.14335C3.27084 2.18887 3.23838 2.24232 3.21734 2.30056C3.1963 2.3588 3.18711 2.42066 3.1903 2.4825L3.2678 3.72563C3.26772 3.72948 3.26688 3.73329 3.26533 3.73682C3.26377 3.74035 3.26154 3.74355 3.25876 3.74622C3.25597 3.74889 3.25269 3.75098 3.24909 3.75238C3.24549 3.75378 3.24166 3.75446 3.2378 3.75438C3.23466 3.75465 3.23151 3.75425 3.22854 3.75319C3.22558 3.75214 3.22288 3.75045 3.22062 3.74826C3.21837 3.74606 3.21661 3.74341 3.21548 3.74047C3.21435 3.73754 3.21386 3.73439 3.21405 3.73125C3.16092 3.36875 3.1253 3.11563 3.1253 3.11C3.10736 2.9988 3.05012 2.89772 2.96399 2.82513C2.87787 2.75253 2.76856 2.71324 2.65592 2.71438C2.63501 2.71437 2.61413 2.71583 2.59342 2.71875C2.53361 2.726 2.47582 2.74504 2.4234 2.77475C2.37097 2.80446 2.32495 2.84425 2.288 2.89185C2.25104 2.93944 2.22387 2.99388 2.20807 3.05203C2.19227 3.11017 2.18814 3.17087 2.19592 3.23063C2.34967 4.33 2.59905 6.125 2.61717 6.35562C2.61717 6.36687 2.61717 6.3725 2.6228 6.37812C2.6579 6.61184 2.74269 6.83341 2.86951 7.02877C3.00581 6.93364 3.16768 6.8797 3.3356 6.875H5.40873C5.56097 6.87923 5.70823 6.92389 5.836 7.003C5.86688 6.95356 5.89523 6.90249 5.92092 6.85C6.09127 6.49314 6.31091 6.16198 6.57342 5.86625C6.70064 5.72759 6.83169 5.59255 6.96644 5.46128C6.9668 5.45979 6.96715 5.4583 6.96751 5.45681C7.14909 5.28066 7.28358 5.16285 7.31563 5.13477L7.32288 5.12838C7.52457 4.95989 7.5571 4.66793 7.40513 4.45668C7.40507 4.45677 7.40518 4.45659 7.40513 4.45668C7.39635 4.44469 7.38703 4.43307 7.37717 4.42188C7.28624 4.322 7.16039 4.26091 7.02567 4.25126C6.89095 4.2416 6.75767 4.28412 6.65343 4.37C6.65014 4.37317 6.6402 4.38184 6.62453 4.39551C6.55361 4.45738 6.36437 4.62247 6.13155 4.85375C6.11897 4.86589 6.10215 4.87262 6.08467 4.8725C6.07651 4.87343 6.06824 4.87256 6.06045 4.86995C6.05266 4.86734 6.04553 4.86305 6.03957 4.85739C6.03362 4.85173 6.02897 4.84484 6.02597 4.83719C6.02296 4.82954 6.02167 4.82133 6.02217 4.81313C6.11655 3.86938 6.19967 3.17313 6.2653 2.67813C6.28212 2.60983 6.28315 2.5386 6.2683 2.46985C6.25345 2.4011 6.22312 2.33665 6.17961 2.28139C6.1361 2.22612 6.08056 2.18151 6.01721 2.15095C5.95387 2.12038 5.88438 2.10467 5.81405 2.105C5.71181 2.10466 5.61218 2.13732 5.52998 2.19812C5.44778 2.25893 5.3874 2.34463 5.3578 2.4425C5.3578 2.46563 5.3103 2.98938 5.20342 3.62188C5.19155 3.69125 5.17968 3.76563 5.17343 3.835C5.17097 3.84334 5.16598 3.85071 5.15915 3.85608C5.15232 3.86146 5.14398 3.86458 5.1353 3.865H5.12655C5.10842 3.85938 5.09655 3.84188 5.1028 3.83063C5.14758 3.15799 5.19876 2.53122 5.22121 2.25621C5.22853 2.16657 5.2328 2.1143 5.2328 2.11C5.24366 2.04283 5.2398 1.9741 5.2215 1.90856C5.20319 1.84302 5.17087 1.78224 5.12677 1.73041C5.08267 1.67859 5.02785 1.63696 4.96609 1.6084C4.90432 1.57984 4.8371 1.56503 4.76905 1.565ZM17.4606 18.125C17.3413 17.337 17.0511 16.5846 16.6102 15.9206C16.1694 15.2566 15.5887 14.6971 14.9087 14.2812C14.8456 14.2422 14.7904 14.1924 14.7454 14.1347C14.4932 14.0114 14.2496 13.9188 14.0252 13.8575C13.8511 14.6528 13.0891 15.3125 12.1875 15.3125C11.2293 15.3125 10.4287 14.5673 10.3241 13.7061L6.80683 12.8785L6.79874 12.8768C6.78997 12.8748 6.77881 12.872 6.7656 12.8684C6.73925 12.8612 6.70432 12.8503 6.66365 12.8344C6.58293 12.8029 6.47555 12.7501 6.36742 12.6637C6.34191 12.6433 6.31671 12.6213 6.29204 12.5976C6.13768 12.4956 6.00246 12.3651 5.89433 12.2117C5.6965 11.931 5.60138 11.5907 5.62498 11.2481V8.75938C5.45769 8.75741 5.29786 8.68983 5.17991 8.57118C5.06196 8.45253 4.99532 8.2923 4.99435 8.125H3.74998C3.74998 8.29076 3.68413 8.44973 3.56692 8.56694C3.44971 8.68415 3.29074 8.75 3.12498 8.75V12.0625C3.13453 12.6331 3.30912 13.1887 3.62766 13.6622C3.9462 14.1357 4.39506 14.5068 4.91998 14.7306L6.86998 15.6C7.05867 15.6794 7.2194 15.8133 7.33162 15.9845C7.44384 16.1557 7.50246 16.3565 7.49998 16.5613L7.5006 18.125H17.4606ZM13.4034 13.7684C13.273 14.2556 12.7829 14.6875 12.1875 14.6875C11.5921 14.6875 11.102 14.2556 10.9716 13.7684H13.4034ZM10.2871 5.45167C10.0953 5.924 9.73587 6.30884 9.2777 6.5323C9.2052 6.56417 9.18458 6.57292 9.16583 6.5798C9.03488 6.6746 8.93067 6.80165 8.86332 6.94862C8.79597 7.09558 8.76777 7.25747 8.78145 7.41855L8.79833 7.93855L8.50583 7.97355C8.26994 8.0002 8.05294 8.11534 7.89864 8.29574C7.74434 8.47614 7.66421 8.70836 7.67445 8.94553C7.68468 9.1827 7.7845 9.40716 7.95377 9.5736C8.12304 9.74004 8.34914 9.83606 8.58645 9.8423H8.85708L8.89833 10.111C8.99708 10.9247 9.39099 11.6739 10.0054 12.2165C10.6197 12.759 11.4119 13.0573 12.2315 13.0547C13.0512 13.0521 13.8414 12.7487 14.4523 12.2023C15.0632 11.6558 15.4523 10.9041 15.5458 10.0898L15.5758 9.86792L15.7965 9.82542C16.0016 9.78426 16.1871 9.67567 16.3233 9.51692C16.4596 9.35817 16.5389 9.1584 16.5485 8.9494C16.5582 8.7404 16.4976 8.53418 16.3765 8.36358C16.2554 8.19297 16.0807 8.06778 15.8802 8.00792L15.649 7.94042L15.6583 7.5173C15.6521 6.75542 15.2208 6.71605 15.1327 6.71605H12.764C12.281 6.71372 11.8053 6.59811 11.3751 6.37851C10.9449 6.15892 10.5723 5.84147 10.2871 5.45167Z" fill="#635DF5"/>
</svg>
