<svg width="20" height="20" viewBox="0 0 20 20" fill="none" xmlns="http://www.w3.org/2000/svg">
<path d="M9.61959 16.0898C9.53705 16.2036 9.49261 16.33 9.49261 16.4691L9.47991 18.3912C9.47991 18.682 9.14975 18.8527 8.90849 18.682C6.74342 17.1583 2.39424 13.6872 1.41012 9.85577C0.667271 6.96006 2.50853 3.07803 6.94659 3.84937C8.0323 4.03905 9.07356 4.80408 9.53705 5.52484C9.59419 5.60704 9.70213 5.89787 9.70213 5.89787C9.70531 5.9042 9.70689 5.90894 9.70848 5.91368C9.71007 5.91842 9.71165 5.92316 9.71483 5.92949L10.5847 8.25618C10.6609 8.46482 10.6291 8.69875 10.4894 8.86946L10.0958 9.36894C10.0894 9.37526 10.0831 9.38317 10.0767 9.39107C10.0704 9.39897 10.064 9.40688 10.0577 9.4132L8.99102 10.526C8.80055 10.7283 8.76245 11.0254 8.89579 11.2657L10.5402 14.2626C10.6609 14.4775 10.6418 14.7494 10.4894 14.9454L9.61959 16.0898Z" fill="#635DF5"/>
<path d="M10.5806 5.20012C11.1648 4.58844 11.9481 4.0272 12.9689 3.85063C17.4694 3.075 19.3312 6.94688 18.5929 9.83502C17.5913 13.6943 13.1229 17.1815 10.953 18.6823C10.709 18.8526 10.3751 18.6823 10.3751 18.3859L10.388 16.8662C10.388 16.7275 10.4329 16.595 10.5164 16.4878L11.6399 15.0312C11.794 14.8357 11.8132 14.5708 11.6913 14.3501L10.0798 11.4494C9.94499 11.2097 9.98352 10.907 10.1761 10.7116L10.6448 10.226C10.6512 10.2197 10.6576 10.2118 10.664 10.2039C10.6705 10.196 10.6769 10.1882 10.6833 10.1819L11.5693 9.08461C11.7041 8.91435 11.7426 8.68103 11.6656 8.47293L10.5228 5.45236C10.5164 5.44605 10.5035 5.3956 10.5035 5.35777C10.5035 5.26318 10.5806 5.20012 10.5806 5.20012Z" fill="#635DF5"/>
</svg>
