<svg width="20" height="20" viewBox="0 0 20 20" fill="none" xmlns="http://www.w3.org/2000/svg">
<path d="M8.125 1.5625C8.125 1.38991 8.26491 1.25 8.4375 1.25C8.61009 1.25 8.75 1.38991 8.75 1.5625V1.87502L13.75 11.25H14.0625C14.2351 11.25 14.375 11.3899 14.375 11.5625C14.375 11.7351 14.2351 11.875 14.0625 11.875H8.75V12.5H16.875C17.2202 12.5 17.5 12.7798 17.5 13.125C17.5 13.4702 17.2202 13.75 16.875 13.75V14.973C16.7874 14.9904 16.6865 15 16.5625 15C16.1819 15 16.0217 14.9087 15.7861 14.7744L15.7774 14.7695C15.468 14.5932 15.0794 14.375 14.3687 14.375C13.6598 14.375 13.2737 14.5942 12.9667 14.7706L12.9581 14.7755C12.726 14.909 12.5677 15 12.1875 15C11.8057 15 11.6438 14.908 11.4068 14.7733L11.3994 14.7691C11.0905 14.5936 10.7017 14.375 9.99375 14.375C9.28483 14.375 8.89865 14.5942 8.5917 14.7706L8.58312 14.7755C8.35105 14.909 8.19267 15 7.8125 15C7.43071 15 7.26883 14.908 7.03181 14.7733L7.02438 14.7691C6.71548 14.5936 6.32674 14.375 5.61875 14.375C4.99182 14.375 4.61624 14.5464 4.32483 14.708L3.75 13.75H3.125C2.77982 13.75 2.5 13.4702 2.5 13.125C2.5 12.7798 2.77982 12.5 3.125 12.5H8.125V11.875H4.6875C4.51491 11.875 4.375 11.7351 4.375 11.5625C4.375 11.3899 4.51491 11.25 4.6875 11.25H5L8.125 3.75001V1.5625ZM8.125 5.37501L5.9375 10.625H8.125V5.37501ZM8.7603 3.22245V10.625H12.7083L8.7603 3.22245Z" fill="#635DF5"/>
<path d="M4.64657 15.2443C4.88446 15.1138 5.15203 15 5.61875 15C6.16562 15 6.44062 15.1562 6.71562 15.3125C6.99062 15.4688 7.26562 15.625 7.8125 15.625C8.35938 15.625 8.63125 15.4688 8.90312 15.3125C9.175 15.1562 9.44687 15 9.99375 15C10.5406 15 10.8156 15.1562 11.0906 15.3125C11.3656 15.4688 11.6406 15.625 12.1875 15.625C12.7344 15.625 13.0062 15.4688 13.2781 15.3125C13.55 15.1562 13.8219 15 14.3687 15C14.9195 15 15.1945 15.1567 15.4691 15.3132C15.743 15.4692 16.0164 15.625 16.5625 15.625C16.6779 15.625 16.7813 15.6181 16.875 15.6058C17.2285 15.5593 17.4458 15.4355 17.6629 15.3118C17.9367 15.1558 18.2102 15 18.7562 15L18.75 18.75H1.25V15C1.79688 15 2.07031 15.1562 2.34375 15.3125C2.61719 15.4688 2.89062 15.625 3.4375 15.625C3.98047 15.625 4.25234 15.4692 4.52461 15.3132C4.56491 15.2901 4.60537 15.2669 4.64657 15.2443Z" fill="#635DF5"/>
</svg>
