<svg width="21" height="20" viewBox="0 0 21 20" fill="none" xmlns="http://www.w3.org/2000/svg">
<path d="M11.6899 2.49883C11.6893 2.15421 11.4097 1.875 11.0649 1.875C10.7201 1.875 10.4405 2.15421 10.4399 2.49883L10.4388 3.12271H9.50401L9.18521 3.12502C8.84226 3.1275 8.56492 3.40639 8.56492 3.75V4.375H7.20864C6.86346 4.375 6.58364 4.65482 6.58364 5C6.58364 5.34518 6.86346 5.625 7.20864 5.625H8.16646C8.40265 5.625 8.64754 5.7072 8.83234 5.89929C8.93498 6.00597 9.002 6.12876 9.04081 6.25451C9.73057 6.24743 10.4207 6.25358 11.1105 6.25304C11.2315 5.88297 11.5792 5.625 11.9821 5.625H13.5649C13.9101 5.625 14.1899 5.34518 14.1899 5C14.1899 4.65482 13.9101 4.375 13.5649 4.375H12.9399V3.75C12.9399 3.40515 12.6606 3.12552 12.3159 3.125L11.6919 3.12406V3.12271H11.691L11.6899 2.49883ZM11.9821 6.25C11.946 6.25 11.9115 6.25621 11.8797 6.2677C12.0448 6.28438 12.2152 6.32322 12.3828 6.41525C12.6488 6.56128 12.8365 6.78276 12.9945 7.02362L13.0194 7.06161L14.0108 9.27957L17.7486 17.4187C18.0362 18.04 17.5825 18.75 16.8978 18.75H3.7726C3.08717 18.75 2.63345 18.0385 2.9226 17.417L6.57805 9.56055C6.60603 9.47928 6.63635 9.40954 6.66315 9.35603C6.69814 9.28613 6.74472 9.18474 6.78508 9.09473C6.80468 9.051 6.82183 9.01216 6.83407 8.98428L6.84832 8.9517L6.85354 8.93342L6.85659 8.9327L6.85937 8.92669L6.9366 8.75911C6.98403 8.65601 7.04887 8.51475 7.11858 8.36199C7.25954 8.05309 7.41552 7.70781 7.49033 7.53119C7.53397 7.42815 7.60606 7.25825 7.70429 7.08482C7.79979 6.91619 7.94171 6.70424 8.14413 6.53645C8.23022 6.46508 8.3212 6.41167 8.41272 6.37173C8.36466 6.29651 8.2803 6.25 8.16646 6.25H7.20864C6.51829 6.25 5.95864 5.69036 5.95864 5C5.95864 4.30964 6.51829 3.75 7.20864 3.75H7.93992C7.93992 3.06272 8.49458 2.505 9.18069 2.50003V2.49771H9.81492C9.81616 1.80841 10.3753 1.25 11.0649 1.25C11.7545 1.25 12.3137 1.80841 12.3149 2.49771H12.3169V2.5C13.0063 2.50105 13.5649 3.06029 13.5649 3.75C14.2553 3.75 14.8149 4.30964 14.8149 5C14.8149 5.69036 14.2553 6.25 13.5649 6.25H11.9821ZM13.8511 10.4327L13.8482 10.4339L12.4718 7.36629C12.2715 6.97019 11.9983 6.87571 11.5878 6.87253C10.7726 6.86622 9.95736 6.87525 9.14211 6.87239C8.9629 6.87147 8.72081 6.87022 8.543 7.01762C8.30565 7.21437 8.15307 7.56897 8.06584 7.77494C7.90824 8.14703 7.4267 9.18891 7.4267 9.18891C7.4267 9.18891 7.30476 9.47058 7.222 9.63585C7.13925 9.80112 6.99049 10.2576 7.27494 10.469C7.29696 10.4854 7.31892 10.5015 7.34069 10.5175C7.44846 10.5965 7.55173 10.6722 7.63565 10.7604C7.76226 10.866 7.83364 11.0315 7.83364 11.25V16.25C7.83364 16.4205 7.90193 16.5751 8.01267 16.6879C8.12608 16.8034 8.28399 16.875 8.45862 16.875C8.50176 16.875 8.54391 16.8706 8.58458 16.8623C8.86938 16.804 9.08362 16.552 9.08362 16.25V11.875C9.08362 11.5834 9.28335 11.3384 9.55348 11.2694C9.60309 11.2567 9.65507 11.25 9.70862 11.25C9.8812 11.25 10.0375 11.32 10.1506 11.4331C10.2637 11.5462 10.3336 11.7024 10.3336 11.875V12.5C10.3336 12.6671 10.3992 12.819 10.5061 12.9311C10.6199 13.0506 10.7806 13.125 10.9586 13.125C11.3038 13.125 11.5836 12.8452 11.5836 12.5V11.25C11.5836 10.9048 11.8634 10.625 12.2086 10.625L12.2164 10.625C12.2999 10.6261 12.3794 10.6434 12.4519 10.6741C12.6762 10.769 12.8336 10.9911 12.8336 11.25C12.8336 11.4114 12.8948 11.5584 12.9952 11.6693C13.1095 11.7956 13.2748 11.875 13.4586 11.875C13.5018 11.875 13.5439 11.8706 13.5846 11.8623C13.8694 11.804 14.0836 11.552 14.0836 11.25V11.2309C14.0836 10.9335 13.8482 10.4339 13.8482 10.4339L13.8518 10.433L13.8511 10.4327Z" fill="#635DF5"/>
</svg>
