<svg width="21" height="20" viewBox="0 0 21 20" fill="none" xmlns="http://www.w3.org/2000/svg">
<g clip-path="url(#clip0_150_13881)">
<path d="M10.3519 0.625C13.2604 0.625 15.6526 2.82582 15.9623 5.65625H18.3392C19.5981 5.65625 20.2242 7.18136 19.3382 8.06738L17.7923 9.6123L18.7689 10.5889C18.9115 10.7314 18.9741 10.931 18.9457 11.123C18.8969 15.8312 15.0651 19.6375 10.346 19.6377C5.59462 19.6377 1.74546 15.7885 1.74546 11.0371C1.74556 10.8715 1.81193 10.7128 1.92906 10.5957L2.90855 9.61523L1.35972 8.06738C0.473699 7.18136 1.09987 5.65625 2.35874 5.65625H4.74058C5.04524 2.82489 7.43875 0.625052 10.3519 0.625ZM8.34995 10.2549L6.72105 11.8838L6.69663 11.8594L6.6566 11.8984L4.70835 9.90332V9.87598L4.59019 9.75781L4.19859 10.0938L3.00035 11.292C3.13437 15.2351 6.37018 18.3877 10.346 18.3877C14.3213 18.3875 17.5612 15.2253 17.6918 11.2793L16.5433 10.1309L16.1078 9.75781L14.7865 11.0791L14.0023 11.9082L13.974 11.8809L13.971 11.8838L13.5794 11.4922L10.349 8.31543L8.34995 10.2549ZM10.3519 1.875C7.92651 1.87506 5.9654 3.83212 5.95835 6.25586V9.35352L6.70933 10.1045L7.47202 9.36426L10.346 6.49121L13.971 10.1162L14.0707 10.0166L14.7396 9.30859V6.04395C14.6171 3.71793 12.699 1.875 10.3519 1.875ZM2.35874 6.90625C2.3151 6.90625 2.28732 6.91802 2.26792 6.93164C2.24561 6.94743 2.22413 6.97337 2.21031 7.00684C2.19652 7.04027 2.19389 7.07331 2.19859 7.10059C2.20268 7.12432 2.21313 7.15207 2.24351 7.18262L3.79234 8.73145L4.5648 7.95996L4.70835 8.10352V6.90625H2.35874ZM15.9955 6.90625V8.09082L16.1332 7.95312L16.9085 8.72852L18.4535 7.18262C18.4842 7.1519 18.4953 7.12444 18.4994 7.10059C18.5041 7.07332 18.5014 7.04025 18.4876 7.00684C18.4738 6.97337 18.4523 6.94743 18.43 6.93164C18.4106 6.918 18.3829 6.90625 18.3392 6.90625H15.9955ZM10.3294 4.53711C11.1024 4.53711 11.7376 5.16453 11.7376 5.9375H8.93003C8.93003 5.16468 9.55668 4.53735 10.3294 4.53711ZM7.40171 4.40625C7.74688 4.40625 8.0267 4.68609 8.02671 5.03125C8.02671 5.37643 7.74689 5.65625 7.40171 5.65625C7.05668 5.65608 6.77671 5.37632 6.77671 5.03125C6.77673 4.68619 7.05669 4.40642 7.40171 4.40625ZM13.2962 4.40625C13.6412 4.40648 13.9212 4.68623 13.9212 5.03125C13.9212 5.37628 13.6412 5.65602 13.2962 5.65625C12.9511 5.65625 12.6712 5.37643 12.6712 5.03125C12.6713 4.68609 12.9511 4.40625 13.2962 4.40625Z" fill="#635DF5"/>
</g>
<defs>
<clipPath id="clip0_150_13881">
<rect width="20" height="20" fill="white" transform="translate(0.333496)"/>
</clipPath>
</defs>
</svg>
