<svg width="21" height="20" viewBox="0 0 21 20" fill="none" xmlns="http://www.w3.org/2000/svg">
<g clip-path="url(#clip0_150_13948)">
<path d="M11.8795 8.30672C11.9153 7.22303 12.9382 6.25 14.1871 6.25C14.708 6.25 15.1949 6.43697 15.5658 6.63472C15.9415 6.83502 16.2531 7.0759 16.4382 7.25122C16.6887 7.48862 16.6994 7.8842 16.462 8.13478C16.2246 8.38537 15.8291 8.39606 15.5785 8.15866C15.4715 8.05733 15.2506 7.88325 14.9777 7.73774C14.7 7.58968 14.4223 7.5 14.1871 7.5C13.5455 7.5 13.1402 8.0032 13.1288 8.34808C13.1217 8.56009 13.1972 8.73628 13.4176 8.91975C13.6621 9.12325 14.0665 9.3141 14.654 9.4773C15.458 9.70064 16.0757 10.1236 16.3929 10.7252C16.7167 11.3393 16.6673 12.0262 16.3555 12.6268C16.0623 13.1914 15.4923 13.6799 14.6928 13.7804C13.9007 13.8799 12.9957 13.5861 12.0277 12.8318C11.7555 12.6196 11.7067 12.2269 11.9189 11.9546C12.1311 11.6824 12.5238 11.6336 12.7961 11.8458C13.6032 12.4747 14.1831 12.5846 14.5369 12.5401C14.8832 12.4966 15.1201 12.2935 15.2461 12.0508C15.4012 11.7522 15.3897 11.5026 15.2873 11.3083C15.1783 11.1016 14.9054 10.8445 14.3195 10.6817C13.6621 10.4991 13.0607 10.249 12.618 9.88052C12.1511 9.49195 11.8577 8.965 11.8795 8.30672Z" fill="#635DF5"/>
<path d="M5.08882 6.30211C5.41062 6.17722 5.77272 6.33684 5.89761 6.65863L7.67818 11.2465C7.70378 11.3124 7.79684 11.3131 7.82342 11.2475L9.6869 6.64999C9.81656 6.33009 10.181 6.17587 10.5009 6.30554C10.8208 6.4352 10.975 6.79964 10.8454 7.11954L8.31606 13.3598C8.21982 13.5972 7.98839 13.7519 7.73218 13.75C7.47597 13.7481 7.24688 13.59 7.15417 13.3511L4.7323 7.1109C4.60741 6.78911 4.76703 6.427 5.08882 6.30211Z" fill="#635DF5"/>
<path d="M4.4165 0.625C2.69061 0.625 1.2915 2.02411 1.2915 3.75V16.25C1.2915 17.9759 2.69061 19.375 4.4165 19.375H16.9165C18.6424 19.375 20.0415 17.9759 20.0415 16.25V3.75C20.0415 2.02411 18.6424 0.625 16.9165 0.625H4.4165ZM2.5415 3.75C2.5415 2.71447 3.38097 1.875 4.4165 1.875H16.9165C17.952 1.875 18.7915 2.71447 18.7915 3.75V16.25C18.7915 17.2855 17.952 18.125 16.9165 18.125H4.4165C3.38097 18.125 2.5415 17.2855 2.5415 16.25V3.75Z" fill="#635DF5"/>
</g>
<defs>
<clipPath id="clip0_150_13948">
<rect width="20" height="20" fill="white" transform="translate(0.666504)"/>
</clipPath>
</defs>
</svg>
