<svg width="24" height="24" viewBox="0 0 24 24" fill="none" xmlns="http://www.w3.org/2000/svg">
  <defs>
    <linearGradient id="instagramBrandGradient" x1="0" y1="0" x2="24" y2="24" gradientUnits="userSpaceOnUse">
      <stop offset="0%" stop-color="#67DAFA" />
      <stop offset="100%" stop-color="#635DF5" />
    </linearGradient>
  </defs>
  <path d="M12 2.16093C15.2062 2.16093 15.5859 2.175 16.8469 2.23125C18.0188 2.28281 18.6516 2.47969 19.0734 2.64375C19.6312 2.85938 20.0344 3.12187 20.4516 3.53906C20.8734 3.96094 21.1312 4.35937 21.3469 4.91719C21.5109 5.33906 21.7078 5.97656 21.7594 7.14375C21.8156 8.40937 21.8297 8.78906 21.8297 12.0063C21.8297 15.2469 21.8156 15.6266 21.7594 16.8875C21.7078 18.0594 21.5109 18.6922 21.3469 19.1141C21.1312 19.6719 20.8687 20.075 20.4516 20.4922C20.0297 20.9141 19.6312 21.1719 19.0734 21.3875C18.6516 21.5516 18.0141 21.7484 16.8469 21.8C15.5812 21.8562 15.2016 21.8703 12 21.8703C8.79375 21.8703 8.41406 21.8562 7.15312 21.8C5.98125 21.7484 5.34844 21.5516 4.92656 21.3875C4.36875 21.1719 3.96562 20.9094 3.54844 20.4922C3.12656 20.0703 2.86875 19.6719 2.65312 19.1141C2.48906 18.6922 2.29219 18.0547 2.24062 16.8875C2.18437 15.6219 2.17031 15.2422 2.17031 12.0063C2.17031 8.77344 2.18437 8.39375 2.24062 7.14375C2.29219 5.97187 2.48906 5.33906 2.65312 4.91719C2.86875 4.35937 3.13125 3.95625 3.54844 3.53906C3.97031 3.11719 4.36875 2.85938 4.92656 2.64375C5.34844 2.47969 5.98594 2.28281 7.15312 2.23125C8.40937 2.175 8.78906 2.16093 12 2.16093ZM12 0C8.74219 0 8.33437 0.014063 7.05469 0.070313C5.77969 0.126563 4.90312 0.332813 4.14375 0.628125C3.35156 0.9375 2.68125 1.34531 2.01563 2.01563C1.34531 2.68125 0.9375 3.35156 0.628125 4.13906C0.332813 4.90312 0.126562 5.775 0.070312 7.05C0.014062 8.33437 0 8.74219 0 12C0 15.2578 0.014062 15.6656 0.070312 16.9453C0.126562 18.2203 0.332813 19.0969 0.628125 19.8563C0.9375 20.6484 1.34531 21.3188 2.01563 21.9844C2.68125 22.65 3.35156 23.0625 4.13906 23.3672C4.90312 23.6625 5.775 23.8688 7.05 23.925C8.32969 23.9812 8.7375 23.9953 11.9953 23.9953C15.2531 23.9953 15.6609 23.9812 16.9406 23.925C18.2156 23.8688 19.0922 23.6625 19.8516 23.3672C20.6391 23.0625 21.3094 22.65 21.975 21.9844C22.6406 21.3188 23.0531 20.6484 23.3578 19.8609C23.6531 19.0969 23.8594 18.225 23.9156 16.95C23.9719 15.6703 23.9859 15.2625 23.9859 12.0047C23.9859 8.74688 23.9719 8.33906 23.9156 7.05938C23.8594 5.78438 23.6531 4.90781 23.3578 4.14844C23.0625 3.35156 22.6547 2.68125 21.9844 2.01563C21.3188 1.35 20.6484 0.9375 19.8609 0.632813C19.0969 0.3375 18.225 0.13125 16.95 0.075C15.6656 0.014063 15.2578 0 12 0Z" fill="url(#instagramBrandGradient)"/>
  <path d="M12 5.83594C8.59688 5.83594 5.83594 8.59688 5.83594 12C5.83594 15.4031 8.59688 18.1641 12 18.1641C15.4031 18.1641 18.1641 15.4031 18.1641 12C18.1641 8.59688 15.4031 5.83594 12 5.83594ZM12 15.9984C9.79219 15.9984 8.00156 14.2078 8.00156 12C8.00156 9.79219 9.79219 8.00156 12 8.00156C14.2078 8.00156 15.9984 9.79219 15.9984 12C15.9984 14.2078 14.2078 15.9984 12 15.9984Z" fill="url(#instagramBrandGradient)"/>
  <path d="M19.8469 5.59214C19.8469 6.38902 19.2 7.03121 18.4078 7.03121C17.6109 7.03121 16.9688 6.38433 16.9688 5.59214C16.9688 4.79527 17.6156 4.15308 18.4078 4.15308C19.2 4.15308 19.8469 4.79996 19.8469 5.59214Z" fill="url(#instagramBrandGradient)"/>
</svg>
