<svg width="24" height="24" viewBox="0 0 24 24" fill="none" xmlns="http://www.w3.org/2000/svg">
  <defs>
    <linearGradient id="linkedinBrandGradient" x1="0" y1="0" x2="24" y2="24" gradientUnits="userSpaceOnUse">
      <stop offset="0%" stop-color="#67DAFA" />
      <stop offset="100%" stop-color="#635DF5" />
    </linearGradient>
  </defs>
  <path d="M22.2234 0H1.77187C0.792187 0 0 0.773438 0 1.72969V22.2656C0 23.2219 0.792187 24 1.77187 24H22.2234C23.2031 24 24 23.2219 24 22.2703V1.72969C24 0.773438 23.2031 0 22.2234 0ZM7.12031 20.4516H3.55781V8.99531H7.12031V20.4516ZM5.33906 7.43438C4.19531 7.43438 3.27187 6.51094 3.27187 5.37187C3.27187 4.23281 4.19531 3.30937 5.33906 3.30937C6.47812 3.30937 7.40156 4.23281 7.40156 5.37187C7.40156 6.50625 6.47812 7.43438 5.33906 7.43438ZM20.4516 20.4516H16.8937V14.8828C16.8937 13.5562 16.8703 11.8453 15.0422 11.8453C13.1906 11.8453 12.9094 13.2937 12.9094 14.7891V20.4516H9.35625V8.99531H12.7688V10.5609H12.8156C13.2891 9.66094 14.4516 8.70937 16.1812 8.70937C19.7859 8.70937 20.4516 11.0812 20.4516 14.1656V20.4516Z" fill="url(#linkedinBrandGradient)"/>
</svg>
