<svg width="24" height="24" viewBox="0 0 24 24" fill="none" xmlns="http://www.w3.org/2000/svg">
  <defs>
    <linearGradient id="tiktokBrandGradient" x1="0" y1="0" x2="24" y2="24" gradientUnits="userSpaceOnUse">
      <stop offset="0%" stop-color="#67DAFA" />
      <stop offset="100%" stop-color="#635DF5" />
    </linearGradient>
  </defs>
  <path d="M17.0725 0H13.0278V16.3478C13.0278 18.2957 11.4722 19.8957 9.53625 19.8957C7.60035 19.8957 6.0447 18.2957 6.0447 16.3478C6.0447 14.4348 7.56575 12.8696 9.43255 12.8V8.69565C5.3187 8.7652 2 12.1392 2 16.3478C2 20.5914 5.38785 24 9.57085 24C13.7538 24 17.1417 20.5566 17.1417 16.3478V7.9652C18.6627 9.0783 20.5295 9.7392 22.5 9.77395V5.66955C19.4578 5.5652 17.0725 3.06087 17.0725 0Z" fill="url(#tiktokBrandGradient)"/>
</svg>
