<svg width="24" height="24" viewBox="0 0 24 24" fill="none" xmlns="http://www.w3.org/2000/svg">
  <defs>
    <linearGradient id="youtubeBrandGradient" x1="0" y1="0" x2="24" y2="24" gradientUnits="userSpaceOnUse">
      <stop offset="0%" stop-color="#67DAFA" />
      <stop offset="100%" stop-color="#635DF5" />
    </linearGradient>
  </defs>
  <path d="M23.7609 7.20005C23.7609 7.20005 23.5265 5.54535 22.8047 4.81879C21.8906 3.86254 20.8688 3.85786 20.4 3.80161C17.0438 3.55786 12.0047 3.55786 12.0047 3.55786H11.9953C11.9953 3.55786 6.95625 3.55786 3.6 3.80161C3.13125 3.85786 2.10938 3.86254 1.19531 4.81879C0.473438 5.54535 0.24375 7.20005 0.24375 7.20005C0.24375 7.20005 0 9.14535 0 11.086V12.9048C0 14.8454 0.239063 16.7907 0.239063 16.7907C0.239063 16.7907 0.473438 18.4454 1.19062 19.1719C2.10469 20.1282 3.30469 20.0954 3.83906 20.1985C5.76094 20.3813 12 20.4376 12 20.4376C12 20.4376 17.0438 20.4282 20.4 20.1891C20.8688 20.1329 21.8906 20.1282 22.8047 19.1719C23.5265 18.4454 23.7609 16.7907 23.7609 16.7907C23.7609 16.7907 24 14.8501 24 12.9048V11.086C24 9.14535 23.7609 7.20005 23.7609 7.20005ZM9.5203 15.1125V8.36725L16.0031 11.7516L9.5203 15.1125Z" fill="url(#youtubeBrandGradient)"/>
</svg>
