<svg width="24" height="16" viewBox="0 0 24 16" fill="none" xmlns="http://www.w3.org/2000/svg">
  <rect width="24" height="16" fill="#F5F5F5"/>
  <rect y="0" width="24" height="1.23077" fill="#B22234"/>
  <rect y="2.46154" width="24" height="1.23077" fill="#B22234"/>
  <rect y="4.92308" width="24" height="1.23077" fill="#B22234"/>
  <rect y="7.38462" width="24" height="1.23077" fill="#B22234"/>
  <rect y="9.84615" width="24" height="1.23077" fill="#B22234"/>
  <rect y="12.3077" width="24" height="1.23077" fill="#B22234"/>
  <rect y="14.7692" width="24" height="1.23077" fill="#B22234"/>
  <rect width="9.6" height="8.61538" fill="#3C3B6E"/>
  <circle cx="1.6" cy="1.43846" r="0.6" fill="white"/>
  <circle cx="4" cy="1.43846" r="0.6" fill="white"/>
  <circle cx="6.4" cy="1.43846" r="0.6" fill="white"/>
  <circle cx="8.8" cy="1.43846" r="0.6" fill="white"/>
  <circle cx="1.6" cy="3.43846" r="0.6" fill="white"/>
  <circle cx="4" cy="3.43846" r="0.6" fill="white"/>
  <circle cx="6.4" cy="3.43846" r="0.6" fill="white"/>
  <circle cx="8.8" cy="3.43846" r="0.6" fill="white"/>
  <circle cx="1.6" cy="5.43846" r="0.6" fill="white"/>
  <circle cx="4" cy="5.43846" r="0.6" fill="white"/>
  <circle cx="6.4" cy="5.43846" r="0.6" fill="white"/>
  <circle cx="8.8" cy="5.43846" r="0.6" fill="white"/>
  <circle cx="1.6" cy="7.43846" r="0.6" fill="white"/>
  <circle cx="4" cy="7.43846" r="0.6" fill="white"/>
  <circle cx="6.4" cy="7.43846" r="0.6" fill="white"/>
  <circle cx="8.8" cy="7.43846" r="0.6" fill="white"/>
</svg> 