<svg width="293" height="61" viewBox="0 0 293 61" fill="none" xmlns="http://www.w3.org/2000/svg">
<g clip-path="url(#clip0_385_323)">
<path d="M81.3899 0L30.414 61H0L13.6337 20.1239C17.6197 8.174 28.946 0 41.5327 0H81.3899ZM81.3899 20.3313L50.7622 61H65.867C67.9069 61.0048 69.9276 60.6069 71.8131 59.829C73.6986 59.0512 75.4117 57.9087 76.8541 56.4673C78.2965 55.0259 79.4397 53.3139 80.2181 51.4297C80.9965 49.5455 81.3947 47.5262 81.3899 45.4877V20.3313Z" fill="white"/>
<path d="M186.533 0V9.577H177.956V0H186.533ZM177.956 61V16.3846H186.533V61H177.956ZM259.178 0V9.577H250.602V0H259.178ZM250.602 61V16.3846H259.178V61H250.602ZM123.98 61L129.276 45.6249H156.515L161.814 61H171.397L150.21 0H135.328L114.391 61H123.98ZM141.887 8.5705H143.651L153.491 37.5577H132.05L141.887 8.5705ZM242.026 0H230.672L205.953 28.9872V0H196.623V61H205.956V34.282L232.189 61H244.293L215.793 31.2564L242.026 0ZM281.626 49.4039V23.6924H291.21V15.8844H281.626V0H273.05V15.8813H267.251V23.6954H273.05V47.638C273.05 55.4551 275.571 61 285.411 61H292.217V52.4295H284.148C281.88 52.4295 281.626 51.9263 281.626 49.4039Z" fill="white"/>
</g>
<defs>
<clipPath id="clip0_385_323">
<rect width="293" height="61" fill="white"/>
</clipPath>
</defs>
</svg>
