<svg width="317" height="71" viewBox="0 0 317 71" fill="none" xmlns="http://www.w3.org/2000/svg">
<g clip-path="url(#clip0_385_326)">
<mask id="mask0_385_326" style="mask-type:luminance" maskUnits="userSpaceOnUse" x="0" y="0" width="317" height="71">
<path d="M317 0H0V71H317V0Z" fill="white"/>
</mask>
<g mask="url(#mask0_385_326)">
<path d="M106.155 61.4054L110.575 48.7593H130.204L134.624 61.4054H142.865L124.51 9.02509H116.269L97.9141 61.4054H106.155ZM127.657 41.3512H113.123L120.39 20.5487L127.657 41.3512ZM166.64 62.1538C177.878 62.1538 185.445 54.9701 185.445 43.6709V9.02509H177.429V43.6709C177.429 51.0043 171.885 54.2219 166.64 54.2219C161.396 54.2219 155.852 51.0043 155.852 43.6709V9.02509H147.836V43.6709C147.836 54.9701 155.403 62.1538 166.64 62.1538ZM213.415 62.1538C224.13 62.1538 231.471 55.5688 232.145 45.1675H224.13C223.455 51.4531 218.285 54.2219 213.415 54.2219C208.172 54.2219 202.627 51.0043 202.627 43.6709V26.7595C202.627 19.4264 208.172 16.2087 213.415 16.2087C218.285 16.2087 223.455 18.9774 224.13 25.2629H232.145C231.546 14.7869 224.13 8.27681 213.415 8.27681C202.178 8.27681 194.61 15.4604 194.61 26.7595V43.6709C194.61 54.9701 202.178 62.1538 213.415 62.1538ZM258.917 61.4054V16.957H273.676V9.02509H236.141V16.957H250.902V61.4054H258.917ZM279.47 61.4054L283.891 48.7593H303.52L307.941 61.4054H316.181L297.825 9.02509H289.585L271.23 61.4054H279.47ZM300.972 41.3512H286.438L293.706 20.5487L300.972 41.3512Z" fill="white"/>
<path d="M60.4048 1.76777L59.6114 1.39796L39.8773 1.41718L22.0359 1.40862L17.5971 1.39796L0 36.2175L17.5975 70.2793H59.6137L60.4004 69.9154C66.0369 67.3097 70.8428 62.779 74.2558 56.9485C77.822 50.8567 79.7395 43.5748 79.7395 35.8385C79.7395 27.9734 77.8804 20.7063 74.3475 14.6711C70.9836 8.9248 66.1879 4.46262 60.4048 1.76777ZM57.8304 9.26076L58.4127 9.56988C62.1287 11.6149 65.2526 14.7099 67.5527 18.6391C70.3602 23.4352 71.8687 29.3313 71.8687 35.8385C71.8687 42.1995 70.3121 48.1102 67.4613 52.9804L67.0599 53.6451C64.7449 57.3655 61.7334 60.2911 58.3165 62.1642L57.8323 62.4167L22.3898 62.4148L8.83566 36.1774L22.4359 9.26844L29.6981 9.27868L57.8304 9.26076Z" fill="white"/>
</g>
</g>
<defs>
<clipPath id="clip0_385_326">
<rect width="317" height="71" fill="white"/>
</clipPath>
</defs>
</svg>
