<svg width="257" height="102" viewBox="0 0 257 102" fill="none" xmlns="http://www.w3.org/2000/svg">
<g clip-path="url(#clip0_385_333)">
<mask id="mask0_385_333" style="mask-type:luminance" maskUnits="userSpaceOnUse" x="0" y="0" width="257" height="102">
<path d="M257 0H0V102H257V0Z" fill="white"/>
</mask>
<g mask="url(#mask0_385_333)">
<mask id="mask1_385_333" style="mask-type:luminance" maskUnits="userSpaceOnUse" x="0" y="12" width="257" height="100">
<path d="M257 12H0V112H257V12Z" fill="white"/>
</mask>
<g mask="url(#mask1_385_333)">
<path d="M130.492 90.2861L121.47 81.2468L155.785 46.7043H121.309L121.47 34.2754H177.211V90.2861H164.645L164.806 55.7436L130.492 90.2861Z" fill="currentColor"/>
<path d="M0 15.6753H28.9003C45.228 15.6753 53.3919 23.8248 53.3919 34.6907C53.3919 43.799 47.5141 48.7525 40.1664 50.5103V51.1495C48.167 51.6287 56.3309 58.1805 56.3309 69.366C56.3309 80.8712 47.8404 89.5 30.5331 89.5H0V15.6753ZM27.1043 46.9948C34.2885 46.9948 39.6766 43 39.6766 36.4484C39.6766 30.8557 35.4313 26.701 27.4306 26.701H13.7154V46.9948H27.1043ZM28.4105 78.3145C38.2072 78.3145 42.4524 74.1598 42.4524 68.2475C42.4524 61.6958 37.2273 56.5825 28.7371 56.5825H13.7154V78.3145H28.4105ZM60.413 19.1907C60.413 15.1959 63.8418 12 68.087 12C72.3323 12 75.7611 15.1959 75.7611 19.1907C75.7611 23.0258 72.3323 26.2217 68.087 26.2217C63.8418 26.2217 60.413 23.0258 60.413 19.1907ZM61.3926 34.0515H74.7815V89.5H61.3926V34.0515ZM95.3545 89.5H81.9658V15.6753H95.3545V89.5ZM115.764 89.5H102.376V15.6753H115.764V89.5ZM185.811 19.1907C185.811 15.1959 189.24 12 193.485 12C197.73 12 201.159 15.1959 201.159 19.1907C201.159 23.0258 197.73 26.2217 193.485 26.2217C189.24 26.2217 185.811 23.0258 185.811 19.1907ZM186.79 34.0515H200.179V89.5H186.79V34.0515ZM220.589 89.5H207.363V34.0515H220.099V43.4795H220.752C223.365 37.2475 229.079 33.4124 237.57 33.4124C249.326 33.4124 257 40.9228 257 54.1855V89.5H243.611V56.263C243.611 48.7525 239.529 44.4382 232.672 44.4382C225.65 44.4382 220.589 49.0723 220.589 57.0618V89.5Z" fill="currentColor"/>
</g>
</g>
</g>
<defs>
<clipPath id="clip0_385_333">
<rect width="257" height="102" fill="white"/>
</clipPath>
</defs>
</svg>
