<svg width="333" height="90" viewBox="0 0 333 90" fill="none" xmlns="http://www.w3.org/2000/svg">
<g clip-path="url(#clip0_386_546)">
<path d="M0 0.647476C6.21211 0.647476 12.4242 0.647476 18.8246 0.647476C18.8246 29.4928 18.8246 58.3381 18.8246 88.0575C12.6125 88.0575 6.40035 88.0575 0 88.0575C0 59.2122 0 30.3669 0 0.647476Z" fill="white"/>
<path d="M183.87 43.6115C189.401 47.5244 193.497 52.7932 194.737 59.5683C194.798 61.1996 194.822 62.8325 194.818 64.4649C194.821 64.9002 194.823 65.3355 194.826 65.7839C194.822 67.7752 194.724 69.3196 194.088 71.223C183.806 71.4367 173.524 71.6504 162.93 71.8705C168.653 76.6276 171.825 77.6074 179.158 77.0504C180.739 76.7262 182.166 76.2661 183.702 75.7554C185.31 75.5227 185.31 75.5227 186.948 75.7554C188.14 77.0807 188.14 77.0807 189.139 78.8309C189.478 79.4018 189.818 79.9727 190.168 80.5609C190.843 82.2302 190.843 82.2302 190.86 83.6289C189.819 85.4889 188.378 85.8118 186.42 86.5603C185.733 86.8298 185.046 87.0994 184.339 87.3772C177.614 89.7421 169.123 89.7842 162.542 86.9422C159.168 85.1528 155.724 83.1983 153.193 80.2878C153.193 79.8604 153.193 79.4331 153.193 78.9928C152.765 78.9928 152.337 78.9928 151.895 78.9928C147.996 71.8821 146.172 65.7192 148.406 57.6664C149.602 53.7302 150.974 50.8607 153.843 47.9137C154.231 47.5089 154.619 47.1041 155.019 46.687C162.985 39.078 174.471 37.9834 183.87 43.6115ZM163.579 55.6835C162.024 57.76 162.024 57.76 161.632 60.2158C168.058 60.2158 174.485 60.2158 181.106 60.2158C180.313 57.0532 178.84 54.744 175.999 52.9949C171.361 51.1563 167.001 52.1942 163.579 55.6835Z" fill="white"/>
<path d="M320.018 42.7338C326.539 46.9162 329.783 51.3113 331.882 58.6958C333.381 65.6223 332.244 72.357 328.456 78.3453C324.843 83.3469 319.803 87.6311 313.527 88.705C305.331 89.3495 298.772 88.4679 292.187 83.08C286.641 77.7495 284.332 71.9994 284.113 64.4649C284.237 58.1769 286.321 52.9374 290.158 47.9137C290.801 47.7 291.444 47.4863 292.106 47.2662C292.106 46.8389 292.106 46.4115 292.106 45.9712C300.037 39.1385 310.703 38.2576 320.018 42.7338ZM299.003 57.7473C297.372 60.9862 296.851 64.5904 297.608 68.1424C298.86 71.7785 300.533 74.3394 303.912 76.3219C307.807 77.4685 310.742 77.1303 314.379 75.3507C317.466 72.6293 319.102 69.6366 319.432 65.512C319.264 61.7754 318.23 58.5983 315.839 55.7239C315.29 55.2832 314.741 54.8425 314.176 54.3885C313.578 53.8764 313.578 53.8764 312.969 53.354C307.601 49.8465 302.276 53.3656 299.003 57.7473Z" fill="white"/>
<path d="M240.877 45.0101C242.3 46.1084 243.597 47.1508 244.718 48.5612C244.718 49.2022 244.718 49.8432 244.718 50.5036C243.496 51.6307 242.318 52.5997 240.986 53.5791C240.636 53.8537 240.286 54.1283 239.926 54.4113C237.33 56.3502 237.33 56.3502 235.504 56.2627C234.332 55.6835 234.332 55.6835 232.304 54.348C229.397 52.6457 226.583 52.5626 223.297 53.0935C220.12 54.6195 218.548 56.5434 216.806 59.5684C215.557 63.3077 215.601 67.3158 217.131 70.9398C217.452 71.4606 217.773 71.9814 218.104 72.518C218.104 72.9453 218.104 73.3727 218.104 73.813C218.963 74.2573 219.831 74.6857 220.701 75.1079C221.196 75.3483 221.692 75.5887 222.202 75.8363C225.347 76.8576 227.771 76.6463 230.884 75.5935C232.89 74.5366 234.161 73.5711 235.631 71.8705C236.273 72.0842 236.916 72.2978 237.578 72.518C237.578 72.9453 237.578 73.3727 237.578 73.813C238.145 74.0608 238.145 74.0608 238.724 74.3137C240.313 75.1839 241.354 76.1556 242.609 77.455C243.007 77.864 243.405 78.273 243.816 78.6944C244.263 79.1626 244.263 79.1626 244.718 79.6403C241.393 84.123 236.757 87.7521 231.087 88.705C222.861 89.3518 216.307 88.4541 209.706 83.0396C207.061 80.5109 205.313 77.7834 203.824 74.4604C203.592 73.9513 203.36 73.4422 203.121 72.9176C200.805 66.3299 201.737 59.2493 204.554 53.0126C207.934 46.7773 212.873 43.3875 219.403 40.7914C227.19 38.8195 234.417 40.4026 240.877 45.0101Z" fill="white"/>
<path d="M255.105 31.0791C259.389 31.0791 263.673 31.0791 268.087 31.0791C268.087 34.4978 268.087 37.9165 268.087 41.4388C272.157 41.4388 276.227 41.4388 280.42 41.4388C280.42 45.4986 280.42 49.5583 280.42 53.741C276.35 53.741 272.28 53.741 268.087 53.741C268.165 56.5641 268.244 59.3871 268.329 62.21C268.357 63.1702 268.384 64.1305 268.41 65.0908C268.447 66.4714 268.489 67.852 268.531 69.2325C268.554 70.0632 268.578 70.894 268.603 71.7499C268.649 73.8266 268.649 73.8266 269.385 75.7554C270.37 75.9946 271.358 76.2214 272.347 76.4433C272.897 76.571 273.446 76.6987 274.013 76.8303C276.326 77.1842 276.326 77.1842 280.42 76.4029C280.42 80.2489 280.42 84.095 280.42 88.0576C274.299 89.7134 267.608 90.4641 261.555 88.1334C258.493 86.3723 256.499 83.47 255.105 80.2878C254.948 78.9685 254.948 78.9685 254.957 77.5568C254.957 76.7599 254.957 76.7599 254.957 75.9469C254.964 75.3796 254.971 74.8122 254.978 74.2277C254.98 73.6422 254.981 73.0566 254.983 72.4533C254.991 70.5863 255.007 68.7195 255.023 66.8525C255.03 65.5854 255.036 64.3182 255.041 63.0511C255.055 59.9476 255.078 56.8444 255.105 53.741C252.962 53.741 250.82 53.741 248.613 53.741C248.613 50.536 248.613 47.3309 248.613 44.0288C250.541 43.1741 252.469 42.3194 254.455 41.4388C254.67 38.0201 254.884 34.6014 255.105 31.0791Z" fill="white"/>
<path d="M71.4228 16.3085C76.9682 18.5867 79.6815 27.0004 81.862 32.1237C85.0882 41.6412 83.8326 53.4562 79.4455 62.3353C77.3466 66.0954 74.9925 69.3726 72.0541 72.518C69.1266 71.6002 67.6856 70.1522 65.5629 67.9856C64.3118 66.8319 63.0541 65.6853 61.7899 64.5459C61.1565 63.9741 60.523 63.4024 59.8704 62.8133C59.1537 62.1686 59.1537 62.1686 58.4226 61.5108C58.8579 58.9847 60.1053 57.1128 61.3842 54.9146C64.4515 49.1545 64.8763 42.9705 62.9664 36.7269C62.1973 34.9792 61.348 33.3656 60.3699 31.7266C60.108 31.2517 59.8461 30.7768 59.5763 30.2875C58.9963 29.2445 58.3886 28.2169 57.7734 27.1942C58.933 26.1112 60.0963 25.0328 61.2625 23.9568C61.5922 23.648 61.9218 23.3392 62.2615 23.021C64.7667 20.7194 64.7667 20.7194 66.212 20.7194C66.212 20.2921 66.212 19.8648 66.212 19.4245C69.5827 16.1387 69.5827 16.1387 71.4228 16.3085Z" fill="white"/>
<path d="M144.754 41.4389C144.833 45.1797 144.645 48.7422 144.105 52.446C141.908 53.0304 139.947 53.0879 137.695 53.0126C133.1 52.9717 129.998 54.5079 126.579 57.6259C125.246 59.6204 125.114 60.083 125.074 62.3446C125.061 62.9019 125.048 63.4592 125.035 64.0333C125.023 64.9318 125.023 64.9318 125.012 65.8484C124.999 66.4636 124.987 67.0789 124.974 67.7127C124.935 69.6786 124.905 71.6446 124.875 73.6106C124.85 74.9431 124.825 76.2756 124.799 77.6081C124.736 80.8753 124.684 84.1425 124.632 87.4101C120.133 87.4101 115.635 87.4101 111 87.4101C111 72.2396 111 57.0691 111 41.4389C115.07 41.4389 119.14 41.4389 123.333 41.4389C123.762 42.9345 124.19 44.4302 124.632 45.9712C124.899 45.7133 125.167 45.4554 125.443 45.1897C131.274 39.8539 137.313 38.9119 144.754 41.4389Z" fill="white"/>
<path d="M54.0998 65.7801C56.1866 66.8821 57.6803 68.2288 59.3943 69.8471C61.6014 71.9188 63.8184 73.8971 66.21 75.7554C66.1365 76.891 66.1365 76.891 65.5609 78.3453C64.2239 79.3275 62.9921 80.1113 61.5445 80.8948C60.9367 81.2311 60.9367 81.2311 60.3166 81.5742C51.6526 86.2245 42.8624 88.2976 33.0642 88.1789C32.3869 88.1785 31.7095 88.1781 31.0116 88.1777C26.0558 88.1487 26.0558 88.1487 25.3153 87.4101C25.2507 86.2649 25.2304 85.1173 25.2291 83.9703C25.2283 83.2742 25.2274 82.5781 25.2266 81.8609C25.2303 80.7617 25.2303 80.7617 25.2342 79.6403C25.2317 78.9075 25.2291 78.1746 25.2266 77.4196C25.2274 76.7235 25.2282 76.0274 25.2291 75.3102C25.2298 74.6667 25.2306 74.0232 25.2313 73.3602C25.3153 71.8705 25.3153 71.8705 25.9644 71.223C26.8787 71.1525 27.7962 71.1221 28.7131 71.1092C36.528 70.9226 43.8053 70.7213 50.6311 66.4478C52.5785 65.3957 52.5785 65.3957 54.0998 65.7801Z" fill="white"/>
<path d="M88.9297 41.4388C93.4281 41.4388 97.9265 41.4388 102.561 41.4388C102.561 56.6093 102.561 71.7798 102.561 87.4101C98.0628 87.4101 93.5644 87.4101 88.9297 87.4101C88.9297 72.2396 88.9297 57.0691 88.9297 41.4388Z" fill="white"/>
<path d="M33.4699 0.445148C45.4206 0.445148 56.8937 3.04702 66.21 11.0072C65.5293 12.7048 65.1394 13.4636 63.5324 14.4065C63.1308 14.5667 62.7291 14.727 62.3153 14.8921C62.3153 15.3194 62.3153 15.7468 62.3153 16.1871C61.2165 17.1999 60.0721 18.164 58.9074 19.1007C57.9585 19.8719 57.9585 19.8719 56.9905 20.6587C53.9504 22.9288 53.9504 22.9288 52.5785 23.3094C50.9176 22.6543 50.9176 22.6543 49.0489 21.5693C42.2856 17.9963 35.5196 17.2704 28.0031 16.9711C25.9644 16.8345 25.9644 16.8345 25.3153 16.1871C25.2508 15.0892 25.2304 13.9887 25.2291 12.8889C25.2278 11.8886 25.2278 11.8886 25.2266 10.8681C25.2291 10.1662 25.2316 9.46422 25.2342 8.74101C25.2317 8.03908 25.2291 7.33714 25.2266 6.61393C25.2274 5.94705 25.2282 5.28017 25.2291 4.59308C25.2298 3.97669 25.2306 3.36031 25.2313 2.72525C25.442 -0.862747 30.7298 0.460857 33.4699 0.445148Z" fill="white"/>
<path d="M98.6656 21.3669C100.691 22.5277 101.619 23.4664 102.804 25.4541C103.582 28.7913 102.997 31.0143 101.222 33.9119C99.1703 35.7403 98.1408 36.269 95.4605 36.4107C92.9657 36.128 91.5812 35.1878 89.5779 33.6691C88.1656 31.3417 87.95 29.2319 88.2796 26.5468C90.9081 21.8455 93.4548 20.627 98.6656 21.3669Z" fill="white"/>
<path d="M294.701 44.0288C295.13 44.2424 295.558 44.4561 296 44.6763C293.643 47.0266 291.287 49.377 288.859 51.7986C288.859 49.5192 289.316 48.9247 290.807 47.2662C291.235 47.2662 291.664 47.2662 292.105 47.2662C292.105 46.8388 292.105 46.4115 292.105 45.9712C293.403 44.9191 293.403 44.9191 294.701 44.0288Z" fill="white"/>
</g>
<defs>
<clipPath id="clip0_386_546">
<rect width="333" height="90" fill="white"/>
</clipPath>
</defs>
</svg>
