<svg width="1010" height="206" viewBox="0 0 1010 206" fill="currentColor" xmlns="http://www.w3.org/2000/svg">
<g clip-path="url(#clip0_1_86)">
<path d="M169.76 65.1001C164.79 63.5601 160.08 61.1201 155.38 58.8201C147 54.7301 138.64 50.7901 128.98 50.9401C121.3 51.0601 114.55 53.6901 109.36 59.1501C102.27 66.6101 95.77 74.6201 88.9 82.2901C87.13 84.2701 85.13 86.1901 82.89 87.5701C78.45 90.3101 74.26 87.7701 74.05 82.5901C73.84 77.4901 76.77 73.7401 79.28 69.7901C83.53 63.0901 88.13 56.5901 91.97 49.6701C99.7 35.6901 88.85 22.9401 77.83 20.1301C69.83 18.1001 62.04 19.7401 54.32 21.8301C46.98 23.8101 39.69 25.9301 32.33 27.7901C32.03 27.8701 31.71 27.8801 31.39 27.8601C29.48 27.7201 28.11 25.8201 28.7 24.0001C28.8 23.7001 28.93 23.4501 29.13 23.2701C33.29 19.4501 37.39 15.4001 42.12 12.3801C50.14 7.26013 58.81 3.90013 67.94 1.96013C73.14 0.850127 78.44 0.280127 83.76 0.120127L86.24 0.0401271C92.06 -0.139873 97.89 0.200127 103.64 1.11013C106.6 1.58013 109.55 2.11013 112.44 2.88013C136.87 9.43013 156.52 22.8001 169.93 44.5501C172.6 48.8801 174.91 53.5801 176.5 58.4101C178.34 63.9701 175.44 66.8601 169.78 65.1001H169.76Z" fill="currentColor"/>
<path d="M28.7101 36.3399C29.8901 41.3999 30.1501 46.7099 30.5301 51.9299C31.2201 61.2299 32.0301 70.4399 37.0301 78.6999C41.0001 85.2699 46.6801 89.7799 54.0101 91.4999C64.0201 93.8599 74.22 95.4399 84.3101 97.4999C86.91 98.0399 89.5801 98.7899 91.9001 100.03C96.5001 102.49 96.4201 107.38 92.0601 110.18C87.76 112.94 83.0501 112.29 78.3701 112.12C70.4401 111.82 62.5101 111.12 54.6001 111.31C38.6301 111.68 33.0801 127.48 36.2201 138.41C38.5001 146.35 43.8501 152.24 49.5401 157.86C54.9501 163.2 60.4601 168.43 65.7801 173.85C66.0001 174.07 66.1701 174.34 66.3101 174.63C67.15 176.36 66.2101 178.49 64.3301 178.9C64.0201 178.97 63.7401 178.98 63.4801 178.9C58.0801 177.23 52.5201 175.73 47.5301 173.17C39.0601 168.83 31.8001 163.03 25.5201 156.13C21.9401 152.2 18.7801 147.9 15.9501 143.4L14.6401 141.3C11.5501 136.36 8.90006 131.16 6.79006 125.73C5.70006 122.93 4.67006 120.12 3.89006 117.24C-2.76994 92.8399 -1.12994 69.1299 10.9001 46.5899C13.2901 42.0999 16.1901 37.7399 19.5501 33.9299C23.4201 29.5399 27.3801 30.5899 28.7101 36.3599V36.3399Z" fill="currentColor"/>
<path d="M73.4 172.89C77.25 169.39 81.75 166.57 86.11 163.69C93.89 158.55 101.53 153.34 106.3 144.95C110.1 138.28 111.25 131.12 109.18 123.88C106.35 113.99 102.75 104.32 99.63 94.5002C98.83 91.9702 98.18 89.2702 98.13 86.6402C98.03 81.4202 102.34 79.1102 106.91 81.5502C111.41 83.9602 113.15 88.3902 115.29 92.5502C118.9 99.6102 122.16 106.88 126.19 113.7C134.31 127.46 150.8 124.59 158.82 116.51C164.63 110.65 167.17 103.1 169.29 95.3902C171.31 88.0602 173.19 80.7002 175.32 73.4102C175.41 73.1102 175.56 72.8302 175.74 72.5602C176.83 70.9802 179.16 70.7602 180.43 72.2002C180.64 72.4302 180.78 72.6802 180.84 72.9502C182.01 78.4802 183.42 84.0602 183.62 89.6702C183.96 99.1802 182.45 108.35 179.49 117.2C177.8 122.24 175.6 127.1 173.05 131.76L171.86 133.93C169.06 139.04 165.81 143.89 162.1 148.38C160.19 150.7 158.24 152.97 156.11 155.06C138.07 172.78 116.57 182.93 91.03 183.43C85.94 183.53 80.72 183.13 75.76 182.06C70.04 180.82 69.02 176.86 73.4 172.88V172.89Z" fill="currentColor"/>
<path d="M298.17 49.0302V76.7702H272.89V123.3C272.89 127.18 273.86 130.01 275.8 131.8C277.74 133.59 280.57 134.59 284.3 134.82C288.03 135.04 292.65 135.01 298.17 134.71V160.88C278.63 163.12 264.73 161.29 256.45 155.4C248.17 149.51 244.03 138.81 244.03 123.3V76.7702H219.67L272.89 21.6602V49.0302H298.17Z" fill="currentColor"/>
<path d="M419.42 116.81H335.09C338.82 130.83 349.33 137.84 366.63 137.84C377.66 137.84 386.02 134.11 391.68 126.65L414.94 140.07C403.9 156.03 387.65 164.01 366.17 164.01C347.68 164.01 332.84 158.42 321.66 147.23C310.47 136.05 304.88 121.95 304.88 104.95C304.88 87.9501 310.4 74.2301 321.43 62.8901C332.31 51.5601 346.48 45.8901 363.93 45.8901C380.48 45.8901 393.98 51.5601 404.42 62.8901C415.16 74.2201 420.53 88.2401 420.53 104.95C420.53 108.08 420.16 112.03 419.41 116.81H419.42ZM334.64 94.4401H391.68C390.04 87.1401 386.72 81.5401 381.72 77.6601C376.72 73.7801 370.79 71.8401 363.94 71.8401C356.18 71.8401 349.77 73.8201 344.7 77.7701C339.63 81.7201 336.27 87.2801 334.63 94.4301L334.64 94.4401Z" fill="currentColor"/>
<path d="M520.3 62.2299V49.0299H549.16V160.88H520.3V147.68C511.65 158.57 499.5 164.01 483.84 164.01C468.18 164.01 456.1 158.34 445.37 147.01C434.78 135.53 429.49 121.51 429.49 104.95C429.49 88.3899 434.78 74.5999 445.37 63.1199C456.11 51.6399 468.93 45.8999 483.84 45.8999C499.5 45.8999 511.65 51.3399 520.3 62.2299ZM467.06 127.77C472.88 133.59 480.26 136.49 489.21 136.49C498.16 136.49 505.54 133.58 511.36 127.77C517.32 121.81 520.31 114.2 520.31 104.95C520.31 95.6999 517.33 88.1699 511.36 82.3599C505.54 76.3999 498.16 73.4099 489.21 73.4099C480.26 73.4099 472.88 76.3999 467.06 82.3599C461.24 88.1799 458.34 95.7099 458.34 104.95C458.34 114.19 461.25 121.8 467.06 127.77Z" fill="currentColor"/>
<path d="M690.55 45.8999C703.37 45.8999 713.63 50.0799 721.31 58.4299C728.99 66.7799 732.83 77.9699 732.83 91.9799V160.88H703.97V93.9999C703.97 87.2899 702.33 82.0699 699.05 78.3399C695.77 74.6099 691.14 72.7499 685.18 72.7499C678.62 72.7499 673.51 74.9099 669.85 79.2399C666.2 83.5699 664.37 89.8299 664.37 98.0299V160.89H635.51V94.0099C635.51 87.2999 633.87 82.0799 630.59 78.3499C627.31 74.6199 622.69 72.7599 616.72 72.7599C610.31 72.7599 605.2 74.9599 601.4 79.3599C597.6 83.7599 595.7 89.9899 595.7 98.0399V160.9H566.84V49.0299H595.7V60.8899C602.41 50.8999 612.77 45.8999 626.79 45.8999C640.81 45.8999 650.8 51.2699 657.21 62.0099C664.51 51.2699 675.63 45.8999 690.54 45.8999H690.55Z" fill="currentColor"/>
<path d="M828.28 107.64V49.0303H843.04V160.88H828.28V143.43C819.93 156.85 807.4 163.56 790.7 163.56C777.28 163.56 766.61 159.42 758.71 151.15C750.81 142.87 746.86 131.73 746.86 117.71V49.0303H761.62V117.71C761.62 127.7 764.26 135.46 769.56 140.97C774.85 146.49 782.35 149.25 792.04 149.25C803.22 149.25 812.06 145.75 818.55 138.74C825.04 131.73 828.28 121.37 828.28 107.65V107.64Z" fill="currentColor"/>
<path d="M918.08 46.3503C934.03 46.3503 947.61 52.0203 958.79 63.3503C970.12 74.6903 975.79 88.5503 975.79 104.96C975.79 121.37 970.12 135.24 958.79 146.57C947.61 157.91 934.03 163.57 918.08 163.57C898.24 163.57 883.18 155.37 872.89 138.96V205.62H858.13V49.0303H872.89V70.9503C883.18 54.5503 898.24 46.3403 918.08 46.3403V46.3503ZM885.65 136.5C894.15 145 904.59 149.25 916.97 149.25C929.35 149.25 939.79 145 948.29 136.5C956.79 127.7 961.04 117.19 961.04 104.96C961.04 92.7303 956.79 82.1403 948.29 73.6403C939.79 64.9903 929.35 60.6603 916.97 60.6603C904.59 60.6603 894.15 64.9903 885.65 73.6403C877.15 82.1403 872.9 92.5803 872.9 104.96C872.9 117.34 877.15 127.7 885.65 136.5Z" fill="currentColor"/>
<path d="M1009.35 150.81C1009.35 154.24 1008.15 157.15 1005.77 159.53C1003.38 161.91 1000.47 163.11 997.04 163.11C993.61 163.11 990.7 161.91 988.31 159.53C985.92 157.15 984.73 154.24 984.73 150.81C984.73 147.38 985.92 144.47 988.31 142.09C990.7 139.71 993.6 138.51 997.04 138.51C1000.48 138.51 1003.38 139.71 1005.77 142.09C1008.15 144.48 1009.35 147.38 1009.35 150.81ZM1002.64 118.38H991.45L988.1 49.03V4.29004H1005.99V49.03L1002.64 118.38Z" fill="currentColor"/>
</g>
<defs>
<clipPath id="clip0_1_86">
<rect width="1009.35" height="205.62" fill="white"/>
</clipPath>
</defs>
</svg>
