<?xml version="1.0" encoding="UTF-8"?>
<svg id="Layer_2" data-name="Layer 2" xmlns="http://www.w3.org/2000/svg" viewBox="0 0 407.71 407.24">
  <defs>
    <style>
      .cls-1 {
        fill: #635cf5;
      }

      .cls-2 {
        fill: #3f89f6;
      }

      .cls-3 {
        fill: #67dafa;
      }
    </style>
  </defs>
  <g id="Page_1" data-name="Page 1">
    <g>
      <path class="cls-3" d="M376.82,144.51c-11.02-3.41-21.49-8.84-31.92-13.95-18.6-9.09-37.17-17.83-58.6-17.49-17.05.26-32.03,6.11-43.55,18.23-15.74,16.55-30.17,34.34-45.42,51.37-3.94,4.39-8.36,8.66-13.34,11.72-9.86,6.08-19.15.44-19.63-11.05-.47-11.33,6.04-19.64,11.61-28.42,9.44-14.86,19.65-29.29,28.16-44.67,17.17-31.03-6.92-59.34-31.39-65.56-17.76-4.51-35.05-.86-52.19,3.77-16.28,4.4-32.48,9.1-48.82,13.24-.67.17-1.37.2-2.09.15-4.25-.32-7.29-4.52-5.97-8.57.22-.66.52-1.22.96-1.63,9.24-8.47,18.34-17.46,28.84-24.16,17.8-11.37,37.05-18.82,57.31-23.13,11.55-2.46,23.32-3.72,35.12-4.09l5.49-.17c12.92-.4,25.86.35,38.63,2.37,6.58,1.04,13.12,2.22,19.53,3.93,54.23,14.54,97.85,44.21,127.6,92.49,5.93,9.61,11.05,20.05,14.58,30.76,4.09,12.33-2.35,18.75-14.91,14.85Z"/>
      <path class="cls-1" d="M63.73,80.66c2.61,11.24,3.2,23.02,4.05,34.6,1.53,20.65,3.34,41.09,14.43,59.43,8.82,14.59,21.43,24.58,37.7,28.42,22.23,5.25,44.87,8.75,67.26,13.33,5.78,1.19,11.7,2.85,16.85,5.61,10.22,5.45,10.03,16.32.36,22.52-9.55,6.12-20.01,4.68-30.39,4.3-17.59-.66-35.2-2.21-52.77-1.8-35.45.81-47.76,35.89-40.8,60.16,5.06,17.61,16.93,30.71,29.57,43.17,12.01,11.85,24.23,23.46,36.05,35.49.48.49.86,1.08,1.18,1.73,1.87,3.83-.23,8.57-4.39,9.47-.68.15-1.32.17-1.89-.01-11.98-3.71-24.33-7.04-35.41-12.73-18.79-9.64-34.93-22.51-48.86-37.83-7.94-8.73-14.97-18.26-21.23-28.27l-2.92-4.66c-6.86-10.96-12.73-22.51-17.43-34.56-2.42-6.21-4.7-12.45-6.45-18.85-14.78-54.16-11.15-106.8,15.56-156.83,5.31-9.97,11.74-19.65,19.21-28.1,8.59-9.75,17.38-7.42,20.34,5.39Z"/>
      <path class="cls-2" d="M162.94,383.78c8.54-7.77,18.53-14.03,28.22-20.42,17.27-11.41,34.23-22.97,44.82-41.61,8.43-14.82,11-30.7,6.4-46.78-6.27-21.96-14.27-43.43-21.2-65.21-1.78-5.62-3.22-11.6-3.32-17.44-.23-11.58,9.35-16.72,19.48-11.31,10,5.35,13.86,15.18,18.59,24.43,8.02,15.67,15.26,31.8,24.19,46.94,18.01,30.54,54.64,24.17,72.43,6.24,12.9-13.01,18.54-29.76,23.25-46.88,4.48-16.26,8.65-32.6,13.38-48.78.19-.66.52-1.28.94-1.88,2.43-3.5,7.59-3.99,10.41-.79.46.52.79,1.07.91,1.66,2.61,12.27,5.73,24.67,6.18,37.12.76,21.11-2.59,41.47-9.16,61.12-3.74,11.2-8.63,21.98-14.31,32.33l-2.64,4.82c-6.21,11.34-13.43,22.1-21.66,32.08-4.24,5.14-8.57,10.18-13.3,14.83-40.05,39.34-87.77,61.86-144.47,62.98-11.29.23-22.88-.66-33.9-3.05-12.7-2.74-14.96-11.54-5.23-20.38Z"/>
    </g>
  </g>
</svg>