<?xml version="1.0" encoding="UTF-8"?>
<svg id="Layer_2" data-name="Layer 2" xmlns="http://www.w3.org/2000/svg" viewBox="0 0 1009.35 205.62">
  <defs>
    <style>
      .cls-1 {
        fill: #635cf5;
      }

      .cls-2 {
        fill: #3f89f6;
      }

      .cls-3 {
        fill: #fff;
      }

      .cls-4 {
        fill: #67dafa;
      }
    </style>
  </defs>
  <g id="Page_1" data-name="Page 1">
    <g>
      <g>
        <path class="cls-4" d="M169.76,65.1c-4.97-1.54-9.68-3.98-14.38-6.28-8.38-4.09-16.74-8.03-26.4-7.88-7.68.12-14.43,2.75-19.62,8.21-7.09,7.46-13.59,15.47-20.46,23.14-1.77,1.98-3.77,3.9-6.01,5.28-4.44,2.74-8.63.2-8.84-4.98-.21-5.1,2.72-8.85,5.23-12.8,4.25-6.7,8.85-13.2,12.69-20.12,7.73-13.98-3.12-26.73-14.14-29.54-8-2.03-15.79-.39-23.51,1.7-7.34,1.98-14.63,4.1-21.99,5.96-.3.08-.62.09-.94.07-1.91-.14-3.28-2.04-2.69-3.86.1-.3.23-.55.43-.73,4.16-3.82,8.26-7.87,12.99-10.89,8.02-5.12,16.69-8.48,25.82-10.42,5.2-1.11,10.5-1.68,15.82-1.84l2.48-.08c5.82-.18,11.65.16,17.4,1.07,2.96.47,5.91,1,8.8,1.77,24.43,6.55,44.08,19.92,57.49,41.67,2.67,4.33,4.98,9.03,6.57,13.86,1.84,5.56-1.06,8.45-6.72,6.69Z"/>
        <path class="cls-1" d="M28.71,36.34c1.18,5.06,1.44,10.37,1.82,15.59.69,9.3,1.5,18.51,6.5,26.77,3.97,6.57,9.65,11.08,16.98,12.8,10.01,2.36,20.21,3.94,30.3,6,2.6.54,5.27,1.29,7.59,2.53,4.6,2.46,4.52,7.35.16,10.15-4.3,2.76-9.01,2.11-13.69,1.94-7.93-.3-15.86-1-23.77-.81-15.97.37-21.52,16.17-18.38,27.1,2.28,7.94,7.63,13.83,13.32,19.45,5.41,5.34,10.92,10.57,16.24,15.99.22.22.39.49.53.78.84,1.73-.1,3.86-1.98,4.27-.31.07-.59.08-.85,0-5.4-1.67-10.96-3.17-15.95-5.73-8.47-4.34-15.73-10.14-22.01-17.04-3.58-3.93-6.74-8.23-9.57-12.73l-1.31-2.1c-3.09-4.94-5.74-10.14-7.85-15.57-1.09-2.8-2.12-5.61-2.9-8.49-6.66-24.4-5.02-48.11,7.01-70.65,2.39-4.49,5.29-8.85,8.65-12.66,3.87-4.39,7.83-3.34,9.16,2.43Z"/>
        <path class="cls-2" d="M73.4,172.89c3.85-3.5,8.35-6.32,12.71-9.2,7.78-5.14,15.42-10.35,20.19-18.74,3.8-6.67,4.95-13.83,2.88-21.07-2.83-9.89-6.43-19.56-9.55-29.38-.8-2.53-1.45-5.23-1.5-7.86-.1-5.22,4.21-7.53,8.78-5.09,4.5,2.41,6.24,6.84,8.38,11,3.61,7.06,6.87,14.33,10.9,21.15,8.12,13.76,24.61,10.89,32.63,2.81,5.81-5.86,8.35-13.41,10.47-21.12,2.02-7.33,3.9-14.69,6.03-21.98.09-.3.24-.58.42-.85,1.09-1.58,3.42-1.8,4.69-.36.21.23.35.48.41.75,1.17,5.53,2.58,11.11,2.78,16.72.34,9.51-1.17,18.68-4.13,27.53-1.69,5.04-3.89,9.9-6.44,14.56l-1.19,2.17c-2.8,5.11-6.05,9.96-9.76,14.45-1.91,2.32-3.86,4.59-5.99,6.68-18.04,17.72-39.54,27.87-65.08,28.37-5.09.1-10.31-.3-15.27-1.37-5.72-1.24-6.74-5.2-2.36-9.18Z"/>
      </g>
      <path class="cls-3" d="M298.17,49.03v27.74h-25.28v46.53c0,3.88.97,6.71,2.91,8.5,1.94,1.79,4.77,2.79,8.5,3.02,3.73.22,8.35.19,13.87-.11v26.17c-19.54,2.24-33.44.41-41.72-5.48-8.28-5.89-12.42-16.59-12.42-32.1v-46.53h-24.36l53.22-55.11v27.37h25.28Z"/>
      <path class="cls-3" d="M419.42,116.81h-84.33c3.73,14.02,14.24,21.03,31.54,21.03,11.03,0,19.39-3.73,25.05-11.19l23.26,13.42c-11.04,15.96-27.29,23.94-48.77,23.94-18.49,0-33.33-5.59-44.51-16.78-11.19-11.18-16.78-25.28-16.78-42.28s5.52-30.72,16.55-42.06c10.88-11.33,25.05-17,42.5-17,16.55,0,30.05,5.67,40.49,17,10.74,11.33,16.11,25.35,16.11,42.06,0,3.13-.37,7.08-1.12,11.86ZM334.64,94.44h57.04c-1.64-7.3-4.96-12.9-9.96-16.78-5-3.88-10.93-5.82-17.78-5.82-7.76,0-14.17,1.98-19.24,5.93-5.07,3.95-8.43,9.51-10.07,16.66Z"/>
      <path class="cls-3" d="M520.3,62.23v-13.2h28.86v111.85h-28.86v-13.2c-8.65,10.89-20.8,16.33-36.46,16.33s-27.74-5.67-38.47-17c-10.59-11.48-15.88-25.5-15.88-42.06s5.29-30.35,15.88-41.83c10.74-11.48,23.56-17.22,38.47-17.22,15.66,0,27.81,5.44,36.46,16.33ZM467.06,127.77c5.82,5.82,13.2,8.72,22.15,8.72s16.33-2.91,22.15-8.72c5.96-5.96,8.95-13.57,8.95-22.82s-2.98-16.78-8.95-22.59c-5.82-5.96-13.2-8.95-22.15-8.95s-16.33,2.99-22.15,8.95c-5.82,5.82-8.72,13.35-8.72,22.59s2.91,16.85,8.72,22.82Z"/>
      <path class="cls-3" d="M690.55,45.9c12.82,0,23.08,4.18,30.76,12.53,7.68,8.35,11.52,19.54,11.52,33.55v68.9h-28.86v-66.88c0-6.71-1.64-11.93-4.92-15.66-3.28-3.73-7.91-5.59-13.87-5.59-6.56,0-11.67,2.16-15.33,6.49-3.65,4.33-5.48,10.59-5.48,18.79v62.86h-28.86v-66.88c0-6.71-1.64-11.93-4.92-15.66-3.28-3.73-7.9-5.59-13.87-5.59-6.41,0-11.52,2.2-15.32,6.6-3.8,4.4-5.7,10.63-5.7,18.68v62.86h-28.86V49.03h28.86v11.86c6.71-9.99,17.07-14.99,31.09-14.99s24.01,5.37,30.42,16.11c7.3-10.74,18.42-16.11,33.33-16.11Z"/>
      <path class="cls-3" d="M828.28,107.64v-58.61h14.76v111.85h-14.76v-17.45c-8.35,13.42-20.88,20.13-37.58,20.13-13.42,0-24.09-4.14-31.99-12.41-7.9-8.28-11.85-19.42-11.85-33.44V49.03h14.76v68.68c0,9.99,2.64,17.75,7.94,23.26,5.29,5.52,12.79,8.28,22.48,8.28,11.18,0,20.02-3.5,26.51-10.51,6.49-7.01,9.73-17.37,9.73-31.09Z"/>
      <path class="cls-3" d="M918.08,46.35c15.95,0,29.53,5.67,40.71,17,11.33,11.34,17,25.2,17,41.61s-5.67,30.28-17,41.61c-11.18,11.34-24.76,17-40.71,17-19.84,0-34.9-8.2-45.19-24.61v66.66h-14.76V49.03h14.76v21.92c10.29-16.4,25.35-24.61,45.19-24.61ZM885.65,136.5c8.5,8.5,18.94,12.75,31.32,12.75s22.82-4.25,31.32-12.75c8.5-8.8,12.75-19.31,12.75-31.54s-4.25-22.82-12.75-31.32c-8.5-8.65-18.94-12.98-31.32-12.98s-22.82,4.33-31.32,12.98c-8.5,8.5-12.75,18.94-12.75,31.32s4.25,22.74,12.75,31.54Z"/>
      <path class="cls-3" d="M1009.35,150.81c0,3.43-1.2,6.34-3.58,8.72-2.39,2.38-5.3,3.58-8.73,3.58s-6.34-1.2-8.73-3.58c-2.39-2.38-3.58-5.29-3.58-8.72s1.19-6.34,3.58-8.72c2.39-2.38,5.29-3.58,8.73-3.58s6.34,1.2,8.73,3.58c2.38,2.39,3.58,5.29,3.58,8.72ZM1002.64,118.38h-11.19l-3.35-69.35V4.29h17.89v44.74l-3.35,69.35Z"/>
    </g>
  </g>
</svg>