<svg viewBox="0 0 1806 493" fill="none" xmlns="http://www.w3.org/2000/svg">
<path fill-rule="evenodd" clip-rule="evenodd" d="M221.949 94.1376C230.402 99.7855 240.34 102.8 250.506 102.8C257.256 102.8 263.939 101.471 270.176 98.8874C276.412 96.3043 282.078 92.5182 286.851 87.7453C291.624 82.9724 295.41 77.3061 297.993 71.07C300.576 64.8338 301.906 58.15 301.906 51.4C301.906 41.2341 298.891 31.2964 293.243 22.8437C287.595 14.391 279.568 7.80296 270.176 3.91262C260.783 0.0222707 250.449 -0.995621 240.478 0.98766C230.507 2.97094 221.349 7.86631 214.16 15.0547C206.972 22.2432 202.077 31.4018 200.093 41.3724C198.11 51.343 199.128 61.6778 203.018 71.07C206.909 80.4621 213.497 88.4897 221.949 94.1376ZM334.05 62.699C334.803 62.9049 335.481 63.3216 336.006 63.9C347.506 75.8 354.206 90.3 354.206 105.8C354.206 146.7 308.206 179.8 251.406 179.8C244.345 179.816 237.293 179.315 230.306 178.3C228.632 178.026 226.917 178.16 225.307 178.693C223.697 179.226 222.24 180.141 221.061 181.36C219.881 182.578 219.015 184.065 218.535 185.691C218.055 187.318 217.976 189.036 218.306 190.7C219.206 195 220.306 199.4 221.506 203.7C223.692 210.934 226.433 217.988 229.706 224.8C235.406 236.6 223.706 249.5 211.406 244.9C184.406 234.7 159.806 206.7 148.706 169.3C136.506 128.4 144.006 88 165.106 65.5H165.206C165.736 64.9316 166.414 64.5217 167.164 64.3158C167.913 64.1098 168.706 64.1161 169.452 64.3338C170.198 64.5515 170.87 64.9721 171.391 65.5488C171.913 66.1254 172.264 66.8356 172.406 67.6C176.194 85.6577 186.122 101.845 200.501 113.407C214.88 124.968 232.821 131.19 251.271 131.013C269.72 130.836 287.539 124.272 301.694 112.437C315.848 100.601 325.465 84.227 328.906 66.1C329.011 65.3265 329.335 64.5991 329.84 64.0034C330.345 63.4077 331.009 62.9686 331.755 62.7375C332.5 62.5064 333.297 62.4931 334.05 62.699ZM268.334 266.273C271.074 270.4 272.525 275.247 272.506 280.2C272.506 286.804 269.882 293.137 265.213 297.807C260.543 302.477 254.21 305.1 247.606 305.1C242.653 305.12 237.805 303.668 233.679 300.928C229.552 298.189 226.333 294.286 224.428 289.713C222.523 285.141 222.02 280.106 222.981 275.247C223.943 270.389 226.326 265.925 229.828 262.423C233.331 258.92 237.794 256.537 242.653 255.576C247.512 254.614 252.547 255.118 257.119 257.022C261.691 258.927 265.595 262.147 268.334 266.273ZM422.963 346.792C414.1 351.823 406.929 359.369 402.36 368.477C396.242 380.67 395.214 394.793 399.502 407.746C403.79 420.7 413.042 431.426 425.23 437.571C434.333 442.161 444.593 443.948 454.711 442.707C464.829 441.466 474.35 437.252 482.069 430.599C489.788 423.945 495.358 415.151 498.074 405.33C500.79 395.508 500.53 385.101 497.327 375.424C494.125 365.748 488.123 357.238 480.081 350.971C472.04 344.703 462.32 340.961 452.153 340.217C441.985 339.474 431.827 341.762 422.963 346.792ZM333.073 334.552C307.502 385.27 316.454 441.299 352.905 459.677C366.931 466.749 382.812 467.253 398.755 462.3C399.482 462.061 400.13 461.628 400.629 461.047C401.127 460.467 401.458 459.761 401.585 459.007C401.711 458.252 401.629 457.477 401.348 456.766C401.066 456.054 400.595 455.433 399.986 454.969C385.341 443.731 375.041 427.769 370.84 409.799C366.639 391.829 368.796 372.962 376.944 356.408C385.092 339.854 398.727 326.636 415.53 319.005C432.333 311.373 451.264 309.799 469.102 314.551C469.848 314.752 470.635 314.744 471.377 314.528C472.118 314.311 472.786 313.894 473.305 313.322C473.825 312.751 474.177 312.047 474.323 311.289C474.468 310.53 474.402 309.746 474.13 309.023C463.528 280.047 430.722 255.108 388.689 247.578C350.368 240.688 314.278 250.042 293.01 269.557C283.363 278.468 289.531 294.68 302.639 294.906C310.186 295.073 317.708 295.832 325.137 297.177C329.653 297.999 333.99 298.953 338.326 300.132C339.96 300.587 341.46 301.431 342.698 302.592C343.935 303.753 344.873 305.197 345.43 306.799C345.988 308.401 346.15 310.114 345.901 311.791C345.652 313.469 345 315.061 344.002 316.432C339.92 322.197 336.268 328.253 333.073 334.552ZM103.034 404.231C103.169 394.041 100.278 384.04 94.7255 375.496C87.2926 364.058 75.6227 356.037 62.2771 353.195C48.9315 350.352 35.0006 352.92 23.5417 360.335C14.982 365.873 8.25689 373.826 4.21751 383.185C0.178109 392.544 -0.99401 402.89 0.849542 412.912C2.6931 422.935 7.46946 432.184 14.5741 439.489C21.6787 446.794 30.7922 451.827 40.7613 453.95C50.7303 456.073 61.1068 455.192 70.5774 451.417C80.0481 447.642 88.1872 441.144 93.9647 432.744C99.7422 424.345 102.898 414.422 103.034 404.231ZM159.002 332.833C128.145 285.146 75.267 264.572 40.9944 286.748C27.8062 295.282 19.3498 308.734 15.5713 324.995C15.4105 325.744 15.4571 326.521 15.7061 327.245C15.9552 327.968 16.3972 328.61 16.9844 329.1C17.5716 329.591 18.2818 329.911 19.0382 330.028C19.7946 330.144 20.5685 330.052 21.2764 329.76C38.3727 322.797 57.3515 321.97 74.9827 327.421C92.614 332.872 107.808 344.263 117.98 359.657C128.151 375.051 132.671 393.495 130.771 411.851C128.87 430.208 120.666 447.342 107.555 460.337C107.005 460.879 106.614 461.562 106.426 462.312C106.239 463.061 106.262 463.848 106.492 464.585C106.723 465.322 107.153 465.981 107.734 466.49C108.315 466.999 109.025 467.338 109.787 467.469C140.15 472.954 178.244 457.237 205.973 424.764C231.276 395.17 241.432 359.298 235.333 331.086C232.515 318.259 215.406 315.393 208.591 326.592C204.635 333.021 200.18 339.13 195.267 344.862C192.277 348.345 189.263 351.605 186.055 354.752C184.837 355.933 183.35 356.801 181.723 357.283C180.096 357.764 178.377 357.844 176.713 357.517C175.048 357.189 173.488 356.463 172.166 355.401C170.844 354.339 169.799 352.972 169.12 351.418C166.207 344.984 162.825 338.772 159.002 332.833Z" fill="#93C5FD"/>
<mask id="path-2-outside-1_59_456" maskUnits="userSpaceOnUse" x="664.937" y="134.771" width="1120" height="270" fill="black">
<rect fill="white" x="664.937" y="134.771" width="1120" height="270"/>
<path d="M666.521 145.827L703.305 139.747V187.779H759.849V218.483H703.305V283.235C703.305 296.003 705.331 305.123 709.385 310.595C713.438 316.067 720.329 318.803 730.057 318.803C736.745 318.803 742.622 318.094 747.689 316.675C752.958 315.257 757.113 313.939 760.153 312.723L766.233 341.907C761.977 343.731 756.403 345.555 749.513 347.379C742.622 349.406 734.515 350.419 725.193 350.419C713.843 350.419 704.318 348.899 696.617 345.859C689.118 342.819 683.139 338.462 678.681 332.787C674.222 326.91 671.081 319.918 669.257 311.811C667.433 303.502 666.521 294.078 666.521 283.539V145.827ZM771.759 268.035C771.759 254.051 773.786 241.79 777.839 231.251C782.095 220.713 787.668 211.998 794.559 205.107C801.45 198.014 809.354 192.745 818.271 189.299C827.188 185.651 836.308 183.827 845.631 183.827C867.519 183.827 884.543 190.617 896.703 204.195C909.066 217.774 915.247 238.041 915.247 264.995C915.247 267.022 915.146 269.353 914.943 271.987C914.943 274.419 914.842 276.649 914.639 278.675H809.759C810.772 291.443 815.231 301.374 823.135 308.467C831.242 315.358 842.895 318.803 858.095 318.803C867.012 318.803 875.119 317.993 882.415 316.371C889.914 314.75 895.791 313.027 900.047 311.203L904.911 341.299C902.884 342.313 900.047 343.427 896.399 344.643C892.954 345.657 888.9 346.569 884.239 347.379C879.78 348.393 874.916 349.203 869.647 349.811C864.378 350.419 859.007 350.723 853.535 350.723C839.551 350.723 827.391 348.697 817.055 344.643C806.719 340.387 798.207 334.611 791.519 327.315C784.831 319.817 779.866 311.102 776.623 301.171C773.38 291.038 771.759 279.993 771.759 268.035ZM878.463 251.619C878.463 246.553 877.754 241.79 876.335 237.331C874.916 232.67 872.788 228.718 869.951 225.475C867.316 222.03 863.972 219.395 859.919 217.571C856.068 215.545 851.407 214.531 845.935 214.531C840.26 214.531 835.295 215.646 831.039 217.875C826.783 219.902 823.135 222.638 820.095 226.083C817.258 229.529 815.028 233.481 813.407 237.939C811.786 242.398 810.671 246.958 810.063 251.619H878.463ZM998.023 320.931C1009.37 320.931 1017.99 320.323 1023.86 319.107V278.371C1021.84 277.763 1018.9 277.155 1015.05 276.547C1011.2 275.939 1006.94 275.635 1002.28 275.635C998.226 275.635 994.071 275.939 989.815 276.547C985.762 277.155 982.012 278.27 978.567 279.891C975.324 281.513 972.69 283.843 970.663 286.883C968.636 289.721 967.623 293.369 967.623 297.827C967.623 306.542 970.359 312.622 975.831 316.067C981.303 319.31 988.7 320.931 998.023 320.931ZM994.983 183.827C1007.14 183.827 1017.38 185.347 1025.69 188.387C1034 191.427 1040.58 195.683 1045.45 201.155C1050.51 206.627 1054.06 213.315 1056.09 221.219C1058.32 228.921 1059.43 237.433 1059.43 246.755V343.123C1053.76 344.339 1045.14 345.758 1033.59 347.379C1022.24 349.203 1009.37 350.115 994.983 350.115C985.458 350.115 976.743 349.203 968.839 347.379C960.935 345.555 954.146 342.617 948.471 338.563C942.999 334.51 938.642 329.241 935.399 322.755C932.359 316.27 930.839 308.265 930.839 298.739C930.839 289.619 932.562 281.918 936.007 275.635C939.655 269.353 944.519 264.286 950.599 260.435C956.679 256.382 963.671 253.545 971.575 251.923C979.682 250.099 988.092 249.187 996.807 249.187C1000.86 249.187 1005.12 249.491 1009.58 250.099C1014.03 250.505 1018.8 251.315 1023.86 252.531V246.451C1023.86 242.195 1023.36 238.142 1022.34 234.291C1021.33 230.441 1019.51 227.097 1016.87 224.259C1014.44 221.219 1011.1 218.889 1006.84 217.267C1002.79 215.646 997.618 214.835 991.335 214.835C982.823 214.835 975.02 215.443 967.927 216.659C960.834 217.875 955.058 219.294 950.599 220.915L946.039 191.123C950.7 189.502 957.49 187.881 966.407 186.259C975.324 184.638 984.85 183.827 994.983 183.827ZM1182.91 263.171C1182.91 246.553 1180.78 234.595 1176.53 227.299C1172.47 219.801 1164.77 216.051 1153.42 216.051C1149.37 216.051 1144.91 216.355 1140.05 216.963C1135.18 217.571 1131.53 218.078 1129.1 218.483V346.771H1092.32V192.947C1099.41 190.921 1108.63 188.995 1119.98 187.171C1131.53 185.347 1143.69 184.435 1156.46 184.435C1167.41 184.435 1176.32 185.854 1183.21 188.691C1190.31 191.529 1196.18 195.278 1200.85 199.939C1203.07 198.318 1205.91 196.595 1209.36 194.771C1212.8 192.947 1216.65 191.326 1220.91 189.907C1225.17 188.286 1229.62 186.969 1234.29 185.955C1239.15 184.942 1244.01 184.435 1248.88 184.435C1261.24 184.435 1271.37 186.259 1279.28 189.907C1287.38 193.353 1293.67 198.318 1298.13 204.803C1302.79 211.086 1305.93 218.787 1307.55 227.907C1309.37 236.825 1310.29 246.654 1310.29 257.395V346.771H1273.5V263.171C1273.5 246.553 1271.47 234.595 1267.42 227.299C1263.37 219.801 1255.57 216.051 1244.01 216.051C1238.14 216.051 1232.56 217.065 1227.29 219.091C1222.02 220.915 1218.07 222.739 1215.44 224.563C1217.06 229.63 1218.17 235.001 1218.78 240.675C1219.39 246.35 1219.69 252.43 1219.69 258.915V346.771H1182.91V263.171ZM1532.4 341.907C1525.3 343.731 1516.08 345.555 1504.73 347.379C1493.38 349.406 1480.92 350.419 1467.34 350.419C1454.57 350.419 1443.83 348.595 1435.12 344.947C1426.61 341.299 1419.72 336.233 1414.45 329.747C1409.38 323.262 1405.73 315.561 1403.5 306.643C1401.27 297.523 1400.16 287.593 1400.16 276.851V187.779H1436.94V271.075C1436.94 288.099 1439.37 300.259 1444.24 307.555C1449.3 314.851 1458.02 318.499 1470.38 318.499C1474.84 318.499 1479.5 318.297 1484.37 317.891C1489.43 317.486 1493.18 316.979 1495.61 316.371V187.779H1532.4V341.907ZM1672.54 268.035C1672.54 251.619 1668.8 238.851 1661.3 229.731C1654 220.611 1642.14 216.051 1625.73 216.051C1622.28 216.051 1618.64 216.254 1614.78 216.659C1611.14 216.862 1607.49 217.47 1603.84 218.483V309.379C1607.08 311.609 1611.34 313.737 1616.61 315.763C1622.08 317.587 1627.86 318.499 1633.94 318.499C1647.31 318.499 1657.04 313.939 1663.12 304.819C1669.4 295.699 1672.54 283.438 1672.54 268.035ZM1710.24 267.427C1710.24 279.587 1708.62 290.734 1705.38 300.867C1702.34 311.001 1697.88 319.715 1692 327.011C1686.12 334.307 1678.73 339.982 1669.81 344.035C1661.09 348.089 1651.16 350.115 1640.02 350.115C1632.52 350.115 1625.63 349.203 1619.34 347.379C1613.06 345.555 1607.89 343.529 1603.84 341.299V403.011H1567.06V192.947C1574.56 190.921 1583.78 188.995 1594.72 187.171C1605.66 185.347 1617.22 184.435 1629.38 184.435C1641.94 184.435 1653.19 186.361 1663.12 190.211C1673.05 194.062 1681.46 199.635 1688.35 206.931C1695.45 214.025 1700.82 222.739 1704.46 233.075C1708.32 243.209 1710.24 254.659 1710.24 267.427ZM1778.85 192.643C1778.85 209.465 1778.25 224.867 1777.03 238.851C1775.81 252.835 1774.29 266.921 1772.47 281.107H1746.33C1744.3 266.921 1742.68 252.835 1741.46 238.851C1740.25 224.665 1739.64 209.262 1739.64 192.643V136.099H1778.85V192.643ZM1783.41 326.707C1783.41 333.801 1781.08 339.577 1776.42 344.035C1771.76 348.494 1765.98 350.723 1759.09 350.723C1752.41 350.723 1746.63 348.494 1741.77 344.035C1737.1 339.577 1734.77 333.801 1734.77 326.707C1734.77 319.614 1737.1 313.838 1741.77 309.379C1746.63 304.718 1752.41 302.387 1759.09 302.387C1765.98 302.387 1771.76 304.718 1776.42 309.379C1781.08 313.838 1783.41 319.614 1783.41 326.707Z"/>
</mask>
<path d="M666.521 145.827L703.305 139.747V187.779H759.849V218.483H703.305V283.235C703.305 296.003 705.331 305.123 709.385 310.595C713.438 316.067 720.329 318.803 730.057 318.803C736.745 318.803 742.622 318.094 747.689 316.675C752.958 315.257 757.113 313.939 760.153 312.723L766.233 341.907C761.977 343.731 756.403 345.555 749.513 347.379C742.622 349.406 734.515 350.419 725.193 350.419C713.843 350.419 704.318 348.899 696.617 345.859C689.118 342.819 683.139 338.462 678.681 332.787C674.222 326.91 671.081 319.918 669.257 311.811C667.433 303.502 666.521 294.078 666.521 283.539V145.827ZM771.759 268.035C771.759 254.051 773.786 241.79 777.839 231.251C782.095 220.713 787.668 211.998 794.559 205.107C801.45 198.014 809.354 192.745 818.271 189.299C827.188 185.651 836.308 183.827 845.631 183.827C867.519 183.827 884.543 190.617 896.703 204.195C909.066 217.774 915.247 238.041 915.247 264.995C915.247 267.022 915.146 269.353 914.943 271.987C914.943 274.419 914.842 276.649 914.639 278.675H809.759C810.772 291.443 815.231 301.374 823.135 308.467C831.242 315.358 842.895 318.803 858.095 318.803C867.012 318.803 875.119 317.993 882.415 316.371C889.914 314.75 895.791 313.027 900.047 311.203L904.911 341.299C902.884 342.313 900.047 343.427 896.399 344.643C892.954 345.657 888.9 346.569 884.239 347.379C879.78 348.393 874.916 349.203 869.647 349.811C864.378 350.419 859.007 350.723 853.535 350.723C839.551 350.723 827.391 348.697 817.055 344.643C806.719 340.387 798.207 334.611 791.519 327.315C784.831 319.817 779.866 311.102 776.623 301.171C773.38 291.038 771.759 279.993 771.759 268.035ZM878.463 251.619C878.463 246.553 877.754 241.79 876.335 237.331C874.916 232.67 872.788 228.718 869.951 225.475C867.316 222.03 863.972 219.395 859.919 217.571C856.068 215.545 851.407 214.531 845.935 214.531C840.26 214.531 835.295 215.646 831.039 217.875C826.783 219.902 823.135 222.638 820.095 226.083C817.258 229.529 815.028 233.481 813.407 237.939C811.786 242.398 810.671 246.958 810.063 251.619H878.463ZM998.023 320.931C1009.37 320.931 1017.99 320.323 1023.86 319.107V278.371C1021.84 277.763 1018.9 277.155 1015.05 276.547C1011.2 275.939 1006.94 275.635 1002.28 275.635C998.226 275.635 994.071 275.939 989.815 276.547C985.762 277.155 982.012 278.27 978.567 279.891C975.324 281.513 972.69 283.843 970.663 286.883C968.636 289.721 967.623 293.369 967.623 297.827C967.623 306.542 970.359 312.622 975.831 316.067C981.303 319.31 988.7 320.931 998.023 320.931ZM994.983 183.827C1007.14 183.827 1017.38 185.347 1025.69 188.387C1034 191.427 1040.58 195.683 1045.45 201.155C1050.51 206.627 1054.06 213.315 1056.09 221.219C1058.32 228.921 1059.43 237.433 1059.43 246.755V343.123C1053.76 344.339 1045.14 345.758 1033.59 347.379C1022.24 349.203 1009.37 350.115 994.983 350.115C985.458 350.115 976.743 349.203 968.839 347.379C960.935 345.555 954.146 342.617 948.471 338.563C942.999 334.51 938.642 329.241 935.399 322.755C932.359 316.27 930.839 308.265 930.839 298.739C930.839 289.619 932.562 281.918 936.007 275.635C939.655 269.353 944.519 264.286 950.599 260.435C956.679 256.382 963.671 253.545 971.575 251.923C979.682 250.099 988.092 249.187 996.807 249.187C1000.86 249.187 1005.12 249.491 1009.58 250.099C1014.03 250.505 1018.8 251.315 1023.86 252.531V246.451C1023.86 242.195 1023.36 238.142 1022.34 234.291C1021.33 230.441 1019.51 227.097 1016.87 224.259C1014.44 221.219 1011.1 218.889 1006.84 217.267C1002.79 215.646 997.618 214.835 991.335 214.835C982.823 214.835 975.02 215.443 967.927 216.659C960.834 217.875 955.058 219.294 950.599 220.915L946.039 191.123C950.7 189.502 957.49 187.881 966.407 186.259C975.324 184.638 984.85 183.827 994.983 183.827ZM1182.91 263.171C1182.91 246.553 1180.78 234.595 1176.53 227.299C1172.47 219.801 1164.77 216.051 1153.42 216.051C1149.37 216.051 1144.91 216.355 1140.05 216.963C1135.18 217.571 1131.53 218.078 1129.1 218.483V346.771H1092.32V192.947C1099.41 190.921 1108.63 188.995 1119.98 187.171C1131.53 185.347 1143.69 184.435 1156.46 184.435C1167.41 184.435 1176.32 185.854 1183.21 188.691C1190.31 191.529 1196.18 195.278 1200.85 199.939C1203.07 198.318 1205.91 196.595 1209.36 194.771C1212.8 192.947 1216.65 191.326 1220.91 189.907C1225.17 188.286 1229.62 186.969 1234.29 185.955C1239.15 184.942 1244.01 184.435 1248.88 184.435C1261.24 184.435 1271.37 186.259 1279.28 189.907C1287.38 193.353 1293.67 198.318 1298.13 204.803C1302.79 211.086 1305.93 218.787 1307.55 227.907C1309.37 236.825 1310.29 246.654 1310.29 257.395V346.771H1273.5V263.171C1273.5 246.553 1271.47 234.595 1267.42 227.299C1263.37 219.801 1255.57 216.051 1244.01 216.051C1238.14 216.051 1232.56 217.065 1227.29 219.091C1222.02 220.915 1218.07 222.739 1215.44 224.563C1217.06 229.63 1218.17 235.001 1218.78 240.675C1219.39 246.35 1219.69 252.43 1219.69 258.915V346.771H1182.91V263.171ZM1532.4 341.907C1525.3 343.731 1516.08 345.555 1504.73 347.379C1493.38 349.406 1480.92 350.419 1467.34 350.419C1454.57 350.419 1443.83 348.595 1435.12 344.947C1426.61 341.299 1419.72 336.233 1414.45 329.747C1409.38 323.262 1405.73 315.561 1403.5 306.643C1401.27 297.523 1400.16 287.593 1400.16 276.851V187.779H1436.94V271.075C1436.94 288.099 1439.37 300.259 1444.24 307.555C1449.3 314.851 1458.02 318.499 1470.38 318.499C1474.84 318.499 1479.5 318.297 1484.37 317.891C1489.43 317.486 1493.18 316.979 1495.61 316.371V187.779H1532.4V341.907ZM1672.54 268.035C1672.54 251.619 1668.8 238.851 1661.3 229.731C1654 220.611 1642.14 216.051 1625.73 216.051C1622.28 216.051 1618.64 216.254 1614.78 216.659C1611.14 216.862 1607.49 217.47 1603.84 218.483V309.379C1607.08 311.609 1611.34 313.737 1616.61 315.763C1622.08 317.587 1627.86 318.499 1633.94 318.499C1647.31 318.499 1657.04 313.939 1663.12 304.819C1669.4 295.699 1672.54 283.438 1672.54 268.035ZM1710.24 267.427C1710.24 279.587 1708.62 290.734 1705.38 300.867C1702.34 311.001 1697.88 319.715 1692 327.011C1686.12 334.307 1678.73 339.982 1669.81 344.035C1661.09 348.089 1651.16 350.115 1640.02 350.115C1632.52 350.115 1625.63 349.203 1619.34 347.379C1613.06 345.555 1607.89 343.529 1603.84 341.299V403.011H1567.06V192.947C1574.56 190.921 1583.78 188.995 1594.72 187.171C1605.66 185.347 1617.22 184.435 1629.38 184.435C1641.94 184.435 1653.19 186.361 1663.12 190.211C1673.05 194.062 1681.46 199.635 1688.35 206.931C1695.45 214.025 1700.82 222.739 1704.46 233.075C1708.32 243.209 1710.24 254.659 1710.24 267.427ZM1778.85 192.643C1778.85 209.465 1778.25 224.867 1777.03 238.851C1775.81 252.835 1774.29 266.921 1772.47 281.107H1746.33C1744.3 266.921 1742.68 252.835 1741.46 238.851C1740.25 224.665 1739.64 209.262 1739.64 192.643V136.099H1778.85V192.643ZM1783.41 326.707C1783.41 333.801 1781.08 339.577 1776.42 344.035C1771.76 348.494 1765.98 350.723 1759.09 350.723C1752.41 350.723 1746.63 348.494 1741.77 344.035C1737.1 339.577 1734.77 333.801 1734.77 326.707C1734.77 319.614 1737.1 313.838 1741.77 309.379C1746.63 304.718 1752.41 302.387 1759.09 302.387C1765.98 302.387 1771.76 304.718 1776.42 309.379C1781.08 313.838 1783.41 319.614 1783.41 326.707Z" fill="#1E3A8A"/>
<path d="M666.521 145.827L666.357 144.841L665.521 144.979V145.827H666.521ZM703.305 139.747H704.305V138.569L703.141 138.761L703.305 139.747ZM703.305 187.779H702.305V188.779H703.305V187.779ZM759.849 187.779H760.849V186.779H759.849V187.779ZM759.849 218.483V219.483H760.849V218.483H759.849ZM703.305 218.483V217.483H702.305V218.483H703.305ZM709.385 310.595L710.188 310L710.188 310L709.385 310.595ZM747.689 316.675L747.429 315.71L747.419 315.713L747.689 316.675ZM760.153 312.723L761.132 312.52L760.888 311.352L759.781 311.795L760.153 312.723ZM766.233 341.907L766.626 342.827L767.378 342.504L767.212 341.704L766.233 341.907ZM749.513 347.379L749.257 346.413L749.243 346.416L749.23 346.42L749.513 347.379ZM696.617 345.859L696.241 346.786L696.249 346.79L696.617 345.859ZM678.681 332.787L677.884 333.392L677.889 333.399L677.894 333.405L678.681 332.787ZM669.257 311.811L668.28 312.026L668.281 312.031L669.257 311.811ZM666.684 146.814L703.468 140.734L703.141 138.761L666.357 144.841L666.684 146.814ZM702.305 139.747V187.779H704.305V139.747H702.305ZM703.305 188.779H759.849V186.779H703.305V188.779ZM758.849 187.779V218.483H760.849V187.779H758.849ZM759.849 217.483H703.305V219.483H759.849V217.483ZM702.305 218.483V283.235H704.305V218.483H702.305ZM702.305 283.235C702.305 296.056 704.329 305.451 708.581 311.191L710.188 310C706.333 304.796 704.305 295.951 704.305 283.235H702.305ZM708.581 311.191C712.895 317.014 720.155 319.803 730.057 319.803V317.803C720.502 317.803 713.981 315.121 710.188 310L708.581 311.191ZM730.057 319.803C736.812 319.803 742.784 319.087 747.958 317.638L747.419 315.713C742.46 317.101 736.677 317.803 730.057 317.803V319.803ZM747.949 317.641C753.234 316.218 757.432 314.889 760.524 313.652L759.781 311.795C756.793 312.99 752.681 314.296 747.429 315.71L747.949 317.641ZM759.174 312.927L765.254 342.111L767.212 341.704L761.132 312.52L759.174 312.927ZM765.839 340.988C761.644 342.786 756.122 344.595 749.257 346.413L749.768 348.346C756.684 346.516 762.309 344.677 766.626 342.827L765.839 340.988ZM749.23 346.42C742.454 348.413 734.446 349.419 725.193 349.419V351.419C734.584 351.419 742.79 350.399 749.795 348.339L749.23 346.42ZM725.193 349.419C713.925 349.419 704.534 347.91 696.984 344.929L696.249 346.79C704.102 349.889 713.761 351.419 725.193 351.419V349.419ZM696.992 344.933C689.635 341.95 683.805 337.691 679.467 332.17L677.894 333.405C682.473 339.233 688.601 343.689 696.241 346.786L696.992 344.933ZM679.477 332.183C675.115 326.433 672.029 319.577 670.232 311.592L668.281 312.031C670.132 320.26 673.328 327.387 677.884 333.392L679.477 332.183ZM670.233 311.597C668.428 303.373 667.521 294.022 667.521 283.539H665.521C665.521 294.134 666.437 303.632 668.28 312.026L670.233 311.597ZM667.521 283.539V145.827H665.521V283.539H667.521ZM777.839 231.251L776.912 230.877L776.909 230.885L776.906 230.892L777.839 231.251ZM794.559 205.107L795.266 205.815L795.271 205.809L795.276 205.804L794.559 205.107ZM818.271 189.299L818.632 190.232L818.641 190.229L818.65 190.225L818.271 189.299ZM896.703 204.195L895.958 204.863L895.964 204.869L896.703 204.195ZM914.943 271.987L913.946 271.911L913.943 271.949V271.987H914.943ZM914.639 278.675V279.675H915.544L915.634 278.775L914.639 278.675ZM809.759 278.675V277.675H808.677L808.762 278.755L809.759 278.675ZM823.135 308.467L822.467 309.212L822.477 309.221L822.487 309.229L823.135 308.467ZM882.415 316.371L882.204 315.394L882.198 315.395L882.415 316.371ZM900.047 311.203L901.034 311.044L900.83 309.78L899.653 310.284L900.047 311.203ZM904.911 341.299L905.358 342.194L906.016 341.865L905.898 341.14L904.911 341.299ZM896.399 344.643L896.681 345.603L896.698 345.598L896.715 345.592L896.399 344.643ZM884.239 347.379L884.068 346.394L884.043 346.399L884.018 346.404L884.239 347.379ZM869.647 349.811L869.533 348.818L869.533 348.818L869.647 349.811ZM817.055 344.643L816.674 345.568L816.682 345.571L816.69 345.574L817.055 344.643ZM791.519 327.315L790.773 327.981L790.782 327.991L791.519 327.315ZM776.623 301.171L775.671 301.476L775.673 301.482L776.623 301.171ZM878.463 251.619V252.619H879.463V251.619H878.463ZM876.335 237.331L875.378 237.623L875.382 237.635L876.335 237.331ZM869.951 225.475L869.157 226.083L869.177 226.109L869.199 226.134L869.951 225.475ZM859.919 217.571L859.453 218.456L859.481 218.471L859.509 218.483L859.919 217.571ZM831.039 217.875L831.469 218.778L831.486 218.77L831.503 218.761L831.039 217.875ZM820.095 226.083L819.345 225.422L819.334 225.435L819.323 225.448L820.095 226.083ZM813.407 237.939L814.347 238.281L814.347 238.281L813.407 237.939ZM810.063 251.619L809.072 251.49L808.924 252.619H810.063V251.619ZM772.759 268.035C772.759 254.146 774.772 242.011 778.772 231.61L776.906 230.892C772.799 241.569 770.759 253.957 770.759 268.035H772.759ZM778.766 231.626C782.98 221.191 788.485 212.596 795.266 205.815L793.852 204.4C786.852 211.4 781.21 220.234 776.912 230.877L778.766 231.626ZM795.276 205.804C802.07 198.811 809.853 193.624 818.632 190.232L817.911 188.367C808.854 191.866 800.83 197.218 793.842 204.411L795.276 205.804ZM818.65 190.225C827.451 186.625 836.443 184.827 845.631 184.827V182.827C836.174 182.827 826.926 184.678 817.893 188.374L818.65 190.225ZM845.631 184.827C867.297 184.827 884.026 191.538 895.958 204.863L897.448 203.528C885.061 189.696 867.741 182.827 845.631 182.827V184.827ZM895.964 204.869C908.095 218.193 914.247 238.175 914.247 264.995H916.247C916.247 237.906 910.037 217.355 897.443 203.522L895.964 204.869ZM914.247 264.995C914.247 266.99 914.147 269.294 913.946 271.911L915.94 272.064C916.144 269.411 916.247 267.054 916.247 264.995H914.247ZM913.943 271.987C913.943 274.392 913.843 276.588 913.644 278.576L915.634 278.775C915.841 276.71 915.943 274.447 915.943 271.987H913.943ZM914.639 277.675H809.759V279.675H914.639V277.675ZM808.762 278.755C809.791 291.722 814.334 301.913 822.467 309.212L823.803 307.723C816.128 300.835 811.753 291.165 810.756 278.596L808.762 278.755ZM822.487 309.229C830.839 316.328 842.758 319.803 858.095 319.803V317.803C843.032 317.803 831.645 314.388 823.783 307.706L822.487 309.229ZM858.095 319.803C867.072 319.803 875.253 318.988 882.632 317.348L882.198 315.395C874.986 316.998 866.953 317.803 858.095 317.803V319.803ZM882.626 317.349C890.153 315.722 896.101 313.983 900.441 312.123L899.653 310.284C895.482 312.072 889.675 313.779 882.204 315.394L882.626 317.349ZM899.06 311.363L903.924 341.459L905.898 341.14L901.034 311.044L899.06 311.363ZM904.464 340.405C902.499 341.388 899.712 342.485 896.083 343.695L896.715 345.592C900.382 344.37 903.27 343.238 905.358 342.194L904.464 340.405ZM896.117 343.684C892.717 344.684 888.703 345.588 884.068 346.394L884.41 348.365C889.098 347.549 893.19 346.63 896.681 345.603L896.117 343.684ZM884.018 346.404C879.599 347.409 874.771 348.214 869.533 348.818L869.762 350.805C875.062 350.193 879.962 349.377 884.461 348.355L884.018 346.404ZM869.533 348.818C864.302 349.422 858.97 349.723 853.535 349.723V351.723C859.044 351.723 864.453 351.417 869.762 350.805L869.533 348.818ZM853.535 349.723C839.645 349.723 827.614 347.71 817.42 343.713L816.69 345.574C827.168 349.684 839.457 351.723 853.535 351.723V349.723ZM817.436 343.719C807.218 339.511 798.833 333.814 792.256 326.64L790.782 327.991C797.581 335.409 806.22 341.264 816.674 345.568L817.436 343.719ZM792.265 326.65C785.673 319.258 780.775 310.666 777.574 300.861L775.673 301.482C778.956 311.538 783.989 320.375 790.773 327.981L792.265 326.65ZM777.576 300.867C774.368 290.843 772.759 279.902 772.759 268.035H770.759C770.759 280.084 772.393 291.233 775.671 301.476L777.576 300.867ZM879.463 251.619C879.463 246.458 878.74 241.593 877.288 237.028L875.382 237.635C876.767 241.988 877.463 246.647 877.463 251.619H879.463ZM877.292 237.04C875.837 232.261 873.646 228.179 870.704 224.817L869.199 226.134C871.931 229.257 873.996 233.079 875.378 237.623L877.292 237.04ZM870.746 224.868C868.008 221.288 864.53 218.55 860.33 216.66L859.509 218.483C863.415 220.241 866.625 222.773 869.157 226.083L870.746 224.868ZM860.385 216.687C856.358 214.567 851.529 213.531 845.935 213.531V215.531C851.286 215.531 855.779 216.522 859.453 218.456L860.385 216.687ZM845.935 213.531C840.128 213.531 834.998 214.673 830.575 216.99L831.503 218.761C835.592 216.619 840.393 215.531 845.935 215.531V213.531ZM830.609 216.973C826.235 219.056 822.477 221.873 819.345 225.422L820.845 226.745C823.793 223.404 827.332 220.749 831.469 218.778L830.609 216.973ZM819.323 225.448C816.409 228.986 814.125 233.039 812.467 237.598L814.347 238.281C815.932 233.923 818.106 230.071 820.867 226.719L819.323 225.448ZM812.467 237.598C810.821 242.124 809.689 246.756 809.072 251.49L811.055 251.749C811.653 247.161 812.75 242.672 814.347 238.281L812.467 237.598ZM810.063 252.619H878.463V250.619H810.063V252.619ZM1023.86 319.107L1024.07 320.087L1024.86 319.922V319.107H1023.86ZM1023.86 278.371H1024.86V277.627L1024.15 277.414L1023.86 278.371ZM1015.05 276.547L1014.89 277.535L1014.89 277.535L1015.05 276.547ZM989.815 276.547L989.674 275.558L989.667 275.559L989.815 276.547ZM978.567 279.891L978.141 278.987L978.13 278.992L978.12 278.997L978.567 279.891ZM970.663 286.883L971.477 287.465L971.486 287.452L971.495 287.438L970.663 286.883ZM975.831 316.067L975.298 316.914L975.31 316.921L975.321 316.928L975.831 316.067ZM1025.69 188.387L1026.03 187.448L1026.03 187.448L1025.69 188.387ZM1045.45 201.155L1044.7 201.82L1044.71 201.827L1044.71 201.835L1045.45 201.155ZM1056.09 221.219L1055.12 221.468L1055.12 221.483L1055.13 221.498L1056.09 221.219ZM1059.43 343.123L1059.64 344.101L1060.43 343.932V343.123H1059.43ZM1033.59 347.379L1033.45 346.389L1033.44 346.391L1033.43 346.392L1033.59 347.379ZM968.839 347.379L969.064 346.405L969.064 346.405L968.839 347.379ZM948.471 338.563L947.876 339.367L947.883 339.372L947.89 339.377L948.471 338.563ZM935.399 322.755L934.494 323.18L934.499 323.191L934.505 323.203L935.399 322.755ZM936.007 275.635L935.142 275.133L935.136 275.144L935.13 275.155L936.007 275.635ZM950.599 260.435L951.134 261.28L951.144 261.274L951.154 261.268L950.599 260.435ZM971.575 251.923L971.776 252.903L971.785 252.901L971.795 252.899L971.575 251.923ZM1009.58 250.099L1009.44 251.09L1009.46 251.093L1009.48 251.095L1009.58 250.099ZM1023.86 252.531L1023.63 253.504L1024.86 253.8V252.531H1023.86ZM1022.34 234.291L1021.38 234.546L1021.38 234.546L1022.34 234.291ZM1016.87 224.259L1016.09 224.884L1016.11 224.913L1016.14 224.94L1016.87 224.259ZM1006.84 217.267L1006.47 218.196L1006.48 218.199L1006.48 218.202L1006.84 217.267ZM967.927 216.659L967.758 215.674L967.758 215.674L967.927 216.659ZM950.599 220.915L949.611 221.067L949.795 222.272L950.941 221.855L950.599 220.915ZM946.039 191.123L945.71 190.179L944.925 190.452L945.051 191.275L946.039 191.123ZM966.407 186.259L966.586 187.243L966.586 187.243L966.407 186.259ZM998.023 321.931C1009.39 321.931 1018.09 321.324 1024.07 320.087L1023.66 318.128C1017.88 319.323 1009.35 319.931 998.023 319.931V321.931ZM1024.86 319.107V278.371H1022.86V319.107H1024.86ZM1024.15 277.414C1022.06 276.786 1019.07 276.17 1015.2 275.56L1014.89 277.535C1018.73 278.141 1021.61 278.741 1023.58 279.329L1024.15 277.414ZM1015.2 275.56C1011.29 274.942 1006.98 274.635 1002.28 274.635V276.635C1006.9 276.635 1011.1 276.937 1014.89 277.535L1015.2 275.56ZM1002.28 274.635C998.176 274.635 993.974 274.943 989.674 275.558L989.956 277.537C994.168 276.936 998.276 276.635 1002.28 276.635V274.635ZM989.667 275.559C985.525 276.18 981.681 277.321 978.141 278.987L978.993 280.796C982.344 279.219 985.999 278.131 989.963 277.536L989.667 275.559ZM978.12 278.997C974.72 280.697 971.953 283.145 969.831 286.329L971.495 287.438C973.426 284.542 975.928 282.329 979.014 280.786L978.12 278.997ZM969.849 286.302C967.672 289.351 966.623 293.219 966.623 297.827H968.623C968.623 293.519 969.601 290.091 971.477 287.465L969.849 286.302ZM966.623 297.827C966.623 306.752 969.438 313.224 975.298 316.914L976.364 315.221C971.28 312.02 968.623 306.332 968.623 297.827H966.623ZM975.321 316.928C981.003 320.295 988.599 321.931 998.023 321.931V319.931C988.802 319.931 981.603 318.325 976.341 315.207L975.321 316.928ZM994.983 184.827C1007.07 184.827 1017.18 186.339 1025.34 189.327L1026.03 187.448C1017.58 184.356 1007.22 182.827 994.983 182.827V184.827ZM1025.34 189.327C1033.53 192.322 1039.97 196.495 1044.7 201.82L1046.19 200.491C1041.2 194.872 1034.46 190.533 1026.03 187.448L1025.34 189.327ZM1044.71 201.835C1049.66 207.174 1053.13 213.709 1055.12 221.468L1057.06 220.971C1054.99 212.922 1051.37 206.081 1046.18 200.476L1044.71 201.835ZM1055.13 221.498C1057.33 229.095 1058.43 237.512 1058.43 246.755H1060.43C1060.43 237.354 1059.31 228.746 1057.05 220.941L1055.13 221.498ZM1058.43 246.755V343.123H1060.43V246.755H1058.43ZM1059.22 342.146C1053.58 343.354 1045 344.769 1033.45 346.389L1033.73 348.37C1045.29 346.748 1053.93 345.325 1059.64 344.101L1059.22 342.146ZM1033.43 346.392C1022.15 348.206 1009.33 349.115 994.983 349.115V351.115C1009.41 351.115 1022.34 350.201 1033.75 348.367L1033.43 346.392ZM994.983 349.115C985.521 349.115 976.883 348.209 969.064 346.405L968.614 348.354C976.603 350.198 985.395 351.115 994.983 351.115V349.115ZM969.064 346.405C961.267 344.606 954.604 341.715 949.052 337.75L947.89 339.377C953.688 343.518 960.603 346.505 968.614 348.354L969.064 346.405ZM949.066 337.76C943.729 333.806 939.47 328.662 936.293 322.308L934.505 323.203C937.813 329.819 942.269 335.214 947.876 339.367L949.066 337.76ZM936.304 322.331C933.344 316.015 931.839 308.164 931.839 298.739H929.839C929.839 308.365 931.374 316.526 934.494 323.18L936.304 322.331ZM931.839 298.739C931.839 289.743 933.538 282.217 936.884 276.116L935.13 275.155C931.585 281.62 929.839 289.496 929.839 298.739H931.839ZM936.872 276.138C940.44 269.993 945.191 265.044 951.134 261.28L950.064 259.591C943.847 263.528 938.87 268.713 935.142 275.133L936.872 276.138ZM951.154 261.268C957.116 257.293 963.985 254.501 971.776 252.903L971.374 250.944C963.357 252.588 956.242 255.471 950.044 259.603L951.154 261.268ZM971.795 252.899C979.826 251.092 988.163 250.187 996.807 250.187V248.187C988.022 248.187 979.538 249.107 971.356 250.948L971.795 252.899ZM996.807 250.187C1000.81 250.187 1005.02 250.488 1009.44 251.09L1009.71 249.109C1005.21 248.495 1000.91 248.187 996.807 248.187V250.187ZM1009.48 251.095C1013.89 251.496 1018.6 252.297 1023.63 253.504L1024.1 251.559C1018.99 250.334 1014.18 249.514 1009.67 249.104L1009.48 251.095ZM1024.86 252.531V246.451H1022.86V252.531H1024.86ZM1024.86 246.451C1024.86 242.115 1024.35 237.976 1023.31 234.037L1021.38 234.546C1022.37 238.308 1022.86 242.275 1022.86 246.451H1024.86ZM1023.31 234.037C1022.26 230.032 1020.35 226.54 1017.6 223.579L1016.14 224.94C1018.66 227.653 1020.4 230.85 1021.38 234.546L1023.31 234.037ZM1017.65 223.635C1015.09 220.433 1011.59 218.007 1007.2 216.333L1006.48 218.202C1010.6 219.771 1013.79 222.006 1016.09 224.884L1017.65 223.635ZM1007.21 216.339C1003 214.655 997.694 213.835 991.335 213.835V215.835C997.542 215.835 1002.57 216.638 1006.47 218.196L1007.21 216.339ZM991.335 213.835C982.776 213.835 974.916 214.447 967.758 215.674L968.096 217.645C975.125 216.44 982.87 215.835 991.335 215.835V213.835ZM967.758 215.674C960.633 216.895 954.793 218.326 950.257 219.976L950.941 221.855C955.323 220.262 961.035 218.856 968.096 217.645L967.758 215.674ZM951.588 220.764L947.028 190.972L945.051 191.275L949.611 221.067L951.588 220.764ZM946.368 192.068C950.955 190.472 957.685 188.862 966.586 187.243L966.228 185.276C957.295 186.9 950.445 188.532 945.71 190.179L946.368 192.068ZM966.586 187.243C975.438 185.634 984.903 184.827 994.983 184.827V182.827C984.797 182.827 975.211 183.642 966.228 185.276L966.586 187.243ZM1176.53 227.299L1175.65 227.775L1175.65 227.789L1175.66 227.803L1176.53 227.299ZM1129.1 218.483L1128.94 217.497L1128.1 217.636V218.483H1129.1ZM1129.1 346.771V347.771H1130.1V346.771H1129.1ZM1092.32 346.771H1091.32V347.771H1092.32V346.771ZM1092.32 192.947L1092.04 191.986L1091.32 192.193V192.947H1092.32ZM1119.98 187.171L1119.83 186.184L1119.82 186.184L1119.98 187.171ZM1183.21 188.691L1182.83 189.616L1182.84 189.62L1183.21 188.691ZM1200.85 199.939L1200.14 200.647L1200.74 201.251L1201.43 200.748L1200.85 199.939ZM1209.36 194.771L1209.83 195.655L1209.83 195.655L1209.36 194.771ZM1220.91 189.907L1221.23 190.856L1221.25 190.849L1221.27 190.842L1220.91 189.907ZM1234.29 185.955L1234.08 184.976L1234.07 184.978L1234.29 185.955ZM1279.28 189.907L1278.86 190.815L1278.87 190.822L1278.89 190.828L1279.28 189.907ZM1298.13 204.803L1297.3 205.37L1297.31 205.385L1297.32 205.399L1298.13 204.803ZM1307.55 227.907L1306.57 228.083L1306.57 228.095L1306.57 228.108L1307.55 227.907ZM1310.29 346.771V347.771H1311.29V346.771H1310.29ZM1273.5 346.771H1272.5V347.771H1273.5V346.771ZM1267.42 227.299L1266.54 227.775L1266.55 227.785L1267.42 227.299ZM1227.29 219.091L1227.62 220.036L1227.64 220.031L1227.65 220.025L1227.29 219.091ZM1215.44 224.563L1214.87 223.741L1214.26 224.163L1214.49 224.868L1215.44 224.563ZM1218.78 240.675L1219.78 240.569L1219.78 240.569L1218.78 240.675ZM1219.69 346.771V347.771H1220.69V346.771H1219.69ZM1182.91 346.771H1181.91V347.771H1182.91V346.771ZM1183.91 263.171C1183.91 246.517 1181.79 234.332 1177.39 226.796L1175.66 227.803C1179.78 234.859 1181.91 246.589 1181.91 263.171H1183.91ZM1177.41 226.824C1173.12 218.895 1165 215.051 1153.42 215.051V217.051C1164.54 217.051 1171.83 220.707 1175.65 227.775L1177.41 226.824ZM1153.42 215.051C1149.32 215.051 1144.82 215.359 1139.92 215.971L1140.17 217.956C1145 217.352 1149.42 217.051 1153.42 217.051V215.051ZM1139.92 215.971C1135.05 216.58 1131.39 217.088 1128.94 217.497L1129.27 219.47C1131.68 219.068 1135.31 218.563 1140.17 217.956L1139.92 215.971ZM1128.1 218.483V346.771H1130.1V218.483H1128.1ZM1129.1 345.771H1092.32V347.771H1129.1V345.771ZM1093.32 346.771V192.947H1091.32V346.771H1093.32ZM1092.59 193.909C1099.63 191.897 1108.81 189.98 1120.14 188.159L1119.82 186.184C1108.45 188.011 1099.19 189.944 1092.04 191.986L1092.59 193.909ZM1120.14 188.159C1131.63 186.344 1143.74 185.435 1156.46 185.435V183.435C1143.65 183.435 1131.43 184.351 1119.83 186.184L1120.14 188.159ZM1156.46 185.435C1167.33 185.435 1176.11 186.846 1182.83 189.616L1183.59 187.767C1176.54 184.862 1167.48 183.435 1156.46 183.435V185.435ZM1182.84 189.62C1189.83 192.415 1195.59 196.095 1200.14 200.647L1201.55 199.232C1196.78 194.461 1190.78 190.643 1183.59 187.763L1182.84 189.62ZM1201.43 200.748C1203.61 199.163 1206.41 197.465 1209.83 195.655L1208.89 193.888C1205.42 195.726 1202.54 197.473 1200.26 199.131L1201.43 200.748ZM1209.83 195.655C1213.22 193.861 1217.01 192.26 1221.23 190.856L1220.59 188.959C1216.29 190.392 1212.39 192.034 1208.89 193.888L1209.83 195.655ZM1221.27 190.842C1225.47 189.239 1229.88 187.936 1234.5 186.933L1234.07 184.978C1229.37 186.002 1224.86 187.333 1220.55 188.973L1221.27 190.842ZM1234.49 186.934C1239.29 185.935 1244.08 185.435 1248.88 185.435V183.435C1243.94 183.435 1239.01 183.949 1234.08 184.976L1234.49 186.934ZM1248.88 185.435C1261.15 185.435 1271.13 187.248 1278.86 190.815L1279.7 189C1271.62 185.271 1261.33 183.435 1248.88 183.435V185.435ZM1278.89 190.828C1286.84 194.208 1292.96 199.06 1297.3 205.37L1298.95 204.237C1294.37 197.577 1287.93 192.498 1279.67 188.987L1278.89 190.828ZM1297.32 205.399C1301.88 211.537 1304.97 219.087 1306.57 228.083L1308.53 227.732C1306.89 218.488 1303.7 210.636 1298.93 204.208L1297.32 205.399ZM1306.57 228.108C1308.38 236.949 1309.29 246.71 1309.29 257.395H1311.29C1311.29 246.599 1310.37 236.701 1308.53 227.707L1306.57 228.108ZM1309.29 257.395V346.771H1311.29V257.395H1309.29ZM1310.29 345.771H1273.5V347.771H1310.29V345.771ZM1274.5 346.771V263.171H1272.5V346.771H1274.5ZM1274.5 263.171C1274.5 246.52 1272.48 234.344 1268.3 226.814L1266.55 227.785C1270.47 234.847 1272.5 246.585 1272.5 263.171H1274.5ZM1268.3 226.824C1264.01 218.889 1255.78 215.051 1244.01 215.051V217.051C1255.35 217.051 1262.72 220.713 1266.54 227.775L1268.3 226.824ZM1244.01 215.051C1238.02 215.051 1232.32 216.086 1226.93 218.158L1227.65 220.025C1232.8 218.044 1238.25 217.051 1244.01 217.051V215.051ZM1226.97 218.146C1221.66 219.982 1217.61 221.841 1214.87 223.741L1216.01 225.386C1218.53 223.638 1222.38 221.849 1227.62 220.036L1226.97 218.146ZM1214.49 224.868C1216.08 229.866 1217.19 235.17 1217.79 240.782L1219.78 240.569C1219.16 234.832 1218.03 229.394 1216.39 224.259L1214.49 224.868ZM1217.79 240.782C1218.39 246.417 1218.69 252.461 1218.69 258.915H1220.69C1220.69 252.399 1220.39 246.283 1219.78 240.569L1217.79 240.782ZM1218.69 258.915V346.771H1220.69V258.915H1218.69ZM1219.69 345.771H1182.91V347.771H1219.69V345.771ZM1183.91 346.771V263.171H1181.91V346.771H1183.91ZM1532.4 341.907L1532.65 342.876L1533.4 342.683V341.907H1532.4ZM1504.73 347.379L1504.58 346.392L1504.57 346.394L1504.56 346.395L1504.73 347.379ZM1435.12 344.947L1434.72 345.867L1434.73 345.87L1435.12 344.947ZM1414.45 329.747L1413.66 330.363L1413.66 330.371L1413.67 330.378L1414.45 329.747ZM1403.5 306.643L1402.53 306.881L1402.53 306.886L1403.5 306.643ZM1400.16 187.779V186.779H1399.16V187.779H1400.16ZM1436.94 187.779H1437.94V186.779H1436.94V187.779ZM1444.24 307.555L1443.41 308.11L1443.41 308.118L1443.42 308.126L1444.24 307.555ZM1484.37 317.891L1484.29 316.895L1484.28 316.895L1484.37 317.891ZM1495.61 316.371L1495.86 317.342L1496.61 317.152V316.371H1495.61ZM1495.61 187.779V186.779H1494.61V187.779H1495.61ZM1532.4 187.779H1533.4V186.779H1532.4V187.779ZM1532.15 340.939C1525.1 342.752 1515.91 344.571 1504.58 346.392L1504.89 348.367C1516.26 346.54 1525.51 344.711 1532.65 342.876L1532.15 340.939ZM1504.56 346.395C1493.28 348.41 1480.87 349.419 1467.34 349.419V351.419C1480.97 351.419 1493.49 350.403 1504.91 348.364L1504.56 346.395ZM1467.34 349.419C1454.66 349.419 1444.06 347.607 1435.5 344.025L1434.73 345.87C1443.6 349.584 1454.49 351.419 1467.34 351.419V349.419ZM1435.51 344.028C1427.13 340.437 1420.38 335.463 1415.22 329.117L1413.67 330.378C1419.05 337.002 1426.08 342.162 1434.72 345.867L1435.51 344.028ZM1415.23 329.132C1410.26 322.769 1406.67 315.198 1404.47 306.401L1402.53 306.886C1404.79 315.923 1408.5 323.755 1413.66 330.363L1415.23 329.132ZM1404.47 306.406C1402.27 297.374 1401.16 287.524 1401.16 276.851H1399.16C1399.16 287.662 1400.28 297.673 1402.53 306.881L1404.47 306.406ZM1401.16 276.851V187.779H1399.16V276.851H1401.16ZM1400.16 188.779H1436.94V186.779H1400.16V188.779ZM1435.94 187.779V271.075H1437.94V187.779H1435.94ZM1435.94 271.075C1435.94 288.141 1438.37 300.556 1443.41 308.11L1445.07 307.001C1440.38 299.963 1437.94 288.058 1437.94 271.075H1435.94ZM1443.42 308.126C1448.74 315.788 1457.83 319.499 1470.38 319.499V317.499C1458.21 317.499 1449.87 313.915 1445.06 306.985L1443.42 308.126ZM1470.38 319.499C1474.87 319.499 1479.56 319.295 1484.45 318.888L1484.28 316.895C1479.44 317.298 1474.81 317.499 1470.38 317.499V319.499ZM1484.45 318.888C1489.52 318.482 1493.34 317.971 1495.86 317.342L1495.37 315.401C1493.02 315.988 1489.34 316.49 1484.29 316.895L1484.45 318.888ZM1496.61 316.371V187.779H1494.61V316.371H1496.61ZM1495.61 188.779H1532.4V186.779H1495.61V188.779ZM1531.4 187.779V341.907H1533.4V187.779H1531.4ZM1661.3 229.731L1660.52 230.356L1660.52 230.367L1661.3 229.731ZM1614.78 216.659L1614.84 217.658L1614.86 217.657L1614.89 217.654L1614.78 216.659ZM1603.84 218.483L1603.57 217.52L1602.84 217.723V218.483H1603.84ZM1603.84 309.379H1602.84V309.906L1603.27 310.204L1603.84 309.379ZM1616.61 315.763L1616.25 316.697L1616.27 316.705L1616.29 316.712L1616.61 315.763ZM1663.12 304.819L1662.3 304.252L1662.29 304.258L1662.29 304.265L1663.12 304.819ZM1705.38 300.867L1704.42 300.563L1704.42 300.571L1704.42 300.58L1705.38 300.867ZM1692 327.011L1692.78 327.639L1692.78 327.639L1692 327.011ZM1669.81 344.035L1669.39 343.125L1669.39 343.129L1669.81 344.035ZM1619.34 347.379L1619.62 346.419L1619.62 346.419L1619.34 347.379ZM1603.84 341.299L1604.32 340.423L1602.84 339.608V341.299H1603.84ZM1603.84 403.011V404.011H1604.84V403.011H1603.84ZM1567.06 403.011H1566.06V404.011H1567.06V403.011ZM1567.06 192.947L1566.8 191.982L1566.06 192.182V192.947H1567.06ZM1663.12 190.211L1663.48 189.279L1663.48 189.279L1663.12 190.211ZM1688.35 206.931L1687.63 207.618L1687.64 207.628L1687.65 207.639L1688.35 206.931ZM1704.46 233.075L1703.52 233.408L1703.53 233.42L1703.53 233.431L1704.46 233.075ZM1673.54 268.035C1673.54 251.477 1669.76 238.454 1662.07 229.096L1660.52 230.367C1667.83 239.249 1671.54 251.762 1671.54 268.035H1673.54ZM1662.08 229.107C1654.52 219.664 1642.32 215.051 1625.73 215.051V217.051C1641.97 217.051 1653.48 221.559 1660.52 230.356L1662.08 229.107ZM1625.73 215.051C1622.24 215.051 1618.56 215.256 1614.68 215.665L1614.89 217.654C1618.71 217.252 1622.32 217.051 1625.73 217.051V215.051ZM1614.73 215.661C1611.01 215.868 1607.29 216.488 1603.57 217.52L1604.11 219.447C1607.69 218.452 1611.27 217.856 1614.84 217.658L1614.73 215.661ZM1602.84 218.483V309.379H1604.84V218.483H1602.84ZM1603.27 310.204C1606.6 312.492 1610.94 314.653 1616.25 316.697L1616.97 314.83C1611.74 312.821 1607.56 310.726 1604.41 308.555L1603.27 310.204ZM1616.29 316.712C1621.87 318.572 1627.75 319.499 1633.94 319.499V317.499C1627.96 317.499 1622.29 316.603 1616.92 314.815L1616.29 316.712ZM1633.94 319.499C1647.56 319.499 1657.64 314.836 1663.95 305.374L1662.29 304.265C1656.44 313.043 1647.06 317.499 1633.94 317.499V319.499ZM1663.94 305.387C1670.38 296.046 1673.54 283.564 1673.54 268.035H1671.54C1671.54 283.312 1668.43 295.353 1662.3 304.252L1663.94 305.387ZM1709.24 267.427C1709.24 279.499 1707.63 290.541 1704.42 300.563L1706.33 301.172C1709.61 290.927 1711.24 279.676 1711.24 267.427H1709.24ZM1704.42 300.58C1701.41 310.606 1697.01 319.201 1691.22 326.384L1692.78 327.639C1698.75 320.23 1703.26 311.396 1706.33 301.155L1704.42 300.58ZM1691.22 326.384C1685.45 333.553 1678.18 339.133 1669.39 343.125L1670.22 344.946C1679.27 340.831 1686.8 335.062 1692.78 327.639L1691.22 326.384ZM1669.39 343.129C1660.82 347.112 1651.04 349.115 1640.02 349.115V351.115C1651.29 351.115 1661.36 349.066 1670.23 344.942L1669.39 343.129ZM1640.02 349.115C1632.6 349.115 1625.8 348.213 1619.62 346.419L1619.07 348.34C1625.45 350.194 1632.44 351.115 1640.02 351.115V349.115ZM1619.62 346.419C1613.38 344.608 1608.29 342.606 1604.32 340.423L1603.36 342.176C1607.5 344.452 1612.74 346.503 1619.07 348.34L1619.62 346.419ZM1602.84 341.299V403.011H1604.84V341.299H1602.84ZM1603.84 402.011H1567.06V404.011H1603.84V402.011ZM1568.06 403.011V192.947H1566.06V403.011H1568.06ZM1567.32 193.913C1574.77 191.898 1583.96 189.979 1594.88 188.158L1594.56 186.185C1583.59 188.012 1574.34 189.944 1566.8 191.982L1567.32 193.913ZM1594.88 188.158C1605.77 186.344 1617.27 185.435 1629.38 185.435V183.435C1617.17 183.435 1605.56 184.351 1594.56 186.185L1594.88 188.158ZM1629.38 185.435C1641.84 185.435 1652.96 187.345 1662.76 191.144L1663.48 189.279C1653.42 185.376 1642.04 183.435 1629.38 183.435V185.435ZM1662.76 191.144C1672.56 194.944 1680.84 200.437 1687.63 207.618L1689.08 206.245C1682.08 198.834 1673.54 193.18 1663.48 189.279L1662.76 191.144ZM1687.65 207.639C1694.62 214.617 1699.92 223.2 1703.52 233.408L1705.41 232.743C1701.71 222.279 1696.27 213.433 1689.06 206.224L1687.65 207.639ZM1703.53 233.431C1707.33 243.432 1709.24 254.76 1709.24 267.427H1711.24C1711.24 254.559 1709.3 242.985 1705.4 232.72L1703.53 233.431ZM1777.03 238.851L1776.03 238.765L1777.03 238.851ZM1772.47 281.107V282.107H1773.35L1773.46 281.235L1772.47 281.107ZM1746.33 281.107L1745.34 281.249L1745.46 282.107H1746.33V281.107ZM1741.46 238.851L1740.47 238.937L1740.47 238.938L1741.46 238.851ZM1739.64 136.099V135.099H1738.64V136.099H1739.64ZM1778.85 136.099H1779.85V135.099H1778.85V136.099ZM1776.42 344.035L1777.11 344.758L1776.42 344.035ZM1741.77 344.035L1741.07 344.758L1741.08 344.765L1741.09 344.773L1741.77 344.035ZM1741.77 309.379L1742.46 310.102L1742.46 310.101L1741.77 309.379ZM1776.42 309.379L1775.72 310.087L1775.72 310.094L1775.73 310.102L1776.42 309.379ZM1777.85 192.643C1777.85 209.441 1777.25 224.815 1776.03 238.765L1778.03 238.938C1779.25 224.92 1779.85 209.488 1779.85 192.643H1777.85ZM1776.03 238.765C1774.82 252.735 1773.3 266.807 1771.48 280.98L1773.46 281.235C1775.29 267.035 1776.81 252.936 1778.03 238.938L1776.03 238.765ZM1772.47 280.107H1746.33V282.107H1772.47V280.107ZM1747.32 280.966C1745.29 266.797 1743.67 252.73 1742.46 238.765L1740.47 238.938C1741.68 252.941 1743.31 267.044 1745.34 281.249L1747.32 280.966ZM1742.46 238.766C1741.25 224.612 1740.64 209.238 1740.64 192.643H1738.64C1738.64 209.286 1739.25 224.718 1740.47 238.937L1742.46 238.766ZM1740.64 192.643V136.099H1738.64V192.643H1740.64ZM1739.64 137.099H1778.85V135.099H1739.64V137.099ZM1777.85 136.099V192.643H1779.85V136.099H1777.85ZM1782.41 326.707C1782.41 333.558 1780.17 339.063 1775.73 343.313L1777.11 344.758C1781.99 340.091 1784.41 334.044 1784.41 326.707H1782.41ZM1775.73 343.313C1771.27 347.581 1765.75 349.723 1759.09 349.723V351.723C1766.22 351.723 1772.25 349.408 1777.11 344.758L1775.73 343.313ZM1759.09 349.723C1752.65 349.723 1747.12 347.585 1742.44 343.298L1741.09 344.773C1746.14 349.403 1752.16 351.723 1759.09 351.723V349.723ZM1742.46 343.313C1738.01 339.063 1735.77 333.558 1735.77 326.707H1733.77C1733.77 334.044 1736.2 340.091 1741.07 344.758L1742.46 343.313ZM1735.77 326.707C1735.77 319.857 1738.01 314.352 1742.46 310.102L1741.07 308.657C1736.2 313.324 1733.77 319.371 1733.77 326.707H1735.77ZM1742.46 310.101C1747.14 305.617 1752.67 303.387 1759.09 303.387V301.387C1752.15 301.387 1746.12 303.819 1741.07 308.657L1742.46 310.101ZM1759.09 303.387C1765.73 303.387 1771.25 305.622 1775.72 310.087L1777.13 308.672C1772.27 303.814 1766.24 301.387 1759.09 301.387V303.387ZM1775.73 310.102C1780.17 314.352 1782.41 319.857 1782.41 326.707H1784.41C1784.41 319.371 1781.99 313.324 1777.11 308.657L1775.73 310.102Z" fill="#1E3A8A" mask="url(#path-2-outside-1_59_456)"/>
</svg>
