<svg viewBox="0 0 2091 509" fill="none" xmlns="http://www.w3.org/2000/svg">
<path fill-rule="evenodd" clip-rule="evenodd" d="M221.949 94.1376C230.402 99.7855 240.34 102.8 250.506 102.8C257.256 102.8 263.939 101.471 270.176 98.8874C276.412 96.3043 282.078 92.5182 286.851 87.7453C291.624 82.9724 295.41 77.3061 297.993 71.07C300.576 64.8338 301.906 58.15 301.906 51.4C301.906 41.2341 298.891 31.2964 293.243 22.8437C287.595 14.391 279.568 7.80296 270.176 3.91262C260.783 0.0222707 250.449 -0.995621 240.478 0.98766C230.507 2.97094 221.349 7.86631 214.16 15.0547C206.972 22.2432 202.077 31.4018 200.093 41.3724C198.11 51.343 199.128 61.6778 203.018 71.07C206.909 80.4621 213.497 88.4897 221.949 94.1376ZM334.05 62.699C334.803 62.9049 335.481 63.3216 336.006 63.9C347.506 75.8 354.206 90.3 354.206 105.8C354.206 146.7 308.206 179.8 251.406 179.8C244.345 179.816 237.293 179.314 230.306 178.3C228.632 178.025 226.917 178.16 225.307 178.693C223.697 179.226 222.24 180.141 221.061 181.36C219.881 182.578 219.015 184.064 218.535 185.691C218.055 187.318 217.976 189.036 218.306 190.7C219.206 195 220.306 199.4 221.506 203.7C223.692 210.934 226.433 217.988 229.706 224.8C235.406 236.6 223.706 249.5 211.406 244.9C184.406 234.7 159.806 206.7 148.706 169.3C136.506 128.4 144.006 88 165.106 65.5H165.206C165.736 64.9316 166.414 64.5217 167.164 64.3158C167.913 64.1098 168.706 64.1161 169.452 64.3338C170.198 64.5515 170.87 64.9721 171.391 65.5488C171.913 66.1255 172.264 66.8356 172.406 67.6C176.194 85.6577 186.122 101.845 200.501 113.407C214.88 124.968 232.821 131.19 251.271 131.013C269.72 130.836 287.539 124.272 301.694 112.437C315.848 100.601 325.465 84.227 328.906 66.1C329.011 65.3265 329.335 64.5991 329.84 64.0034C330.345 63.4077 331.009 62.9686 331.755 62.7375C332.5 62.5064 333.297 62.4931 334.05 62.699ZM268.334 266.273C271.074 270.4 272.525 275.247 272.506 280.2C272.506 286.804 269.882 293.137 265.213 297.807C260.543 302.477 254.21 305.1 247.606 305.1C242.653 305.12 237.805 303.668 233.679 300.928C229.552 298.189 226.333 294.286 224.428 289.713C222.523 285.141 222.02 280.106 222.981 275.247C223.943 270.389 226.326 265.925 229.828 262.423C233.331 258.92 237.794 256.537 242.653 255.576C247.512 254.614 252.547 255.118 257.119 257.022C261.691 258.927 265.595 262.147 268.334 266.273ZM422.963 346.792C414.1 351.823 406.929 359.369 402.36 368.477C396.242 380.67 395.214 394.793 399.502 407.746C403.79 420.7 413.042 431.426 425.23 437.571C434.333 442.161 444.593 443.948 454.711 442.707C464.829 441.466 474.35 437.252 482.069 430.599C489.788 423.945 495.358 415.151 498.074 405.33C500.79 395.508 500.53 385.101 497.327 375.424C494.125 365.748 488.123 357.238 480.081 350.971C472.04 344.703 462.32 340.961 452.153 340.217C441.985 339.474 431.827 341.762 422.963 346.792ZM333.073 334.552C307.502 385.27 316.454 441.299 352.905 459.677C366.931 466.749 382.812 467.253 398.755 462.3C399.482 462.061 400.13 461.628 400.629 461.047C401.127 460.467 401.458 459.761 401.585 459.007C401.711 458.252 401.629 457.477 401.348 456.766C401.066 456.054 400.595 455.433 399.986 454.969C385.341 443.731 375.041 427.769 370.84 409.799C366.639 391.829 368.796 372.962 376.944 356.408C385.092 339.854 398.727 326.636 415.53 319.005C432.333 311.373 451.264 309.799 469.102 314.551C469.848 314.752 470.635 314.744 471.377 314.528C472.118 314.311 472.786 313.894 473.305 313.322C473.825 312.751 474.177 312.047 474.323 311.289C474.468 310.53 474.402 309.746 474.13 309.023C463.528 280.047 430.722 255.108 388.689 247.578C350.368 240.688 314.278 250.042 293.01 269.557C283.363 278.468 289.531 294.68 302.639 294.906C310.186 295.073 317.708 295.832 325.137 297.177C329.653 297.999 333.99 298.953 338.326 300.132C339.96 300.587 341.46 301.431 342.698 302.592C343.935 303.753 344.873 305.197 345.43 306.799C345.988 308.401 346.15 310.114 345.901 311.791C345.652 313.469 345 315.061 344.002 316.432C339.92 322.197 336.268 328.253 333.073 334.552ZM103.034 404.231C103.169 394.041 100.278 384.04 94.7255 375.496C87.2926 364.058 75.6227 356.037 62.2771 353.195C48.9315 350.352 35.0006 352.92 23.5417 360.335C14.982 365.873 8.25689 373.826 4.21751 383.185C0.178109 392.544 -0.99401 402.89 0.849542 412.912C2.6931 422.935 7.46946 432.184 14.5741 439.489C21.6787 446.794 30.7922 451.827 40.7613 453.95C50.7303 456.073 61.1068 455.192 70.5774 451.417C80.0481 447.642 88.1872 441.144 93.9647 432.745C99.7422 424.345 102.898 414.422 103.034 404.231ZM159.002 332.833C128.145 285.146 75.267 264.572 40.9944 286.748C27.8062 295.282 19.3498 308.734 15.5713 324.995C15.4105 325.744 15.4571 326.521 15.7061 327.245C15.9552 327.968 16.3972 328.61 16.9844 329.1C17.5716 329.591 18.2818 329.911 19.0382 330.028C19.7946 330.144 20.5685 330.052 21.2764 329.76C38.3727 322.797 57.3515 321.97 74.9827 327.421C92.614 332.872 107.808 344.263 117.98 359.657C128.151 375.051 132.671 393.495 130.771 411.851C128.87 430.208 120.666 447.342 107.555 460.337C107.005 460.879 106.614 461.562 106.426 462.312C106.239 463.061 106.262 463.848 106.492 464.585C106.723 465.322 107.153 465.981 107.734 466.49C108.315 466.999 109.025 467.338 109.787 467.469C140.15 472.954 178.244 457.237 205.973 424.764C231.276 395.17 241.432 359.298 235.333 331.086C232.515 318.259 215.406 315.393 208.591 326.592C204.635 333.021 200.18 339.13 195.267 344.862C192.277 348.345 189.263 351.605 186.055 354.753C184.837 355.933 183.35 356.801 181.723 357.283C180.096 357.764 178.377 357.844 176.713 357.517C175.048 357.189 173.488 356.463 172.166 355.401C170.844 354.339 169.799 352.972 169.12 351.418C166.207 344.984 162.825 338.772 159.002 332.833Z" fill="#93C5FD"/>
<path d="M739.666 375.534C720.936 375.534 706.649 370.972 696.804 361.847C686.959 352.482 682.036 339.035 682.036 321.506V224.255H653.941V188.236H682.036V138.17H729.221V188.236H771.363V224.255H729.221V314.302C729.221 321.746 730.662 327.269 733.543 330.871C736.425 334.473 741.467 336.274 748.671 336.274C752.513 336.274 756.475 335.674 760.557 334.473C764.88 333.032 768.481 331.351 771.363 329.43V369.051C766.56 371.452 761.278 373.133 755.515 374.094C749.992 375.054 744.709 375.534 739.666 375.534ZM879.217 375.174C861.208 375.174 845.479 371.572 832.032 364.369C818.585 356.925 808.14 346.119 800.696 331.952C793.252 317.784 789.53 300.735 789.53 280.805C789.53 249.108 797.094 224.975 812.222 208.407C827.59 191.598 849.081 183.193 876.696 183.193C896.626 183.193 912.595 187.516 924.601 196.16C936.847 204.805 945.732 217.171 951.255 233.26C957.018 249.108 959.779 268.078 959.539 290.17H819.066L815.464 259.193H923.16L914.516 272.16C914.035 253.19 910.674 239.623 904.43 231.459C898.427 223.054 888.702 218.852 875.255 218.852C867.091 218.852 859.887 220.773 853.644 224.615C847.641 228.217 842.958 234.34 839.596 242.985C836.475 251.629 834.914 263.516 834.914 278.644C834.914 297.373 839.356 311.781 848.241 321.866C857.126 331.711 870.693 336.634 888.942 336.634C896.386 336.634 903.47 335.914 910.193 334.473C917.157 332.792 923.52 330.871 929.283 328.71C935.287 326.549 940.329 324.508 944.411 322.587V362.928C936.007 366.53 926.402 369.411 915.596 371.572C905.031 373.974 892.904 375.174 879.217 375.174ZM1053.06 375.174C1042.97 375.174 1033.37 374.214 1024.24 372.293C1015.12 370.372 1006.95 367.25 999.751 362.928C992.547 358.365 986.784 352.242 982.462 344.558C978.38 336.634 976.339 326.789 976.339 315.023C976.339 302.776 978.86 292.451 983.903 284.046C988.945 275.402 996.269 268.918 1005.87 264.596C1015.72 260.034 1027.73 257.753 1041.89 257.753C1050.54 257.753 1058.58 258.593 1066.03 260.274C1073.47 261.715 1080.19 263.756 1086.2 266.397C1092.2 269.039 1097.12 271.92 1100.96 275.042L1104.21 300.615C1099.16 297.253 1092.68 294.612 1084.76 292.691C1077.07 290.53 1068.67 289.449 1059.54 289.449C1046.82 289.449 1037.33 291.49 1031.09 295.572C1024.84 299.655 1021.72 306.018 1021.72 314.663C1021.72 320.666 1023.4 325.708 1026.77 329.79C1030.13 333.632 1034.45 336.634 1039.73 338.795C1045.01 340.716 1050.54 341.677 1056.3 341.677C1069.51 341.677 1078.99 340.836 1084.76 339.155C1090.76 337.234 1093.76 333.272 1093.76 327.269V255.591C1093.76 243.825 1090.04 235.301 1082.59 230.018C1075.15 224.495 1064.71 221.734 1051.26 221.734C1040.93 221.734 1030.37 223.535 1019.56 227.137C1008.76 230.498 999.991 234.941 993.268 240.464V199.042C999.751 194.96 1009.48 191.358 1022.44 188.236C1035.41 185.114 1049.34 183.554 1064.22 183.554C1070.47 183.554 1077.07 184.154 1084.04 185.355C1091 186.555 1097.6 188.476 1103.85 191.118C1110.33 193.759 1116.21 197.481 1121.49 202.283C1126.78 206.846 1130.98 212.729 1134.1 219.933C1137.22 226.896 1138.78 235.421 1138.78 245.506V331.591C1138.78 342.877 1135.18 351.762 1127.98 358.245C1120.77 364.489 1110.81 368.811 1098.08 371.212C1085.36 373.854 1070.35 375.174 1053.06 375.174ZM1337.75 248.748V369.771H1292.37V256.672C1292.37 252.11 1291.77 247.787 1290.57 243.705C1289.37 239.383 1287.33 235.661 1284.45 232.539C1281.57 229.178 1277.6 226.656 1272.56 224.975C1267.52 223.054 1261.03 222.094 1253.11 222.094C1247.11 222.094 1241.22 222.694 1235.46 223.895C1229.94 225.095 1225.02 226.656 1220.69 228.577V369.771H1174.95V203.364C1179.99 200.963 1186 198.562 1192.96 196.16C1199.92 193.759 1207.49 191.718 1215.65 190.037C1223.81 188.116 1231.98 186.675 1240.14 185.715C1248.55 184.514 1256.47 183.914 1263.92 183.914C1280.72 183.914 1294.53 186.195 1305.34 190.757C1316.14 195.08 1324.19 202.043 1329.47 211.648C1334.99 221.013 1337.75 233.38 1337.75 248.748ZM1288.77 214.17C1296.45 207.686 1305.22 202.283 1315.06 197.961C1324.91 193.399 1335.23 189.917 1346.04 187.516C1356.84 185.114 1367.17 183.914 1377.02 183.914C1393.82 183.914 1407.63 186.195 1418.44 190.757C1429.24 195.08 1437.29 202.043 1442.57 211.648C1448.09 221.013 1450.85 233.38 1450.85 248.748V369.771H1405.47V256.672C1405.47 252.11 1404.87 247.787 1403.67 243.705C1402.47 239.383 1400.43 235.661 1397.55 232.539C1394.66 229.178 1390.7 226.656 1385.66 224.975C1380.62 223.054 1374.13 222.094 1366.21 222.094C1360.21 222.094 1354.32 222.934 1348.56 224.615C1343.04 226.296 1338.12 228.817 1333.79 232.179L1288.77 214.17ZM1656.35 375.174C1639.54 375.174 1624.89 372.533 1612.41 367.25C1600.16 361.727 1590.56 353.563 1583.59 342.757C1576.87 331.952 1573.51 318.144 1573.51 301.335V188.236H1619.25V296.653C1619.25 310.1 1622.25 320.065 1628.26 326.549C1634.26 333.032 1643.62 336.274 1656.35 336.274C1669.56 336.274 1679.04 333.032 1684.81 326.549C1690.81 320.065 1693.81 310.1 1693.81 296.653V188.236H1737.03V301.335C1737.03 326.309 1729.83 344.918 1715.42 357.165C1701.25 369.171 1681.56 375.174 1656.35 375.174ZM1863.37 374.814C1859.29 374.814 1853.76 374.334 1846.8 373.373C1840.08 372.653 1833.11 371.092 1825.91 368.691C1818.95 366.29 1812.82 362.808 1807.54 358.245L1817.99 343.838V438.568H1772.96V224.975C1772.96 217.291 1775.24 210.808 1779.81 205.525C1784.61 200.242 1790.85 196.04 1798.54 192.919C1806.46 189.557 1815.22 187.156 1824.83 185.715C1834.67 184.034 1844.88 183.193 1855.45 183.193C1872.73 183.193 1888.1 186.195 1901.55 192.198C1915 198.201 1925.68 208.407 1933.61 222.814C1941.53 237.222 1945.49 256.792 1945.49 281.525C1945.49 300.255 1942.25 316.704 1935.77 330.871C1929.28 344.798 1919.92 355.604 1907.67 363.288C1895.43 370.972 1880.66 374.814 1863.37 374.814ZM1851.84 337.715C1862.41 337.715 1871.17 335.674 1878.14 331.591C1885.34 327.509 1890.62 321.266 1893.99 312.862C1897.59 304.217 1899.39 293.411 1899.39 280.445C1899.39 268.918 1898.07 258.713 1895.43 249.828C1893.02 240.944 1888.46 234.1 1881.74 229.298C1875.26 224.255 1866.01 221.734 1854 221.734C1842.24 221.734 1833.23 222.934 1826.99 225.336C1820.99 227.737 1817.99 231.099 1817.99 235.421V328.71C1823.27 331.591 1828.91 333.873 1834.91 335.553C1840.92 336.994 1846.56 337.715 1851.84 337.715ZM2003.42 305.298L1998.02 129.525H2041.96L2036.92 305.298H2003.42ZM1999.1 369.771V332.312H2041.24V369.771H1999.1Z" fill="#1E3A8A"/>
</svg>
