<svg id="e8befcc7-c442-4634-b07d-72e8923a3837" data-name="Capa 1" xmlns="http://www.w3.org/2000/svg" viewBox="0 0 2007.7 441.7"><title>TeamUP - Logotipo</title><path d="M327.9,130.8a51.4,51.4,0,1,1,51.4-51.4A51.4,51.4,0,0,1,327.9,130.8Zm85.5-38.9a4.1,4.1,0,0,0-7.1,2.2,79.8,79.8,0,0,1-156.5,1.5,4.2,4.2,0,0,0-7.2-2.1h-.1c-21.1,22.5-28.6,62.9-16.4,103.8,11.1,37.4,35.7,65.4,62.7,75.6,12.3,4.6,24-8.3,18.3-20.1a146.8,146.8,0,0,1-8.2-21.1c-1.2-4.3-2.3-8.7-3.2-13a10.5,10.5,0,0,1,12-12.4,144.6,144.6,0,0,0,21.1,1.5c56.8,0,102.8-33.1,102.8-74C431.6,118.3,424.9,103.8,413.4,91.9ZM93.4,251.7a51.4,51.4,0,1,0,51.4,51.4A51.4,51.4,0,0,0,93.4,251.7Zm12.5-34.1a4.1,4.1,0,0,0,2.2,7.1,79.8,79.8,0,0,1,1.5,156.5,4.2,4.2,0,0,0-2.1,7.2h.1c22.5,21.1,62.9,28.6,103.8,16.4,37.4-11.1,65.4-35.7,75.6-62.7,4.6-12.3-8.3-24-20.1-18.3a135.8,135.8,0,0,1-21.1,8.1c-4.3,1.3-8.7,2.4-13,3.3a10.5,10.5,0,0,1-12.4-12,144.6,144.6,0,0,0,1.5-21.1c0-56.8-33.1-102.8-74-102.8C132.3,199.4,117.8,206.1,105.9,217.6Zm398.8,85.5a51.5,51.5,0,1,0,51.5-51.4A51.5,51.5,0,0,0,504.7,303.1Zm-3.1-103.7c-40.8,0-74,46-74,102.8a144.4,144.4,0,0,0,1.6,21.1,10.5,10.5,0,0,1-12.4,12c-4.4-.9-8.7-2-13.1-3.3a144,144,0,0,1-21.1-8.1c-11.8-5.7-24.6,6-20,18.3,10.2,27,38.2,51.6,75.5,62.7,40.9,12.2,81.4,4.7,103.9-16.4h0a4.2,4.2,0,0,0-2-7.2,79.8,79.8,0,0,1,1.5-156.5,4.2,4.2,0,0,0,2.2-7.1C531.7,206.1,517.3,199.4,501.6,199.4ZM349.9,308.2A25,25,0,1,0,325,333.1,24.9,24.9,0,0,0,349.9,308.2Z" fill="currentColor"/><path d="M778.2,132.9l38.8-6.1-11.8,48.5h52.6l-7.3,30.8H797.8l-15.4,63.6c-1,4.5-1.7,8.3-2.1,11.2a60.9,60.9,0,0,0-.5,8.2,34.5,34.5,0,0,0,.7,7.2,14,14,0,0,0,3.1,6.2,17.7,17.7,0,0,0,6.8,4.3,35.4,35.4,0,0,0,12.1,1.7,60.6,60.6,0,0,0,16-2.2,117.4,117.4,0,0,0,13.5-4.6l2.8,29.8a123.3,123.3,0,0,1-17.8,5.9,104.9,104.9,0,0,1-25.3,2.7c-17.6,0-30.2-3.8-37.8-11.5s-11.3-18.2-11.3-31.5a114,114,0,0,1,1-15.2,150.2,150.2,0,0,1,3.3-16.8Z" stroke="#000" stroke-miterlimit="10" stroke-width="2" fill="currentColor" stroke="currentColor"/><path d="M864.3,278a121.7,121.7,0,0,1,6.6-39.8A106.5,106.5,0,0,1,890,204.1a93.5,93.5,0,0,1,29.9-23.8c11.7-6,24.8-9,39.4-9s27.7,4,36.3,12,12.9,18.3,12.9,30.8-3.2,23.3-9.6,31.3a64.1,64.1,0,0,1-24.7,18.8,121.3,121.3,0,0,1-34.4,9.2c-12.8,1.6-25.8,2.7-38.9,3.1a2.7,2.7,0,0,0-.3,1.2v3.1c0,18.6,11.8,28,35.3,28a109.4,109.4,0,0,0,41.8-8.6l3.1,30.1a126.2,126.2,0,0,1-20.9,6.7,124.8,124.8,0,0,1-30.7,3.4c-11.5,0-21.4-1.6-29.6-4.9A53.9,53.9,0,0,1,879.5,322,54.8,54.8,0,0,1,868,302.2,76.2,76.2,0,0,1,864.3,278Zm89.5-76.2a42.4,42.4,0,0,0-17.6,3.7,47.6,47.6,0,0,0-14.7,10.1,64.4,64.4,0,0,0-11.2,15.2,72.7,72.7,0,0,0-7,18.9q36.9-1.2,53.7-8.9c11.2-5.1,16.7-12.8,16.7-23a16,16,0,0,0-4.4-11.1C966.3,203.4,961.1,201.8,953.8,201.8Z" stroke="#000" stroke-miterlimit="10" stroke-width="2" fill="currentColor" stroke="currentColor"/><path d="M1158.2,273.7a90.9,90.9,0,0,0-1.8,11.1,105.8,105.8,0,0,0-1,14.4,90.1,90.1,0,0,0,1.6,17.4,88.5,88.5,0,0,0,4.9,17.1l-33.2,4.9a81.9,81.9,0,0,1-5.9-15.7,78.8,78.8,0,0,1-18.9,12.1,57.3,57.3,0,0,1-25.3,5.4c-9.7,0-17.9-1.6-24.8-4.7a43.9,43.9,0,0,1-16.7-13.3,57.1,57.1,0,0,1-9.6-19.8,96.4,96.4,0,0,1-3-24.6,107.3,107.3,0,0,1,8-41.8,100.1,100.1,0,0,1,22.2-33.5,105.7,105.7,0,0,1,34-22.3,112.1,112.1,0,0,1,43.1-8.1,140.8,140.8,0,0,1,24.1,2,96.3,96.3,0,0,1,24.4,7.5ZM1138,204.2a66,66,0,0,0-13.2-1.2,55.2,55.2,0,0,0-25.6,6,65.4,65.4,0,0,0-20.2,16,71.8,71.8,0,0,0-13,22.9,79,79,0,0,0-4.6,27,69.2,69.2,0,0,0,1.2,13.3,31.8,31.8,0,0,0,4.1,10.7,21.6,21.6,0,0,0,7.9,7.4,26.1,26.1,0,0,0,12.6,2.8,35.6,35.6,0,0,0,17.4-4.2,53.5,53.5,0,0,0,13.9-11.2,138.6,138.6,0,0,1,1.4-15.1,141.1,141.1,0,0,1,2.9-14.1Z" stroke="#000" stroke-miterlimit="10" stroke-width="2" fill="currentColor" stroke="currentColor"/><path d="M1226.1,182.1c8.2-2.5,17.5-4.8,27.7-6.9a161.7,161.7,0,0,1,33.8-3.2c9.3,0,17,1.3,23.2,4a42.4,42.4,0,0,1,15.9,11.3,157.2,157.2,0,0,1,21.6-10.3c8.5-3.4,18.2-5,29.1-5,9.4,0,17.4,1.3,24,4a41.2,41.2,0,0,1,16,11,43.7,43.7,0,0,1,8.9,16.8,77.9,77.9,0,0,1,2.7,21,118.2,118.2,0,0,1-3.3,26.8l-20.3,84.5h-37.2l19-80.5c1.1-3.9,2-8.2,3-12.8a73,73,0,0,0,1.3-14,45.7,45.7,0,0,0-1-9.7,20.4,20.4,0,0,0-3.9-8.1,18.8,18.8,0,0,0-7.5-5.5c-3.2-1.5-7.2-2.2-12.2-2.2a40.6,40.6,0,0,0-15.6,3.1,70.3,70.3,0,0,0-12.9,6.4,62.7,62.7,0,0,1,1.2,12.6,99.2,99.2,0,0,1-.9,13c-.7,4.5-1.5,8.9-2.5,13.2l-20.3,84.5h-37.2l19.1-80.5c1-3.7,2-8,2.9-12.8a77.8,77.8,0,0,0,1.4-14.3,32.6,32.6,0,0,0-4.8-17.7q-4.8-7.5-18-7.5a87.2,87.2,0,0,0-11.7.8,90.3,90.3,0,0,0-10.1,2l-30.8,130h-37.5Z" stroke="#000" stroke-miterlimit="10" stroke-width="2" fill="currentColor" stroke="currentColor"/><path d="M1685.4,175.3l-22.7,95.6c-1,4.8-1.8,9.5-2.3,14.2a133.3,133.3,0,0,0-.8,14.1,114,114,0,0,0,1.4,17.6,75.1,75.1,0,0,0,4.8,16.9l-33.2,4.9a51.4,51.4,0,0,1-3.3-7.5c-.9-2.8-1.8-5.6-2.6-8.5a109.5,109.5,0,0,1-19,11.8c-7.6,3.8-16.4,5.7-26.5,5.7s-16.7-1.3-23-4a40.6,40.6,0,0,1-15.6-10.9,41.8,41.8,0,0,1-8.6-16.3,74.6,74.6,0,0,1-2.6-19.8,131.1,131.1,0,0,1,3.7-29.2l20.3-84.6h37.2L1572.5,259q-3.9,15.9-3.9,26.1a44.9,44.9,0,0,0,.9,9.2,19.7,19.7,0,0,0,3.3,7.5,14.6,14.6,0,0,0,6.5,5.1,25.6,25.6,0,0,0,10.3,1.9,38.8,38.8,0,0,0,18.2-4.2,57.8,57.8,0,0,0,14.8-11.2,157,157,0,0,1,4.3-27.1l21.3-91Z" stroke="#000" stroke-miterlimit="10" stroke-width="2" fill="currentColor" stroke="currentColor"/><path d="M1853.9,233.1a120.6,120.6,0,0,1-6.9,41.1,97.3,97.3,0,0,1-20.3,33.6,95.6,95.6,0,0,1-32.6,22.9c-12.8,5.7-27.5,8.5-44.1,8.5-2.9,0-5.8-.2-8.8-.5l-8.7-1L1718.9,393h-37.1l50.7-211.2a171.2,171.2,0,0,1,28.1-7.4,182.8,182.8,0,0,1,31.2-2.8c10.7,0,19.9,1.6,27.8,4.8s14.4,7.5,19.4,13.1a52.5,52.5,0,0,1,11.2,19.5A75.6,75.6,0,0,1,1853.9,233.1Zm-114.4,74.1a43,43,0,0,0,6.4.8h6.8c9.9,0,18.7-1.8,26.6-5.6a62.8,62.8,0,0,0,20.2-15.4,69.5,69.5,0,0,0,12.8-22.8,87.1,87.1,0,0,0,4.4-27.8,52,52,0,0,0-1.5-12.7,28.7,28.7,0,0,0-5.1-10.7,25.2,25.2,0,0,0-9.5-7.3c-4-1.9-9.1-2.8-15.2-2.8a87.2,87.2,0,0,0-11.7.8,75,75,0,0,0-9.9,2Z" stroke="#000" stroke-miterlimit="10" stroke-width="2" fill="currentColor" stroke="currentColor"/><path d="M1895.1,291.2c6.6,0,11.9,1.9,16,5.6s6.1,9.1,6.1,16.3a25.8,25.8,0,0,1-2.3,11.2,26.6,26.6,0,0,1-6,8.6,24.7,24.7,0,0,1-8.4,5.4,27.3,27.3,0,0,1-9.7,1.8c-6.6,0-11.8-1.8-15.8-5.4s-6-8.9-6-16.1,2.6-15.3,8-20.1A25.8,25.8,0,0,1,1895.1,291.2Zm49.8-111.6c-1.6,6.8-3.5,14-5.7,21.7s-4.4,15.5-6.9,23.5-5,15.8-7.7,23.4-5.2,14.6-7.7,20.9h-26.1c1.6-14.3,3.5-28.6,5.5-42.9s5.2-29.8,9.3-46.6l13.5-56.5h39.3Z" stroke="#000" stroke-miterlimit="10" stroke-width="2" fill="currentColor" stroke="currentColor"/></svg>