<svg viewBox="0 0 1952 509" fill="none" xmlns="http://www.w3.org/2000/svg">
<path fill-rule="evenodd" clip-rule="evenodd" d="M221.949 94.1376C230.402 99.7855 240.34 102.8 250.506 102.8C257.256 102.8 263.939 101.471 270.176 98.8874C276.412 96.3043 282.078 92.5182 286.851 87.7453C291.624 82.9724 295.41 77.3061 297.993 71.07C300.576 64.8338 301.906 58.15 301.906 51.4C301.906 41.2341 298.891 31.2964 293.243 22.8437C287.595 14.391 279.568 7.80296 270.176 3.91262C260.783 0.0222707 250.449 -0.995621 240.478 0.98766C230.507 2.97094 221.349 7.86631 214.16 15.0547C206.972 22.2432 202.077 31.4018 200.093 41.3724C198.11 51.343 199.128 61.6778 203.018 71.07C206.909 80.4621 213.497 88.4897 221.949 94.1376ZM334.05 62.699C334.803 62.9049 335.481 63.3216 336.006 63.9C347.506 75.8 354.206 90.3 354.206 105.8C354.206 146.7 308.206 179.8 251.406 179.8C244.345 179.816 237.293 179.315 230.306 178.3C228.632 178.026 226.917 178.16 225.307 178.693C223.697 179.226 222.24 180.141 221.061 181.36C219.881 182.578 219.015 184.065 218.535 185.691C218.055 187.318 217.976 189.036 218.306 190.7C219.206 195 220.306 199.4 221.506 203.7C223.692 210.934 226.433 217.988 229.706 224.8C235.406 236.6 223.706 249.5 211.406 244.9C184.406 234.7 159.806 206.7 148.706 169.3C136.506 128.4 144.006 88 165.106 65.5H165.206C165.736 64.9316 166.414 64.5217 167.164 64.3158C167.913 64.1098 168.706 64.1161 169.452 64.3338C170.198 64.5515 170.87 64.9721 171.391 65.5488C171.913 66.1254 172.264 66.8356 172.406 67.6C176.194 85.6577 186.122 101.845 200.501 113.407C214.88 124.968 232.821 131.19 251.271 131.013C269.72 130.836 287.539 124.272 301.694 112.437C315.848 100.601 325.465 84.227 328.906 66.1C329.011 65.3265 329.335 64.5991 329.84 64.0034C330.345 63.4077 331.009 62.9686 331.755 62.7375C332.5 62.5064 333.297 62.4931 334.05 62.699ZM268.334 266.273C271.074 270.4 272.525 275.247 272.506 280.2C272.506 286.804 269.882 293.137 265.213 297.807C260.543 302.477 254.21 305.1 247.606 305.1C242.653 305.12 237.805 303.668 233.679 300.928C229.552 298.189 226.333 294.286 224.428 289.713C222.523 285.141 222.02 280.106 222.981 275.247C223.943 270.389 226.326 265.925 229.828 262.423C233.331 258.92 237.794 256.537 242.653 255.576C247.512 254.614 252.547 255.118 257.119 257.022C261.691 258.927 265.595 262.147 268.334 266.273ZM422.963 346.792C414.1 351.823 406.929 359.369 402.36 368.477C396.242 380.67 395.214 394.793 399.502 407.746C403.79 420.7 413.042 431.426 425.23 437.571C434.333 442.161 444.593 443.948 454.711 442.707C464.829 441.466 474.35 437.252 482.069 430.599C489.788 423.945 495.358 415.151 498.074 405.33C500.79 395.508 500.53 385.101 497.327 375.424C494.125 365.748 488.123 357.238 480.081 350.971C472.04 344.703 462.32 340.961 452.153 340.217C441.985 339.474 431.827 341.762 422.963 346.792ZM333.073 334.552C307.502 385.27 316.454 441.299 352.905 459.677C366.931 466.749 382.812 467.253 398.755 462.3C399.482 462.061 400.13 461.628 400.629 461.047C401.127 460.467 401.458 459.761 401.585 459.007C401.711 458.252 401.629 457.477 401.348 456.766C401.066 456.054 400.595 455.433 399.986 454.969C385.341 443.731 375.041 427.769 370.84 409.799C366.639 391.829 368.796 372.962 376.944 356.408C385.092 339.854 398.727 326.636 415.53 319.005C432.333 311.373 451.264 309.799 469.102 314.551C469.848 314.752 470.635 314.744 471.377 314.528C472.118 314.311 472.786 313.894 473.305 313.322C473.825 312.751 474.177 312.047 474.323 311.289C474.468 310.53 474.402 309.746 474.13 309.023C463.528 280.047 430.722 255.108 388.689 247.578C350.368 240.688 314.278 250.042 293.01 269.557C283.363 278.468 289.531 294.68 302.639 294.906C310.186 295.073 317.708 295.832 325.137 297.177C329.653 297.999 333.99 298.953 338.326 300.132C339.96 300.587 341.46 301.431 342.698 302.592C343.935 303.753 344.873 305.197 345.43 306.799C345.988 308.401 346.15 310.114 345.901 311.791C345.652 313.469 345 315.061 344.002 316.432C339.92 322.197 336.268 328.253 333.073 334.552ZM103.034 404.231C103.169 394.041 100.278 384.04 94.7255 375.496C87.2926 364.058 75.6227 356.037 62.2771 353.195C48.9315 350.352 35.0006 352.92 23.5417 360.335C14.982 365.873 8.25689 373.826 4.21751 383.185C0.178109 392.544 -0.99401 402.89 0.849542 412.912C2.6931 422.935 7.46946 432.184 14.5741 439.489C21.6787 446.794 30.7922 451.827 40.7613 453.95C50.7303 456.073 61.1068 455.192 70.5774 451.417C80.0481 447.642 88.1872 441.144 93.9647 432.744C99.7422 424.345 102.898 414.422 103.034 404.231ZM159.002 332.833C128.145 285.146 75.267 264.572 40.9944 286.748C27.8062 295.282 19.3498 308.734 15.5713 324.995C15.4105 325.744 15.4571 326.521 15.7061 327.245C15.9552 327.968 16.3972 328.61 16.9844 329.1C17.5716 329.591 18.2818 329.911 19.0382 330.028C19.7946 330.144 20.5685 330.052 21.2764 329.76C38.3727 322.797 57.3515 321.97 74.9827 327.421C92.614 332.872 107.808 344.263 117.98 359.657C128.151 375.051 132.671 393.495 130.771 411.851C128.87 430.208 120.666 447.342 107.555 460.337C107.005 460.879 106.614 461.562 106.426 462.312C106.239 463.061 106.262 463.848 106.492 464.585C106.723 465.322 107.153 465.981 107.734 466.49C108.315 466.999 109.025 467.338 109.787 467.469C140.15 472.954 178.244 457.237 205.973 424.764C231.276 395.17 241.432 359.298 235.333 331.086C232.515 318.259 215.406 315.393 208.591 326.592C204.635 333.021 200.18 339.13 195.267 344.862C192.277 348.345 189.263 351.605 186.055 354.752C184.837 355.933 183.35 356.801 181.723 357.283C180.096 357.764 178.377 357.844 176.713 357.517C175.048 357.189 173.488 356.463 172.166 355.401C170.844 354.339 169.799 352.972 169.12 351.418C166.207 344.984 162.825 338.772 159.002 332.833Z" fill="#93C5FD"/>
<mask id="path-2-outside-1_45_23" maskUnits="userSpaceOnUse" x="650.937" y="137.271" width="1256" height="290" fill="black">
<rect fill="white" x="650.937" y="137.271" width="1256" height="290"/>
<path d="M728.427 363.561C713.467 363.561 701.587 359.601 692.787 351.681C684.207 343.761 679.917 332.101 679.917 316.701V222.321H653.187V193.611H679.917V147.411H715.557V193.611H755.817V222.321H715.557V309.771C715.557 317.471 716.877 323.301 719.517 327.261C722.377 331.001 727.547 332.871 735.027 332.871C738.767 332.871 742.507 332.431 746.247 331.551C749.987 330.451 753.177 329.131 755.817 327.591V358.281C751.857 360.041 747.347 361.361 742.287 362.241C737.447 363.121 732.827 363.561 728.427 363.561ZM854.087 364.221C837.807 364.221 823.617 360.921 811.517 354.321C799.637 347.721 790.397 337.931 783.797 324.951C777.417 311.971 774.227 296.131 774.227 277.431C774.227 248.611 780.937 226.831 794.357 212.091C807.997 197.131 826.917 189.651 851.117 189.651C868.937 189.651 883.347 193.611 894.347 201.531C905.347 209.451 913.267 220.561 918.107 234.861C923.167 248.941 925.587 265.441 925.367 284.361H795.017L794.027 258.621H898.967L890.717 266.871C890.057 249.931 886.537 237.611 880.157 229.911C873.777 221.991 863.767 218.031 850.127 218.031C841.327 218.031 833.847 219.901 827.687 223.641C821.527 227.161 816.797 233.321 813.497 242.121C810.417 250.701 808.877 262.581 808.877 277.761C808.877 296.241 813.167 310.321 821.747 320.001C830.327 329.461 842.977 334.191 859.697 334.191C867.177 334.191 874.107 333.531 880.487 332.211C887.087 330.891 893.137 329.241 898.637 327.261C904.137 325.061 908.867 322.971 912.827 320.991V353.001C905.127 356.301 896.437 358.941 886.757 360.921C877.077 363.121 866.187 364.221 854.087 364.221ZM1012.07 364.221C1003.49 364.221 995.239 363.341 987.319 361.581C979.399 360.041 972.139 357.291 965.539 353.331C959.159 349.371 953.989 343.981 950.029 337.161C946.289 330.121 944.419 321.431 944.419 311.091C944.419 298.771 946.839 288.651 951.679 280.731C956.519 272.811 963.449 266.871 972.469 262.911C981.489 258.951 992.269 256.971 1004.81 256.971C1013.17 256.971 1020.65 257.631 1027.25 258.951C1034.07 260.271 1040.12 262.141 1045.4 264.561C1050.9 266.761 1055.52 269.291 1059.26 272.151L1062.89 294.921C1058.05 291.621 1051.56 288.871 1043.42 286.671C1035.28 284.251 1026.48 283.041 1017.02 283.041C1004.48 283.041 994.909 285.241 988.309 289.641C981.929 294.041 978.739 300.641 978.739 309.441C978.739 316.041 980.609 321.431 984.349 325.611C988.089 329.571 992.709 332.541 998.209 334.521C1003.93 336.281 1009.87 337.161 1016.03 337.161C1029.01 337.161 1038.58 336.281 1044.74 334.521C1050.9 332.761 1053.98 328.691 1053.98 322.311V253.011C1053.98 241.351 1050.46 232.881 1043.42 227.601C1036.38 222.101 1026.37 219.351 1013.39 219.351C1004.15 219.351 994.579 220.891 984.679 223.971C974.779 226.831 966.639 230.901 960.259 236.181V203.841C966.419 199.661 975.329 196.361 986.989 193.941C998.869 191.301 1011.08 189.981 1023.62 189.981C1029.78 189.981 1035.94 190.641 1042.1 191.961C1048.48 193.061 1054.42 194.931 1059.92 197.571C1065.42 199.991 1070.26 203.401 1074.44 207.801C1078.84 211.981 1082.25 217.151 1084.67 223.311C1087.09 229.471 1088.3 236.731 1088.3 245.091V324.291C1088.3 335.071 1084.89 343.431 1078.07 349.371C1071.47 355.091 1062.45 358.941 1051.01 360.921C1039.57 363.121 1026.59 364.221 1012.07 364.221ZM1267.34 249.711V359.271H1232.69V254.331C1232.69 250.151 1232.14 246.081 1231.04 242.121C1230.16 237.941 1228.29 234.201 1225.43 230.901C1222.79 227.381 1218.83 224.631 1213.55 222.651C1208.49 220.671 1201.78 219.681 1193.42 219.681C1187.48 219.681 1181.54 220.231 1175.6 221.331C1169.66 222.431 1163.94 223.971 1158.44 225.951V359.271H1123.79V207.141C1128.63 204.721 1134.02 202.521 1139.96 200.541C1146.12 198.341 1152.61 196.471 1159.43 194.931C1166.25 193.391 1173.18 192.181 1180.22 191.301C1187.26 190.421 1194.08 189.981 1200.68 189.981C1216.3 189.981 1228.95 192.181 1238.63 196.581C1248.31 200.761 1255.46 207.361 1260.08 216.381C1264.92 225.181 1267.34 236.291 1267.34 249.711ZM1227.74 215.721C1234.78 210.001 1242.48 205.271 1250.84 201.531C1259.42 197.791 1268.22 194.931 1277.24 192.951C1286.48 190.971 1295.5 189.981 1304.3 189.981C1319.92 189.981 1332.57 192.181 1342.25 196.581C1351.93 200.761 1359.08 207.361 1363.7 216.381C1368.54 225.181 1370.96 236.291 1370.96 249.711V359.271H1336.31V254.331C1336.31 250.151 1335.76 246.081 1334.66 242.121C1333.78 237.941 1331.91 234.201 1329.05 230.901C1326.41 227.381 1322.45 224.631 1317.17 222.651C1312.11 220.671 1305.4 219.681 1297.04 219.681C1291.1 219.681 1285.16 220.561 1279.22 222.321C1273.28 224.081 1267.56 226.831 1262.06 230.571L1227.74 215.721ZM1560.59 364.221C1545.41 364.221 1532.32 361.801 1521.32 356.961C1510.54 351.901 1502.18 344.421 1496.24 334.521C1490.3 324.621 1487.33 312.301 1487.33 297.561V193.611H1521.98V292.611C1521.98 306.691 1525.06 317.141 1531.22 323.961C1537.6 330.561 1547.39 333.861 1560.59 333.861C1573.79 333.861 1583.47 330.561 1589.63 323.961C1596.01 317.141 1599.2 306.691 1599.2 292.611V193.611H1632.53V297.561C1632.53 319.561 1626.15 336.171 1613.39 347.391C1600.85 358.611 1583.25 364.221 1560.59 364.221ZM1743.71 363.891C1739.53 363.891 1734.36 363.341 1728.2 362.241C1722.04 361.361 1715.88 359.931 1709.72 357.951C1703.56 355.751 1698.17 352.891 1693.55 349.371L1702.46 338.151V425.601H1668.14V225.621C1668.14 218.801 1670.23 213.081 1674.41 208.461C1678.81 203.841 1684.53 200.211 1691.57 197.571C1698.61 194.711 1706.31 192.731 1714.67 191.631C1723.25 190.311 1731.72 189.651 1740.08 189.651C1754.82 189.651 1768.24 192.401 1780.34 197.901C1792.44 203.401 1802.12 212.751 1809.38 225.951C1816.64 238.931 1820.27 256.751 1820.27 279.411C1820.27 296.571 1817.3 311.531 1811.36 324.291C1805.42 336.831 1796.73 346.621 1785.29 353.661C1773.85 360.481 1759.99 363.891 1743.71 363.891ZM1737.44 334.851C1748 334.851 1756.8 332.651 1763.84 328.251C1770.88 323.851 1776.16 317.471 1779.68 309.111C1783.2 300.751 1784.96 290.631 1784.96 278.751C1784.96 267.751 1783.64 257.741 1781 248.721C1778.58 239.701 1774.07 232.661 1767.47 227.601C1760.87 222.321 1751.41 219.681 1739.09 219.681C1728.09 219.681 1719.18 220.891 1712.36 223.311C1705.76 225.511 1702.46 228.811 1702.46 233.211V325.281C1708.18 328.361 1714.01 330.781 1719.95 332.541C1725.89 334.081 1731.72 334.851 1737.44 334.851ZM1875.06 301.521L1871.1 139.161H1904.76L1901.13 301.521H1875.06ZM1871.1 359.271V328.251H1905.09V359.271H1871.1Z"/>
</mask>
<path d="M728.427 363.561C713.467 363.561 701.587 359.601 692.787 351.681C684.207 343.761 679.917 332.101 679.917 316.701V222.321H653.187V193.611H679.917V147.411H715.557V193.611H755.817V222.321H715.557V309.771C715.557 317.471 716.877 323.301 719.517 327.261C722.377 331.001 727.547 332.871 735.027 332.871C738.767 332.871 742.507 332.431 746.247 331.551C749.987 330.451 753.177 329.131 755.817 327.591V358.281C751.857 360.041 747.347 361.361 742.287 362.241C737.447 363.121 732.827 363.561 728.427 363.561ZM854.087 364.221C837.807 364.221 823.617 360.921 811.517 354.321C799.637 347.721 790.397 337.931 783.797 324.951C777.417 311.971 774.227 296.131 774.227 277.431C774.227 248.611 780.937 226.831 794.357 212.091C807.997 197.131 826.917 189.651 851.117 189.651C868.937 189.651 883.347 193.611 894.347 201.531C905.347 209.451 913.267 220.561 918.107 234.861C923.167 248.941 925.587 265.441 925.367 284.361H795.017L794.027 258.621H898.967L890.717 266.871C890.057 249.931 886.537 237.611 880.157 229.911C873.777 221.991 863.767 218.031 850.127 218.031C841.327 218.031 833.847 219.901 827.687 223.641C821.527 227.161 816.797 233.321 813.497 242.121C810.417 250.701 808.877 262.581 808.877 277.761C808.877 296.241 813.167 310.321 821.747 320.001C830.327 329.461 842.977 334.191 859.697 334.191C867.177 334.191 874.107 333.531 880.487 332.211C887.087 330.891 893.137 329.241 898.637 327.261C904.137 325.061 908.867 322.971 912.827 320.991V353.001C905.127 356.301 896.437 358.941 886.757 360.921C877.077 363.121 866.187 364.221 854.087 364.221ZM1012.07 364.221C1003.49 364.221 995.239 363.341 987.319 361.581C979.399 360.041 972.139 357.291 965.539 353.331C959.159 349.371 953.989 343.981 950.029 337.161C946.289 330.121 944.419 321.431 944.419 311.091C944.419 298.771 946.839 288.651 951.679 280.731C956.519 272.811 963.449 266.871 972.469 262.911C981.489 258.951 992.269 256.971 1004.81 256.971C1013.17 256.971 1020.65 257.631 1027.25 258.951C1034.07 260.271 1040.12 262.141 1045.4 264.561C1050.9 266.761 1055.52 269.291 1059.26 272.151L1062.89 294.921C1058.05 291.621 1051.56 288.871 1043.42 286.671C1035.28 284.251 1026.48 283.041 1017.02 283.041C1004.48 283.041 994.909 285.241 988.309 289.641C981.929 294.041 978.739 300.641 978.739 309.441C978.739 316.041 980.609 321.431 984.349 325.611C988.089 329.571 992.709 332.541 998.209 334.521C1003.93 336.281 1009.87 337.161 1016.03 337.161C1029.01 337.161 1038.58 336.281 1044.74 334.521C1050.9 332.761 1053.98 328.691 1053.98 322.311V253.011C1053.98 241.351 1050.46 232.881 1043.42 227.601C1036.38 222.101 1026.37 219.351 1013.39 219.351C1004.15 219.351 994.579 220.891 984.679 223.971C974.779 226.831 966.639 230.901 960.259 236.181V203.841C966.419 199.661 975.329 196.361 986.989 193.941C998.869 191.301 1011.08 189.981 1023.62 189.981C1029.78 189.981 1035.94 190.641 1042.1 191.961C1048.48 193.061 1054.42 194.931 1059.92 197.571C1065.42 199.991 1070.26 203.401 1074.44 207.801C1078.84 211.981 1082.25 217.151 1084.67 223.311C1087.09 229.471 1088.3 236.731 1088.3 245.091V324.291C1088.3 335.071 1084.89 343.431 1078.07 349.371C1071.47 355.091 1062.45 358.941 1051.01 360.921C1039.57 363.121 1026.59 364.221 1012.07 364.221ZM1267.34 249.711V359.271H1232.69V254.331C1232.69 250.151 1232.14 246.081 1231.04 242.121C1230.16 237.941 1228.29 234.201 1225.43 230.901C1222.79 227.381 1218.83 224.631 1213.55 222.651C1208.49 220.671 1201.78 219.681 1193.42 219.681C1187.48 219.681 1181.54 220.231 1175.6 221.331C1169.66 222.431 1163.94 223.971 1158.44 225.951V359.271H1123.79V207.141C1128.63 204.721 1134.02 202.521 1139.96 200.541C1146.12 198.341 1152.61 196.471 1159.43 194.931C1166.25 193.391 1173.18 192.181 1180.22 191.301C1187.26 190.421 1194.08 189.981 1200.68 189.981C1216.3 189.981 1228.95 192.181 1238.63 196.581C1248.31 200.761 1255.46 207.361 1260.08 216.381C1264.92 225.181 1267.34 236.291 1267.34 249.711ZM1227.74 215.721C1234.78 210.001 1242.48 205.271 1250.84 201.531C1259.42 197.791 1268.22 194.931 1277.24 192.951C1286.48 190.971 1295.5 189.981 1304.3 189.981C1319.92 189.981 1332.57 192.181 1342.25 196.581C1351.93 200.761 1359.08 207.361 1363.7 216.381C1368.54 225.181 1370.96 236.291 1370.96 249.711V359.271H1336.31V254.331C1336.31 250.151 1335.76 246.081 1334.66 242.121C1333.78 237.941 1331.91 234.201 1329.05 230.901C1326.41 227.381 1322.45 224.631 1317.17 222.651C1312.11 220.671 1305.4 219.681 1297.04 219.681C1291.1 219.681 1285.16 220.561 1279.22 222.321C1273.28 224.081 1267.56 226.831 1262.06 230.571L1227.74 215.721ZM1560.59 364.221C1545.41 364.221 1532.32 361.801 1521.32 356.961C1510.54 351.901 1502.18 344.421 1496.24 334.521C1490.3 324.621 1487.33 312.301 1487.33 297.561V193.611H1521.98V292.611C1521.98 306.691 1525.06 317.141 1531.22 323.961C1537.6 330.561 1547.39 333.861 1560.59 333.861C1573.79 333.861 1583.47 330.561 1589.63 323.961C1596.01 317.141 1599.2 306.691 1599.2 292.611V193.611H1632.53V297.561C1632.53 319.561 1626.15 336.171 1613.39 347.391C1600.85 358.611 1583.25 364.221 1560.59 364.221ZM1743.71 363.891C1739.53 363.891 1734.36 363.341 1728.2 362.241C1722.04 361.361 1715.88 359.931 1709.72 357.951C1703.56 355.751 1698.17 352.891 1693.55 349.371L1702.46 338.151V425.601H1668.14V225.621C1668.14 218.801 1670.23 213.081 1674.41 208.461C1678.81 203.841 1684.53 200.211 1691.57 197.571C1698.61 194.711 1706.31 192.731 1714.67 191.631C1723.25 190.311 1731.72 189.651 1740.08 189.651C1754.82 189.651 1768.24 192.401 1780.34 197.901C1792.44 203.401 1802.12 212.751 1809.38 225.951C1816.64 238.931 1820.27 256.751 1820.27 279.411C1820.27 296.571 1817.3 311.531 1811.36 324.291C1805.42 336.831 1796.73 346.621 1785.29 353.661C1773.85 360.481 1759.99 363.891 1743.71 363.891ZM1737.44 334.851C1748 334.851 1756.8 332.651 1763.84 328.251C1770.88 323.851 1776.16 317.471 1779.68 309.111C1783.2 300.751 1784.96 290.631 1784.96 278.751C1784.96 267.751 1783.64 257.741 1781 248.721C1778.58 239.701 1774.07 232.661 1767.47 227.601C1760.87 222.321 1751.41 219.681 1739.09 219.681C1728.09 219.681 1719.18 220.891 1712.36 223.311C1705.76 225.511 1702.46 228.811 1702.46 233.211V325.281C1708.18 328.361 1714.01 330.781 1719.95 332.541C1725.89 334.081 1731.72 334.851 1737.44 334.851ZM1875.06 301.521L1871.1 139.161H1904.76L1901.13 301.521H1875.06ZM1871.1 359.271V328.251H1905.09V359.271H1871.1Z" fill="#1E3A8A"/>
<path d="M692.787 351.681L691.769 352.784L691.776 352.79L691.783 352.796L692.787 351.681ZM679.917 222.321H681.417V220.821H679.917V222.321ZM653.187 222.321H651.687V223.821H653.187V222.321ZM653.187 193.611V192.111H651.687V193.611H653.187ZM679.917 193.611V195.111H681.417V193.611H679.917ZM679.917 147.411V145.911H678.417V147.411H679.917ZM715.557 147.411H717.057V145.911H715.557V147.411ZM715.557 193.611H714.057V195.111H715.557V193.611ZM755.817 193.611H757.317V192.111H755.817V193.611ZM755.817 222.321V223.821H757.317V222.321H755.817ZM715.557 222.321V220.821H714.057V222.321H715.557ZM719.517 327.261L718.268 328.094L718.295 328.134L718.325 328.173L719.517 327.261ZM746.247 331.551L746.59 333.012L746.63 333.002L746.67 332.991L746.247 331.551ZM755.817 327.591H757.317V324.98L755.061 326.296L755.817 327.591ZM755.817 358.281L756.426 359.652L757.317 359.256V358.281H755.817ZM742.287 362.241L742.03 360.764L742.018 360.766L742.287 362.241ZM728.427 362.061C713.736 362.061 702.248 358.178 693.79 350.567L691.783 352.796C700.925 361.025 713.197 365.061 728.427 365.061V362.061ZM693.804 350.579C685.621 343.026 681.417 331.823 681.417 316.701H678.417C678.417 332.38 682.792 344.497 691.769 352.784L693.804 350.579ZM681.417 316.701V222.321H678.417V316.701H681.417ZM679.917 220.821H653.187V223.821H679.917V220.821ZM654.687 222.321V193.611H651.687V222.321H654.687ZM653.187 195.111H679.917V192.111H653.187V195.111ZM681.417 193.611V147.411H678.417V193.611H681.417ZM679.917 148.911H715.557V145.911H679.917V148.911ZM714.057 147.411V193.611H717.057V147.411H714.057ZM715.557 195.111H755.817V192.111H715.557V195.111ZM754.317 193.611V222.321H757.317V193.611H754.317ZM755.817 220.821H715.557V223.821H755.817V220.821ZM714.057 222.321V309.771H717.057V222.321H714.057ZM714.057 309.771C714.057 317.601 715.391 323.778 718.268 328.094L720.765 326.429C718.362 322.825 717.057 317.342 717.057 309.771H714.057ZM718.325 328.173C721.603 332.459 727.357 334.371 735.027 334.371V331.371C727.736 331.371 723.15 329.544 720.708 326.35L718.325 328.173ZM735.027 334.371C738.885 334.371 742.741 333.917 746.59 333.012L745.903 330.091C742.272 330.946 738.648 331.371 735.027 331.371V334.371ZM746.67 332.991C750.496 331.865 753.804 330.502 756.572 328.887L755.061 326.296C752.549 327.761 749.477 329.038 745.823 330.112L746.67 332.991ZM754.317 327.591V358.281H757.317V327.591H754.317ZM755.207 356.911C751.378 358.612 746.99 359.901 742.03 360.764L742.544 363.719C747.703 362.822 752.335 361.47 756.426 359.652L755.207 356.911ZM742.018 360.766C737.257 361.631 732.727 362.061 728.427 362.061V365.061C732.926 365.061 737.637 364.612 742.555 363.717L742.018 360.766ZM811.517 354.321L810.788 355.633L810.799 355.638L811.517 354.321ZM783.797 324.951L782.451 325.613L782.455 325.622L782.46 325.631L783.797 324.951ZM794.357 212.091L793.248 211.081L793.248 211.082L794.357 212.091ZM894.347 201.531L895.223 200.314L895.223 200.314L894.347 201.531ZM918.107 234.861L916.686 235.342L916.691 235.356L916.695 235.369L918.107 234.861ZM925.367 284.361V285.861H926.85L926.867 284.379L925.367 284.361ZM795.017 284.361L793.518 284.419L793.574 285.861H795.017V284.361ZM794.027 258.621V257.121H792.468L792.528 258.679L794.027 258.621ZM898.967 258.621L900.028 259.682L902.588 257.121H898.967V258.621ZM890.717 266.871L889.218 266.93L889.352 270.358L891.778 267.932L890.717 266.871ZM880.157 229.911L878.989 230.852L878.995 230.861L879.002 230.868L880.157 229.911ZM827.687 223.641L828.431 224.944L828.448 224.934L828.465 224.924L827.687 223.641ZM813.497 242.121L812.092 241.595L812.089 241.605L812.085 241.615L813.497 242.121ZM821.747 320.001L820.624 320.996L820.63 321.003L820.636 321.009L821.747 320.001ZM880.487 332.211L880.193 330.741L880.183 330.743L880.487 332.211ZM898.637 327.261L899.145 328.673L899.17 328.664L899.194 328.654L898.637 327.261ZM912.827 320.991H914.327V318.564L912.156 319.65L912.827 320.991ZM912.827 353.001L913.418 354.38L914.327 353.991V353.001H912.827ZM886.757 360.921L886.456 359.452L886.44 359.455L886.424 359.459L886.757 360.921ZM854.087 362.721C838.012 362.721 824.078 359.464 812.235 353.005L810.799 355.638C823.156 362.379 837.601 365.721 854.087 365.721V362.721ZM812.245 353.01C800.646 346.566 791.609 337.005 785.134 324.272L782.46 325.631C789.185 338.858 798.628 348.877 810.788 355.633L812.245 353.01ZM785.143 324.29C778.889 311.567 775.727 295.967 775.727 277.431H772.727C772.727 296.296 775.944 312.376 782.451 325.613L785.143 324.29ZM775.727 277.431C775.727 248.82 782.39 227.464 795.466 213.101L793.248 211.082C779.484 226.199 772.727 248.403 772.727 277.431H775.727ZM795.465 213.102C808.766 198.514 827.249 191.151 851.117 191.151V188.151C826.585 188.151 807.228 195.748 793.248 211.081L795.465 213.102ZM851.117 191.151C868.721 191.151 882.795 195.063 893.47 202.749L895.223 200.314C883.898 192.16 869.153 188.151 851.117 188.151V191.151ZM893.47 202.749C904.188 210.465 911.934 221.303 916.686 235.342L919.528 234.381C914.599 219.82 906.506 208.437 895.223 200.314L893.47 202.749ZM916.695 235.369C921.681 249.243 924.085 265.557 923.867 284.344L926.867 284.379C927.088 265.325 924.653 248.64 919.519 234.354L916.695 235.369ZM925.367 282.861H795.017V285.861H925.367V282.861ZM796.516 284.304L795.526 258.564L792.528 258.679L793.518 284.419L796.516 284.304ZM794.027 260.121H898.967V257.121H794.027V260.121ZM897.906 257.561L889.656 265.811L891.778 267.932L900.028 259.682L897.906 257.561ZM892.216 266.813C891.551 249.751 888.004 237.031 881.312 228.954L879.002 230.868C885.07 238.192 888.563 250.112 889.218 266.93L892.216 266.813ZM881.325 228.97C874.571 220.586 864.055 216.531 850.127 216.531V219.531C863.479 219.531 872.983 223.397 878.989 230.852L881.325 228.97ZM850.127 216.531C841.113 216.531 833.35 218.448 826.908 222.359L828.465 224.924C834.344 221.355 841.541 219.531 850.127 219.531V216.531ZM826.943 222.339C820.392 226.082 815.475 232.574 812.092 241.595L814.901 242.648C818.119 234.069 822.661 228.241 828.431 224.944L826.943 222.339ZM812.085 241.615C808.921 250.43 807.377 262.508 807.377 277.761H810.377C810.377 262.655 811.913 250.973 814.909 242.628L812.085 241.615ZM807.377 277.761C807.377 296.453 811.715 310.945 820.624 320.996L822.869 319.006C814.619 309.698 810.377 296.03 810.377 277.761H807.377ZM820.636 321.009C829.581 330.872 842.692 335.691 859.697 335.691V332.691C843.262 332.691 831.072 328.051 822.858 318.994L820.636 321.009ZM859.697 335.691C867.264 335.691 874.297 335.024 880.791 333.68L880.183 330.743C873.916 332.039 867.09 332.691 859.697 332.691V335.691ZM880.781 333.682C887.443 332.35 893.566 330.681 899.145 328.673L898.129 325.85C892.708 327.802 886.731 329.433 880.193 330.741L880.781 333.682ZM899.194 328.654C904.721 326.444 909.491 324.337 913.498 322.333L912.156 319.65C908.243 321.606 903.553 323.679 898.08 325.869L899.194 328.654ZM911.327 320.991V353.001H914.327V320.991H911.327ZM912.236 351.623C904.644 354.876 896.054 357.489 886.456 359.452L887.058 362.391C896.82 360.394 905.61 357.727 913.418 354.38L912.236 351.623ZM886.424 359.459C876.874 361.629 866.098 362.721 854.087 362.721V365.721C866.275 365.721 877.28 364.614 887.089 362.384L886.424 359.459ZM987.319 361.581L987.645 360.117L987.625 360.113L987.606 360.109L987.319 361.581ZM965.539 353.331L964.748 354.606L964.758 354.612L964.768 354.618L965.539 353.331ZM950.029 337.161L948.705 337.865L948.718 337.89L948.732 337.915L950.029 337.161ZM951.679 280.731L952.959 281.514L952.959 281.514L951.679 280.731ZM972.469 262.911L971.866 261.538L971.866 261.538L972.469 262.911ZM1027.25 258.951L1026.96 260.422L1026.96 260.424L1027.25 258.951ZM1045.4 264.561L1044.77 265.925L1044.81 265.94L1044.84 265.954L1045.4 264.561ZM1059.26 272.151L1060.74 271.915L1060.65 271.324L1060.17 270.96L1059.26 272.151ZM1062.89 294.921L1062.04 296.161L1064.92 298.12L1064.37 294.685L1062.89 294.921ZM1043.42 286.671L1042.99 288.109L1043.01 288.115L1043.03 288.119L1043.42 286.671ZM988.309 289.641L987.477 288.393L987.467 288.4L987.458 288.407L988.309 289.641ZM984.349 325.611L983.231 326.612L983.245 326.627L983.259 326.641L984.349 325.611ZM998.209 334.521L997.701 335.933L997.734 335.945L997.768 335.955L998.209 334.521ZM1043.42 227.601L1042.5 228.783L1042.51 228.793L1042.52 228.801L1043.42 227.601ZM984.679 223.971L985.096 225.413L985.11 225.408L985.125 225.404L984.679 223.971ZM960.259 236.181H958.759V239.37L961.216 237.337L960.259 236.181ZM960.259 203.841L959.417 202.6L958.759 203.047V203.841H960.259ZM986.989 193.941L987.294 195.41L987.304 195.408L987.315 195.406L986.989 193.941ZM1042.1 191.961L1041.78 193.428L1041.81 193.434L1041.84 193.44L1042.1 191.961ZM1059.92 197.571L1059.27 198.924L1059.29 198.934L1059.32 198.944L1059.92 197.571ZM1074.44 207.801L1073.35 208.835L1073.38 208.862L1073.41 208.889L1074.44 207.801ZM1084.67 223.311L1083.27 223.86L1083.27 223.86L1084.67 223.311ZM1078.07 349.371L1079.05 350.505L1079.05 350.503L1078.07 349.371ZM1051.01 360.921L1050.75 359.443L1050.74 359.446L1050.73 359.448L1051.01 360.921ZM1012.07 362.721C1003.59 362.721 995.452 361.852 987.645 360.117L986.994 363.046C995.027 364.831 1003.39 365.721 1012.07 365.721V362.721ZM987.606 360.109C979.849 358.601 972.754 355.911 966.311 352.045L964.768 354.618C971.524 358.672 978.95 361.482 987.033 363.054L987.606 360.109ZM966.33 352.057C960.17 348.233 955.169 343.027 951.326 336.408L948.732 337.915C952.809 344.936 958.149 350.51 964.748 354.606L966.33 352.057ZM951.354 336.458C947.758 329.689 945.919 321.257 945.919 311.091H942.919C942.919 321.606 944.82 330.554 948.705 337.865L951.354 336.458ZM945.919 311.091C945.919 298.96 948.303 289.133 952.959 281.514L950.399 279.949C945.376 288.17 942.919 298.583 942.919 311.091H945.919ZM952.959 281.514C957.629 273.872 964.315 268.13 973.072 264.285L971.866 261.538C962.584 265.613 955.409 271.751 950.399 279.949L952.959 281.514ZM973.072 264.285C981.858 260.428 992.422 258.471 1004.81 258.471V255.471C992.116 255.471 981.121 257.475 971.866 261.538L973.072 264.285ZM1004.81 258.471C1013.09 258.471 1020.47 259.126 1026.96 260.422L1027.54 257.481C1020.83 256.137 1013.25 255.471 1004.81 255.471V258.471ZM1026.96 260.424C1033.69 261.726 1039.62 263.563 1044.77 265.925L1046.02 263.198C1040.62 260.72 1034.45 258.817 1027.53 257.479L1026.96 260.424ZM1044.84 265.954C1050.25 268.116 1054.74 270.584 1058.35 273.343L1060.17 270.96C1056.3 267.999 1051.55 265.407 1045.96 263.169L1044.84 265.954ZM1057.78 272.388L1061.41 295.158L1064.37 294.685L1060.74 271.915L1057.78 272.388ZM1063.73 293.682C1058.71 290.256 1052.05 287.45 1043.81 285.223L1043.03 288.119C1051.07 290.293 1057.39 292.987 1062.04 296.161L1063.73 293.682ZM1043.85 285.234C1035.55 282.768 1026.61 281.541 1017.02 281.541V284.541C1026.35 284.541 1035.01 285.735 1042.99 288.109L1043.85 285.234ZM1017.02 281.541C1004.34 281.541 994.429 283.759 987.477 288.393L989.141 290.89C995.39 286.724 1004.62 284.541 1017.02 284.541V281.541ZM987.458 288.407C980.612 293.128 977.239 300.226 977.239 309.441H980.239C980.239 301.057 983.247 294.955 989.161 290.876L987.458 288.407ZM977.239 309.441C977.239 316.341 979.203 322.109 983.231 326.612L985.467 324.611C982.016 320.754 980.239 315.741 980.239 309.441H977.239ZM983.259 326.641C987.172 330.785 991.996 333.879 997.701 335.933L998.717 333.11C993.422 331.204 989.007 328.358 985.44 324.582L983.259 326.641ZM997.768 335.955C1003.64 337.76 1009.72 338.661 1016.03 338.661V335.661C1010.01 335.661 1004.22 334.803 998.65 333.088L997.768 335.955ZM1016.03 338.661C1029.04 338.661 1038.78 337.784 1045.15 335.964L1044.33 333.079C1038.38 334.779 1028.98 335.661 1016.03 335.661V338.661ZM1045.15 335.964C1048.46 335.018 1051.08 333.408 1052.87 331.054C1054.65 328.699 1055.48 325.745 1055.48 322.311H1052.48C1052.48 325.258 1051.77 327.529 1050.47 329.244C1049.17 330.96 1047.18 332.265 1044.33 333.079L1045.15 335.964ZM1055.48 322.311V253.011H1052.48V322.311H1055.48ZM1055.48 253.011C1055.48 241.046 1051.85 232.052 1044.32 226.401L1042.52 228.801C1049.07 233.711 1052.48 241.657 1052.48 253.011H1055.48ZM1044.34 226.419C1036.94 220.638 1026.56 217.851 1013.39 217.851V220.851C1026.18 220.851 1035.82 223.565 1042.5 228.783L1044.34 226.419ZM1013.39 217.851C1003.98 217.851 994.261 219.42 984.234 222.539L985.125 225.404C994.898 222.363 1004.32 220.851 1013.39 220.851V217.851ZM984.263 222.53C974.212 225.434 965.875 229.587 959.303 235.026L961.216 237.337C967.403 232.216 975.346 228.229 985.096 225.413L984.263 222.53ZM961.759 236.181V203.841H958.759V236.181H961.759ZM961.102 205.083C967.031 201.059 975.725 197.811 987.294 195.41L986.684 192.473C974.934 194.912 965.808 198.264 959.417 202.6L961.102 205.083ZM987.315 195.406C999.085 192.79 1011.19 191.481 1023.62 191.481V188.481C1010.97 188.481 998.654 189.813 986.664 192.477L987.315 195.406ZM1023.62 191.481C1029.67 191.481 1035.73 192.13 1041.78 193.428L1042.41 190.495C1036.15 189.153 1029.89 188.481 1023.62 188.481V191.481ZM1041.84 193.44C1048.1 194.518 1053.9 196.347 1059.27 198.924L1060.57 196.219C1054.94 193.516 1048.86 191.605 1042.35 190.483L1041.84 193.44ZM1059.32 198.944C1064.63 201.283 1069.31 204.577 1073.35 208.835L1075.53 206.768C1071.21 202.226 1066.21 198.699 1060.52 196.198L1059.32 198.944ZM1073.41 208.889C1077.63 212.905 1080.93 217.885 1083.27 223.86L1086.07 222.763C1083.57 216.418 1080.05 211.058 1075.47 206.714L1073.41 208.889ZM1083.27 223.86C1085.61 229.806 1086.8 236.872 1086.8 245.091H1089.8C1089.8 236.591 1088.57 229.137 1086.07 222.763L1083.27 223.86ZM1086.8 245.091V324.291H1089.8V245.091H1086.8ZM1086.8 324.291C1086.8 334.729 1083.51 342.64 1077.08 348.24L1079.05 350.503C1086.26 344.223 1089.8 335.414 1089.8 324.291H1086.8ZM1077.09 348.238C1070.75 353.729 1062.01 357.495 1050.75 359.443L1051.27 362.399C1062.89 360.388 1072.19 356.453 1079.05 350.505L1077.09 348.238ZM1050.73 359.448C1039.4 361.627 1026.52 362.721 1012.07 362.721V365.721C1026.66 365.721 1039.74 364.616 1051.29 362.394L1050.73 359.448ZM1267.34 359.271V360.771H1268.84V359.271H1267.34ZM1232.69 359.271H1231.19V360.771H1232.69V359.271ZM1231.04 242.121L1229.57 242.43L1229.58 242.477L1229.59 242.523L1231.04 242.121ZM1225.43 230.901L1224.23 231.801L1224.26 231.844L1224.3 231.884L1225.43 230.901ZM1213.55 222.651L1213 224.048L1213.01 224.052L1213.02 224.056L1213.55 222.651ZM1175.6 221.331L1175.33 219.857L1175.33 219.857L1175.6 221.331ZM1158.44 225.951L1157.93 224.54L1156.94 224.897V225.951H1158.44ZM1158.44 359.271V360.771H1159.94V359.271H1158.44ZM1123.79 359.271H1122.29V360.771H1123.79V359.271ZM1123.79 207.141L1123.12 205.8L1122.29 206.214V207.141H1123.79ZM1139.96 200.541L1140.43 201.964L1140.45 201.959L1140.46 201.954L1139.96 200.541ZM1159.43 194.931L1159.1 193.468L1159.1 193.468L1159.43 194.931ZM1180.22 191.301L1180.03 189.813L1180.03 189.813L1180.22 191.301ZM1238.63 196.581L1238.01 197.947L1238.02 197.953L1238.04 197.959L1238.63 196.581ZM1260.08 216.381L1258.74 217.065L1258.75 217.085L1258.77 217.104L1260.08 216.381ZM1227.74 215.721L1226.79 214.557L1224.88 216.116L1227.14 217.098L1227.74 215.721ZM1250.84 201.531L1250.24 200.156L1250.23 200.159L1250.23 200.162L1250.84 201.531ZM1277.24 192.951L1276.93 191.485L1276.92 191.486L1277.24 192.951ZM1342.25 196.581L1341.63 197.947L1341.64 197.953L1341.66 197.959L1342.25 196.581ZM1363.7 216.381L1362.36 217.065L1362.37 217.085L1362.39 217.104L1363.7 216.381ZM1370.96 359.271V360.771H1372.46V359.271H1370.96ZM1336.31 359.271H1334.81V360.771H1336.31V359.271ZM1334.66 242.121L1333.19 242.43L1333.2 242.477L1333.21 242.523L1334.66 242.121ZM1329.05 230.901L1327.85 231.801L1327.88 231.844L1327.92 231.884L1329.05 230.901ZM1317.17 222.651L1316.62 224.048L1316.63 224.052L1316.64 224.056L1317.17 222.651ZM1279.22 222.321L1278.79 220.883L1278.79 220.883L1279.22 222.321ZM1262.06 230.571L1261.46 231.948L1262.22 232.276L1262.9 231.812L1262.06 230.571ZM1265.84 249.711V359.271H1268.84V249.711H1265.84ZM1267.34 357.771H1232.69V360.771H1267.34V357.771ZM1234.19 359.271V254.331H1231.19V359.271H1234.19ZM1234.19 254.331C1234.19 250.018 1233.62 245.813 1232.49 241.72L1229.59 242.523C1230.66 246.35 1231.19 250.285 1231.19 254.331H1234.19ZM1232.51 241.812C1231.57 237.377 1229.59 233.407 1226.56 229.919L1224.3 231.884C1226.99 234.996 1228.75 238.505 1229.57 242.43L1232.51 241.812ZM1226.63 230.001C1223.78 226.196 1219.55 223.299 1214.08 221.247L1213.02 224.056C1218.11 225.963 1221.8 228.567 1224.23 231.801L1226.63 230.001ZM1214.1 221.255C1208.79 219.18 1201.88 218.181 1193.42 218.181V221.181C1201.68 221.181 1208.19 222.163 1213 224.048L1214.1 221.255ZM1193.42 218.181C1187.39 218.181 1181.36 218.74 1175.33 219.857L1175.87 222.806C1181.72 221.723 1187.57 221.181 1193.42 221.181V218.181ZM1175.33 219.857C1169.31 220.971 1163.51 222.532 1157.93 224.54L1158.95 227.363C1164.37 225.411 1170.01 223.892 1175.87 222.806L1175.33 219.857ZM1156.94 225.951V359.271H1159.94V225.951H1156.94ZM1158.44 357.771H1123.79V360.771H1158.44V357.771ZM1125.29 359.271V207.141H1122.29V359.271H1125.29ZM1124.46 208.483C1129.23 206.099 1134.55 203.925 1140.43 201.964L1139.49 199.118C1133.49 201.117 1128.03 203.344 1123.12 205.8L1124.46 208.483ZM1140.46 201.954C1146.56 199.776 1153 197.922 1159.76 196.395L1159.1 193.468C1152.22 195.021 1145.68 196.907 1139.46 199.129L1140.46 201.954ZM1159.76 196.395C1166.53 194.866 1173.41 193.664 1180.41 192.79L1180.03 189.813C1172.95 190.699 1165.97 191.917 1159.1 193.468L1159.76 196.395ZM1180.41 192.79C1187.39 191.917 1194.15 191.481 1200.68 191.481V188.481C1194.01 188.481 1187.13 188.926 1180.03 189.813L1180.41 192.79ZM1200.68 191.481C1216.18 191.481 1228.59 193.667 1238.01 197.947L1239.25 195.216C1229.31 190.696 1216.42 188.481 1200.68 188.481V191.481ZM1238.04 197.959C1247.41 202.006 1254.29 208.369 1258.74 217.065L1261.41 215.698C1256.63 206.354 1249.21 199.516 1239.22 195.204L1238.04 197.959ZM1258.77 217.104C1263.45 225.621 1265.84 236.462 1265.84 249.711H1268.84C1268.84 236.12 1266.39 224.742 1261.39 215.659L1258.77 217.104ZM1228.69 216.886C1235.62 211.249 1243.21 206.588 1251.45 202.901L1250.23 200.162C1241.75 203.955 1233.94 208.754 1226.79 214.557L1228.69 216.886ZM1251.44 202.906C1259.93 199.205 1268.64 196.375 1277.56 194.417L1276.92 191.486C1267.8 193.488 1258.91 196.378 1250.24 200.156L1251.44 202.906ZM1277.55 194.418C1286.7 192.459 1295.61 191.481 1304.3 191.481V188.481C1295.39 188.481 1286.26 189.484 1276.93 191.485L1277.55 194.418ZM1304.3 191.481C1319.8 191.481 1332.21 193.667 1341.63 197.947L1342.87 195.216C1332.93 190.696 1320.04 188.481 1304.3 188.481V191.481ZM1341.66 197.959C1351.03 202.006 1357.91 208.369 1362.36 217.065L1365.03 215.698C1360.25 206.354 1352.83 199.516 1342.84 195.204L1341.66 197.959ZM1362.39 217.104C1367.07 225.621 1369.46 236.462 1369.46 249.711H1372.46C1372.46 236.12 1370.01 224.742 1365.01 215.659L1362.39 217.104ZM1369.46 249.711V359.271H1372.46V249.711H1369.46ZM1370.96 357.771H1336.31V360.771H1370.96V357.771ZM1337.81 359.271V254.331H1334.81V359.271H1337.81ZM1337.81 254.331C1337.81 250.018 1337.24 245.813 1336.11 241.72L1333.21 242.523C1334.28 246.35 1334.81 250.285 1334.81 254.331H1337.81ZM1336.13 241.812C1335.19 237.377 1333.21 233.407 1330.18 229.919L1327.92 231.884C1330.61 234.996 1332.37 238.505 1333.19 242.43L1336.13 241.812ZM1330.25 230.001C1327.4 226.196 1323.17 223.299 1317.7 221.247L1316.64 224.056C1321.73 225.963 1325.42 228.567 1327.85 231.801L1330.25 230.001ZM1317.72 221.255C1312.41 219.18 1305.5 218.181 1297.04 218.181V221.181C1305.3 221.181 1311.81 222.163 1316.62 224.048L1317.72 221.255ZM1297.04 218.181C1290.95 218.181 1284.87 219.084 1278.79 220.883L1279.65 223.76C1285.45 222.039 1291.25 221.181 1297.04 221.181V218.181ZM1278.79 220.883C1272.69 222.69 1266.83 225.51 1261.22 229.331L1262.9 231.812C1268.28 228.153 1273.86 225.473 1279.65 223.76L1278.79 220.883ZM1262.66 229.195L1228.34 214.345L1227.14 217.098L1261.46 231.948L1262.66 229.195ZM1521.32 356.961L1520.68 358.319L1520.7 358.327L1520.72 358.334L1521.32 356.961ZM1487.33 193.611V192.111H1485.83V193.611H1487.33ZM1521.98 193.611H1523.48V192.111H1521.98V193.611ZM1531.22 323.961L1530.11 324.967L1530.13 324.986L1530.14 325.004L1531.22 323.961ZM1589.63 323.961L1588.54 322.937L1588.53 322.938L1589.63 323.961ZM1599.2 193.611V192.111H1597.7V193.611H1599.2ZM1632.53 193.611H1634.03V192.111H1632.53V193.611ZM1613.39 347.391L1612.4 346.265L1612.39 346.274L1613.39 347.391ZM1560.59 362.721C1545.57 362.721 1532.69 360.326 1521.93 355.588L1520.72 358.334C1531.95 363.277 1545.26 365.721 1560.59 365.721V362.721ZM1521.96 355.604C1511.44 350.666 1503.31 343.386 1497.53 333.75L1494.95 335.293C1501.05 345.457 1509.64 353.137 1520.68 358.319L1521.96 355.604ZM1497.53 333.75C1491.76 324.139 1488.83 312.104 1488.83 297.561H1485.83C1485.83 312.499 1488.84 325.104 1494.95 335.293L1497.53 333.75ZM1488.83 297.561V193.611H1485.83V297.561H1488.83ZM1487.33 195.111H1521.98V192.111H1487.33V195.111ZM1520.48 193.611V292.611H1523.48V193.611H1520.48ZM1520.48 292.611C1520.48 306.872 1523.6 317.756 1530.11 324.967L1532.33 322.956C1526.53 316.526 1523.48 306.511 1523.48 292.611H1520.48ZM1530.14 325.004C1536.91 332.004 1547.16 335.361 1560.59 335.361V332.361C1547.62 332.361 1538.29 329.119 1532.3 322.919L1530.14 325.004ZM1560.59 335.361C1574.01 335.361 1584.17 332.006 1590.73 324.985L1588.53 322.938C1582.77 329.117 1573.57 332.361 1560.59 332.361V335.361ZM1590.73 324.986C1597.47 317.776 1600.7 306.883 1600.7 292.611H1597.7C1597.7 306.5 1594.55 316.507 1588.54 322.937L1590.73 324.986ZM1600.7 292.611V193.611H1597.7V292.611H1600.7ZM1599.2 195.111H1632.53V192.111H1599.2V195.111ZM1631.03 193.611V297.561H1634.03V193.611H1631.03ZM1631.03 297.561C1631.03 319.266 1624.75 335.408 1612.4 346.265L1614.38 348.518C1627.55 336.934 1634.03 319.857 1634.03 297.561H1631.03ZM1612.39 346.274C1600.21 357.173 1583.01 362.721 1560.59 362.721V365.721C1583.49 365.721 1601.49 360.05 1614.39 348.509L1612.39 346.274ZM1728.2 362.241L1728.46 360.765L1728.43 360.76L1728.41 360.757L1728.2 362.241ZM1709.72 357.951L1709.21 359.364L1709.23 359.372L1709.26 359.379L1709.72 357.951ZM1693.55 349.371L1692.37 348.439L1691.42 349.637L1692.64 350.565L1693.55 349.371ZM1702.46 338.151H1703.96V333.851L1701.28 337.219L1702.46 338.151ZM1702.46 425.601V427.101H1703.96V425.601H1702.46ZM1668.14 425.601H1666.64V427.101H1668.14V425.601ZM1674.41 208.461L1673.32 207.427L1673.31 207.441L1673.29 207.455L1674.41 208.461ZM1691.57 197.571L1692.09 198.976L1692.11 198.969L1692.13 198.961L1691.57 197.571ZM1714.67 191.631L1714.86 193.119L1714.88 193.116L1714.89 193.114L1714.67 191.631ZM1780.34 197.901L1780.96 196.536L1780.96 196.536L1780.34 197.901ZM1809.38 225.951L1808.06 226.674L1808.07 226.684L1809.38 225.951ZM1811.36 324.291L1812.71 324.934L1812.71 324.924L1811.36 324.291ZM1785.29 353.661L1786.05 354.95L1786.06 354.944L1786.07 354.939L1785.29 353.661ZM1781 248.721L1779.55 249.11L1779.55 249.127L1779.56 249.143L1781 248.721ZM1767.47 227.601L1766.53 228.773L1766.54 228.782L1766.55 228.792L1767.47 227.601ZM1712.36 223.311L1712.83 224.734L1712.84 224.73L1712.86 224.725L1712.36 223.311ZM1702.46 325.281H1700.96V326.177L1701.74 326.602L1702.46 325.281ZM1719.95 332.541L1719.52 333.98L1719.54 333.987L1719.57 333.993L1719.95 332.541ZM1743.71 362.391C1739.65 362.391 1734.57 361.856 1728.46 360.765L1727.93 363.718C1734.14 364.827 1739.4 365.391 1743.71 365.391V362.391ZM1728.41 360.757C1722.33 359.889 1716.26 358.479 1710.17 356.523L1709.26 359.379C1715.49 361.384 1721.74 362.834 1727.98 363.726L1728.41 360.757ZM1710.22 356.539C1704.19 354.384 1698.94 351.594 1694.45 348.178L1692.64 350.565C1697.39 354.189 1702.92 357.119 1709.21 359.364L1710.22 356.539ZM1694.72 350.304L1703.63 339.084L1701.28 337.219L1692.37 348.439L1694.72 350.304ZM1700.96 338.151V425.601H1703.96V338.151H1700.96ZM1702.46 424.101H1668.14V427.101H1702.46V424.101ZM1669.64 425.601V225.621H1666.64V425.601H1669.64ZM1669.64 225.621C1669.64 219.135 1671.61 213.785 1675.52 209.468L1673.29 207.455C1668.84 212.378 1666.64 218.468 1666.64 225.621H1669.64ZM1675.49 209.496C1679.71 205.067 1685.23 201.551 1692.09 198.976L1691.04 196.167C1683.82 198.872 1677.9 202.616 1673.32 207.427L1675.49 209.496ZM1692.13 198.961C1699.04 196.154 1706.61 194.204 1714.86 193.119L1714.47 190.144C1706 191.259 1698.17 193.269 1691 196.182L1692.13 198.961ZM1714.89 193.114C1723.4 191.805 1731.79 191.151 1740.08 191.151V188.151C1731.64 188.151 1723.09 188.818 1714.44 190.149L1714.89 193.114ZM1740.08 191.151C1754.62 191.151 1767.83 193.865 1779.71 199.267L1780.96 196.536C1768.64 190.938 1755.01 188.151 1740.08 188.151V191.151ZM1779.71 199.267C1791.48 204.616 1800.93 213.718 1808.06 226.674L1810.69 225.229C1803.3 211.785 1793.39 202.187 1780.96 196.536L1779.71 199.267ZM1808.07 226.684C1815.15 239.353 1818.77 256.885 1818.77 279.411H1821.77C1821.77 256.618 1818.12 238.51 1810.68 225.219L1808.07 226.684ZM1818.77 279.411C1818.77 296.4 1815.82 311.135 1810 323.658L1812.71 324.924C1818.77 311.928 1821.77 296.743 1821.77 279.411H1818.77ZM1810 323.649C1804.18 335.936 1795.68 345.501 1784.5 352.384L1786.07 354.939C1797.77 347.742 1806.65 337.727 1812.71 324.934L1810 323.649ZM1784.52 352.373C1773.36 359.027 1759.77 362.391 1743.71 362.391V365.391C1760.2 365.391 1774.33 361.936 1786.05 354.95L1784.52 352.373ZM1737.44 336.351C1748.2 336.351 1757.29 334.108 1764.63 329.523L1763.04 326.979C1756.3 331.195 1747.79 333.351 1737.44 333.351V336.351ZM1764.63 329.523C1771.96 324.944 1777.43 318.311 1781.06 309.694L1778.29 308.529C1774.88 316.632 1769.79 322.759 1763.04 326.979L1764.63 329.523ZM1781.06 309.694C1784.68 301.102 1786.46 290.772 1786.46 278.751H1783.46C1783.46 290.49 1781.72 300.401 1778.29 308.529L1781.06 309.694ZM1786.46 278.751C1786.46 267.632 1785.12 257.478 1782.43 248.3L1779.56 249.143C1782.15 258.005 1783.46 267.87 1783.46 278.751H1786.46ZM1782.44 248.333C1779.95 239.035 1775.27 231.697 1768.38 226.411L1766.55 228.792C1772.86 233.626 1777.2 240.368 1779.55 249.11L1782.44 248.333ZM1768.4 226.43C1761.44 220.859 1751.59 218.181 1739.09 218.181V221.181C1751.22 221.181 1760.29 223.784 1766.53 228.773L1768.4 226.43ZM1739.09 218.181C1727.99 218.181 1718.9 219.399 1711.85 221.898L1712.86 224.725C1719.45 222.384 1728.18 221.181 1739.09 221.181V218.181ZM1711.88 221.888C1705.08 224.154 1700.96 227.815 1700.96 233.211H1703.96C1703.96 229.808 1706.43 226.869 1712.83 224.734L1711.88 221.888ZM1700.96 233.211V325.281H1703.96V233.211H1700.96ZM1701.74 326.602C1707.55 329.729 1713.48 332.189 1719.52 333.98L1720.37 331.103C1714.53 329.374 1708.8 326.994 1703.17 323.961L1701.74 326.602ZM1719.57 333.993C1725.62 335.563 1731.58 336.351 1737.44 336.351V333.351C1731.85 333.351 1726.15 332.6 1720.32 331.089L1719.57 333.993ZM1875.06 301.521L1873.56 301.558L1873.59 303.021H1875.06V301.521ZM1871.1 139.161V137.661H1869.56L1869.6 139.198L1871.1 139.161ZM1904.76 139.161L1906.25 139.195L1906.29 137.661H1904.76V139.161ZM1901.13 301.521V303.021H1902.59L1902.62 301.555L1901.13 301.521ZM1871.1 359.271H1869.6V360.771H1871.1V359.271ZM1871.1 328.251V326.751H1869.6V328.251H1871.1ZM1905.09 328.251H1906.59V326.751H1905.09V328.251ZM1905.09 359.271V360.771H1906.59V359.271H1905.09ZM1876.55 301.485L1872.59 139.125L1869.6 139.198L1873.56 301.558L1876.55 301.485ZM1871.1 140.661H1904.76V137.661H1871.1V140.661ZM1903.26 139.128L1899.63 301.488L1902.62 301.555L1906.25 139.195L1903.26 139.128ZM1901.13 300.021H1875.06V303.021H1901.13V300.021ZM1872.6 359.271V328.251H1869.6V359.271H1872.6ZM1871.1 329.751H1905.09V326.751H1871.1V329.751ZM1903.59 328.251V359.271H1906.59V328.251H1903.59ZM1905.09 357.771H1871.1V360.771H1905.09V357.771Z" fill="#1E3A8A" mask="url(#path-2-outside-1_45_23)"/>
</svg>
