<svg viewBox="0 0 1997 493" fill="none" xmlns="http://www.w3.org/2000/svg">
<path fill-rule="evenodd" clip-rule="evenodd" d="M221.949 94.1376C230.402 99.7855 240.34 102.8 250.506 102.8C257.256 102.8 263.939 101.471 270.176 98.8874C276.412 96.3043 282.078 92.5182 286.851 87.7453C291.624 82.9724 295.41 77.3061 297.993 71.07C300.576 64.8338 301.906 58.15 301.906 51.4C301.906 41.2341 298.891 31.2964 293.243 22.8437C287.595 14.391 279.568 7.80296 270.176 3.91262C260.783 0.0222707 250.449 -0.995621 240.478 0.98766C230.507 2.97094 221.349 7.86631 214.16 15.0547C206.972 22.2432 202.077 31.4018 200.093 41.3724C198.11 51.343 199.128 61.6778 203.018 71.07C206.909 80.4621 213.497 88.4897 221.949 94.1376ZM334.05 62.699C334.803 62.9049 335.481 63.3216 336.006 63.9C347.506 75.8 354.206 90.3 354.206 105.8C354.206 146.7 308.206 179.8 251.406 179.8C244.345 179.816 237.293 179.315 230.306 178.3C228.632 178.026 226.917 178.16 225.307 178.693C223.697 179.226 222.24 180.141 221.061 181.36C219.881 182.578 219.015 184.065 218.535 185.691C218.055 187.318 217.976 189.036 218.306 190.7C219.206 195 220.306 199.4 221.506 203.7C223.692 210.934 226.433 217.988 229.706 224.8C235.406 236.6 223.706 249.5 211.406 244.9C184.406 234.7 159.806 206.7 148.706 169.3C136.506 128.4 144.006 88 165.106 65.5H165.206C165.736 64.9316 166.414 64.5217 167.164 64.3158C167.913 64.1098 168.706 64.1161 169.452 64.3338C170.198 64.5515 170.87 64.9721 171.391 65.5488C171.913 66.1254 172.264 66.8356 172.406 67.6C176.194 85.6577 186.122 101.845 200.501 113.407C214.88 124.968 232.821 131.19 251.271 131.013C269.72 130.836 287.539 124.272 301.694 112.437C315.848 100.601 325.465 84.227 328.906 66.1C329.011 65.3265 329.335 64.5991 329.84 64.0034C330.345 63.4077 331.009 62.9686 331.755 62.7375C332.5 62.5064 333.297 62.4931 334.05 62.699ZM268.334 266.273C271.074 270.4 272.525 275.247 272.506 280.2C272.506 286.804 269.882 293.137 265.213 297.807C260.543 302.477 254.21 305.1 247.606 305.1C242.653 305.12 237.805 303.668 233.679 300.928C229.552 298.189 226.333 294.286 224.428 289.713C222.523 285.141 222.02 280.106 222.981 275.247C223.943 270.389 226.326 265.925 229.828 262.423C233.331 258.92 237.794 256.537 242.653 255.576C247.512 254.614 252.547 255.118 257.119 257.022C261.691 258.927 265.595 262.147 268.334 266.273ZM422.963 346.792C414.1 351.823 406.929 359.369 402.36 368.477C396.242 380.67 395.214 394.793 399.502 407.746C403.79 420.7 413.042 431.426 425.23 437.571C434.333 442.161 444.593 443.948 454.711 442.707C464.829 441.466 474.35 437.252 482.069 430.599C489.788 423.945 495.358 415.151 498.074 405.33C500.79 395.508 500.53 385.101 497.327 375.424C494.125 365.748 488.123 357.238 480.081 350.971C472.04 344.703 462.32 340.961 452.153 340.217C441.985 339.474 431.827 341.762 422.963 346.792ZM333.073 334.552C307.502 385.27 316.454 441.299 352.905 459.677C366.931 466.749 382.812 467.253 398.755 462.3C399.482 462.061 400.13 461.628 400.629 461.047C401.127 460.467 401.458 459.761 401.585 459.007C401.711 458.252 401.629 457.477 401.348 456.766C401.066 456.054 400.595 455.433 399.986 454.969C385.341 443.731 375.041 427.769 370.84 409.799C366.639 391.829 368.796 372.962 376.944 356.408C385.092 339.854 398.727 326.636 415.53 319.005C432.333 311.373 451.264 309.799 469.102 314.551C469.848 314.752 470.635 314.744 471.377 314.528C472.118 314.311 472.786 313.894 473.305 313.322C473.825 312.751 474.177 312.047 474.323 311.289C474.468 310.53 474.402 309.746 474.13 309.023C463.528 280.047 430.722 255.108 388.689 247.578C350.368 240.688 314.278 250.042 293.01 269.557C283.363 278.468 289.531 294.68 302.639 294.906C310.186 295.073 317.708 295.832 325.137 297.177C329.653 297.999 333.99 298.953 338.326 300.132C339.96 300.587 341.46 301.431 342.698 302.592C343.935 303.753 344.873 305.197 345.43 306.799C345.988 308.401 346.15 310.114 345.901 311.791C345.652 313.469 345 315.061 344.002 316.432C339.92 322.197 336.268 328.253 333.073 334.552ZM103.034 404.231C103.169 394.041 100.278 384.04 94.7255 375.496C87.2926 364.058 75.6227 356.037 62.2771 353.195C48.9315 350.352 35.0006 352.92 23.5417 360.335C14.982 365.873 8.25689 373.826 4.21751 383.185C0.178109 392.544 -0.99401 402.89 0.849542 412.912C2.6931 422.935 7.46946 432.184 14.5741 439.489C21.6787 446.794 30.7922 451.827 40.7613 453.95C50.7303 456.073 61.1068 455.192 70.5774 451.417C80.0481 447.642 88.1872 441.144 93.9647 432.744C99.7422 424.345 102.898 414.422 103.034 404.231ZM159.002 332.833C128.145 285.146 75.267 264.572 40.9944 286.748C27.8062 295.282 19.3498 308.734 15.5713 324.995C15.4105 325.744 15.4571 326.521 15.7061 327.245C15.9552 327.968 16.3972 328.61 16.9844 329.1C17.5716 329.591 18.2818 329.911 19.0382 330.028C19.7946 330.144 20.5685 330.052 21.2764 329.76C38.3727 322.797 57.3515 321.97 74.9827 327.421C92.614 332.872 107.808 344.263 117.98 359.657C128.151 375.051 132.671 393.495 130.771 411.851C128.87 430.208 120.666 447.342 107.555 460.337C107.005 460.879 106.614 461.562 106.426 462.312C106.239 463.061 106.262 463.848 106.492 464.585C106.723 465.322 107.153 465.981 107.734 466.49C108.315 466.999 109.025 467.338 109.787 467.469C140.15 472.954 178.244 457.237 205.973 424.764C231.276 395.17 241.432 359.298 235.333 331.086C232.515 318.259 215.406 315.393 208.591 326.592C204.635 333.021 200.18 339.13 195.267 344.862C192.277 348.345 189.263 351.605 186.055 354.752C184.837 355.933 183.35 356.801 181.723 357.283C180.096 357.764 178.377 357.844 176.713 357.517C175.048 357.189 173.488 356.463 172.166 355.401C170.844 354.339 169.799 352.972 169.12 351.418C166.207 344.984 162.825 338.772 159.002 332.833Z" fill="#93C5FD"/>
<path d="M724.797 349.771C709.837 349.771 698.067 345.481 689.487 336.901C681.127 328.321 676.947 316.661 676.947 301.921V139.231H722.157V300.601C722.157 303.461 723.147 305.991 725.127 308.191C727.327 310.171 729.857 311.161 732.717 311.161H769.347V349.771H724.797ZM648.237 220.081V181.471H769.347V220.081H648.237ZM869.159 349.771C850.019 349.771 833.299 346.141 818.999 338.881C804.919 331.401 793.919 321.281 785.999 308.521C778.299 295.761 774.449 281.461 774.449 265.621C774.449 247.801 778.079 232.291 785.339 219.091C792.599 205.891 802.499 195.661 815.039 188.401C827.579 181.141 841.769 177.511 857.609 177.511C876.529 177.511 891.819 181.471 903.479 189.391C915.359 197.311 924.049 207.981 929.549 221.401C935.049 234.601 937.799 249.341 937.799 265.621C937.799 267.821 937.689 270.461 937.469 273.541C937.249 276.401 936.919 278.601 936.479 280.141H822.629C824.389 286.961 827.359 292.681 831.539 297.301C835.939 301.921 841.329 305.441 847.709 307.861C854.309 310.061 861.679 311.161 869.819 311.161H916.679V349.771H869.159ZM822.299 249.781H892.589C892.149 245.601 891.379 241.751 890.279 238.231C889.179 234.491 887.639 231.191 885.659 228.331C883.679 225.471 881.369 223.051 878.729 221.071C876.089 219.091 873.009 217.551 869.489 216.451C865.969 215.351 862.119 214.801 857.939 214.801C852.439 214.801 847.489 215.791 843.089 217.771C838.909 219.751 835.389 222.391 832.529 225.691C829.669 228.991 827.359 232.731 825.599 236.911C824.059 241.091 822.959 245.381 822.299 249.781ZM1022.78 353.731C1007.38 353.731 993.961 349.771 982.521 341.851C971.081 333.931 962.171 323.371 955.791 310.171C949.631 296.751 946.551 282.011 946.551 265.951C946.551 249.451 950.071 234.491 957.111 221.071C964.371 207.651 974.711 197.091 988.131 189.391C1001.55 181.471 1017.61 177.511 1036.31 177.511C1055.23 177.511 1071.18 181.471 1084.16 189.391C1097.14 197.311 1107.04 207.981 1113.86 221.401C1120.68 234.821 1124.09 249.671 1124.09 265.951V349.771H1078.88V321.721H1078.22C1074.92 327.661 1070.74 333.051 1065.68 337.891C1060.84 342.731 1054.9 346.581 1047.86 349.441C1040.82 352.301 1032.46 353.731 1022.78 353.731ZM1035.65 315.121C1044.45 315.121 1052.04 312.921 1058.42 308.521C1064.8 304.121 1069.64 298.181 1072.94 290.701C1076.46 283.001 1078.22 274.531 1078.22 265.291C1078.22 256.051 1076.46 247.801 1072.94 240.541C1069.64 233.061 1064.8 227.121 1058.42 222.721C1052.04 218.321 1044.45 216.121 1035.65 216.121C1026.63 216.121 1018.82 218.321 1012.22 222.721C1005.84 227.121 1000.89 233.061 997.371 240.541C994.071 247.801 992.421 256.051 992.421 265.291C992.421 274.531 994.071 283.001 997.371 290.701C1000.89 298.181 1005.84 304.121 1012.22 308.521C1018.82 312.921 1026.63 315.121 1035.65 315.121ZM1153.69 349.771V249.781C1153.69 236.581 1156.88 224.481 1163.26 213.481C1169.64 202.481 1178.77 193.791 1190.65 187.411C1202.75 180.811 1217.27 177.511 1234.21 177.511C1242.35 177.511 1249.83 178.501 1256.65 180.481C1263.69 182.241 1270.18 184.881 1276.12 188.401C1282.06 191.921 1287.23 196.101 1291.63 200.941H1291.96C1296.58 196.101 1301.86 191.921 1307.8 188.401C1313.74 184.881 1320.23 182.241 1327.27 180.481C1334.31 178.501 1341.9 177.511 1350.04 177.511C1366.98 177.511 1381.39 180.811 1393.27 187.411C1405.37 193.791 1414.61 202.481 1420.99 213.481C1427.37 224.481 1430.56 236.581 1430.56 249.781V349.771H1385.35V249.781C1385.35 243.621 1383.7 238.011 1380.4 232.951C1377.32 227.891 1373.14 223.821 1367.86 220.741C1362.58 217.661 1356.64 216.121 1350.04 216.121C1343.66 216.121 1337.72 217.661 1332.22 220.741C1326.94 223.821 1322.65 227.891 1319.35 232.951C1316.27 238.011 1314.73 243.621 1314.73 249.781V349.771H1269.52V249.781C1269.52 243.621 1267.87 238.011 1264.57 232.951C1261.49 227.891 1257.31 223.821 1252.03 220.741C1246.75 217.661 1240.81 216.121 1234.21 216.121C1227.83 216.121 1221.89 217.661 1216.39 220.741C1211.11 223.821 1206.82 227.891 1203.52 232.951C1200.44 238.011 1198.9 243.621 1198.9 249.781V349.771H1153.69ZM1616.48 353.731C1599.32 353.731 1584.58 350.321 1572.26 343.501C1559.94 336.681 1550.48 327.551 1543.88 316.111C1537.5 304.671 1534.31 292.021 1534.31 278.161V181.471H1579.52V278.161C1579.52 284.981 1581.17 291.251 1584.47 296.971C1587.77 302.471 1592.17 306.871 1597.67 310.171C1603.39 313.471 1609.66 315.121 1616.48 315.121C1623.3 315.121 1629.46 313.471 1634.96 310.171C1640.68 306.871 1645.19 302.471 1648.49 296.971C1651.79 291.251 1653.44 284.981 1653.44 278.161V181.471H1698.65V278.161C1698.65 292.021 1695.35 304.671 1688.75 316.111C1682.37 327.551 1673.02 336.681 1660.7 343.501C1648.6 350.321 1633.86 353.731 1616.48 353.731ZM1815.45 177.511C1829.75 177.511 1842.4 179.821 1853.4 184.441C1864.4 188.841 1873.64 195.221 1881.12 203.581C1888.6 211.721 1894.32 221.401 1898.28 232.621C1902.24 243.621 1904.22 255.721 1904.22 268.921C1904.22 285.421 1900.81 300.051 1893.99 312.811C1887.39 325.571 1878.04 335.581 1865.94 342.841C1853.84 350.101 1839.54 353.731 1823.04 353.731C1816 353.731 1809.18 352.741 1802.58 350.761C1796.2 348.781 1790.37 345.921 1785.09 342.181C1780.03 338.441 1775.74 334.041 1772.22 328.981H1771.89V422.371H1726.68V268.921C1726.68 250.221 1730.31 234.051 1737.57 220.411C1744.83 206.771 1755.06 196.211 1768.26 188.731C1781.68 181.251 1797.41 177.511 1815.45 177.511ZM1815.45 216.121C1806.65 216.121 1798.95 218.321 1792.35 222.721C1785.97 227.121 1781.02 233.061 1777.5 240.541C1774.2 248.021 1772.55 256.381 1772.55 265.621C1772.55 274.861 1774.2 283.221 1777.5 290.701C1781.02 298.181 1785.97 304.121 1792.35 308.521C1798.95 312.921 1806.65 315.121 1815.45 315.121C1824.47 315.121 1832.17 312.921 1838.55 308.521C1844.93 304.121 1849.77 298.181 1853.07 290.701C1856.59 283.221 1858.35 274.861 1858.35 265.621C1858.35 256.381 1856.59 248.021 1853.07 240.541C1849.77 233.061 1844.93 227.121 1838.55 222.721C1832.17 218.321 1824.47 216.121 1815.45 216.121ZM1927.26 269.911V118.771H1972.47V269.911H1927.26ZM1949.7 353.731C1941.34 353.731 1934.08 350.761 1927.92 344.821C1921.98 338.661 1919.01 331.401 1919.01 323.041C1919.01 314.681 1921.98 307.531 1927.92 301.591C1934.08 295.431 1941.34 292.351 1949.7 292.351C1958.06 292.351 1965.21 295.431 1971.15 301.591C1977.31 307.531 1980.39 314.681 1980.39 323.041C1980.39 328.541 1978.96 333.711 1976.1 338.551C1973.46 343.171 1969.83 346.911 1965.21 349.771C1960.59 352.411 1955.42 353.731 1949.7 353.731Z" fill="#1E3A8A"/>
</svg>
