<svg width="2008" height="513" viewBox="0 0 2008 513" fill="none" xmlns="http://www.w3.org/2000/svg">
<path d="M327.9 130.8C317.734 130.8 307.796 127.785 299.344 122.138C290.891 116.49 284.303 108.462 280.413 99.07C276.522 89.6778 275.504 79.343 277.488 69.3724C279.471 59.4018 284.366 50.2432 291.555 43.0547C298.743 35.8663 307.902 30.9709 317.872 28.9877C327.843 27.0044 338.178 28.0223 347.57 31.9126C356.962 35.803 364.99 42.391 370.638 50.8437C376.285 59.2964 379.3 69.2341 379.3 79.4C379.3 86.15 377.971 92.8338 375.387 99.07C372.804 105.306 369.018 110.972 364.245 115.745C359.472 120.518 353.806 124.304 347.57 126.887C341.334 129.471 334.65 130.8 327.9 130.8ZM413.4 91.9C412.876 91.3216 412.197 90.9049 411.444 90.699C410.691 90.4931 409.895 90.5064 409.149 90.7375C408.403 90.9686 407.739 91.4077 407.234 92.0034C406.73 92.5991 406.405 93.3265 406.3 94.1C402.859 112.227 393.243 128.601 379.088 140.437C364.933 152.272 347.115 158.836 328.665 159.013C310.215 159.19 292.274 152.968 277.895 141.407C263.516 129.845 253.588 113.658 249.8 95.6C249.658 94.8356 249.307 94.1255 248.786 93.5488C248.264 92.9721 247.593 92.5515 246.846 92.3338C246.1 92.1161 245.308 92.1099 244.558 92.3158C243.808 92.5217 243.131 92.9316 242.6 93.5H242.5C221.4 116 213.9 156.4 226.1 197.3C237.2 234.7 261.8 262.7 288.8 272.9C301.1 277.5 312.8 264.6 307.1 252.8C303.828 245.988 301.086 238.934 298.9 231.7C297.7 227.4 296.6 223 295.7 218.7C295.371 217.036 295.449 215.318 295.929 213.691C296.409 212.065 297.276 210.578 298.455 209.36C299.634 208.141 301.091 207.226 302.701 206.693C304.311 206.16 306.027 206.025 307.7 206.3C314.687 207.314 321.739 207.816 328.8 207.8C385.6 207.8 431.6 174.7 431.6 133.8C431.6 118.3 424.9 103.8 413.4 91.9ZM93.4 251.7C83.2341 251.7 73.2964 254.715 64.8437 260.362C56.391 266.01 49.803 274.038 45.9126 283.43C42.0223 292.822 41.0044 303.157 42.9877 313.128C44.9709 323.098 49.8663 332.257 57.0547 339.445C64.2432 346.634 73.4018 351.529 83.3724 353.512C93.343 355.496 103.678 354.478 113.07 350.587C122.462 346.697 130.49 340.109 136.138 331.656C141.785 323.204 144.8 313.266 144.8 303.1C144.8 289.468 139.385 276.394 129.745 266.755C120.106 257.115 107.032 251.7 93.4 251.7ZM105.9 217.6C105.322 218.124 104.905 218.803 104.699 219.556C104.493 220.309 104.506 221.105 104.737 221.851C104.969 222.597 105.408 223.261 106.003 223.766C106.599 224.27 107.326 224.595 108.1 224.7C126.227 228.141 142.601 237.757 154.437 251.912C166.272 266.067 172.836 283.885 173.013 302.335C173.19 320.785 166.968 338.726 155.407 353.105C143.845 367.484 127.658 377.412 109.6 381.2C108.836 381.342 108.125 381.693 107.549 382.214C106.972 382.736 106.551 383.407 106.334 384.154C106.116 384.9 106.11 385.692 106.316 386.442C106.522 387.192 106.932 387.87 107.5 388.4H107.6C130.1 409.5 170.5 417 211.4 404.8C248.8 393.7 276.8 369.1 287 342.1C291.6 329.8 278.7 318.1 266.9 323.8C260.104 327.082 253.046 329.791 245.8 331.9C241.5 333.2 237.1 334.3 232.8 335.2C231.136 335.529 229.418 335.451 227.791 334.971C226.164 334.491 224.678 333.624 223.46 332.445C222.241 331.266 221.326 329.809 220.793 328.199C220.26 326.589 220.125 324.874 220.4 323.2C221.414 316.213 221.916 309.161 221.9 302.1C221.9 245.3 188.8 199.3 147.9 199.3C132.3 199.4 117.8 206.1 105.9 217.6ZM504.7 303.1C504.68 313.29 507.684 323.257 513.331 331.739C518.978 340.221 527.014 346.838 536.422 350.751C545.831 354.664 556.189 355.698 566.186 353.723C576.182 351.747 585.368 346.85 592.581 339.651C599.793 332.453 604.708 323.277 606.703 313.284C608.698 303.291 607.684 292.931 603.789 283.515C599.894 274.099 593.293 266.05 584.822 260.386C576.351 254.723 566.39 251.7 556.2 251.7C542.559 251.7 529.475 257.112 519.819 266.749C510.164 276.385 504.727 289.459 504.7 303.1ZM501.6 199.4C460.8 199.4 427.6 245.4 427.6 302.2C427.617 309.263 428.151 316.315 429.2 323.3C429.475 324.974 429.34 326.689 428.807 328.299C428.274 329.909 427.359 331.366 426.14 332.545C424.922 333.725 423.436 334.591 421.809 335.071C420.182 335.551 418.464 335.629 416.8 335.3C412.4 334.4 408.1 333.3 403.7 332C396.465 329.857 389.41 327.149 382.6 323.9C370.8 318.2 358 329.9 362.6 342.2C372.8 369.2 400.8 393.8 438.1 404.9C479 417.1 519.5 409.6 542 388.5C542.568 387.976 542.98 387.306 543.191 386.563C543.403 385.82 543.405 385.034 543.198 384.289C542.992 383.545 542.584 382.872 542.02 382.345C541.455 381.818 540.756 381.456 540 381.3C521.942 377.512 505.755 367.584 494.194 353.205C482.632 338.826 476.41 320.885 476.587 302.435C476.764 283.985 483.328 266.167 495.163 252.012C506.999 237.857 523.373 228.241 541.5 224.8C542.252 224.66 542.952 224.317 543.523 223.809C544.095 223.3 544.517 222.645 544.743 221.914C544.97 221.183 544.992 220.405 544.808 219.662C544.624 218.919 544.241 218.241 543.7 217.7C531.7 206.1 517.3 199.4 501.6 199.4ZM349.9 308.2C349.92 303.247 348.468 298.4 345.728 294.273C342.989 290.147 339.086 286.927 334.513 285.022C329.941 283.118 324.906 282.614 320.047 283.576C315.189 284.537 310.725 286.92 307.223 290.423C303.72 293.925 301.337 298.389 300.376 303.247C299.414 308.106 299.918 313.141 301.822 317.713C303.727 322.286 306.947 326.189 311.073 328.928C315.2 331.668 320.047 333.12 325 333.1C331.604 333.1 337.937 330.477 342.607 325.807C347.277 321.137 349.9 314.804 349.9 308.2Z" fill="currentColor"/>
<path d="M778.2 132.9L817 126.8L805.2 175.3H857.8L850.5 206.1H797.8L782.4 269.7C781.4 274.2 780.7 278 780.3 280.9C779.949 283.619 779.782 286.359 779.8 289.1C779.78 291.518 780.015 293.931 780.5 296.3C780.997 298.594 782.063 300.726 783.6 302.5C785.507 304.436 787.833 305.908 790.4 306.8C794.304 308.064 798.399 308.639 802.5 308.5C807.908 308.484 813.289 307.744 818.5 306.3C823.089 305.042 827.597 303.506 832 301.7L834.8 331.5C829.025 333.916 823.075 335.888 817 337.4C808.707 339.323 800.212 340.23 791.7 340.1C774.1 340.1 761.5 336.3 753.9 328.6C746.3 320.9 742.6 310.4 742.6 297.1C742.594 292.017 742.928 286.939 743.6 281.9C744.38 276.242 745.482 270.633 746.9 265.1L778.2 132.9Z" fill="currentColor" stroke="currentColor" stroke-width="2" stroke-miterlimit="10"/>
<path d="M864.3 278C864.27 264.459 866.501 251.007 870.9 238.2C875.109 225.752 881.584 214.191 890 204.1C898.222 194.193 908.401 186.09 919.9 180.3C931.6 174.3 944.7 171.3 959.3 171.3C973.9 171.3 987 175.3 995.6 183.3C1004.2 191.3 1008.5 201.6 1008.5 214.1C1008.5 226.6 1005.3 237.4 998.9 245.4C992.331 253.596 983.849 260.052 974.2 264.2C963.248 268.942 951.657 272.042 939.8 273.4C927 275 914 276.1 900.9 276.5C900.708 276.871 900.606 277.282 900.6 277.7V280.8C900.6 299.4 912.4 308.8 935.9 308.8C950.263 308.705 964.466 305.783 977.7 300.2L980.8 330.3C974.041 333.136 967.048 335.378 959.9 337C949.847 339.4 939.535 340.542 929.2 340.4C917.7 340.4 907.8 338.8 899.6 335.5C891.963 332.583 885.089 327.966 879.5 322C874.315 316.283 870.396 309.536 868 302.2C865.47 294.386 864.221 286.213 864.3 278ZM953.8 201.8C947.736 201.761 941.735 203.022 936.2 205.5C930.707 207.91 925.72 211.337 921.5 215.6C917.04 220.089 913.266 225.211 910.3 230.8C907.1 236.744 904.744 243.106 903.3 249.7C927.9 248.9 945.8 245.933 957 240.8C968.2 235.7 973.7 228 973.7 217.8C973.721 213.671 972.144 209.694 969.3 206.7C966.3 203.4 961.1 201.8 953.8 201.8Z" fill="currentColor" stroke="currentColor" stroke-width="2" stroke-miterlimit="10"/>
<path d="M1158.2 273.7C1157.37 277.359 1156.77 281.066 1156.4 284.8C1155.74 289.572 1155.41 294.383 1155.4 299.2C1155.37 305.038 1155.9 310.866 1157 316.6C1158.05 322.45 1159.7 328.179 1161.9 333.7L1128.7 338.6C1126.2 333.582 1124.22 328.321 1122.8 322.9C1117.11 327.814 1110.75 331.889 1103.9 335C1095.99 338.705 1087.33 340.552 1078.6 340.4C1068.9 340.4 1060.7 338.8 1053.8 335.7C1047.22 332.708 1041.49 328.14 1037.1 322.4C1032.65 316.485 1029.39 309.76 1027.5 302.6C1025.45 294.563 1024.44 286.295 1024.5 278C1024.35 263.672 1027.07 249.459 1032.5 236.2C1037.56 223.647 1045.11 212.251 1054.7 202.7C1064.48 193.136 1076.03 185.563 1088.7 180.4C1102.39 174.889 1117.04 172.136 1131.8 172.3C1139.88 172.274 1147.94 172.943 1155.9 174.3C1164.33 175.706 1172.54 178.228 1180.3 181.8L1158.2 273.7ZM1138 204.2C1133.65 203.358 1129.23 202.956 1124.8 203C1115.91 202.909 1107.13 204.967 1099.2 209C1091.47 212.941 1084.61 218.38 1079 225C1073.29 231.767 1068.88 239.531 1066 247.9C1062.91 256.564 1061.35 265.701 1061.4 274.9C1061.37 279.362 1061.77 283.816 1062.6 288.2C1063.31 291.986 1064.7 295.611 1066.7 298.9C1068.66 301.997 1071.38 304.544 1074.6 306.3C1078.5 308.274 1082.83 309.236 1087.2 309.1C1093.26 309.205 1099.25 307.759 1104.6 304.9C1109.83 301.971 1114.53 298.185 1118.5 293.7C1118.69 288.645 1119.16 283.604 1119.9 278.6C1120.63 273.854 1121.59 269.148 1122.8 264.5L1138 204.2Z" fill="currentColor" stroke="currentColor" stroke-width="2" stroke-miterlimit="10"/>
<path d="M1226.1 182.1C1234.3 179.6 1243.6 177.3 1253.8 175.2C1264.92 172.95 1276.25 171.878 1287.6 172C1296.9 172 1304.6 173.3 1310.8 176C1316.91 178.48 1322.35 182.349 1326.7 187.3C1333.63 183.323 1340.85 179.88 1348.3 177C1356.8 173.6 1366.5 172 1377.4 172C1386.8 172 1394.8 173.3 1401.4 176C1407.53 178.34 1413.02 182.111 1417.4 187C1421.56 191.879 1424.6 197.615 1426.3 203.8C1428.15 210.645 1429.06 217.71 1429 224.8C1428.93 233.83 1427.82 242.822 1425.7 251.6L1405.4 336.1H1368.2L1387.2 255.6C1388.3 251.7 1389.2 247.4 1390.2 242.8C1391.08 238.186 1391.52 233.498 1391.5 228.8C1391.51 225.54 1391.18 222.288 1390.5 219.1C1389.82 216.144 1388.49 213.376 1386.6 211C1384.6 208.567 1382.02 206.676 1379.1 205.5C1375.9 204 1371.9 203.3 1366.9 203.3C1361.55 203.295 1356.24 204.348 1351.3 206.4C1346.79 208.086 1342.47 210.231 1338.4 212.8C1339.22 216.949 1339.63 221.17 1339.6 225.4C1339.59 229.748 1339.28 234.091 1338.7 238.4C1338 242.9 1337.2 247.3 1336.2 251.6L1315.9 336.1H1278.7L1297.8 255.6C1298.8 251.9 1299.8 247.6 1300.7 242.8C1301.61 238.087 1302.08 233.3 1302.1 228.5C1302.23 222.262 1300.56 216.119 1297.3 210.8C1294.1 205.8 1288.1 203.3 1279.3 203.3C1275.39 203.304 1271.48 203.571 1267.6 204.1C1264.2 204.574 1260.83 205.242 1257.5 206.1L1226.7 336.1H1189.2L1226.1 182.1Z" fill="currentColor" stroke="currentColor" stroke-width="2" stroke-miterlimit="10"/>
<path d="M1685.4 175.3L1662.7 270.9C1661.7 275.7 1660.9 280.4 1660.4 285.1C1659.88 289.783 1659.62 294.489 1659.6 299.2C1659.61 305.094 1660.08 310.978 1661 316.8C1661.93 322.602 1663.54 328.274 1665.8 333.7L1632.6 338.6C1631.3 336.192 1630.2 333.684 1629.3 331.1C1628.4 328.3 1627.5 325.5 1626.7 322.6C1620.79 327.172 1614.42 331.126 1607.7 334.4C1600.1 338.2 1591.3 340.1 1581.2 340.1C1571.1 340.1 1564.5 338.8 1558.2 336.1C1552.21 333.754 1546.86 330.018 1542.6 325.2C1538.56 320.474 1535.62 314.906 1534 308.9C1532.25 302.446 1531.38 295.787 1531.4 289.1C1531.53 279.259 1532.77 269.464 1535.1 259.9L1555.4 175.3H1592.6L1572.5 259C1569.9 269.6 1568.6 278.3 1568.6 285.1C1568.58 288.19 1568.88 291.272 1569.5 294.3C1570.06 297.004 1571.19 299.559 1572.8 301.8C1574.43 304.09 1576.69 305.861 1579.3 306.9C1582.57 308.236 1586.07 308.883 1589.6 308.8C1595.92 308.903 1602.17 307.461 1607.8 304.6C1613.3 301.688 1618.3 297.906 1622.6 293.4C1623.24 284.259 1624.68 275.191 1626.9 266.3L1648.2 175.3H1685.4Z" fill="currentColor" stroke="currentColor" stroke-width="2" stroke-miterlimit="10"/>
<path d="M1853.9 233.1C1854 247.097 1851.67 261.004 1847 274.2C1842.59 286.663 1835.68 298.095 1826.7 307.8C1817.56 317.638 1806.45 325.441 1794.1 330.7C1781.3 336.4 1766.6 339.2 1750 339.2C1747.1 339.2 1744.2 339 1741.2 338.7L1732.5 337.7L1718.9 393H1681.8L1732.5 181.8C1741.64 178.541 1751.04 176.066 1760.6 174.4C1770.9 172.576 1781.34 171.639 1791.8 171.6C1802.5 171.6 1811.7 173.2 1819.6 176.4C1827.5 179.6 1834 183.9 1839 189.5C1844.1 195.115 1847.92 201.767 1850.2 209C1852.73 216.78 1853.98 224.919 1853.9 233.1ZM1739.5 307.2C1741.61 307.626 1743.75 307.894 1745.9 308H1752.7C1762.6 308 1771.4 306.2 1779.3 302.4C1787.01 298.696 1793.89 293.456 1799.5 287C1805.17 280.278 1809.51 272.541 1812.3 264.2C1815.26 255.233 1816.75 245.844 1816.7 236.4C1816.72 232.121 1816.22 227.855 1815.2 223.7C1814.26 219.817 1812.53 216.173 1810.1 213C1807.57 209.838 1804.31 207.334 1800.6 205.7C1796.6 203.8 1791.5 202.9 1785.4 202.9C1781.49 202.904 1777.58 203.171 1773.7 203.7C1770.36 204.143 1767.05 204.812 1763.8 205.7L1739.5 307.2Z" fill="currentColor" stroke="currentColor" stroke-width="2" stroke-miterlimit="10"/>
<path d="M1895.1 291.2C1901.7 291.2 1907 293.1 1911.1 296.8C1915.2 300.5 1917.2 305.9 1917.2 313.1C1917.28 316.958 1916.49 320.786 1914.9 324.3C1913.49 327.536 1911.45 330.46 1908.9 332.9C1906.5 335.253 1903.64 337.091 1900.5 338.3C1897.4 339.484 1894.12 340.094 1890.8 340.1C1884.2 340.1 1879 338.3 1875 334.7C1871 331.1 1869 325.8 1869 318.6C1869 311.4 1871.6 303.3 1877 298.5C1881.84 293.79 1888.34 291.169 1895.1 291.2ZM1944.9 179.6C1943.3 186.4 1941.4 193.6 1939.2 201.3C1937 209 1934.8 216.8 1932.3 224.8C1929.8 232.8 1927.3 240.6 1924.6 248.2C1921.9 255.8 1919.4 262.8 1916.9 269.1H1890.8C1892.4 254.8 1894.3 240.5 1896.3 226.2C1898.3 211.9 1901.5 196.4 1905.6 179.6L1919.1 123.1H1958.4L1944.9 179.6Z" fill="currentColor" stroke="currentColor" stroke-width="2" stroke-miterlimit="10"/>
</svg>
